<?xml version="1.0" encoding="UTF-8" standalone="no"?>
<svg
   fill="none"
   height="32"
   viewBox="0 0 32 32"
   width="32"
   version="1.1"
   id="svg8"
   sodipodi:docname="face-volume.svg"
   inkscape:version="1.1.1 (3bf5ae0d25, 2021-09-20)"
   xmlns:inkscape="http://www.inkscape.org/namespaces/inkscape"
   xmlns:sodipodi="http://sodipodi.sourceforge.net/DTD/sodipodi-0.dtd"
   xmlns="http://www.w3.org/2000/svg"
   xmlns:svg="http://www.w3.org/2000/svg">
  <defs
     id="defs12" />
  <sodipodi:namedview
     id="namedview10"
     pagecolor="#ffffff"
     bordercolor="#666666"
     borderopacity="1.0"
     inkscape:pageshadow="2"
     inkscape:pageopacity="0.0"
     inkscape:pagecheckerboard="0"
     showgrid="false"
     inkscape:zoom="27.28125"
     inkscape:cx="15.981672"
     inkscape:cy="15.981672"
     inkscape:window-width="3840"
     inkscape:window-height="2080"
     inkscape:window-x="2293"
     inkscape:window-y="35"
     inkscape:window-maximized="1"
     inkscape:current-layer="svg8" />
  <g
     id="g832"
     transform="matrix(1.3913043,0,0,1.3913043,-1.3913038,-0.6956516)">
    <path
       d="m 24,12 c 0,4.4183 -3.5817,8 -8,8 v -2 c 3.3137,0 6,-2.6863 6,-6 C 22,8.68629 19.3137,6 16,6 V 4 c 4.4183,0 8,3.58172 8,8 z"
       fill="#180027"
       id="path2" />
    <path
       d="m 20,12 c 0,2.2091 -1.7909,4 -4,4 v -2 c 1.1046,0 2,-0.8954 2,-2 0,-1.1046 -0.8954,-2 -2,-2 V 8 c 2.2091,0 4,1.79086 4,4 z"
       fill="#180027"
       id="path4" />
    <path
       clip-rule="evenodd"
       d="m 9,16 6,4 V 4 L 9,8 H 5 c -2.20914,0 -4,1.79086 -4,4 0,2.2091 1.79086,4 4,4 z M 5,10 h 4 l 4,-2.5 v 9 L 9,14 H 5 C 3.89543,14 3,13.1046 3,12 3,10.8954 3.89543,10 5,10 Z"
       fill="#180027"
       fill-rule="evenodd"
       id="path6" />
  </g>
</svg>
