<?xml version="1.0" encoding="UTF-8" standalone="no"?>
<svg
   fill="none"
   height="32"
   viewBox="0 0 32 32"
   width="32"
   version="1.1"
   id="svg4"
   sodipodi:docname="face-plus.svg"
   inkscape:export-filename="face-plus.png"
   inkscape:export-xdpi="144"
   inkscape:export-ydpi="144"
   inkscape:version="1.1.1 (3bf5ae0d25, 2021-09-20)"
   xmlns:inkscape="http://www.inkscape.org/namespaces/inkscape"
   xmlns:sodipodi="http://sodipodi.sourceforge.net/DTD/sodipodi-0.dtd"
   xmlns="http://www.w3.org/2000/svg"
   xmlns:svg="http://www.w3.org/2000/svg">
  <defs
     id="defs8" />
  <sodipodi:namedview
     id="namedview6"
     pagecolor="#ffffff"
     bordercolor="#666666"
     borderopacity="1.0"
     inkscape:pageshadow="2"
     inkscape:pageopacity="0.0"
     inkscape:pagecheckerboard="0"
     showgrid="false"
     inkscape:zoom="25.75"
     inkscape:cx="15.980583"
     inkscape:cy="15.980583"
     inkscape:window-width="1920"
     inkscape:window-height="1013"
     inkscape:window-x="-9"
     inkscape:window-y="29"
     inkscape:window-maximized="1"
     inkscape:current-layer="svg4" />
  <path
     clip-rule="evenodd"
     d="m 16,0 c 0.981867,0 1.777778,0.7959462 1.777778,1.7777768 V 14.222232 h 12.444444 c 0.981867,0 1.777778,0.795911 1.777778,1.777777 0,0.981866 -0.795911,1.777777 -1.777778,1.777777 H 17.777778 V 30.222223 C 17.777778,31.204089 16.981867,32 16,32 15.018133,32 14.222222,31.204089 14.222222,30.222223 V 17.777786 H 1.7777778 C 0.7959467,17.777786 0,16.981875 0,16.000009 0,15.018143 0.7959467,14.222232 1.7777778,14.222232 H 14.222222 V 1.7777768 C 14.222222,0.7959462 15.018133,0 16,0 Z"
     fill="#180027"
     fill-rule="evenodd"
     id="path2"
     style="stroke-width:1.77777" />
</svg>
