<?xml version="1.0" encoding="UTF-8" standalone="no"?>
<svg
   fill="none"
   height="32"
   viewBox="0 0 32 32"
   width="32"
   version="1.1"
   id="svg4"
   sodipodi:docname="face-movie.svg"
   inkscape:export-filename="face-movie.png"
   inkscape:export-xdpi="144"
   inkscape:export-ydpi="144"
   inkscape:version="1.1.1 (3bf5ae0d25, 2021-09-20)"
   xmlns:inkscape="http://www.inkscape.org/namespaces/inkscape"
   xmlns:sodipodi="http://sodipodi.sourceforge.net/DTD/sodipodi-0.dtd"
   xmlns="http://www.w3.org/2000/svg"
   xmlns:svg="http://www.w3.org/2000/svg">
  <defs
     id="defs8" />
  <sodipodi:namedview
     id="namedview6"
     pagecolor="#ffffff"
     bordercolor="#666666"
     borderopacity="1.0"
     inkscape:pageshadow="2"
     inkscape:pageopacity="0.0"
     inkscape:pagecheckerboard="0"
     showgrid="false"
     inkscape:zoom="25.75"
     inkscape:cx="15.980583"
     inkscape:cy="22.194175"
     inkscape:window-width="1920"
     inkscape:window-height="1013"
     inkscape:window-x="-9"
     inkscape:window-y="29"
     inkscape:window-maximized="1"
     inkscape:current-layer="svg4" />
  <path
     clip-rule="evenodd"
     d="m 5.3333333,3.5555556 c -0.9818311,0 -1.7777777,0.7959466 -1.7777777,1.7777777 V 7.111111 H 7.111111 V 3.5555556 Z m 5.3333337,0 V 7.111111 h 3.555555 V 3.5555556 Z m 7.111111,0 V 7.111111 h 3.555555 V 3.5555556 Z m 7.111111,0 V 7.111111 h 3.555555 V 5.3333333 c 0,-0.9818311 -0.795911,-1.7777777 -1.777777,-1.7777777 z M 32,5.3333333 C 32,2.3878222 29.612267,0 26.666667,0 H 5.3333333 C 2.3878222,0 0,2.3878222 0,5.3333333 V 26.666667 C 0,29.612267 2.3878222,32 5.3333333,32 H 26.666667 C 29.612267,32 32,29.612267 32,26.666667 Z M 28.444444,10.666667 H 3.5555556 V 21.333333 H 28.444444 Z m 0,14.222222 h -3.555555 v 3.555555 h 1.777778 c 0.981866,0 1.777777,-0.795911 1.777777,-1.777777 z m -7.111111,3.555555 v -3.555555 h -3.555555 v 3.555555 z m -7.111111,0 v -3.555555 h -3.555555 v 3.555555 z m -7.111111,0 V 24.888889 H 3.5555556 v 1.777778 c 0,0.981866 0.7959466,1.777777 1.7777777,1.777777 z"
     fill="#180027"
     fill-rule="evenodd"
     id="path2"
     style="stroke-width:1.77778" />
</svg>
