<?xml version="1.0" encoding="UTF-8" standalone="no"?>
<svg
   fill="none"
   height="32"
   viewBox="0 0 32 32"
   width="32"
   version="1.1"
   id="svg4"
   sodipodi:docname="face-enter.svg"
   inkscape:export-filename="face-enter.png"
   inkscape:export-xdpi="144"
   inkscape:export-ydpi="144"
   inkscape:version="1.1.1 (3bf5ae0d25, 2021-09-20)"
   xmlns:inkscape="http://www.inkscape.org/namespaces/inkscape"
   xmlns:sodipodi="http://sodipodi.sourceforge.net/DTD/sodipodi-0.dtd"
   xmlns="http://www.w3.org/2000/svg"
   xmlns:svg="http://www.w3.org/2000/svg">
  <defs
     id="defs8" />
  <sodipodi:namedview
     id="namedview6"
     pagecolor="#ffffff"
     bordercolor="#666666"
     borderopacity="1.0"
     inkscape:pageshadow="2"
     inkscape:pageopacity="0.0"
     inkscape:pagecheckerboard="0"
     showgrid="false"
     inkscape:zoom="25.75"
     inkscape:cx="15.980583"
     inkscape:cy="15.980583"
     inkscape:window-width="1920"
     inkscape:window-height="1013"
     inkscape:window-x="-9"
     inkscape:window-y="29"
     inkscape:window-maximized="1"
     inkscape:current-layer="svg4" />
  <path
     clip-rule="evenodd"
     d="m 12.8,0 h 12.8 c 2.65104,0 4.8,2.149024 4.8,4.8 v 22.4 c 0,2.65104 -2.14896,4.8 -4.8,4.8 H 12.8 c -0.883648,0 -1.6,-0.71632 -1.6,-1.6 0,-0.88368 0.716352,-1.6 1.6,-1.6 h 12.8 c 0.88368,0 1.6,-0.71632 1.6,-1.6 V 4.8 C 27.2,3.916336 26.48368,3.2 25.6,3.2 H 12.8 C 11.916336,3.2 11.2,2.483664 11.2,1.6 11.2,0.716352 11.916336,0 12.8,0 Z m 0.46864,8.468624 c 0.6248,-0.624832 1.63792,-0.624832 2.26272,0 l 6.4,6.400016 c 0.3,0.3 0.46864,0.70704 0.46864,1.13136 0,0.42432 -0.16864,0.83136 -0.46864,1.13136 l -6.4,6.4 c -0.6248,0.6248 -1.63792,0.6248 -2.26272,0 -0.624848,-0.6248 -0.624848,-1.63792 0,-2.26272 L 16.93728,17.6 H 3.2 c -0.883648,0 -1.6,-0.71632 -1.6,-1.6 0,-0.88368 0.716352,-1.6 1.6,-1.6 h 13.73728 l -3.66864,-3.668624 c -0.624848,-0.624848 -0.624848,-1.637904 0,-2.262752 z"
     fill="#180027"
     fill-rule="evenodd"
     id="path2"
     style="stroke-width:1.6" />
</svg>
