<?xml version="1.0" encoding="UTF-8" standalone="no"?>
<svg
   fill="none"
   height="32"
   viewBox="0 0 32 32"
   width="32"
   version="1.1"
   id="svg8"
   sodipodi:docname="face-stopwatch.svg"
   inkscape:version="1.1.1 (3bf5ae0d25, 2021-09-20)"
   xmlns:inkscape="http://www.inkscape.org/namespaces/inkscape"
   xmlns:sodipodi="http://sodipodi.sourceforge.net/DTD/sodipodi-0.dtd"
   xmlns="http://www.w3.org/2000/svg"
   xmlns:svg="http://www.w3.org/2000/svg">
  <defs
     id="defs12" />
  <sodipodi:namedview
     id="namedview10"
     pagecolor="#ffffff"
     bordercolor="#666666"
     borderopacity="1.0"
     inkscape:pageshadow="2"
     inkscape:pageopacity="0.0"
     inkscape:pagecheckerboard="0"
     showgrid="false"
     inkscape:zoom="27.28125"
     inkscape:cx="15.981672"
     inkscape:cy="15.981672"
     inkscape:window-width="3840"
     inkscape:window-height="2080"
     inkscape:window-x="2293"
     inkscape:window-y="35"
     inkscape:window-maximized="1"
     inkscape:current-layer="svg8" />
  <g
     id="g832"
     transform="matrix(1.6931656,0,0,1.6931656,-4.3180634,-4.3180634)">
    <path
       d="M 18.6214,2.55029 21.4498,5.37872 20.0356,6.79293 17.2071,3.96451 Z"
       fill="#180027"
       id="path2" />
    <path
       d="m 12.8225,8.60055 h -2 v 3.99995 h 2 z"
       fill="#180027"
       id="path4" />
    <path
       clip-rule="evenodd"
       d="m 5.18633,18.8137 c 3.51472,3.5148 9.21317,3.5148 12.72797,0 3.5147,-3.5147 3.5147,-9.21315 0,-12.72787 -3.5148,-3.51472 -9.21325,-3.51472 -12.72797,0 -3.51472,3.51471 -3.51472,9.21317 0,12.72787 z m 1.41421,-1.4142 c 2.73368,2.7337 7.16586,2.7337 9.89946,0 2.7337,-2.7336 2.7337,-7.1658 0,-9.89946 -2.7336,-2.73367 -7.16578,-2.73367 -9.89946,0 -2.73366,2.73366 -2.73366,7.16586 0,9.89946 z"
       fill="#180027"
       fill-rule="evenodd"
       id="path6" />
  </g>
</svg>
