<?xml version="1.0" encoding="UTF-8" standalone="no"?>
<svg
   fill="none"
   height="32"
   viewBox="0 0 32 32"
   width="32"
   version="1.1"
   id="svg6"
   sodipodi:docname="face-tag.svg"
   inkscape:version="1.1.1 (3bf5ae0d25, 2021-09-20)"
   xmlns:inkscape="http://www.inkscape.org/namespaces/inkscape"
   xmlns:sodipodi="http://sodipodi.sourceforge.net/DTD/sodipodi-0.dtd"
   xmlns="http://www.w3.org/2000/svg"
   xmlns:svg="http://www.w3.org/2000/svg">
  <defs
     id="defs10" />
  <sodipodi:namedview
     id="namedview8"
     pagecolor="#ffffff"
     bordercolor="#666666"
     borderopacity="1.0"
     inkscape:pageshadow="2"
     inkscape:pageopacity="0.0"
     inkscape:pagecheckerboard="0"
     showgrid="false"
     inkscape:zoom="27.28125"
     inkscape:cx="15.981672"
     inkscape:cy="15.981672"
     inkscape:window-width="3840"
     inkscape:window-height="2080"
     inkscape:window-x="2293"
     inkscape:window-y="35"
     inkscape:window-maximized="1"
     inkscape:current-layer="svg6" />
  <g
     id="g829"
     transform="matrix(1.3883616,0,0,1.3883616,2.86e-7,-0.6603392)">
    <path
       clip-rule="evenodd"
       d="m 2,8 v 8 c 0,0.5523 0.44772,1 1,1 h 13.6202 c 0.2919,0 0.5693,-0.1276 0.7593,-0.3492 l 3.4285,-4 c 0.321,-0.3745 0.321,-0.9271 0,-1.3016 L 17.3795,7.34921 C 17.1895,7.12756 16.9121,7 16.6202,7 H 3 C 2.44772,7 2,7.44772 2,8 Z M 0,8 v 8 c 0,1.6569 1.34315,3 3,3 h 13.6202 c 0.8758,0 1.7078,-0.3827 2.2778,-1.0476 l 3.4285,-4 c 0.963,-1.1235 0.963,-2.7813 0,-3.9048 L 18.898,6.04763 C 18.328,5.38269 17.496,5 16.6202,5 H 3 C 1.34315,5 0,6.34315 0,8 Z"
       fill="#180027"
       fill-rule="evenodd"
       id="path2" />
    <path
       clip-rule="evenodd"
       d="m 15,13 c 0.5523,0 1,-0.4477 1,-1 0,-0.5523 -0.4477,-1 -1,-1 -0.5523,0 -1,0.4477 -1,1 0,0.5523 0.4477,1 1,1 z m 0,2 c 1.6569,0 3,-1.3431 3,-3 0,-1.6569 -1.3431,-3 -3,-3 -1.6569,0 -3,1.3431 -3,3 0,1.6569 1.3431,3 3,3 z"
       fill="#180027"
       fill-rule="evenodd"
       id="path4" />
  </g>
</svg>
