<?xml version="1.0" encoding="UTF-8" standalone="no"?>
<svg
   fill="none"
   height="32"
   viewBox="0 0 32 32"
   width="32"
   version="1.1"
   id="svg4"
   sodipodi:docname="face-business.svg"
   inkscape:export-filename="face-business.png"
   inkscape:export-xdpi="192"
   inkscape:export-ydpi="192"
   inkscape:version="1.1.1 (3bf5ae0d25, 2021-09-20)"
   xmlns:inkscape="http://www.inkscape.org/namespaces/inkscape"
   xmlns:sodipodi="http://sodipodi.sourceforge.net/DTD/sodipodi-0.dtd"
   xmlns="http://www.w3.org/2000/svg"
   xmlns:svg="http://www.w3.org/2000/svg">
  <defs
     id="defs8">
    <style
       id="style922">.cls-1{fill:none;stroke:#000;stroke-linejoin:round;stroke-width:2px;}</style>
  </defs>
  <sodipodi:namedview
     id="namedview6"
     pagecolor="#ffffff"
     bordercolor="#666666"
     borderopacity="1.0"
     inkscape:pageshadow="2"
     inkscape:pageopacity="0.0"
     inkscape:pagecheckerboard="0"
     showgrid="false"
     inkscape:zoom="25.75"
     inkscape:cx="16"
     inkscape:cy="15.980583"
     inkscape:window-width="1664"
     inkscape:window-height="1111"
     inkscape:window-x="4324"
     inkscape:window-y="417"
     inkscape:window-maximized="0"
     inkscape:current-layer="svg4" />
  <path
     id="path842"
     style="color:#000000;fill:#180027;stroke-width:0.969697;stroke-linejoin:round;-inkscape-stroke:none"
     d="M 7.2734375 0 A 0.48489698 0.48489698 0 0 0 6.7871094 0.484375 L 6.7871094 2.4238281 A 0.48489698 0.48489698 0 0 0 7.2734375 2.9082031 L 8.7265625 2.9082031 L 8.7265625 5.8183594 L 1.4550781 5.8183594 C 0.65755501 5.8184391 7.9806393e-05 6.4759144 0 7.2734375 L 0 15.03125 C 8.0546468e-05 15.828773 0.65755552 16.484295 1.4550781 16.484375 L 1.9394531 16.484375 L 1.9394531 30.544922 C 1.9395328 31.342445 2.597008 31.99992 3.3945312 32 L 28.605469 32 C 29.402992 31.99992 30.060467 31.342445 30.060547 30.544922 L 30.060547 16.484375 L 30.544922 16.484375 C 31.342445 16.484295 31.999919 15.828773 32 15.03125 L 32 7.2734375 C 31.99992 6.4759144 31.342445 5.8184391 30.544922 5.8183594 L 23.273438 5.8183594 L 23.273438 2.9082031 L 24.726562 2.9082031 A 0.48489698 0.48489698 0 0 0 25.212891 2.4238281 L 25.212891 0.484375 A 0.48489698 0.48489698 0 0 0 24.726562 0 L 7.2734375 0 z M 11.636719 2.9082031 L 20.363281 2.9082031 L 20.363281 5.8183594 L 11.636719 5.8183594 L 11.636719 2.9082031 z M 2.9082031 8.7265625 L 29.091797 8.7265625 L 29.091797 13.576172 L 21.333984 13.576172 L 21.333984 13.091797 C 21.333905 12.294273 20.67643 11.636798 19.878906 11.636719 L 12.121094 11.636719 C 11.32357 11.636798 10.666095 12.294273 10.666016 13.091797 L 10.666016 13.576172 L 2.9082031 13.576172 L 2.9082031 8.7265625 z M 13.576172 14.544922 L 18.423828 14.544922 L 18.423828 15.515625 L 13.576172 15.515625 L 13.576172 14.544922 z M 4.8476562 16.484375 L 10.666016 16.484375 L 10.666016 16.96875 A 0.48489698 0.48489698 0 0 0 10.666016 16.970703 C 10.666095 17.768226 11.323571 18.423748 12.121094 18.423828 L 19.878906 18.423828 C 20.676429 18.423748 21.333905 17.768226 21.333984 16.970703 A 0.48489698 0.48489698 0 0 0 21.333984 16.96875 L 21.333984 16.484375 L 27.152344 16.484375 L 27.152344 29.091797 L 4.8476562 29.091797 L 4.8476562 16.484375 z " />
</svg>
