<?xml version="1.0" encoding="UTF-8" standalone="no"?>
<svg
   fill="none"
   height="32"
   viewBox="0 0 32 32"
   width="32"
   version="1.1"
   id="svg6"
   sodipodi:docname="face-unlink.svg"
   inkscape:export-filename="face-unlink.png"
   inkscape:export-xdpi="144"
   inkscape:export-ydpi="144"
   inkscape:version="1.1.1 (3bf5ae0d25, 2021-09-20)"
   xmlns:inkscape="http://www.inkscape.org/namespaces/inkscape"
   xmlns:sodipodi="http://sodipodi.sourceforge.net/DTD/sodipodi-0.dtd"
   xmlns="http://www.w3.org/2000/svg"
   xmlns:svg="http://www.w3.org/2000/svg">
  <defs
     id="defs10" />
  <sodipodi:namedview
     id="namedview8"
     pagecolor="#ffffff"
     bordercolor="#666666"
     borderopacity="1.0"
     inkscape:pageshadow="2"
     inkscape:pageopacity="0.0"
     inkscape:pagecheckerboard="0"
     showgrid="false"
     inkscape:zoom="25.75"
     inkscape:cx="15.980583"
     inkscape:cy="15.980583"
     inkscape:window-width="1920"
     inkscape:window-height="1013"
     inkscape:window-x="-9"
     inkscape:window-y="29"
     inkscape:window-maximized="1"
     inkscape:current-layer="svg6" />
  <g
     id="g829"
     transform="matrix(1.7777778,0,0,1.7777778,-5.3333336,-5.2954447)">
    <path
       clip-rule="evenodd"
       d="m 18.4142,5.62843 c -0.781,-0.78105 -2.0474,-0.78105 -2.8284,0 l -2.8284,2.82842 c -0.3906,0.39053 -1.0237,0.39053 -1.4143,0 -0.3905,-0.39052 -0.3905,-1.02369 0,-1.41421 l 2.8285,-2.82843 c 1.5621,-1.5621 4.0947,-1.5621 5.6568,0 1.5621,1.5621 1.5621,4.09476 0,5.65686 L 17,12.6995 c -0.3905,0.3905 -1.0237,0.3905 -1.4142,0 -0.3905,-0.3905 -0.3905,-1.0237 0,-1.4142 l 2.8284,-2.82845 c 0.7811,-0.78105 0.7811,-2.04738 0,-2.82842 z M 8.41421,11.3005 c 0.39053,0.3905 0.39053,1.0237 0,1.4142 l -2.82842,2.8284 c -0.78105,0.7811 -0.78105,2.0474 0,2.8285 0.78105,0.781 2.04738,0.781 2.82842,0 l 2.82839,-2.8285 c 0.3906,-0.3905 1.0237,-0.3905 1.4143,0 0.3905,0.3906 0.3905,1.0237 0,1.4143 l -2.82847,2.8284 c -1.5621,1.5621 -4.09476,1.5621 -5.65686,0 -1.56209,-1.5621 -1.56209,-4.0948 0,-5.6569 L 7,11.3005 c 0.39052,-0.3905 1.02369,-0.3905 1.41421,0 z"
       fill="#180027"
       fill-rule="evenodd"
       id="path2" />
    <path
       clip-rule="evenodd"
       d="m 9,3 c 0.55229,0 1,0.44772 1,1 V 5 C 10,5.55228 9.55228,6 9,6 8.44771,6 8,5.55228 8,5 V 4 C 8,3.44771 8.44772,3 9,3 Z M 4.29289,4.2929 C 4.68341,3.90237 5.31658,3.90237 5.7071,4.29289 l 1.00001,1 c 0.39053,0.39052 0.39053,1.02369 10e-6,1.41421 -0.39052,0.39053 -1.02368,0.39053 -1.41421,1e-5 l -1.00001,-1 C 3.90237,5.31659 3.90237,4.68342 4.29289,4.2929 Z M 3,9 C 3,8.44771 3.44772,8 4,8 h 0.99999 c 0.55228,0 1,0.44772 1,1 0,0.55229 -0.44772,1 -1.00001,1 H 4 C 3.44771,10 3,9.55228 3,9 Z m 15,5 c 0,-0.5523 0.4477,-1 1,-1 h 1 c 0.5523,0 1,0.4477 1,1 0,0.5523 -0.4477,1 -1,1 h -1 c -0.5523,0 -1,-0.4477 -1,-1 z m -0.7071,2.2929 c 0.3905,-0.3905 1.0237,-0.3905 1.4142,0 l 1,1 c 0.3905,0.3905 0.3905,1.0237 0,1.4142 -0.3905,0.3905 -1.0237,0.3905 -1.4142,0 l -1,-1 c -0.3905,-0.3905 -0.3905,-1.0237 0,-1.4142 z M 15,17 c 0.5523,0 1,0.4477 1,1 v 1 c 0,0.5523 -0.4477,1 -1,1 -0.5523,0 -1,-0.4477 -1,-1 v -1 c 0,-0.5523 0.4477,-1 1,-1 z"
       fill="#180027"
       fill-rule="evenodd"
       id="path4" />
  </g>
</svg>
