<?xml version="1.0" encoding="UTF-8" standalone="no"?>
<svg
   fill="none"
   height="32"
   viewBox="0 0 32 32"
   width="32"
   version="1.1"
   id="svg6"
   sodipodi:docname="face-bottom-toolbar.svg"
   inkscape:version="1.1.1 (3bf5ae0d25, 2021-09-20)"
   xmlns:inkscape="http://www.inkscape.org/namespaces/inkscape"
   xmlns:sodipodi="http://sodipodi.sourceforge.net/DTD/sodipodi-0.dtd"
   xmlns="http://www.w3.org/2000/svg"
   xmlns:svg="http://www.w3.org/2000/svg">
  <defs
     id="defs10" />
  <sodipodi:namedview
     id="namedview8"
     pagecolor="#ffffff"
     bordercolor="#666666"
     borderopacity="1.0"
     inkscape:pageshadow="2"
     inkscape:pageopacity="0.0"
     inkscape:pagecheckerboard="0"
     showgrid="false"
     inkscape:zoom="27.28125"
     inkscape:cx="15.981672"
     inkscape:cy="15.981672"
     inkscape:window-width="3840"
     inkscape:window-height="2080"
     inkscape:window-x="2293"
     inkscape:window-y="35"
     inkscape:window-maximized="1"
     inkscape:current-layer="svg6" />
  <g
     id="g829"
     transform="matrix(1.6,0,0,1.6,-3.2,-3.2)">
    <path
       d="M 18,13 H 6 v 2 h 12 z"
       fill="#180027"
       id="path2" />
    <path
       clip-rule="evenodd"
       d="M 2,8 C 2,6.34315 3.34315,5 5,5 h 14 c 1.6569,0 3,1.34315 3,3 v 8 c 0,1.6569 -1.3431,3 -3,3 H 5 C 3.34315,19 2,17.6569 2,16 Z M 5,7 h 14 c 0.5523,0 1,0.44771 1,1 v 8 c 0,0.5523 -0.4477,1 -1,1 H 5 C 4.44772,17 4,16.5523 4,16 V 8 C 4,7.44772 4.44772,7 5,7 Z"
       fill="#180027"
       fill-rule="evenodd"
       id="path4" />
  </g>
</svg>
