<?xml version="1.0" encoding="UTF-8" standalone="no"?>
<svg
   fill="none"
   height="32"
   viewBox="0 0 32 32"
   width="32"
   version="1.1"
   id="svg4"
   sodipodi:docname="face-bell.svg"
   inkscape:export-filename="C:\Code\qinpel-app\design\face-bell.png"
   inkscape:export-xdpi="144"
   inkscape:export-ydpi="144"
   inkscape:version="1.1.1 (3bf5ae0d25, 2021-09-20)"
   xmlns:inkscape="http://www.inkscape.org/namespaces/inkscape"
   xmlns:sodipodi="http://sodipodi.sourceforge.net/DTD/sodipodi-0.dtd"
   xmlns="http://www.w3.org/2000/svg"
   xmlns:svg="http://www.w3.org/2000/svg">
  <defs
     id="defs8" />
  <sodipodi:namedview
     id="namedview6"
     pagecolor="#ffffff"
     bordercolor="#666666"
     borderopacity="1.0"
     inkscape:pageshadow="2"
     inkscape:pageopacity="0.0"
     inkscape:pagecheckerboard="0"
     showgrid="false"
     inkscape:zoom="25.75"
     inkscape:cx="15.980583"
     inkscape:cy="15.980583"
     inkscape:window-width="1920"
     inkscape:window-height="1013"
     inkscape:window-x="-9"
     inkscape:window-y="29"
     inkscape:window-maximized="1"
     inkscape:current-layer="svg4" />
  <path
     clip-rule="evenodd"
     d="M 7.6935592,3.371024 C 9.2049031,1.506032 11.791879,0 15.999991,0 c 4.20816,0 6.79504,1.506032 8.3064,3.371024 1.45168,1.79144 1.74656,3.711552 1.80816,4.330192 0.0053,0.05208 0.0086,0.089584 0.01152,0.119808 0.0045,0.048544 0.0074,0.07824 0.01248,0.119232 l 1.3208,10.400384 c 0.02752,0.21696 0.0992,0.42592 0.21072,0.61408 l 2.5064,4.2296 c 0.29312,0.49456 0.29824,1.10832 0.01376,1.60784 -0.28464,0.49936 -0.81536,0.80784 -1.39024,0.80784 h -4.96 c -0.74128,3.65152 -3.9696,6.4 -7.84,6.4 -3.870336,0 -7.0987359,-2.74848 -7.8399678,-6.4 h -4.960032 c -0.574864,0 -1.105552,-0.30848 -1.39016,-0.80784 -0.284608,-0.49952 -0.279376,-1.11328 0.013696,-1.60784 l 2.5064,-4.2296 c 0.111488,-0.18816 0.183232,-0.39712 0.210784,-0.61408 L 5.8613992,7.940256 c 0.0052,-0.040992 0.00797,-0.070704 0.012496,-0.119264 0.00282,-0.030208 0.00632,-0.067712 0.011504,-0.119776 0.061632,-0.61864 0.356448,-2.538752 1.80816,-4.330192 z M 11.473127,25.6 c 0.658928,1.86432 2.436944,3.2 4.526864,3.2 2.08992,0 3.868,-1.33568 4.52688,-3.2 z m -5.4651518,-3.2 1.07488,-1.81392 c 0.334496,-0.56448 0.549712,-1.19136 0.632368,-1.8424 L 9.0359111,8.343376 c 0.01216,-0.09587 0.02266,-0.207712 0.02922,-0.277616 0.0018,-0.01942 0.0033,-0.0356 0.0045,-0.0473 0.03176,-0.3188 0.215328,-1.528592 1.1100799,-2.632736 C 11.014855,4.355168 12.642423,3.2 15.999991,3.2 c 3.3576,0 4.98512,1.155168 5.82032,2.185728 0.89472,1.104144 1.07824,2.313936 1.11008,2.632736 0.0011,0.0117 0.0027,0.02787 0.0045,0.04728 0.0066,0.0699 0.01696,0.18176 0.02928,0.277632 l 1.32062,10.400304 c 0.08256,0.65104 0.29792,1.27792 0.63232,1.8424 L 25.991991,22.4 Z"
     fill="#180027"
     fill-rule="evenodd"
     id="path2"
     style="stroke-width:1.6" />
</svg>
