<?xml version="1.0" encoding="UTF-8" standalone="no"?>
<svg
   fill="none"
   height="32"
   viewBox="0 0 32 32"
   width="32"
   version="1.1"
   id="svg4"
   sodipodi:docname="face-upload.svg"
   inkscape:export-filename="face-upload.png"
   inkscape:export-xdpi="144"
   inkscape:export-ydpi="144"
   inkscape:version="1.1.1 (3bf5ae0d25, 2021-09-20)"
   xmlns:inkscape="http://www.inkscape.org/namespaces/inkscape"
   xmlns:sodipodi="http://sodipodi.sourceforge.net/DTD/sodipodi-0.dtd"
   xmlns="http://www.w3.org/2000/svg"
   xmlns:svg="http://www.w3.org/2000/svg">
  <defs
     id="defs8" />
  <sodipodi:namedview
     id="namedview6"
     pagecolor="#ffffff"
     bordercolor="#666666"
     borderopacity="1.0"
     inkscape:pageshadow="2"
     inkscape:pageopacity="0.0"
     inkscape:pagecheckerboard="0"
     showgrid="false"
     inkscape:zoom="25.75"
     inkscape:cx="15.980583"
     inkscape:cy="15.980583"
     inkscape:window-width="1920"
     inkscape:window-height="1013"
     inkscape:window-x="-9"
     inkscape:window-y="29"
     inkscape:window-maximized="1"
     inkscape:current-layer="svg4" />
  <path
     clip-rule="evenodd"
     d="m 14.742933,0.52069329 c 0.694223,-0.6942577 1.819911,-0.6942577 2.514134,0 L 24.368178,7.631804 c 0.694222,0.694276 0.694222,1.819894 0,2.514169 -0.694222,0.694258 -1.819911,0.694258 -2.514134,0 L 17.777778,6.0697067 V 21.333333 c 0,0.981867 -0.795911,1.777778 -1.777778,1.777778 -0.981867,0 -1.777778,-0.795911 -1.777778,-1.777778 V 6.0697067 l -4.076249,4.0762663 c -0.694275,0.694258 -1.819893,0.694258 -2.514169,0 -0.6942573,-0.694275 -0.6942573,-1.819893 0,-2.514169 z M 1.7777778,10.666667 c 0.9818311,0 1.7777778,0.795946 1.7777778,1.777777 v 14.222223 c 0,0.981866 0.7959466,1.777777 1.7777777,1.777777 H 26.666667 c 0.981866,0 1.777777,-0.795911 1.777777,-1.777777 V 12.444444 c 0,-0.981831 0.795912,-1.777777 1.777778,-1.777777 0.981867,0 1.777778,0.795946 1.777778,1.777777 V 26.666667 C 32,29.612267 29.612267,32 26.666667,32 H 5.3333333 C 2.3878222,32 0,29.612267 0,26.666667 V 12.444444 c 0,-0.981831 0.7959467,-1.777777 1.7777778,-1.777777 z"
     fill="#180027"
     fill-rule="evenodd"
     id="path2"
     style="stroke-width:1.77778" />
</svg>
