<?xml version="1.0" encoding="UTF-8" standalone="no"?>
<svg
   fill="none"
   height="32"
   viewBox="0 0 32 32"
   width="32"
   version="1.1"
   id="svg4"
   sodipodi:docname="face-people-subgroup.svg"
   inkscape:version="1.1.1 (3bf5ae0d25, 2021-09-20)"
   inkscape:export-filename="face-people-subgroup.png"
   inkscape:export-xdpi="192"
   inkscape:export-ydpi="192"
   xmlns:inkscape="http://www.inkscape.org/namespaces/inkscape"
   xmlns:sodipodi="http://sodipodi.sourceforge.net/DTD/sodipodi-0.dtd"
   xmlns="http://www.w3.org/2000/svg"
   xmlns:svg="http://www.w3.org/2000/svg">
  <defs
     id="defs8">
    <style
       id="style1312">.cls-1{fill:#101820;}</style>
    <style
       id="style1530">.cls-1{fill:#101820;}</style>
  </defs>
  <sodipodi:namedview
     id="namedview6"
     pagecolor="#ffffff"
     bordercolor="#666666"
     borderopacity="1.0"
     inkscape:pageshadow="2"
     inkscape:pageopacity="0.0"
     inkscape:pagecheckerboard="0"
     showgrid="false"
     inkscape:zoom="3.0532909"
     inkscape:cx="13.591892"
     inkscape:cy="18.177108"
     inkscape:window-width="1893"
     inkscape:window-height="1365"
     inkscape:window-x="3510"
     inkscape:window-y="194"
     inkscape:window-maximized="0"
     inkscape:current-layer="svg4" />
  <path
     class="cls-1"
     d="m 15.999994,22.39999 a 6.3999972,6.3999972 0 1 1 6.399997,-6.399997 6.3999972,6.3999972 0 0 1 -6.399997,6.399997 z m 0,-10.666662 a 4.2666648,4.2666648 0 1 0 4.266664,4.266665 4.2666648,4.2666648 0 0 0 -4.266664,-4.266665 z"
     id="path1536"
     style="fill:#180027;fill-opacity:1;stroke-width:1.06667" />
  <path
     class="cls-1"
     d="M 21.333324,31.999986 H 10.666663 A 4.2666648,4.2666648 0 0 1 6.3999977,27.733321 v -2.719999 a 1.0666662,1.0666662 0 0 1 0.6719997,-0.981333 l 3.8826646,-1.557332 a 1.0666662,1.0666662 0 1 1 0.778667,1.983999 l -3.1999989,1.279999 v 1.994666 a 2.1333324,2.1333324 0 0 0 2.1333329,2.133333 h 10.666661 a 2.1333324,2.1333324 0 0 0 2.133333,-2.133333 v -1.994666 l -3.199999,-1.279999 a 1.0676258,1.0676258 0 0 1 0.789333,-1.983999 l 3.882665,1.557332 a 1.0666662,1.0666662 0 0 1 0.672,0.981333 v 2.719999 a 4.2666648,4.2666648 0 0 1 -4.277332,4.266665 z"
     id="path1538"
     style="fill:#180027;fill-opacity:1;stroke-width:1.06667" />
  <path
     class="cls-1"
     d="M 8.5333301,10.666662 A 5.333331,5.333331 0 1 1 13.866661,5.333331 5.333331,5.333331 0 0 1 8.5333301,10.666662 Z m 0,-8.5333296 A 3.1999986,3.1999986 0 1 0 11.733329,5.333331 3.1999986,3.1999986 0 0 0 8.5333301,2.1333324 Z"
     id="path1540"
     style="fill:#180027;fill-opacity:1;stroke-width:1.06667" />
  <path
     class="cls-1"
     d="M 7.4666639,19.615991 H 4.2666653 A 4.2666648,4.2666648 0 0 1 5e-7,15.349327 v -1.866666 a 1.0666662,1.0666662 0 0 1 0.67199971,-0.992 L 4.0746654,11.157328 a 1.0666662,1.0666662 0 0 1 1.3759994,0.576 1.0666662,1.0666662 0 0 1 -0.5973331,1.386666 l -2.7199988,1.088 v 1.141333 a 2.1333324,2.1333324 0 0 0 2.1333324,2.133332 h 3.1999986 a 1.0666662,1.0666662 0 0 1 0,2.133332 z"
     id="path1542"
     style="fill:#180027;fill-opacity:1;stroke-width:1.06667" />
  <path
     class="cls-1"
     d="m 23.466657,10.666662 a 5.333331,5.333331 0 1 1 5.333331,-5.333331 5.333331,5.333331 0 0 1 -5.333331,5.333331 z m 0,-8.5333296 A 3.1999986,3.1999986 0 1 0 26.666655,5.333331 3.1999986,3.1999986 0 0 0 23.466657,2.1333324 Z"
     id="path1544"
     style="fill:#180027;fill-opacity:1;stroke-width:1.06667" />
  <path
     class="cls-1"
     d="m 27.733322,19.615991 h -3.199999 a 1.0666662,1.0666662 0 0 1 0,-2.133332 h 3.199999 a 2.1333324,2.1333324 0 0 0 2.133332,-2.133332 v -1.141333 l -2.719999,-1.066666 a 1.0666662,1.0666662 0 0 1 -0.597333,-1.386666 1.0666662,1.0666662 0 0 1 1.376,-0.608 l 3.402665,1.333333 a 1.0666662,1.0666662 0 0 1 0.671999,0.991999 v 1.866666 a 4.2666648,4.2666648 0 0 1 -4.266664,4.277331 z"
     id="path1546"
     style="fill:#180027;fill-opacity:1;stroke-width:1.06667" />
</svg>
