<?xml version="1.0" encoding="UTF-8" standalone="no"?>
<svg
   fill="none"
   height="32"
   viewBox="0 0 32 32"
   width="32"
   version="1.1"
   id="svg4"
   sodipodi:docname="face-ruler.svg"
   inkscape:version="1.1.1 (3bf5ae0d25, 2021-09-20)"
   xmlns:inkscape="http://www.inkscape.org/namespaces/inkscape"
   xmlns:sodipodi="http://sodipodi.sourceforge.net/DTD/sodipodi-0.dtd"
   xmlns="http://www.w3.org/2000/svg"
   xmlns:svg="http://www.w3.org/2000/svg">
  <defs
     id="defs8" />
  <sodipodi:namedview
     id="namedview6"
     pagecolor="#ffffff"
     bordercolor="#666666"
     borderopacity="1.0"
     inkscape:pageshadow="2"
     inkscape:pageopacity="0.0"
     inkscape:pagecheckerboard="0"
     showgrid="false"
     inkscape:zoom="27.28125"
     inkscape:cx="15.981672"
     inkscape:cy="15.981672"
     inkscape:window-width="3840"
     inkscape:window-height="2080"
     inkscape:window-x="2293"
     inkscape:window-y="35"
     inkscape:window-maximized="1"
     inkscape:current-layer="svg4" />
  <g
     id="g826"
     transform="matrix(1.3333333,0,0,1.3333333,4e-7,-0.66666625)">
    <path
       clip-rule="evenodd"
       d="M 3,6 C 1.34315,6 0,7.34315 0,9 v 7 c 0,1.6569 1.34315,3 3,3 h 18 c 1.6569,0 3,-1.3431 3,-3 V 9 C 24,7.34315 22.6569,6 21,6 Z M 9,8 H 7 v 5 C 7,13.5523 6.55228,14 6,14 5.44772,14 5,13.5523 5,13 V 8 H 3 C 2.44772,8 2,8.44772 2,9 v 7 c 0,0.5523 0.44772,1 1,1 h 18 c 0.5523,0 1,-0.4477 1,-1 V 9 C 22,8.44772 21.5523,8 21,8 h -2 v 3 c 0,0.5523 -0.4477,1 -1,1 -0.5523,0 -1,-0.4477 -1,-1 V 8 h -2 v 5 c 0,0.5523 -0.4477,1 -1,1 -0.5523,0 -1,-0.4477 -1,-1 V 8 h -2 v 3 c 0,0.5523 -0.4477,1 -1,1 -0.55229,0 -1,-0.4477 -1,-1 z"
       fill="#180027"
       fill-rule="evenodd"
       id="path2" />
  </g>
</svg>
