<?xml version="1.0" encoding="UTF-8" standalone="no"?>
<!-- Created with Inkscape (http://www.inkscape.org/) -->

<svg
   width="32"
   height="32"
   viewBox="0 0 8.4666665 8.4666669"
   version="1.1"
   id="svg5"
   inkscape:version="1.1.2 (b8e25be833, 2022-02-05)"
   sodipodi:docname="face-region.svg"
   inkscape:export-filename="face-region.png"
   inkscape:export-xdpi="192"
   inkscape:export-ydpi="192"
   xmlns:inkscape="http://www.inkscape.org/namespaces/inkscape"
   xmlns:sodipodi="http://sodipodi.sourceforge.net/DTD/sodipodi-0.dtd"
   xmlns="http://www.w3.org/2000/svg"
   xmlns:svg="http://www.w3.org/2000/svg">
  <sodipodi:namedview
     id="namedview7"
     pagecolor="#ffffff"
     bordercolor="#666666"
     borderopacity="1.0"
     inkscape:pageshadow="2"
     inkscape:pageopacity="0.0"
     inkscape:pagecheckerboard="0"
     inkscape:document-units="mm"
     showgrid="false"
     units="px"
     width="32px"
     inkscape:zoom="7.6548664"
     inkscape:cx="23.187864"
     inkscape:cy="17.766476"
     inkscape:window-width="1920"
     inkscape:window-height="1027"
     inkscape:window-x="-8"
     inkscape:window-y="22"
     inkscape:window-maximized="1"
     inkscape:current-layer="g2715" />
  <defs
     id="defs2" />
  <g
     inkscape:label="Layer 1"
     inkscape:groupmode="layer"
     id="layer1">
    <g
       id="g2715"
       transform="translate(0,1.1325434)">
      <path
         id="path1519"
         style="fill:#180027;fill-opacity:1;stroke-width:0.0290958"
         d="m 4.230229,0.29313384 c -0.1845006,0 -0.3690984,0.0171101 -0.494687,0.0487236 C 3.3165029,0.44989777 2.8656348,0.73621365 2.6149014,1.0526475 2.4506224,1.2599763 2.2683734,1.6243001 2.2039043,1.8740687 c -0.07554,0.2926185 -0.06398,0.7352219 0.028087,1.0765029 0.1537301,0.569597 0.4078335,1.0784916 0.829446,1.6588925 0.5550215,0.764014 0.9414744,1.2419006 1.0358045,1.2822882 0.033499,0.013755 0.1125589,0.021189 0.1765513,0.013757 C 4.4226428,5.8900906 4.5332474,5.7741413 5.0671267,5.0640254 5.7563115,4.1473795 5.9577167,3.7992716 6.1619732,3.1798586 6.3898339,2.4888661 6.3601394,1.9397468 6.0645261,1.3851137 5.7941257,0.87772313 5.2938586,0.48862137 4.7249161,0.34185717 4.5993164,0.30935632 4.4147298,0.29313362 4.230229,0.29313384 Z m 0,0.82428706 c 0.6309271,0 1.1435761,0.4403851 1.2559202,1.0782227 C 5.5411677,2.5082065 5.4387434,2.8981908 5.2287744,3.1741265 5.1036628,3.3385941 4.8300558,3.5251996 4.6177244,3.5908557 3.9979231,3.7822892 3.3459364,3.494863 3.0792077,2.9121659 2.9728314,2.6796239 2.9362212,2.4320401 2.9737357,2.2053883 3.0798903,1.5643672 3.5955641,1.1174209 4.230229,1.1174209 Z m 0,0.494687 c -0.4418674,0 -0.7549276,0.3140037 -0.7549276,0.7566475 0,0.3117753 0.141976,0.5475668 0.4121436,0.6821292 v -5.732e-4 c 0.1163928,0.057237 0.1935682,0.075073 0.3410644,0.074518 C 4.6731498,3.1237201 4.9877787,2.8103565 4.9863033,2.3704748 4.9851942,1.9254349 4.6724515,1.6121075 4.230229,1.6121079 Z" />
    </g>
    <path
       id="path950"
       style="fill:#180027;fill-opacity:1;stroke-width:0.0175183"
       d="M 4.2482928,4.0462606e-5 C 3.9823603,-8.9825739e-4 3.6987045,0.01631176 3.5113869,0.04913306 2.8419919,0.16642167 2.2078134,0.44737786 1.6370828,0.87905656 1.4578636,1.014611 1.0969791,1.3657744 0.9497861,1.5477495 0.48353524,2.1241771 0.1751721,2.8071695 0.04854913,3.5440101 -0.00335074,3.846014 -0.0159457,4.3947812 0.02219425,4.7056963 0.14333135,5.6931512 0.54459472,6.5301023 1.2247048,7.2140703 1.5683089,7.5596233 1.8987139,7.8001727 2.324896,8.0155718 2.787733,8.2494987 3.2928599,8.4005226 3.79199,8.4543047 4.0197168,8.4788445 4.6317534,8.4648166 4.8523902,8.4300168 5.0915262,8.3922938 5.4518318,8.2994338 5.6693947,8.2196936 5.9102536,8.1314146 6.463042,7.856127 6.6310932,7.7406531 7.6372808,7.0492651 8.2847186,5.9769697 8.4459692,4.7351518 8.4769392,4.4961148 8.4723344,3.9500497 8.4371842,3.7016232 8.3783645,3.2860191 8.2818752,2.9352795 8.1260922,2.5719764 7.5275714,1.1761676 6.2092542,0.20003471 4.6834083,0.0222613 4.5611745,0.00801955 4.4078524,6.0365261e-4 4.2482928,4.0462606e-5 Z M 4.2333068,0.53489151 A 3.6983553,3.6983553 0 0 1 7.9317888,4.2333738 3.6983553,3.6983553 0 0 1 5.7422583,7.5990597 c 0.00177,0.00365 0.00243,0.00591 0.00155,0.00672 -0.00369,0.00338 -0.085018,0.035107 -0.1808676,0.070797 -0.01741,0.00648 -0.036026,0.012726 -0.05426,0.01912 A 3.6983553,3.6983553 0 0 1 4.2333068,7.9318558 3.6983553,3.6983553 0 0 1 3.3775448,7.819718 C 3.3651578,7.816728 3.3527308,7.814078 3.3403378,7.810938 A 3.6983553,3.6983553 0 0 1 1.8685933,7.0626583 C 1.8424887,7.0410307 1.8167868,7.0192404 1.7915953,6.9970292 A 3.6983553,3.6983553 0 0 1 1.2004169,6.3412554 C 1.173939,6.3098925 1.1432045,6.2554728 1.0898293,6.170723 1.0543058,6.1143192 1.0193062,6.0533843 0.98544294,5.9898557 A 3.6983553,3.6983553 0 0 1 0.8903583,5.7971025 C 0.84349372,5.6953956 0.80003088,5.5896845 0.76116729,5.4839433 A 3.6983553,3.6983553 0 0 1 0.69760511,5.2994586 C 0.64939671,5.1461998 0.61337051,4.99825 0.59373552,4.8674435 A 3.6983553,3.6983553 0 0 1 0.53482445,4.2333738 3.6983553,3.6983553 0 0 1 0.5472268,4.0736935 l -0.009302,0.0031 0.0113686,-0.1260906 C 0.5557834,3.8806859 0.5638002,3.8125058 0.5730646,3.7455477 A 3.6983553,3.6983553 0 0 1 0.60252048,3.5631305 C 0.62672271,3.4323866 0.65694765,3.3064391 0.69398773,3.1827919 A 3.6983553,3.6983553 0 0 1 0.75806664,2.989522 c 0.0357685,-0.098334 0.0761473,-0.1961321 0.12143951,-0.2940389 6.509e-5,-1.407e-4 -6.509e-5,-3.761e-4 0,-5.168e-4 A 3.6983553,3.6983553 0 0 1 1.0179991,2.4241818 c 0.00113,-0.00201 0.00197,-0.00419 0.0031,-0.0062 0.043707,-0.077462 0.090284,-0.1527792 0.1390097,-0.2263428 A 3.6983553,3.6983553 0 0 1 1.3347755,1.9497922 C 1.3952656,1.8728383 1.4587611,1.7985797 1.5249448,1.7270668 A 3.6983553,3.6983553 0 0 1 1.7295836,1.5229449 C 1.7950311,1.4627077 1.8624126,1.4050318 1.9321552,1.3498288 A 3.6983553,3.6983553 0 0 1 2.2690854,1.1131508 3.6983553,3.6983553 0 0 1 4.2333068,0.53489151 Z" />
  </g>
</svg>
