<?xml version="1.0" encoding="UTF-8" standalone="no"?>
<svg
   fill="none"
   height="32"
   viewBox="0 0 32 32"
   width="32"
   version="1.1"
   id="svg4"
   sodipodi:docname="face-city.svg"
   inkscape:export-filename="face-city.png"
   inkscape:export-xdpi="192"
   inkscape:export-ydpi="192"
   inkscape:version="1.1.1 (3bf5ae0d25, 2021-09-20)"
   xmlns:inkscape="http://www.inkscape.org/namespaces/inkscape"
   xmlns:sodipodi="http://sodipodi.sourceforge.net/DTD/sodipodi-0.dtd"
   xmlns="http://www.w3.org/2000/svg"
   xmlns:svg="http://www.w3.org/2000/svg">
  <defs
     id="defs8">
    <style
       id="style922">.cls-1{fill:none;stroke:#000;stroke-linejoin:round;stroke-width:2px;}</style>
  </defs>
  <sodipodi:namedview
     id="namedview6"
     pagecolor="#ffffff"
     bordercolor="#666666"
     borderopacity="1.0"
     inkscape:pageshadow="2"
     inkscape:pageopacity="0.0"
     inkscape:pagecheckerboard="0"
     showgrid="false"
     inkscape:zoom="12.506021"
     inkscape:cx="17.911373"
     inkscape:cy="17.471585"
     inkscape:window-width="2268"
     inkscape:window-height="1277"
     inkscape:window-x="3966"
     inkscape:window-y="236"
     inkscape:window-maximized="0"
     inkscape:current-layer="svg4" />
  <path
     id="path1133"
     style="color:#000000;fill:#180027;stroke-width:0.508057;-inkscape-stroke:none"
     d="M 3.8105469 0 C 1.7103625 0.0024 0.0023961 1.7101429 0 3.8105469 L 0 25.150391 C 0.0024 27.250796 1.7103625 28.958541 3.8105469 28.960938 L 12.244141 28.960938 C 14.342724 30.849281 17.117655 32 20.15625 32 C 26.686218 32 32 26.686218 32 20.15625 C 32 18.053864 31.447302 16.078459 30.482422 14.365234 L 30.482422 3.3027344 C 30.482422 2.8848344 30.13856 2.5410156 29.720703 2.5410156 L 6.6035156 2.5410156 L 6.6035156 0.76171875 C 6.6035156 0.34381775 6.2596536 -3.7007434e-16 5.8417969 0 L 3.8105469 0 z M 3.8105469 1.5234375 L 5.0800781 1.5234375 L 5.0800781 21.339844 L 3.8105469 21.339844 C 2.9647095 21.339646 2.1847068 21.679938 1.5234375 22.191406 L 1.5234375 3.8105469 C 1.5249475 2.5456299 2.545893 1.5254965 3.8105469 1.5234375 z M 6.6035156 4.0644531 L 13.916016 4.0644531 L 10.884766 12.804688 C 10.796048 12.916327 10.707772 13.027728 10.623047 13.142578 L 6.6035156 10.974609 L 6.6035156 4.0644531 z M 15.529297 4.0644531 L 16.457031 4.0644531 L 14.515625 9.6582031 C 14.503899 9.6919776 14.498839 9.7258685 14.492188 9.7597656 C 14.075916 9.9874154 13.677141 10.241346 13.292969 10.515625 L 15.529297 4.0644531 z M 18.070312 4.0644531 L 21.337891 4.0644531 L 21.337891 8.3730469 C 20.949078 8.3343512 20.55507 8.3144531 20.15625 8.3144531 C 18.836465 8.3144531 17.567326 8.5334233 16.380859 8.9335938 L 18.070312 4.0644531 z M 22.861328 4.0644531 L 23.369141 4.0644531 L 23.369141 6.859375 C 23.369141 7.2772754 23.713002 7.6210936 24.130859 7.6210938 L 28.957031 7.6210938 L 28.957031 8.1289062 L 24.130859 8.1289062 C 23.756552 8.1289062 23.444392 8.4057824 23.382812 8.7636719 C 23.210632 8.7148499 23.036578 8.6700199 22.861328 8.6289062 L 22.861328 4.0644531 z M 24.892578 4.0644531 L 28.957031 4.0644531 L 28.957031 6.0976562 L 24.892578 6.0976562 L 24.892578 4.0644531 z M 25.617188 9.6542969 L 28.957031 9.6542969 L 28.957031 12.240234 C 28.011546 11.190456 26.880313 10.313525 25.617188 9.6542969 z M 20.15625 10.115234 C 25.713427 10.115234 30.199219 14.599073 30.199219 20.15625 C 30.199219 25.713427 25.713427 30.199219 20.15625 30.199219 C 14.599073 30.199219 10.115234 25.713427 10.115234 20.15625 C 10.115234 14.599073 14.599073 10.115234 20.15625 10.115234 z M 6.6035156 12.708984 L 9.796875 14.427734 C 9.6822989 14.634148 9.5730649 14.844888 9.4707031 15.058594 L 6.6035156 13.515625 L 6.6035156 12.708984 z M 6.6035156 15.248047 L 8.9003906 16.482422 C 8.5217398 17.639752 8.3144531 18.87398 8.3144531 20.15625 C 8.3144531 20.174568 8.3163227 20.192639 8.3164062 20.210938 L 5.8085938 27.435547 L 3.8105469 27.435547 C 2.545893 27.433447 1.5249525 26.415309 1.5234375 25.150391 C 1.5249475 23.885474 2.545893 22.865341 3.8105469 22.863281 L 5.8417969 22.863281 C 6.2596536 22.863281 6.6035156 22.519464 6.6035156 22.101562 L 6.6035156 15.248047 z M 8.7929688 23.482422 C 8.9251211 23.933234 9.0809882 24.373852 9.2636719 24.800781 L 8.3496094 27.435547 L 7.421875 27.435547 L 8.7929688 23.482422 z M 10.244141 26.625 C 10.426462 26.903524 10.619752 27.173912 10.824219 27.435547 L 9.9628906 27.435547 L 10.244141 26.625 z " />
  <path
     sodipodi:type="star"
     style="fill:none;stroke:#180027;stroke-width:1.8;stroke-linecap:round;stroke-linejoin:round;stroke-miterlimit:4;stroke-dasharray:none;stroke-opacity:1"
     id="path1746"
     inkscape:flatsided="false"
     sodipodi:sides="5"
     sodipodi:cx="20.150295"
     sodipodi:cy="20.230255"
     sodipodi:r1="7.5435514"
     sodipodi:r2="3.7717757"
     sodipodi:arg1="-1.5707963"
     sodipodi:arg2="-0.9424778"
     inkscape:rounded="0"
     inkscape:randomized="0"
     d="m 20.150295,12.686704 2.216994,4.49212 4.95735,0.720346 -3.587172,3.496628 0.846816,4.937319 -4.433988,-2.331086 -4.433988,2.331085 0.846816,-4.937318 -3.587171,-3.496629 4.957349,-0.720345 z"
     inkscape:transform-center-y="-0.72034506" />
</svg>
