<?xml version="1.0" encoding="UTF-8" standalone="no"?>
<svg
   fill="none"
   height="32"
   viewBox="0 0 32 32"
   width="32"
   version="1.1"
   id="svg4"
   sodipodi:docname="face-shield.svg"
   inkscape:export-filename="C:\Code\qinpel-app\design\face-shield.png"
   inkscape:export-xdpi="144"
   inkscape:export-ydpi="144"
   inkscape:version="1.1.1 (3bf5ae0d25, 2021-09-20)"
   xmlns:inkscape="http://www.inkscape.org/namespaces/inkscape"
   xmlns:sodipodi="http://sodipodi.sourceforge.net/DTD/sodipodi-0.dtd"
   xmlns="http://www.w3.org/2000/svg"
   xmlns:svg="http://www.w3.org/2000/svg">
  <defs
     id="defs8" />
  <sodipodi:namedview
     id="namedview6"
     pagecolor="#ffffff"
     bordercolor="#666666"
     borderopacity="1.0"
     inkscape:pageshadow="2"
     inkscape:pageopacity="0.0"
     inkscape:pagecheckerboard="0"
     showgrid="false"
     inkscape:zoom="25.75"
     inkscape:cx="15.980583"
     inkscape:cy="19.087379"
     inkscape:window-width="1920"
     inkscape:window-height="1013"
     inkscape:window-x="-9"
     inkscape:window-y="29"
     inkscape:window-maximized="1"
     inkscape:current-layer="svg4" />
  <path
     d="M 15.359199,31.87985 C 14.718398,31.559449 1.5819775,24.991239 1.5819775,16.020025 V 4.8060075 c 0,-0.8010012 0.4806008,-1.4418022 1.281602,-1.6020025 L 15.6796,0 c 0.320401,0 0.480601,0 0.801001,0 l 12.81602,3.204005 c 0.640801,0.1602003 1.121402,0.8010013 1.121402,1.6020025 V 16.020025 c 0,8.971214 -13.13642,15.539424 -13.777221,15.859825 -0.480601,0.1602 -0.801002,0.1602 -1.281603,0 z M 4.7859825,6.0876095 v 9.9324155 c 0,5.446809 7.5294125,10.573217 11.2140175,12.65582 3.684605,-2.082603 11.214017,-7.209011 11.214017,-12.65582 V 6.0876095 L 16.000001,3.204005 Z"
     fill="#180027"
     id="path2"
     style="stroke-width:1.602" />
</svg>
