<?xml version="1.0" encoding="UTF-8" standalone="no"?>
<svg
   fill="none"
   height="32"
   viewBox="0 0 32 32"
   width="32"
   version="1.1"
   id="svg6"
   sodipodi:docname="face-r-voicemail.svg"
   inkscape:version="1.1.1 (3bf5ae0d25, 2021-09-20)"
   xmlns:inkscape="http://www.inkscape.org/namespaces/inkscape"
   xmlns:sodipodi="http://sodipodi.sourceforge.net/DTD/sodipodi-0.dtd"
   xmlns="http://www.w3.org/2000/svg"
   xmlns:svg="http://www.w3.org/2000/svg">
  <defs
     id="defs10" />
  <sodipodi:namedview
     id="namedview8"
     pagecolor="#ffffff"
     bordercolor="#666666"
     borderopacity="1.0"
     inkscape:pageshadow="2"
     inkscape:pageopacity="0.0"
     inkscape:pagecheckerboard="0"
     showgrid="false"
     inkscape:zoom="27.28125"
     inkscape:cx="15.981672"
     inkscape:cy="15.981672"
     inkscape:window-width="3840"
     inkscape:window-height="2080"
     inkscape:window-x="2293"
     inkscape:window-y="35"
     inkscape:window-maximized="1"
     inkscape:current-layer="svg6" />
  <g
     id="g829"
     transform="matrix(1.5238095,0,0,1.5238095,-2.285714,-2.285714)">
    <path
       clip-rule="evenodd"
       d="m 11.5,12 c 0,0.3506 -0.0602,0.6872 -0.1707,1 h 2.3414 C 13.5602,12.6872 13.5,12.3506 13.5,12 c 0,-1.6569 1.3431,-3 3,-3 1.6569,0 3,1.3431 3,3 0,1.6569 -1.3431,3 -3,3 h -8 c -1.65685,0 -3,-1.3431 -3,-3 0,-1.6569 1.34315,-3 3,-3 1.6569,0 3,1.3431 3,3 z m -2,0 c 0,0.5523 -0.44772,1 -1,1 -0.55228,0 -1,-0.4477 -1,-1 0,-0.5523 0.44772,-1 1,-1 0.55228,0 1,0.4477 1,1 z m 8,0 c 0,0.5523 -0.4477,1 -1,1 -0.5523,0 -1,-0.4477 -1,-1 0,-0.5523 0.4477,-1 1,-1 0.5523,0 1,0.4477 1,1 z"
       fill="#180027"
       fill-rule="evenodd"
       id="path2" />
    <path
       clip-rule="evenodd"
       d="m 1.5,8 c 0,-1.65685 1.34315,-3 3,-3 h 15 c 1.6569,0 3,1.34315 3,3 v 8 c 0,1.6569 -1.3431,3 -3,3 h -15 c -1.65685,0 -3,-1.3431 -3,-3 z m 3,-1 h 15 c 0.5523,0 1,0.44772 1,1 v 8 c 0,0.5523 -0.4477,1 -1,1 h -15 c -0.55228,0 -1,-0.4477 -1,-1 V 8 c 0,-0.55228 0.44772,-1 1,-1 z"
       fill="#180027"
       fill-rule="evenodd"
       id="path4" />
  </g>
</svg>
