<?xml version="1.0" encoding="UTF-8" standalone="no"?>
<svg
   fill="none"
   height="32"
   viewBox="0 0 32 32"
   width="32"
   version="1.1"
   id="svg4"
   sodipodi:docname="face-wifi-disable.svg"
   inkscape:export-filename="face-wifi-disable.png"
   inkscape:export-xdpi="144"
   inkscape:export-ydpi="144"
   inkscape:version="1.1.1 (3bf5ae0d25, 2021-09-20)"
   xmlns:inkscape="http://www.inkscape.org/namespaces/inkscape"
   xmlns:sodipodi="http://sodipodi.sourceforge.net/DTD/sodipodi-0.dtd"
   xmlns="http://www.w3.org/2000/svg"
   xmlns:svg="http://www.w3.org/2000/svg">
  <defs
     id="defs8" />
  <sodipodi:namedview
     id="namedview6"
     pagecolor="#ffffff"
     bordercolor="#666666"
     borderopacity="1.0"
     inkscape:pageshadow="2"
     inkscape:pageopacity="0.0"
     inkscape:pagecheckerboard="0"
     showgrid="false"
     inkscape:zoom="25.75"
     inkscape:cx="15.980583"
     inkscape:cy="15.980583"
     inkscape:window-width="1920"
     inkscape:window-height="1013"
     inkscape:window-x="-9"
     inkscape:window-y="29"
     inkscape:window-maximized="1"
     inkscape:current-layer="svg4" />
  <path
     clip-rule="evenodd"
     d="m 1.5801422,1.58013 c 0.6467578,-0.6467413 1.6953359,-0.6467413 2.3420938,0 l 13.248475,13.248343 v 0 l 13.249154,13.249319 c 0.646709,0.646709 0.646709,1.695353 0,2.342061 -0.646708,0.646708 -1.695352,0.646708 -2.34206,0 L 15.33989,17.681938 c -2.184731,0.172069 -4.129841,1.191069 -5.5107321,2.733066 -0.610175,0.681321 -1.65718,0.738954 -2.3385336,0.128845 C 6.8092704,19.933575 6.7515552,18.886587 7.3617463,18.205266 8.7354509,16.671384 10.514403,15.504163 12.530344,14.872359 L 9.9625899,12.304671 c -1.733874,0.769161 -3.2950322,1.860367 -4.6068975,3.198498 -0.6402991,0.653167 -1.6888275,0.6636 -2.3419779,0.02335 C 2.3605806,14.88627 2.3501472,13.837625 2.9904465,13.184624 4.3005895,11.848099 5.8157415,10.712195 7.4857722,9.827852 L 5.0522612,7.3943262 C 4.2249881,7.8839034 3.4331391,8.427387 2.6815665,9.019973 1.9633312,9.586278 0.92199035,9.463113 0.35568595,8.744878 -0.21061835,8.0266429 -0.08745405,6.985302 0.63079785,6.4189976 1.2769263,5.9095472 1.9490556,5.4314303 2.6449004,4.986982 L 1.5801422,3.9222238 c -0.64674125,-0.6467579 -0.64674125,-1.695336 0,-2.3420938 z M 16.000012,4.4072797 c -1.045829,0 -2.073441,0.074458 -3.077701,0.2181088 -0.905425,0.1295072 -1.744407,-0.4994806 -1.873914,-1.4049052 -0.129524,-0.9054246 0.499481,-1.7444063 1.404905,-1.8739301 1.159272,-0.165809 2.343386,-0.2514792 3.54671,-0.2514792 5.800666,0 11.141101,1.9902382 15.369297,5.3239236 0.718086,0.5663044 0.8413,1.6076453 0.275079,2.3258804 -0.566387,0.718235 -1.607745,0.8414 -2.325997,0.275095 C 25.653767,6.1304879 21.030425,4.4072797 16.000012,4.4072797 Z m 0.0081,4.8864643 c 0.09042,-0.910178 0.901417,-1.5747554 1.811611,-1.4843818 4.370124,0.4338988 8.284655,2.4116498 11.18979,5.3752628 0.640415,0.653001 0.629982,1.701646 -0.02319,2.341895 -0.653167,0.640249 -1.701646,0.629816 -2.342061,-0.02335 -2.380813,-2.428675 -5.581729,-4.043359 -9.15179,-4.397814 -0.910194,-0.09036 -1.574788,-0.90145 -1.484365,-1.811611 z m -0.0081,14.98677 c -0.914665,0 -1.656103,0.741437 -1.656103,1.656103 0,0.914666 0.741438,1.656103 1.656103,1.656103 0.914666,0 1.656103,-0.741437 1.656103,-1.656103 0,-0.914666 -0.741437,-1.656103 -1.656103,-1.656103 z m -4.968308,1.656103 c 0,-2.743997 2.224311,-4.968309 4.968308,-4.968309 2.743997,0 4.968309,2.224312 4.968309,4.968309 0,2.743997 -2.224312,4.968309 -4.968309,4.968309 -2.743997,0 -4.968308,-2.224312 -4.968308,-4.968309 z"
     fill="#180027"
     fill-rule="evenodd"
     id="path2"
     style="stroke-width:1.6561" />
</svg>
