<?xml version="1.0" encoding="UTF-8" standalone="no"?>
<svg
   fill="none"
   height="32"
   viewBox="0 0 32 32"
   width="32"
   version="1.1"
   id="svg4"
   sodipodi:docname="face-redo.svg"
   inkscape:export-filename="face-redo.png"
   inkscape:export-xdpi="144"
   inkscape:export-ydpi="144"
   inkscape:version="1.1.1 (3bf5ae0d25, 2021-09-20)"
   xmlns:inkscape="http://www.inkscape.org/namespaces/inkscape"
   xmlns:sodipodi="http://sodipodi.sourceforge.net/DTD/sodipodi-0.dtd"
   xmlns="http://www.w3.org/2000/svg"
   xmlns:svg="http://www.w3.org/2000/svg">
  <defs
     id="defs8" />
  <sodipodi:namedview
     id="namedview6"
     pagecolor="#ffffff"
     bordercolor="#666666"
     borderopacity="1.0"
     inkscape:pageshadow="2"
     inkscape:pageopacity="0.0"
     inkscape:pagecheckerboard="0"
     showgrid="false"
     inkscape:zoom="12.875"
     inkscape:cx="16.038835"
     inkscape:cy="16.038835"
     inkscape:window-width="1920"
     inkscape:window-height="1013"
     inkscape:window-x="-9"
     inkscape:window-y="29"
     inkscape:window-maximized="1"
     inkscape:current-layer="svg4" />
  <path
     clip-rule="evenodd"
     d="M 29.176722,3.9388478e-8 C 30.216265,3.9388478e-8 31.05893,0.84270234 31.05893,1.8822082 v 9.4110408 c 0,1.039506 -0.842665,1.882209 -1.882208,1.882209 h -9.411041 c -1.039544,0 -1.882209,-0.842703 -1.882209,-1.882209 0,-1.039506 0.842665,-1.882208 1.882209,-1.882208 h 4.656206 C 20.933967,5.5020334 15.070512,4.4368918 10.354621,7.159638 4.9531539,10.278174 3.1024727,17.184937 6.2210093,22.586499 c 3.118556,5.401561 10.0253187,7.252148 15.4268797,4.133705 0.90026,-0.519866 2.051419,-0.211372 2.571096,0.688889 0.519866,0.90026 0.211372,2.051418 -0.688888,2.571096 C 16.328204,34.138175 7.1189923,31.6706 2.9609306,24.468707 -1.1971309,17.266814 1.2704441,8.057602 8.4724123,3.8995402 14.790063,0.25204654 22.652235,1.7029844 27.294513,6.9757272 V 1.8822082 C 27.294513,0.84270234 28.137178,3.9388478e-8 29.176722,3.9388478e-8 Z"
     fill="#180027"
     fill-rule="evenodd"
     id="path2"
     style="stroke-width:1.88221" />
</svg>
