<?xml version="1.0" encoding="UTF-8" standalone="no"?>
<svg
   fill="none"
   height="32"
   viewBox="0 0 32 32"
   width="32"
   version="1.1"
   id="svg4"
   sodipodi:docname="face-mail.svg"
   inkscape:export-filename="face-mail.png"
   inkscape:export-xdpi="144"
   inkscape:export-ydpi="144"
   inkscape:version="1.1.1 (3bf5ae0d25, 2021-09-20)"
   xmlns:inkscape="http://www.inkscape.org/namespaces/inkscape"
   xmlns:sodipodi="http://sodipodi.sourceforge.net/DTD/sodipodi-0.dtd"
   xmlns="http://www.w3.org/2000/svg"
   xmlns:svg="http://www.w3.org/2000/svg">
  <defs
     id="defs8" />
  <sodipodi:namedview
     id="namedview6"
     pagecolor="#ffffff"
     bordercolor="#666666"
     borderopacity="1.0"
     inkscape:pageshadow="2"
     inkscape:pageopacity="0.0"
     inkscape:pagecheckerboard="0"
     showgrid="false"
     inkscape:zoom="25.75"
     inkscape:cx="15.980583"
     inkscape:cy="15.980583"
     inkscape:window-width="1920"
     inkscape:window-height="1013"
     inkscape:window-x="-9"
     inkscape:window-y="29"
     inkscape:window-maximized="1"
     inkscape:current-layer="svg4" />
  <path
     clip-rule="evenodd"
     d="M 3.77168,7.1497421 16,14.792533 28.228267,7.1497421 c -0.301511,-0.5526045 -0.887823,-0.92752 -1.5616,-0.92752 H 5.3333333 c -0.6738489,0 -1.2601422,0.3749155 -1.5616533,0.92752 z m 24.672764,4.0578129 -11.502222,7.188889 c -0.576533,0.360355 -1.307911,0.360355 -1.884444,0 L 3.5555556,11.207555 v 12.792444 c 0,0.981867 0.7959466,1.777778 1.7777777,1.777778 H 26.666667 c 0.981866,0 1.777777,-0.795911 1.777777,-1.777778 z M 0,7.9999995 C 0,5.0544887 2.3878222,2.6666665 5.3333333,2.6666665 H 26.666667 C 29.612267,2.6666665 32,5.0544887 32,7.9999995 V 23.999999 c 0,2.9456 -2.387733,5.333334 -5.333333,5.333334 H 5.3333333 C 2.3878222,29.333333 0,26.945599 0,23.999999 Z"
     fill="#180027"
     fill-rule="evenodd"
     id="path2"
     style="stroke-width:1.77778" />
</svg>
