<?xml version="1.0" encoding="UTF-8" standalone="no"?>
<svg
   fill="none"
   height="32"
   viewBox="0 0 32 32"
   width="32"
   version="1.1"
   id="svg4"
   sodipodi:docname="face-filter.svg"
   inkscape:export-filename="face-filter.png"
   inkscape:export-xdpi="144"
   inkscape:export-ydpi="144"
   inkscape:version="1.1.1 (3bf5ae0d25, 2021-09-20)"
   xmlns:inkscape="http://www.inkscape.org/namespaces/inkscape"
   xmlns:sodipodi="http://sodipodi.sourceforge.net/DTD/sodipodi-0.dtd"
   xmlns="http://www.w3.org/2000/svg"
   xmlns:svg="http://www.w3.org/2000/svg">
  <defs
     id="defs8" />
  <sodipodi:namedview
     id="namedview6"
     pagecolor="#ffffff"
     bordercolor="#666666"
     borderopacity="1.0"
     inkscape:pageshadow="2"
     inkscape:pageopacity="0.0"
     inkscape:pagecheckerboard="0"
     showgrid="false"
     inkscape:zoom="25.75"
     inkscape:cx="15.980583"
     inkscape:cy="25.300971"
     inkscape:window-width="1920"
     inkscape:window-height="1013"
     inkscape:window-x="-9"
     inkscape:window-y="29"
     inkscape:window-maximized="1"
     inkscape:current-layer="svg4" />
  <path
     clip-rule="evenodd"
     d="M 0.842098,1.6842115 C 0.842098,0.75405527 1.5961531,1.733188e-7 2.5263093,1.733188e-7 H 29.473691 c 0.93019,0 1.684211,0.7540550966812 1.684211,1.6842113266812 v 5.3415947 c 0,1.340042 -0.532379,2.625197 -1.479916,3.5727508 L 21.54594,18.73062 c -0.31579,0.315958 -0.493306,0.744253 -0.493306,1.190906 v 6.117224 c 0,1.755116 -1.088674,3.326149 -2.732127,3.942401 l -5.097603,1.91158 c -0.517221,0.194021 -1.096624,0.121937 -1.550637,-0.192673 -0.454029,-0.314611 -0.724901,-0.831832 -0.724901,-1.384254 V 19.921526 c 0,-0.446653 -0.177448,-0.874948 -0.493289,-1.190906 L 2.3219808,10.598557 C 1.3744267,9.6510032 0.842098,8.3658482 0.842098,7.0258062 Z m 3.3684227,1.6842114 v 3.6573833 c 0,0.446686 0.1774485,0.875065 0.4932887,1.190922 l 8.1320626,8.1320798 c 0.947538,0.947537 1.479917,2.232759 1.479917,3.572718 v 7.963961 l 2.822064,-1.05819 c 0.32859,-0.123284 0.546358,-0.437558 0.546358,-0.788547 v -6.117224 c 0,-1.339959 0.53238,-2.625181 1.479917,-3.572718 l 8.132046,-8.1320798 c 0.31579,-0.315857 0.493306,-0.744236 0.493306,-1.190922 V 3.3684229 Z"
     fill="#180027"
     fill-rule="evenodd"
     id="path2"
     style="stroke-width:1.68421" />
</svg>
