<?xml version="1.0" encoding="UTF-8" standalone="no"?>
<svg
   fill="none"
   height="32"
   viewBox="0 0 32 32"
   width="32"
   version="1.1"
   id="svg6"
   sodipodi:docname="face-yinyang.svg"
   inkscape:version="1.1.1 (3bf5ae0d25, 2021-09-20)"
   xmlns:inkscape="http://www.inkscape.org/namespaces/inkscape"
   xmlns:sodipodi="http://sodipodi.sourceforge.net/DTD/sodipodi-0.dtd"
   xmlns="http://www.w3.org/2000/svg"
   xmlns:svg="http://www.w3.org/2000/svg">
  <defs
     id="defs10" />
  <sodipodi:namedview
     id="namedview8"
     pagecolor="#ffffff"
     bordercolor="#666666"
     borderopacity="1.0"
     inkscape:pageshadow="2"
     inkscape:pageopacity="0.0"
     inkscape:pagecheckerboard="0"
     showgrid="false"
     inkscape:zoom="27.28125"
     inkscape:cx="15.981672"
     inkscape:cy="15.981672"
     inkscape:window-width="3840"
     inkscape:window-height="2080"
     inkscape:window-x="2293"
     inkscape:window-y="35"
     inkscape:window-maximized="1"
     inkscape:current-layer="svg6" />
  <g
     id="g829"
     transform="matrix(1.6,0,0,1.6,-3.2,-3.2)">
    <path
       d="m 14,16 c 0,1.1046 -0.8954,2 -2,2 -1.1046,0 -2,-0.8954 -2,-2 0,-1.1046 0.8954,-2 2,-2 1.1046,0 2,0.8954 2,2 z"
       fill="#180027"
       id="path2" />
    <path
       clip-rule="evenodd"
       d="M 22,12 C 22,17.5228 17.5228,22 12,22 6.47715,22 2,17.5228 2,12 2,6.47715 6.47715,2 12,2 17.5228,2 22,6.47715 22,12 Z M 12,12 C 9.79086,12 8,10.2091 8,8 8,5.79086 9.79086,4 12,4 7.58172,4 4,7.58172 4,12 c 0,4.4183 3.58172,8 8,8 2.2091,0 4,-1.7909 4,-4 0,-2.2091 -1.7909,-4 -4,-4 z m 2,-4 c 0,1.10457 -0.8954,2 -2,2 -1.1046,0 -2,-0.89543 -2,-2 0,-1.10457 0.8954,-2 2,-2 1.1046,0 2,0.89543 2,2 z"
       fill="#180027"
       fill-rule="evenodd"
       id="path4" />
  </g>
</svg>
