<?xml version="1.0" encoding="UTF-8" standalone="no"?>
<svg
   fill="none"
   height="32"
   viewBox="0 0 32 32"
   width="32"
   version="1.1"
   id="svg4"
   sodipodi:docname="face-costumer.svg"
   inkscape:version="1.1.1 (3bf5ae0d25, 2021-09-20)"
   inkscape:export-filename="face-costumer.png"
   inkscape:export-xdpi="192"
   inkscape:export-ydpi="192"
   xmlns:inkscape="http://www.inkscape.org/namespaces/inkscape"
   xmlns:sodipodi="http://sodipodi.sourceforge.net/DTD/sodipodi-0.dtd"
   xmlns="http://www.w3.org/2000/svg"
   xmlns:svg="http://www.w3.org/2000/svg">
  <defs
     id="defs8" />
  <sodipodi:namedview
     id="namedview6"
     pagecolor="#ffffff"
     bordercolor="#666666"
     borderopacity="1.0"
     inkscape:pageshadow="2"
     inkscape:pageopacity="0.0"
     inkscape:pagecheckerboard="0"
     showgrid="false"
     inkscape:zoom="3.4101563"
     inkscape:cx="12.16953"
     inkscape:cy="15.981672"
     inkscape:window-width="1920"
     inkscape:window-height="1009"
     inkscape:window-x="1912"
     inkscape:window-y="-8"
     inkscape:window-maximized="1"
     inkscape:current-layer="svg4"
     inkscape:lockguides="true" />
  <path
     d="m 28.069278,29.335105 h -3.997343 c -0.399734,0 -0.666223,-0.266489 -0.666223,-0.666224 0,-0.399734 0.266489,-0.666223 0.666223,-0.666223 h 3.997343 c 0.399734,0 0.666224,0.266489 0.666224,0.666223 0,0.399735 -0.26649,0.666224 -0.666224,0.666224 z"
     fill="#010202"
     id="path919"
     style="stroke-width:0.666224;fill:#180027;fill-opacity:1" />
  <path
     id="path950"
     style="fill:#180027;fill-opacity:1;stroke-width:0.136497"
     d="M 25.8125 0 L 25.824219 1.5351562 C 24.577299 1.658271 23.621157 2.1201225 22.871094 2.9296875 C 22.121044 3.7358491 21.744141 4.7352055 21.744141 5.9238281 C 21.744141 7.0982552 22.07576 8.0928333 22.740234 8.9179688 C 23.40061 9.7390053 24.442786 10.352683 25.865234 10.757812 L 25.865234 15.308594 C 25.473131 15.119139 25.118197 14.818713 24.796875 14.398438 L 24.585938 17.675781 C 24.962748 17.816603 25.368598 17.918492 25.8125 17.972656 L 25.824219 19.974609 L 27.414062 19.941406 L 27.417969 17.892578 C 28.847648 17.669133 29.994812 17.113418 30.796875 16.214844 C 31.599971 15.315329 32 14.212004 32 12.900391 C 32 11.726649 31.683322 10.764135 31.044922 10.013672 C 30.41126 9.2668827 29.212896 8.6560958 27.455078 8.1875 L 27.455078 3.9394531 C 28.164323 4.2441151 28.603815 4.8239411 28.775391 5.6777344 L 31.552734 5.3222656 C 31.362178 4.2339662 30.921645 3.3633036 30.234375 2.7128906 C 29.543971 2.0635698 28.578257 1.694639 27.414062 1.5566406 L 27.414062 0 L 25.8125 0 z M 24.796875 14.398438 C 24.475696 13.978568 24.254285 13.480238 24.138672 12.900391 L 23.693359 12.953125 L 24.796875 14.398438 z M 25.863281 3.8945312 L 25.863281 7.6640625 C 25.393454 7.4625915 25.043948 7.1938321 24.816406 6.8671875 C 24.588047 6.5365912 24.474609 6.1793421 24.474609 5.796875 C 24.474609 5.376869 24.597328 4.9960561 24.847656 4.6464844 C 25.097995 4.2969142 25.434273 4.0474038 25.863281 3.8945312 z M 27.455078 11.226562 C 28.115452 11.416291 28.58767 11.682722 28.875 12.035156 C 29.166287 12.384727 29.3125 12.804722 29.3125 13.287109 C 29.3125 13.83323 29.142034 14.305862 28.794922 14.707031 C 28.451623 15.108063 28.003662 15.368256 27.455078 15.486328 L 27.455078 11.226562 z " />
  <path
     id="path1514"
     style="fill:#180027;fill-opacity:1;stroke-width:0.136497"
     d="M 4.5175781 0 L 4.5292969 1.5351562 C 3.2823861 1.658271 2.3262329 2.1201225 1.5761719 2.9296875 C 0.82612031 3.7358491 0.44726563 4.7352055 0.44726562 5.9238281 C 0.44726562 7.0982552 0.78083789 8.0928333 1.4453125 8.9179688 C 2.1056879 9.7390053 3.1459123 10.352683 4.5683594 10.757812 L 4.5683594 15.308594 C 4.1762466 15.119139 3.8232756 14.818713 3.5019531 14.398438 C 3.180776 13.978568 2.9593629 13.480238 2.84375 12.900391 L 0 13.236328 C 0.22044473 14.652222 0.71967322 15.751089 1.5078125 16.527344 C 2.2949998 17.303749 3.2635745 17.819644 4.5175781 17.972656 L 4.5273438 19.974609 L 6.1171875 19.941406 L 6.1230469 17.892578 C 6.7307704 17.7976 7.2841131 17.637571 7.7851562 17.421875 L 7.0742188 16.53125 L 7.015625 15.132812 C 6.7645693 15.298671 6.4788515 15.417315 6.1582031 15.486328 L 6.1582031 11.226562 C 6.8185771 11.416291 7.2927497 11.682722 7.5800781 12.035156 C 7.8225609 12.326157 7.963279 12.666775 8.0039062 13.050781 L 9.2011719 12.830078 L 9.5664062 11.253906 L 9.9277344 10.244141 C 9.8710536 10.166074 9.812913 10.087628 9.75 10.013672 C 9.1157232 9.2668737 7.9179752 8.6560958 6.1601562 8.1875 L 6.1601562 3.9394531 C 6.8694013 4.2441151 7.3088925 4.8239411 7.4804688 5.6777344 L 10.257812 5.3222656 C 10.067256 4.2339662 9.6267227 3.3633036 8.9394531 2.7128906 C 8.2490516 2.0635698 7.2833365 1.694639 6.1191406 1.5566406 L 6.1191406 0 L 4.5175781 0 z M 4.5683594 3.8945312 L 4.5683594 7.6640625 C 4.098533 7.4625915 3.7470761 7.1938321 3.5195312 6.8671875 C 3.2911728 6.5365912 3.1796875 6.1793421 3.1796875 5.796875 C 3.1796875 5.376869 3.3024065 4.9960561 3.5527344 4.6464844 C 3.8030727 4.2969142 4.1393503 4.0474038 4.5683594 3.8945312 z " />
  <path
     id="path1516"
     style="fill:#180027;fill-opacity:1;stroke-width:0.136497"
     d="M 15.164062 0 L 15.175781 1.5351562 C 13.928884 1.658271 12.972718 2.1201225 12.222656 2.9296875 C 11.472605 3.7358491 11.095703 4.7352055 11.095703 5.9238281 C 11.095703 6.7611997 11.267667 7.5056771 11.605469 8.1640625 L 11.912109 7.84375 L 13.777344 6.7675781 L 14.023438 6.625 C 13.892303 6.3641114 13.828125 6.0874365 13.828125 5.796875 C 13.828125 5.376869 13.950844 4.9960561 14.201172 4.6464844 C 14.451513 4.2969142 14.787786 4.0474038 15.216797 3.8945312 L 15.216797 5.9375 L 15.558594 5.7402344 L 16.806641 6.1113281 L 16.806641 3.9394531 C 17.515885 4.2441151 17.955378 4.8239411 18.126953 5.6777344 L 20.904297 5.3222656 C 20.713741 4.2339662 20.273203 3.3633036 19.585938 2.7128906 C 18.895536 2.0635698 17.929821 1.694639 16.765625 1.5566406 L 16.765625 0 L 15.164062 0 z " />
  <path
     d="m 25.826798,24.871406 -4.930056,-1.932049 c 1.065958,-1.199203 1.865427,-2.731517 2.331783,-4.530321 1.332448,0 2.331783,-1.065958 2.331783,-2.398406 v -1.265825 c 0,-1.332448 -1.065958,-2.398406 -2.331783,-2.398406 -0.999335,-4.1305868 -3.864098,-6.9287265 -7.128594,-6.9953489 0,0 -0.06662,0 -0.06662,0 h -0.133245 c -1.065958,0 -2.131916,0.2664895 -3.064629,0.8660909 -0.866091,0.4663566 -1.598937,1.1325804 -2.265161,1.9320489 -0.06662,0.066622 -0.06662,0.066622 -0.133245,0.1332447 -0.8660912,1.065958 -1.4656922,2.4650274 -1.8654262,3.9973424 -1.332446,0 -2.331782,1.13258 -2.331782,2.398406 v 1.332447 c 0,1.332448 1.065958,2.398406 2.331782,2.398406 0.466356,1.798804 1.265825,3.397741 2.3317832,4.596943 L 6.0399557,24.871406 C 3.9746621,25.737497 2.5755922,27.736168 2.5755922,30.001329 2.5755922,31.067287 3.4416831,32 4.5742634,32 H 27.425737 c 1.065958,0 1.998671,-0.866091 1.998671,-1.998671 -0.06662,-2.265161 -1.465692,-4.263832 -3.597608,-5.129923 z M 9.7708048,17.609567 c -0.06662,-0.333112 -0.333111,-0.532979 -0.666223,-0.532979 h -0.466357 c -0.599601,0 -1.065957,-0.466357 -1.065957,-1.065958 v -1.265825 c 0,-0.599601 0.466356,-1.065958 1.065957,-1.065958 h 0.466357 c 0.333112,0 0.599601,-0.199867 0.666223,-0.532979 0.2664902,-1.199203 0.6662242,-2.331783 1.1992032,-3.2644964 l 0.932713,1.3324474 c 0.133245,0.199867 0.333112,0.333112 0.532979,0.333112 0.133245,0 0.26649,-0.06662 0.333112,-0.06662 0.333112,-0.199868 0.399735,-0.599602 0.199867,-0.932714 L 11.902721,8.6821689 c 0.333112,-0.3997343 0.732847,-0.7328462 1.132581,-0.9993357 l 2.198538,3.5309858 c 0.133245,0.199867 0.333112,0.333112 0.532979,0.333112 0.133245,0 0.26649,-0.06662 0.333112,-0.06662 0.333112,-0.199868 0.399734,-0.599602 0.199867,-0.932714 L 14.10126,7.0166095 c 0.466356,-0.1998671 0.999335,-0.3331119 1.532314,-0.3331119 l 2.931385,4.5303214 c 0.133245,0.199867 0.333112,0.333112 0.532979,0.333112 0.133245,0 0.266489,-0.06662 0.333112,-0.06662 0.333112,-0.199868 0.399734,-0.599602 0.199867,-0.932714 L 17.365756,6.9499871 c 2.198539,0.7328461 3.997343,3.0646289 4.596944,6.1292589 0.06662,0.333111 0.333112,0.532979 0.666224,0.532979 h 0.466356 c 0.599602,0 1.065958,0.466356 1.065958,1.065958 v 1.332447 c 0,0.599601 -0.466356,1.065958 -1.065958,1.065958 h -0.466356 c -0.333112,0 -0.599602,0.199867 -0.666224,0.532979 -0.732846,3.797475 -3.197874,6.395748 -6.062636,6.395748 -1.199203,0 -2.331783,-0.466357 -3.264496,-1.265825 0,0 -0.06662,-0.06662 -0.06662,-0.06662 -1.332447,-1.132581 -2.331783,-2.931385 -2.7981402,-5.063301 z M 27.359112,30.667553 H 4.5742614 c -0.3331118,0 -0.6662237,-0.26649 -0.6662237,-0.666224 0,-1.732182 1.065958,-3.264497 2.664895,-3.93072 l 5.4630333,-2.131916 c 1.132581,0.866091 2.465028,1.332447 3.864098,1.332447 1.39907,0 2.731517,-0.532979 3.864098,-1.39907 l 5.529657,2.131916 c 1.598937,0.599602 2.664895,2.198539 2.664895,3.93072 0.06662,0.466357 -0.199867,0.732847 -0.599602,0.732847 z"
     fill="#010202"
     id="path915"
     style="fill:#180027;fill-opacity:1;stroke-width:0.666224" />
</svg>
