<?xml version="1.0" encoding="UTF-8" standalone="no"?>
<svg
   fill="none"
   height="32"
   viewBox="0 0 32 32"
   width="32"
   version="1.1"
   id="svg4"
   sodipodi:docname="face-link.svg"
   inkscape:export-filename="face-link.png"
   inkscape:export-xdpi="144"
   inkscape:export-ydpi="144"
   inkscape:version="1.1.1 (3bf5ae0d25, 2021-09-20)"
   xmlns:inkscape="http://www.inkscape.org/namespaces/inkscape"
   xmlns:sodipodi="http://sodipodi.sourceforge.net/DTD/sodipodi-0.dtd"
   xmlns="http://www.w3.org/2000/svg"
   xmlns:svg="http://www.w3.org/2000/svg">
  <defs
     id="defs8" />
  <sodipodi:namedview
     id="namedview6"
     pagecolor="#ffffff"
     bordercolor="#666666"
     borderopacity="1.0"
     inkscape:pageshadow="2"
     inkscape:pageopacity="0.0"
     inkscape:pagecheckerboard="0"
     showgrid="false"
     inkscape:zoom="25.75"
     inkscape:cx="15.980583"
     inkscape:cy="22.194175"
     inkscape:window-width="1920"
     inkscape:window-height="1013"
     inkscape:window-x="-9"
     inkscape:window-y="29"
     inkscape:window-maximized="1"
     inkscape:current-layer="svg4" />
  <path
     clip-rule="evenodd"
     d="m 27.40306,4.6727317 c -1.388446,-1.3885355 -3.639828,-1.3885355 -5.028274,0 l -5.028275,5.0283099 c -0.694401,0.6942774 -1.819913,0.6942774 -2.514315,0 -0.694223,-0.694259 -0.694223,-1.819878 0,-2.514155 l 5.028453,-5.0283277 c 2.777071,-2.77705306 7.279477,-2.77705306 10.056548,0 2.777071,2.777071 2.777071,7.2795847 0,10.0566561 l -5.028274,5.028327 c -0.694223,0.694224 -1.819914,0.694224 -2.514137,0 -0.694223,-0.694223 -0.694223,-1.819913 0,-2.514137 L 27.40306,9.7010416 c 1.388624,-1.388518 1.388624,-3.6397745 0,-5.0283099 z m -6.59041,6.5146063 c 0.694223,0.694276 0.694223,1.819931 0,2.514155 l -7.111122,7.111122 c -0.694223,0.694223 -1.819878,0.694223 -2.514155,0 -0.694259,-0.694224 -0.694259,-1.819914 0,-2.514138 l 7.11114,-7.111139 c 0.694223,-0.694259 1.819914,-0.694259 2.514137,0 z M 9.6252726,14.756427 c 0.6942774,0.694224 0.6942774,1.819914 0,2.514138 l -5.0283099,5.028274 c -1.3885355,1.388624 -1.3885355,3.639828 0,5.028452 1.3885177,1.388447 3.6397749,1.388447 5.0283099,0 L 14.65353,22.298839 c 0.694401,-0.694223 1.819913,-0.694223 2.514315,0 0.694223,0.694401 0.694223,1.819914 0,2.514315 l -5.028399,5.028274 c -2.7770714,2.777071 -7.2795851,2.777071 -10.0566561,0 -2.77705306,-2.777071 -2.77705306,-7.279655 0,-10.056726 l 5.0283277,-5.028275 c 0.694259,-0.694223 1.819896,-0.694223 2.514155,0 z"
     fill="#180027"
     fill-rule="evenodd"
     id="path2"
     style="stroke-width:1.77778" />
</svg>
