<?xml version="1.0" encoding="UTF-8" standalone="no"?>
<svg
   fill="none"
   height="32"
   viewBox="0 0 32 32"
   width="32"
   version="1.1"
   id="svg6"
   sodipodi:docname="face-user.svg"
   inkscape:version="1.1.1 (3bf5ae0d25, 2021-09-20)"
   xmlns:inkscape="http://www.inkscape.org/namespaces/inkscape"
   xmlns:sodipodi="http://sodipodi.sourceforge.net/DTD/sodipodi-0.dtd"
   xmlns="http://www.w3.org/2000/svg"
   xmlns:svg="http://www.w3.org/2000/svg">
  <defs
     id="defs10" />
  <sodipodi:namedview
     id="namedview8"
     pagecolor="#ffffff"
     bordercolor="#666666"
     borderopacity="1.0"
     inkscape:pageshadow="2"
     inkscape:pageopacity="0.0"
     inkscape:pagecheckerboard="0"
     showgrid="false"
     inkscape:zoom="27.28125"
     inkscape:cx="15.981672"
     inkscape:cy="15.981672"
     inkscape:window-width="3840"
     inkscape:window-height="2080"
     inkscape:window-x="2293"
     inkscape:window-y="35"
     inkscape:window-maximized="1"
     inkscape:current-layer="svg6" />
  <g
     id="g829"
     transform="matrix(1.7777778,0,0,1.7777778,-5.3333336,-5.3333336)">
    <path
       clip-rule="evenodd"
       d="m 16,7 c 0,2.20914 -1.7909,4 -4,4 C 9.79086,11 8,9.20914 8,7 8,4.79086 9.79086,3 12,3 c 2.2091,0 4,1.79086 4,4 z m -2,0 c 0,1.10457 -0.8954,2 -2,2 -1.1046,0 -2,-0.89543 -2,-2 0,-1.10457 0.8954,-2 2,-2 1.1046,0 2,0.89543 2,2 z"
       fill="#180027"
       fill-rule="evenodd"
       id="path2" />
    <path
       d="m 16,15 c 0,-0.5523 -0.4477,-1 -1,-1 H 9 c -0.55228,0 -1,0.4477 -1,1 v 6 H 6 v -6 c 0,-1.6569 1.34315,-3 3,-3 h 6 c 1.6569,0 3,1.3431 3,3 v 6 h -2 z"
       fill="#180027"
       id="path4" />
  </g>
</svg>
