<?xml version="1.0" encoding="UTF-8" standalone="no"?>
<svg
   fill="none"
   height="32"
   viewBox="0 0 32 32"
   width="32"
   version="1.1"
   id="svg12"
   sodipodi:docname="face-reorder.svg"
   inkscape:version="1.1.1 (3bf5ae0d25, 2021-09-20)"
   xmlns:inkscape="http://www.inkscape.org/namespaces/inkscape"
   xmlns:sodipodi="http://sodipodi.sourceforge.net/DTD/sodipodi-0.dtd"
   xmlns="http://www.w3.org/2000/svg"
   xmlns:svg="http://www.w3.org/2000/svg">
  <defs
     id="defs16" />
  <sodipodi:namedview
     id="namedview14"
     pagecolor="#ffffff"
     bordercolor="#666666"
     borderopacity="1.0"
     inkscape:pageshadow="2"
     inkscape:pageopacity="0.0"
     inkscape:pagecheckerboard="0"
     showgrid="false"
     inkscape:zoom="27.28125"
     inkscape:cx="15.981672"
     inkscape:cy="15.981672"
     inkscape:window-width="3840"
     inkscape:window-height="2080"
     inkscape:window-x="2293"
     inkscape:window-y="35"
     inkscape:window-maximized="1"
     inkscape:current-layer="svg12" />
  <g
     id="g838"
     transform="matrix(1.7777778,0,0,1.7777778,-5.3333336,-5.3333336)">
    <path
       d="M 3,4 C 3,3.44772 3.44772,3 4,3 h 8 c 0.5523,0 1,0.44772 1,1 0,0.55228 -0.4477,1 -1,1 H 4 C 3.44772,5 3,4.55228 3,4 Z"
       fill="#180027"
       fill-opacity="0.5"
       id="path2" />
    <path
       d="m 3,12 c 0,-0.5523 0.44772,-1 1,-1 h 8 c 0.5523,0 1,0.4477 1,1 0,0.5523 -0.4477,1 -1,1 H 4 C 3.44772,13 3,12.5523 3,12 Z"
       fill="#180027"
       fill-opacity="0.5"
       id="path4" />
    <path
       d="m 3,16 c 0,-0.5523 0.44772,-1 1,-1 h 8 c 0.5523,0 1,0.4477 1,1 0,0.5523 -0.4477,1 -1,1 H 4 C 3.44772,17 3,16.5523 3,16 Z"
       fill="#180027"
       fill-opacity="0.5"
       id="path6" />
    <path
       d="m 3,20 c 0,-0.5523 0.44772,-1 1,-1 h 8 c 0.5523,0 1,0.4477 1,1 0,0.5523 -0.4477,1 -1,1 H 4 C 3.44772,21 3,20.5523 3,20 Z"
       fill="#180027"
       fill-opacity="0.5"
       id="path8" />
    <path
       clip-rule="evenodd"
       d="m 15.1707,9 c 0.4118,1.1652 1.5231,2 2.8293,2 1.6569,0 3,-1.34315 3,-3 C 21,6.34315 19.6569,5 18,5 16.6938,5 15.5825,5.83481 15.1707,7 H 4 C 3.44772,7 3,7.44772 3,8 3,8.55228 3.44772,9 4,9 Z M 19,8 c 0,0.55228 -0.4477,1 -1,1 -0.5523,0 -1,-0.44772 -1,-1 0,-0.55228 0.4477,-1 1,-1 0.5523,0 1,0.44772 1,1 z"
       fill="#180027"
       fill-rule="evenodd"
       id="path10" />
  </g>
</svg>
