<?xml version="1.0" encoding="UTF-8" standalone="no"?>
<svg
   fill="none"
   height="32"
   viewBox="0 0 32 32"
   width="32"
   version="1.1"
   id="svg4"
   sodipodi:docname="face-o-next-track-play.svg"
   inkscape:version="1.1.1 (3bf5ae0d25, 2021-09-20)"
   xmlns:inkscape="http://www.inkscape.org/namespaces/inkscape"
   xmlns:sodipodi="http://sodipodi.sourceforge.net/DTD/sodipodi-0.dtd"
   xmlns="http://www.w3.org/2000/svg"
   xmlns:svg="http://www.w3.org/2000/svg">
  <defs
     id="defs8" />
  <sodipodi:namedview
     id="namedview6"
     pagecolor="#ffffff"
     bordercolor="#666666"
     borderopacity="1.0"
     inkscape:pageshadow="2"
     inkscape:pageopacity="0.0"
     inkscape:pagecheckerboard="0"
     showgrid="false"
     inkscape:zoom="27.28125"
     inkscape:cx="15.981672"
     inkscape:cy="15.981672"
     inkscape:window-width="3840"
     inkscape:window-height="2080"
     inkscape:window-x="2293"
     inkscape:window-y="35"
     inkscape:window-maximized="1"
     inkscape:current-layer="svg4" />
  <path
     clip-rule="evenodd"
     d="M 16,29.090909 C 8.7700945,29.090909 2.9090909,23.229964 2.9090909,16 2.9090909,8.7700945 8.7700945,2.9090909 16,2.9090909 23.229964,2.9090909 29.090909,8.7700945 29.090909,16 29.090909,23.229964 23.229964,29.090909 16,29.090909 Z M 0,16 C 0,7.1634473 7.1634473,0 16,0 24.836509,0 32,7.1634473 32,16 32,24.836509 24.836509,32 16,32 7.1634473,32 0,24.836509 0,16 Z m 18.909091,-4.363636 c 0,-0.803317 0.6512,-1.454546 1.454545,-1.454546 0.803346,0 1.454546,0.651229 1.454546,1.454546 v 8.727272 c 0,0.803346 -0.6512,1.454546 -1.454546,1.454546 -0.803345,0 -1.454545,-0.6512 -1.454545,-1.454546 z M 17.454545,16 8.7272727,21.038691 V 10.961309 Z"
     fill="#180027"
     fill-rule="evenodd"
     id="path2"
     style="stroke-width:1.45455" />
</svg>
