<?xml version="1.0" encoding="UTF-8" standalone="no"?>
<svg
   fill="none"
   height="32"
   viewBox="0 0 32 32"
   width="32"
   version="1.1"
   id="svg4"
   sodipodi:docname="face-enlarge.svg"
   inkscape:export-filename="face-enlarge.png"
   inkscape:export-xdpi="144"
   inkscape:export-ydpi="144"
   inkscape:version="1.1.1 (3bf5ae0d25, 2021-09-20)"
   xmlns:inkscape="http://www.inkscape.org/namespaces/inkscape"
   xmlns:sodipodi="http://sodipodi.sourceforge.net/DTD/sodipodi-0.dtd"
   xmlns="http://www.w3.org/2000/svg"
   xmlns:svg="http://www.w3.org/2000/svg">
  <defs
     id="defs8" />
  <sodipodi:namedview
     id="namedview6"
     pagecolor="#ffffff"
     bordercolor="#666666"
     borderopacity="1.0"
     inkscape:pageshadow="2"
     inkscape:pageopacity="0.0"
     inkscape:pagecheckerboard="0"
     showgrid="false"
     inkscape:zoom="25.75"
     inkscape:cx="15.980583"
     inkscape:cy="15.980583"
     inkscape:window-width="1920"
     inkscape:window-height="1013"
     inkscape:window-x="-9"
     inkscape:window-y="29"
     inkscape:window-maximized="1"
     inkscape:current-layer="svg4" />
  <path
     clip-rule="evenodd"
     d="m 3.5555556,5.3333336 h 7.1111114 c 0.981831,0 1.777777,-0.7959467 1.777777,-1.7777778 0,-0.9818311 -0.795946,-1.7777778 -1.777777,-1.7777778 H 1.7777778 c -0.4715022,0 -0.92368,0.1873067 -1.2570845,0.5206933 C 0.1873067,2.6318758 0,3.0840536 0,3.5555558 v 8.8888892 c 0,0.981866 0.7959467,1.777777 1.7777778,1.777777 0.9818489,0 1.7777778,-0.795911 1.7777778,-1.777777 z M 19.555556,3.5555558 c 0,-0.9818311 0.795911,-1.7777778 1.777777,-1.7777778 h 8.888889 C 31.204089,1.777778 32,2.5737247 32,3.5555558 v 8.8888892 c 0,0.981866 -0.795911,1.777777 -1.777778,1.777777 -0.981866,0 -1.777778,-0.795911 -1.777778,-1.777777 V 5.3333336 h -7.111111 c -0.981866,0 -1.777777,-0.7959467 -1.777777,-1.7777778 z M 1.7777778,17.777778 c 0.9818489,0 1.7777778,0.795911 1.7777778,1.777778 v 7.111111 h 7.1111114 c 0.981831,0 1.777777,0.795911 1.777777,1.777778 0,0.981866 -0.795946,1.777777 -1.777777,1.777777 H 1.7777778 c -0.4715022,0 -0.92368,-0.187377 -1.2570845,-0.520711 C 0.1873067,29.368178 0,28.915911 0,28.444445 v -8.888889 c 0,-0.981867 0.7959467,-1.777778 1.7777778,-1.777778 z m 28.4444442,0 C 31.204089,17.777778 32,18.573689 32,19.555556 v 8.888889 c 0,0.981866 -0.795911,1.777777 -1.777778,1.777777 h -8.888889 c -0.981866,0 -1.777777,-0.795911 -1.777777,-1.777777 0,-0.981867 0.795911,-1.777778 1.777777,-1.777778 h 7.111111 v -7.111111 c 0,-0.981867 0.795912,-1.777778 1.777778,-1.777778 z"
     fill="#180027"
     fill-rule="evenodd"
     id="path2"
     style="stroke-width:1.77778" />
</svg>
