<?xml version="1.0" encoding="UTF-8" standalone="no"?>
<svg
   fill="none"
   height="32"
   viewBox="0 0 32 32"
   width="32"
   version="1.1"
   id="svg8"
   sodipodi:docname="face-today.svg"
   inkscape:version="1.1.1 (3bf5ae0d25, 2021-09-20)"
   xmlns:inkscape="http://www.inkscape.org/namespaces/inkscape"
   xmlns:sodipodi="http://sodipodi.sourceforge.net/DTD/sodipodi-0.dtd"
   xmlns="http://www.w3.org/2000/svg"
   xmlns:svg="http://www.w3.org/2000/svg">
  <defs
     id="defs12" />
  <sodipodi:namedview
     id="namedview10"
     pagecolor="#ffffff"
     bordercolor="#666666"
     borderopacity="1.0"
     inkscape:pageshadow="2"
     inkscape:pageopacity="0.0"
     inkscape:pagecheckerboard="0"
     showgrid="false"
     inkscape:zoom="27.28125"
     inkscape:cx="15.981672"
     inkscape:cy="15.981672"
     inkscape:window-width="3840"
     inkscape:window-height="2080"
     inkscape:window-x="2293"
     inkscape:window-y="35"
     inkscape:window-maximized="1"
     inkscape:current-layer="svg8" />
  <g
     id="g832"
     transform="matrix(1.4545455,0,0,1.4545455,-1.454546,-1.454546)">
    <rect
       fill="#180027"
       height="10"
       opacity="0.5"
       rx="1"
       width="10"
       x="7"
       y="9"
       id="rect2" />
    <path
       clip-rule="evenodd"
       d="M 18,3 H 6 C 5.44772,3 5,3.44772 5,4 v 16 c 0,0.5523 0.44772,1 1,1 h 12 c 0.5523,0 1,-0.4477 1,-1 V 4 C 19,3.44772 18.5523,3 18,3 Z M 6,1 C 4.34315,1 3,2.34315 3,4 v 16 c 0,1.6569 1.34315,3 3,3 h 12 c 1.6569,0 3,-1.3431 3,-3 V 4 C 21,2.34315 19.6569,1 18,1 Z"
       fill="#180027"
       fill-rule="evenodd"
       id="path4" />
    <path
       d="M 7,6 C 7,5.44772 7.44772,5 8,5 h 4 c 0.5523,0 1,0.44772 1,1 0,0.55228 -0.4477,1 -1,1 H 8 C 7.44772,7 7,6.55228 7,6 Z"
       fill="#180027"
       id="path6" />
  </g>
</svg>
