<?xml version="1.0" encoding="UTF-8" standalone="no"?>
<svg
   fill="none"
   height="32"
   viewBox="0 0 32 32"
   width="32"
   version="1.1"
   id="svg4"
   sodipodi:docname="face-out-zoom.svg"
   inkscape:version="1.1.1 (3bf5ae0d25, 2021-09-20)"
   xmlns:inkscape="http://www.inkscape.org/namespaces/inkscape"
   xmlns:sodipodi="http://sodipodi.sourceforge.net/DTD/sodipodi-0.dtd"
   xmlns="http://www.w3.org/2000/svg"
   xmlns:svg="http://www.w3.org/2000/svg">
  <defs
     id="defs8" />
  <sodipodi:namedview
     id="namedview6"
     pagecolor="#ffffff"
     bordercolor="#666666"
     borderopacity="1.0"
     inkscape:pageshadow="2"
     inkscape:pageopacity="0.0"
     inkscape:pagecheckerboard="0"
     showgrid="false"
     inkscape:zoom="27.28125"
     inkscape:cx="15.981672"
     inkscape:cy="15.981672"
     inkscape:window-width="3840"
     inkscape:window-height="2080"
     inkscape:window-x="2293"
     inkscape:window-y="35"
     inkscape:window-maximized="1"
     inkscape:current-layer="svg4" />
  <path
     clip-rule="evenodd"
     d="m 20.728783,20.728791 c 3.967435,-3.967266 3.967435,-10.399616 0,-14.3669494 -3.967265,-3.9673499 -10.399598,-3.9673499 -14.3669477,0 -3.967333,3.9673334 -3.967333,10.3996834 0,14.3669494 3.9673497,3.967434 10.3996827,3.967434 14.3669477,0 z m 2.39465,-16.7614465 c 4.884963,4.8850981 5.258815,12.5732225 1.121047,17.8872345 0.02591,0.02286 0.0513,0.04673 0.07619,0.07145 l 7.183441,7.18361 c 0.661182,0.661182 0.661182,1.733297 0,2.39448 -0.661183,0.661182 -1.733298,0.661182 -2.394481,0 L 21.926193,24.32068 c -0.02489,-0.02489 -0.04876,-0.05029 -0.07162,-0.07619 -5.314012,4.137767 -13.0021355,3.763915 -17.8872338,-1.121048 -5.2897829,-5.2898 -5.2897829,-13.8663124 0,-19.1560955 5.2897993,-5.2898019 13.8662938,-5.2898019 19.1560938,-2e-6 z M 6.7726998,11.852181 V 15.23852 H 20.318021 v -3.386339 z"
     fill="#180027"
     fill-rule="evenodd"
     id="path2"
     style="stroke-width:1.69317" />
</svg>
