<?xml version="1.0" encoding="UTF-8" standalone="no"?>
<svg
   fill="none"
   height="32"
   viewBox="0 0 32 32"
   width="32"
   version="1.1"
   id="svg4"
   sodipodi:docname="face-speaker-disable.svg"
   inkscape:export-filename="face-speaker-disable.png"
   inkscape:export-xdpi="144"
   inkscape:export-ydpi="144"
   inkscape:version="1.1.1 (3bf5ae0d25, 2021-09-20)"
   xmlns:inkscape="http://www.inkscape.org/namespaces/inkscape"
   xmlns:sodipodi="http://sodipodi.sourceforge.net/DTD/sodipodi-0.dtd"
   xmlns="http://www.w3.org/2000/svg"
   xmlns:svg="http://www.w3.org/2000/svg">
  <defs
     id="defs8" />
  <sodipodi:namedview
     id="namedview6"
     pagecolor="#ffffff"
     bordercolor="#666666"
     borderopacity="1.0"
     inkscape:pageshadow="2"
     inkscape:pageopacity="0.0"
     inkscape:pagecheckerboard="0"
     showgrid="false"
     inkscape:zoom="25.75"
     inkscape:cx="15.980583"
     inkscape:cy="15.980583"
     inkscape:window-width="1920"
     inkscape:window-height="1013"
     inkscape:window-x="-9"
     inkscape:window-y="29"
     inkscape:window-maximized="1"
     inkscape:current-layer="svg4" />
  <path
     clip-rule="evenodd"
     d="m 17.468611,1.2403132 c 2.769112,-2.6852023 7.405062,-0.72300733 7.405062,3.1342446 v 9.8506932 c 0,0.980183 -0.794547,1.77473 -1.77473,1.77473 -0.980184,0 -1.77473,-0.794547 -1.77473,-1.77473 V 4.3745578 c 0,-0.7212681 -0.866956,-1.0881936 -1.384645,-0.5860869 l -2.92582,2.8372079 C 16.310067,7.3080093 15.186486,7.2907233 14.504102,6.5870607 13.821718,5.8834157 13.83911,4.7598517 14.542791,4.0775212 Z M 0.54725083,0.54721007 c 0.69308537,-0.6930677 1.81677357,-0.6930677 2.50985897,0 L 31.452775,28.942911 c 0.693033,0.693032 0.693033,1.816791 0,2.509823 -0.693032,0.693033 -1.816791,0.693033 -2.509823,0 l -4.069279,-4.069278 v 0.241895 c 0,3.857376 -4.63595,5.819518 -7.405062,3.134351 l -6.069985,-5.88607 h -0.722795 c -2.9404609,0 -5.3241902,-2.38364 -5.3241902,-5.324191 v -7.09892 c 0,-1.284089 0.4545439,-2.4606817 1.2099223,-3.3791577 L 0.54725083,3.057069 c -0.6930676,-0.6930853 -0.6930676,-1.8167735 0,-2.50985893 z M 9.1080171,11.617817 c -0.132289,0.248764 -0.206916,0.532348 -0.206916,0.832704 v 7.09892 c 0,0.980184 0.794565,1.774731 1.7747299,1.774731 H 12.1178 c 0.461252,0 0.904402,0.179602 1.235389,0.500651 l 6.586379,6.386722 c 0.517689,0.502071 1.384645,0.135057 1.384645,-0.586194 v -3.791356 z"
     fill="#180027"
     fill-rule="evenodd"
     id="path2"
     style="stroke-width:1.77473" />
</svg>
