<?xml version="1.0" encoding="UTF-8" standalone="no"?>
<svg
   fill="none"
   height="32"
   viewBox="0 0 32 32"
   width="32"
   version="1.1"
   id="svg8"
   sodipodi:docname="face-o-down-chevron-push.svg"
   inkscape:version="1.1.1 (3bf5ae0d25, 2021-09-20)"
   xmlns:inkscape="http://www.inkscape.org/namespaces/inkscape"
   xmlns:sodipodi="http://sodipodi.sourceforge.net/DTD/sodipodi-0.dtd"
   xmlns="http://www.w3.org/2000/svg"
   xmlns:svg="http://www.w3.org/2000/svg">
  <defs
     id="defs12" />
  <sodipodi:namedview
     id="namedview10"
     pagecolor="#ffffff"
     bordercolor="#666666"
     borderopacity="1.0"
     inkscape:pageshadow="2"
     inkscape:pageopacity="0.0"
     inkscape:pagecheckerboard="0"
     showgrid="false"
     inkscape:zoom="27.28125"
     inkscape:cx="15.981672"
     inkscape:cy="15.981672"
     inkscape:window-width="3840"
     inkscape:window-height="2080"
     inkscape:window-x="2293"
     inkscape:window-y="35"
     inkscape:window-maximized="1"
     inkscape:current-layer="svg8" />
  <g
     id="g832"
     transform="matrix(1.4545455,0,0,1.4545455,-1.454546,-1.454546)">
    <path
       d="m 16,14 v 2 H 8 v -2 z"
       fill="#180027"
       id="path2" />
    <path
       d="M 7.75732,8.70261 9.17153,7.2884 12,10.1168 14.8284,7.28842 16.2426,8.70264 11.9999,12.9453 Z"
       fill="#180027"
       id="path4" />
    <path
       clip-rule="evenodd"
       d="M 12,23 C 18.0751,23 23,18.0751 23,12 23,5.92487 18.0751,1 12,1 5.92487,1 1,5.92487 1,12 1,18.0751 5.92487,23 12,23 Z m 0,-2 c 4.9706,0 9,-4.0294 9,-9 0,-4.97056 -4.0294,-9 -9,-9 -4.97056,0 -9,4.02944 -9,9 0,4.9706 4.02944,9 9,9 z"
       fill="#180027"
       fill-rule="evenodd"
       id="path6" />
  </g>
</svg>
