<?xml version="1.0" encoding="UTF-8" standalone="no"?>
<svg
   fill="none"
   height="32"
   viewBox="0 0 32 32"
   width="32"
   version="1.1"
   id="svg4"
   sodipodi:docname="face-empty-trash.svg"
   inkscape:version="1.1.1 (3bf5ae0d25, 2021-09-20)"
   xmlns:inkscape="http://www.inkscape.org/namespaces/inkscape"
   xmlns:sodipodi="http://sodipodi.sourceforge.net/DTD/sodipodi-0.dtd"
   xmlns="http://www.w3.org/2000/svg"
   xmlns:svg="http://www.w3.org/2000/svg">
  <defs
     id="defs8" />
  <sodipodi:namedview
     id="namedview6"
     pagecolor="#ffffff"
     bordercolor="#666666"
     borderopacity="1.0"
     inkscape:pageshadow="2"
     inkscape:pageopacity="0.0"
     inkscape:pagecheckerboard="0"
     showgrid="false"
     inkscape:zoom="27.28125"
     inkscape:cx="15.981672"
     inkscape:cy="15.981672"
     inkscape:window-width="3840"
     inkscape:window-height="2080"
     inkscape:window-x="2293"
     inkscape:window-y="35"
     inkscape:window-maximized="1"
     inkscape:current-layer="svg4" />
  <path
     clip-rule="evenodd"
     d="M 24.421053,5.0526316 V 3.3684211 C 24.421053,1.5080926 22.913011,0 21.052632,0 H 10.947369 C 9.0870405,0 7.5789476,1.5080926 7.5789476,3.3684211 V 5.0526316 H 2.526316 c -0.9301558,0 -1.6842105,0.7540547 -1.6842105,1.6842105 0,0.9301559 0.7540547,1.6842109 1.6842105,1.6842109 H 4.2105266 V 26.947368 C 4.2105266,29.737937 6.4726739,32 9.2631585,32 H 22.736843 c 2.790568,0 5.05263,-2.262063 5.05263,-5.052632 V 8.421053 h 1.684211 c 0.93019,0 1.68421,-0.754055 1.68421,-1.6842109 0,-0.9301558 -0.754021,-1.6842105 -1.68421,-1.6842105 z M 21.052632,3.3684211 H 10.947369 V 5.0526316 H 21.052632 Z M 24.421053,8.421053 H 7.5789476 v 18.526315 c 0,0.93019 0.7540549,1.684211 1.6842109,1.684211 H 22.736843 c 0.930188,0 1.68421,-0.754021 1.68421,-1.684211 z"
     fill="#180027"
     fill-rule="evenodd"
     id="path2"
     style="stroke-width:1.68421" />
</svg>
