<?xml version="1.0" encoding="UTF-8" standalone="no"?>
<svg
   fill="none"
   height="32"
   viewBox="0 0 32 32"
   width="32"
   version="1.1"
   id="svg4"
   sodipodi:docname="face-presentation.svg"
   inkscape:version="1.1.1 (3bf5ae0d25, 2021-09-20)"
   xmlns:inkscape="http://www.inkscape.org/namespaces/inkscape"
   xmlns:sodipodi="http://sodipodi.sourceforge.net/DTD/sodipodi-0.dtd"
   xmlns="http://www.w3.org/2000/svg"
   xmlns:svg="http://www.w3.org/2000/svg">
  <defs
     id="defs8" />
  <sodipodi:namedview
     id="namedview6"
     pagecolor="#ffffff"
     bordercolor="#666666"
     borderopacity="1.0"
     inkscape:pageshadow="2"
     inkscape:pageopacity="0.0"
     inkscape:pagecheckerboard="0"
     showgrid="false"
     inkscape:zoom="27.28125"
     inkscape:cx="15.981672"
     inkscape:cy="15.981672"
     inkscape:window-width="3840"
     inkscape:window-height="2080"
     inkscape:window-x="2293"
     inkscape:window-y="35"
     inkscape:window-maximized="1"
     inkscape:current-layer="svg4" />
  <path
     clip-rule="evenodd"
     d="M 16,32 C 24.83648,32 32,24.83648 32,16 32,7.16344 24.83648,0 16,0 7.16344,0 0,7.16344 0,16 0,24.83648 7.16344,32 16,32 Z M 28.8,16 H 25.6 C 25.6,10.698064 21.30192,6.4 16,6.4 10.698064,6.4 6.4,10.698064 6.4,16 H 3.2 C 3.2,8.930752 8.930752,3.2 16,3.2 23.06928,3.2 28.8,8.930752 28.8,16 Z M 3.603264,19.2 H 28.3968 C 26.97584,24.7208 21.96432,28.8 16,28.8 10.035712,28.8 5.024192,24.7208 3.603264,19.2 Z M 9.6,16 c 0,-3.534624 2.865376,-6.4 6.4,-6.4 3.53456,0 6.4,2.865376 6.4,6.4 z"
     fill="#180027"
     fill-rule="evenodd"
     id="path2"
     style="stroke-width:1.6" />
</svg>
