<?xml version="1.0" encoding="UTF-8" standalone="no"?>
<svg
   fill="none"
   height="32"
   viewBox="0 0 32 32"
   width="32"
   version="1.1"
   id="svg6"
   sodipodi:docname="face-track.svg"
   inkscape:version="1.1.1 (3bf5ae0d25, 2021-09-20)"
   xmlns:inkscape="http://www.inkscape.org/namespaces/inkscape"
   xmlns:sodipodi="http://sodipodi.sourceforge.net/DTD/sodipodi-0.dtd"
   xmlns="http://www.w3.org/2000/svg"
   xmlns:svg="http://www.w3.org/2000/svg">
  <defs
     id="defs10" />
  <sodipodi:namedview
     id="namedview8"
     pagecolor="#ffffff"
     bordercolor="#666666"
     borderopacity="1.0"
     inkscape:pageshadow="2"
     inkscape:pageopacity="0.0"
     inkscape:pagecheckerboard="0"
     showgrid="false"
     inkscape:zoom="27.28125"
     inkscape:cx="15.981672"
     inkscape:cy="15.981672"
     inkscape:window-width="3840"
     inkscape:window-height="2080"
     inkscape:window-x="2293"
     inkscape:window-y="35"
     inkscape:window-maximized="1"
     inkscape:current-layer="svg6" />
  <g
     id="g829"
     transform="matrix(1.7777778,0,0,1.7777778,-5.3333336,-5.3333336)">
    <path
       d="m 12,15 c 1.6569,0 3,-1.3431 3,-3 0,-1.6569 -1.3431,-3 -3,-3 -1.6569,0 -3,1.3431 -3,3 0,1.6569 1.3431,3 3,3 z"
       fill="#180027"
       id="path2" />
    <path
       clip-rule="evenodd"
       d="m 12,3 c 0.5523,0 1,0.44772 1,1 V 5.07089 C 16.0657,5.5094 18.4906,7.93431 18.9291,11 H 20 c 0.5523,0 1,0.4477 1,1 0,0.5523 -0.4477,1 -1,1 H 18.9291 C 18.4906,16.0657 16.0657,18.4906 13,18.9291 V 20 c 0,0.5523 -0.4477,1 -1,1 -0.5523,0 -1,-0.4477 -1,-1 V 18.9291 C 7.93431,18.4906 5.5094,16.0657 5.07089,13 H 4 C 3.44772,13 3,12.5523 3,12 3,11.4477 3.44772,11 4,11 H 5.07089 C 5.5094,7.93431 7.93431,5.5094 11,5.07089 V 4 c 0,-0.55228 0.4477,-1 1,-1 z m -5,9 c 0,-2.76142 2.23858,-5 5,-5 2.7614,0 5,2.23858 5,5 0,2.7614 -2.2386,5 -5,5 -2.76142,0 -5,-2.2386 -5,-5 z"
       fill="#180027"
       fill-rule="evenodd"
       id="path4" />
  </g>
</svg>
