<?xml version="1.0" encoding="UTF-8" standalone="no"?>
<svg
   fill="none"
   height="32"
   viewBox="0 0 32 32"
   width="32"
   version="1.1"
   id="svg4"
   sodipodi:docname="face-product-group.svg"
   inkscape:version="1.1.1 (3bf5ae0d25, 2021-09-20)"
   inkscape:export-filename="face-product-group.png"
   inkscape:export-xdpi="192"
   inkscape:export-ydpi="192"
   xmlns:inkscape="http://www.inkscape.org/namespaces/inkscape"
   xmlns:sodipodi="http://sodipodi.sourceforge.net/DTD/sodipodi-0.dtd"
   xmlns="http://www.w3.org/2000/svg"
   xmlns:svg="http://www.w3.org/2000/svg">
  <defs
     id="defs8" />
  <sodipodi:namedview
     id="namedview6"
     pagecolor="#ffffff"
     bordercolor="#666666"
     borderopacity="1.0"
     inkscape:pageshadow="2"
     inkscape:pageopacity="0.0"
     inkscape:pagecheckerboard="0"
     showgrid="false"
     inkscape:zoom="8"
     inkscape:cx="-17"
     inkscape:cy="22.25"
     inkscape:window-width="3840"
     inkscape:window-height="2054"
     inkscape:window-x="2869"
     inkscape:window-y="-11"
     inkscape:window-maximized="1"
     inkscape:current-layer="svg4" />
  <path
     id="path921"
     style="color:#000000;fill:#180027;fill-opacity:1;stroke-width:0.767053;stroke-linejoin:round;-inkscape-stroke:none"
     d="M 16 0 A 1.0228074 1.0228755 0 0 0 15.542969 0.10742188 L 5.3144531 5.2207031 A 1.0228074 1.0228755 0 0 0 5.2753906 5.25 A 1.0227051 1.0227732 0 0 0 5.0390625 5.4296875 A 1.0228074 1.0228755 0 0 0 5.0117188 5.453125 A 1.0227051 1.0227732 0 0 0 4.8574219 5.6777344 A 1.0227051 1.0227732 0 0 0 4.8398438 5.734375 A 1.0228074 1.0228755 0 0 0 4.8046875 5.8457031 A 1.0227051 1.0227732 0 0 0 4.7617188 6.0761719 A 1.0228074 1.0228755 0 0 0 4.75 6.1367188 L 4.75 15 L 6.7949219 15 L 6.7949219 7.7910156 L 10.414062 9.5996094 L 14.976562 11.882812 L 14.976562 15 L 17.021484 15 L 17.021484 11.882812 L 25.203125 7.7910156 L 25.203125 15 L 27.25 15 L 27.25 6.1367188 A 1.0228074 1.0228755 0 0 0 27.248047 6.0898438 A 1.0227051 1.0227732 0 0 0 27.246094 6.0820312 A 1.0228074 1.0228755 0 0 0 27.238281 5.984375 A 1.0227051 1.0227732 0 0 0 27.234375 5.9707031 A 1.0228074 1.0228755 0 0 0 27.222656 5.90625 A 1.0227051 1.0227732 0 0 0 27.203125 5.8320312 A 1.0228074 1.0228755 0 0 0 27.197266 5.8183594 A 1.0227051 1.0227732 0 0 0 27.167969 5.734375 A 1.0228074 1.0228755 0 0 0 27.162109 5.7246094 A 1.0227051 1.0227732 0 0 0 27.142578 5.6777344 A 1.0227051 1.0227732 0 0 0 27.134766 5.6679688 A 1.0228074 1.0228755 0 0 0 26.996094 5.4648438 A 1.0227051 1.0227732 0 0 0 26.982422 5.4472656 A 1.0228074 1.0228755 0 0 0 26.791016 5.2832031 A 1.0227051 1.0227732 0 0 0 26.785156 5.2792969 A 1.0228074 1.0228755 0 0 0 26.683594 5.2207031 L 16.457031 0.10742188 A 1.0228074 1.0228755 0 0 0 16 0 z M 16 2.1640625 L 18.826172 3.5800781 L 10.888672 7.5488281 L 8.0585938 6.1347656 L 16 2.1640625 z M 21.113281 4.7226562 L 23.941406 6.1347656 L 16 10.105469 L 13.173828 8.6933594 L 21.113281 4.7226562 z " />
  <path
     id="path1466"
     style="color:#000000;fill:#180027;fill-opacity:1;stroke-width:1.67447;stroke-linecap:round;stroke-linejoin:round;-inkscape-stroke:none"
     d="M 3.555555,13.074126 A 1.7779548,1.5773139 0 0 0 2.298612,13.536184 L 0.520835,15.11334 A 1.7779548,1.5773139 0 0 0 0.437505,15.214993 1.777777,1.5771562 0 0 0 0.277783,15.409057 1.7779548,1.5773139 0 0 0 0.14931,15.630845 1.777777,1.5771562 0 0 0 0.06598,15.864953 1.7779548,1.5773139 0 0 0 0.02431,16.095982 1.777777,1.5771562 0 0 0 0,16.228438 a 1.777777,1.5771562 0 0 0 0.02083,0.120136 1.7779548,1.5773139 0 0 0 0,0.117053 L 2.461801,30.660032 A 1.7779548,1.5773139 0 0 0 4.218744,32 h 23.565967 a 1.7779548,1.5773139 0 0 0 1.756944,-1.339968 l 2.437499,-14.194405 a 1.7779548,1.5773139 0 0 0 0.02083,-0.234109 1.7779548,1.5773139 0 0 0 0,-0.01232 1.7779548,1.5773139 0 0 0 -0.01389,-0.172499 1.7779548,1.5773139 0 0 0 0,-0.0092 1.777777,1.5771562 0 0 0 -0.0035,-0.02464 1.7779548,1.5773139 0 0 0 -0.03125,-0.150938 1.7779548,1.5773139 0 0 0 -0.0035,-0.01232 1.777777,1.5771562 0 0 0 -0.0035,-0.0154 1.7779548,1.5773139 0 0 0 -0.03819,-0.107815 1.7779548,1.5773139 0 0 0 -0.01736,-0.04312 1.777777,1.5771562 0 0 0 -0.03472,-0.07701 1.777777,1.5771562 0 0 0 -0.01389,-0.02772 1.7779548,1.5773139 0 0 0 -0.04514,-0.08317 1.777777,1.5771562 0 0 0 -0.01042,-0.01848 1.7779548,1.5773139 0 0 0 -0.09028,-0.129376 1.7779548,1.5773139 0 0 0 -0.01042,-0.0154 1.777777,1.5771562 0 0 0 -0.0382,-0.0462 1.7779548,1.5773139 0 0 0 -0.09375,-0.104735 1.777777,1.5771562 0 0 0 -0.07292,-0.06777 l -0.07629,-0.06468 -1.701388,-1.512467 a 1.7779548,1.5773139 0 0 0 -1.256944,-0.462059 z m 0.291666,4.731468 H 28.152767 L 26.256934,28.845688 H 5.746527 Z" />
</svg>
