<?xml version="1.0" encoding="UTF-8" standalone="no"?>
<svg
   fill="none"
   height="32"
   viewBox="0 0 32 32"
   width="32"
   version="1.1"
   id="svg8"
   sodipodi:docname="face-userlane.svg"
   inkscape:version="1.1.1 (3bf5ae0d25, 2021-09-20)"
   xmlns:inkscape="http://www.inkscape.org/namespaces/inkscape"
   xmlns:sodipodi="http://sodipodi.sourceforge.net/DTD/sodipodi-0.dtd"
   xmlns="http://www.w3.org/2000/svg"
   xmlns:svg="http://www.w3.org/2000/svg">
  <defs
     id="defs12" />
  <sodipodi:namedview
     id="namedview10"
     pagecolor="#ffffff"
     bordercolor="#666666"
     borderopacity="1.0"
     inkscape:pageshadow="2"
     inkscape:pageopacity="0.0"
     inkscape:pagecheckerboard="0"
     showgrid="false"
     inkscape:zoom="27.28125"
     inkscape:cx="15.981672"
     inkscape:cy="15.981672"
     inkscape:window-width="3840"
     inkscape:window-height="2080"
     inkscape:window-x="2293"
     inkscape:window-y="35"
     inkscape:window-maximized="1"
     inkscape:current-layer="svg8" />
  <g
     id="g832"
     transform="matrix(1.7777778,0,0,1.7777778,-5.3333336,-6.2222225)">
    <path
       d="m 15,4 h 6 v 6 h -6 z"
       fill="#180027"
       id="path2" />
    <path
       d="m 3,12 c 0,4.9706 4.02944,9 9,9 4.9706,0 9,-4.0294 9,-9 h -4 c 0,2.7614 -2.2386,5 -5,5 -2.76142,0 -5,-2.2386 -5,-5 z"
       fill="#180027"
       id="path4" />
    <path
       d="M 6,10 C 7.65685,10 9,8.65685 9,7 9,5.34315 7.65685,4 6,4 4.34315,4 3,5.34315 3,7 c 0,1.65685 1.34315,3 3,3 z"
       fill="#180027"
       id="path6" />
  </g>
</svg>
