<?xml version="1.0" encoding="UTF-8" standalone="no"?>
<svg
   fill="none"
   height="32"
   viewBox="0 0 32 32"
   width="32"
   version="1.1"
   id="svg4"
   sodipodi:docname="face-folder.svg"
   inkscape:export-filename="face-folder.png"
   inkscape:export-xdpi="144"
   inkscape:export-ydpi="144"
   inkscape:version="1.1.1 (3bf5ae0d25, 2021-09-20)"
   xmlns:inkscape="http://www.inkscape.org/namespaces/inkscape"
   xmlns:sodipodi="http://sodipodi.sourceforge.net/DTD/sodipodi-0.dtd"
   xmlns="http://www.w3.org/2000/svg"
   xmlns:svg="http://www.w3.org/2000/svg">
  <defs
     id="defs8" />
  <sodipodi:namedview
     id="namedview6"
     pagecolor="#ffffff"
     bordercolor="#666666"
     borderopacity="1.0"
     inkscape:pageshadow="2"
     inkscape:pageopacity="0.0"
     inkscape:pagecheckerboard="0"
     showgrid="false"
     inkscape:zoom="25.75"
     inkscape:cx="15.980583"
     inkscape:cy="9.7669903"
     inkscape:window-width="1920"
     inkscape:window-height="1013"
     inkscape:window-x="-9"
     inkscape:window-y="29"
     inkscape:window-maximized="1"
     inkscape:current-layer="svg4" />
  <path
     clip-rule="evenodd"
     d="m 5.3333333,4.4444446 c -0.9818311,0 -1.7777777,0.7959466 -1.7777777,1.7777777 V 25.777778 c 0,0.981867 0.7959466,1.777778 1.7777777,1.777778 H 26.666667 c 0.981866,0 1.777777,-0.795911 1.777777,-1.777778 v -16 C 28.444444,8.795947 27.648533,8 26.666667,8 H 14.222222 C 13.5488,8 12.933333,7.619556 12.632178,7.017262 L 11.837084,5.4271823 C 11.535947,4.824889 10.920356,4.4444446 10.246987,4.4444446 Z M 0,6.2222223 C 0,3.2767112 2.3878222,0.888889 5.3333333,0.888889 h 4.9136537 c 2.020124,0 3.866791,1.1413511 4.770257,2.9481956 l 0.303645,0.60736 H 26.666667 C 29.612267,4.4444446 32,6.8322668 32,9.777778 v 16 c 0,2.9456 -2.387733,5.333333 -5.333333,5.333333 H 5.3333333 C 2.3878222,31.111111 0,28.723378 0,25.777778 Z"
     fill="#180027"
     fill-rule="evenodd"
     id="path2"
     style="stroke-width:1.77778" />
</svg>
