<?xml version="1.0" encoding="UTF-8" standalone="no"?>
<svg
   fill="none"
   height="32"
   viewBox="0 0 32 32"
   width="32"
   version="1.1"
   id="svg10"
   sodipodi:docname="face-none-smile.svg"
   inkscape:version="1.1.1 (3bf5ae0d25, 2021-09-20)"
   xmlns:inkscape="http://www.inkscape.org/namespaces/inkscape"
   xmlns:sodipodi="http://sodipodi.sourceforge.net/DTD/sodipodi-0.dtd"
   xmlns="http://www.w3.org/2000/svg"
   xmlns:svg="http://www.w3.org/2000/svg">
  <defs
     id="defs14" />
  <sodipodi:namedview
     id="namedview12"
     pagecolor="#ffffff"
     bordercolor="#666666"
     borderopacity="1.0"
     inkscape:pageshadow="2"
     inkscape:pageopacity="0.0"
     inkscape:pagecheckerboard="0"
     showgrid="false"
     inkscape:zoom="27.28125"
     inkscape:cx="15.981672"
     inkscape:cy="15.981672"
     inkscape:window-width="3840"
     inkscape:window-height="2080"
     inkscape:window-x="2293"
     inkscape:window-y="35"
     inkscape:window-maximized="1"
     inkscape:current-layer="svg10" />
  <g
     id="g835"
     transform="matrix(1.6,0,0,1.6,-3.2,-3.2)">
    <path
       d="m 8,9 c -0.55228,0 -1,0.44772 -1,1 0,0.5523 0.44772,1 1,1 h 1 c 0.55228,0 1,-0.4477 1,-1 C 10,9.44772 9.55228,9 9,9 Z"
       fill="#180027"
       id="path2" />
    <path
       d="m 15,9 c -0.5523,0 -1,0.44772 -1,1 0,0.5523 0.4477,1 1,1 h 1 c 0.5523,0 1,-0.4477 1,-1 0,-0.55228 -0.4477,-1 -1,-1 z"
       fill="#180027"
       id="path4" />
    <path
       d="m 9,15 c -0.55228,0 -1,0.4477 -1,1 0,0.5523 0.44772,1 1,1 h 6 c 0.5523,0 1,-0.4477 1,-1 0,-0.5523 -0.4477,-1 -1,-1 z"
       fill="#180027"
       id="path6" />
    <path
       clip-rule="evenodd"
       d="M 12,22 C 17.5228,22 22,17.5228 22,12 22,6.47715 17.5228,2 12,2 6.47715,2 2,6.47715 2,12 2,17.5228 6.47715,22 12,22 Z m 0,-2 c 4.4183,0 8,-3.5817 8,-8 0,-4.41828 -3.5817,-8 -8,-8 -4.41828,0 -8,3.58172 -8,8 0,4.4183 3.58172,8 8,8 z"
       fill="#180027"
       fill-rule="evenodd"
       id="path8" />
  </g>
</svg>
