<?xml version="1.0" encoding="UTF-8" standalone="no"?>
<svg
   fill="none"
   height="32"
   viewBox="0 0 32 32"
   width="32"
   version="1.1"
   id="svg4"
   sodipodi:docname="face-touchpad.svg"
   inkscape:version="1.1.1 (3bf5ae0d25, 2021-09-20)"
   xmlns:inkscape="http://www.inkscape.org/namespaces/inkscape"
   xmlns:sodipodi="http://sodipodi.sourceforge.net/DTD/sodipodi-0.dtd"
   xmlns="http://www.w3.org/2000/svg"
   xmlns:svg="http://www.w3.org/2000/svg">
  <defs
     id="defs8" />
  <sodipodi:namedview
     id="namedview6"
     pagecolor="#ffffff"
     bordercolor="#666666"
     borderopacity="1.0"
     inkscape:pageshadow="2"
     inkscape:pageopacity="0.0"
     inkscape:pagecheckerboard="0"
     showgrid="false"
     inkscape:zoom="27.28125"
     inkscape:cx="15.981672"
     inkscape:cy="15.981672"
     inkscape:window-width="3840"
     inkscape:window-height="2080"
     inkscape:window-x="2293"
     inkscape:window-y="35"
     inkscape:window-maximized="1"
     inkscape:current-layer="svg4" />
  <path
     clip-rule="evenodd"
     d="M 27.636364,29.090909 C 30.0464,29.090909 32,27.137309 32,24.727273 V 7.2727274 C 32,4.8627637 30.0464,2.909091 27.636364,2.909091 H 4.3636364 C 1.9536727,2.909091 0,4.8627637 0,7.2727274 V 24.727273 c 0,2.410036 1.9536727,4.363636 4.3636364,4.363636 z M 4.3636364,5.8181819 H 27.636364 c 0.803345,0 1.454545,0.6512291 1.454545,1.4545455 V 18.909091 H 2.9090909 V 7.2727274 c 0,-0.8033164 0.6512291,-1.4545455 1.4545455,-1.4545455 z M 2.9090909,21.818182 v 2.909091 c 0,0.803345 0.6512291,1.454545 1.4545455,1.454545 H 14.545455 v -4.363636 z m 14.5454541,4.363636 v -4.363636 h 11.636364 v 2.909091 c 0,0.803345 -0.6512,1.454545 -1.454545,1.454545 z"
     fill="#180027"
     fill-rule="evenodd"
     id="path2"
     style="stroke-width:1.45455" />
</svg>
