<?xml version="1.0" encoding="UTF-8" standalone="no"?>
<svg
   fill="none"
   height="32"
   viewBox="0 0 32 32"
   width="32"
   version="1.1"
   id="svg10"
   sodipodi:docname="face-poll.svg"
   inkscape:version="1.1.1 (3bf5ae0d25, 2021-09-20)"
   xmlns:inkscape="http://www.inkscape.org/namespaces/inkscape"
   xmlns:sodipodi="http://sodipodi.sourceforge.net/DTD/sodipodi-0.dtd"
   xmlns="http://www.w3.org/2000/svg"
   xmlns:svg="http://www.w3.org/2000/svg">
  <defs
     id="defs14" />
  <sodipodi:namedview
     id="namedview12"
     pagecolor="#ffffff"
     bordercolor="#666666"
     borderopacity="1.0"
     inkscape:pageshadow="2"
     inkscape:pageopacity="0.0"
     inkscape:pagecheckerboard="0"
     showgrid="false"
     inkscape:zoom="27.28125"
     inkscape:cx="15.981672"
     inkscape:cy="15.981672"
     inkscape:window-width="3840"
     inkscape:window-height="2080"
     inkscape:window-x="2293"
     inkscape:window-y="35"
     inkscape:window-maximized="1"
     inkscape:current-layer="svg10" />
  <g
     id="g835"
     transform="matrix(1.6,0,0,1.6,-3.2,-3.2)">
    <path
       clip-rule="evenodd"
       d="M 19,4 H 5 C 4.44771,4 4,4.44772 4,5 v 14 c 0,0.5523 0.44772,1 1,1 h 14 c 0.5523,0 1,-0.4477 1,-1 V 5 C 20,4.44771 19.5523,4 19,4 Z M 5,2 C 3.34315,2 2,3.34315 2,5 v 14 c 0,1.6569 1.34315,3 3,3 h 14 c 1.6569,0 3,-1.3431 3,-3 V 5 C 22,3.34315 20.6569,2 19,2 Z"
       fill="#180027"
       fill-rule="evenodd"
       id="path2" />
    <path
       d="m 11,7 h 2 v 10 h -2 z"
       fill="#180027"
       id="path4" />
    <path
       d="m 15,13 h 2 v 4 h -2 z"
       fill="#180027"
       id="path6" />
    <path
       d="m 7,10 h 2 v 7 H 7 Z"
       fill="#180027"
       id="path8" />
  </g>
</svg>
