<?xml version="1.0" encoding="UTF-8" standalone="no"?>
<svg
   fill="none"
   height="32"
   viewBox="0 0 32 32"
   width="32"
   version="1.1"
   id="svg6"
   sodipodi:docname="face-rename.svg"
   inkscape:version="1.1.1 (3bf5ae0d25, 2021-09-20)"
   xmlns:inkscape="http://www.inkscape.org/namespaces/inkscape"
   xmlns:sodipodi="http://sodipodi.sourceforge.net/DTD/sodipodi-0.dtd"
   xmlns="http://www.w3.org/2000/svg"
   xmlns:svg="http://www.w3.org/2000/svg">
  <defs
     id="defs10" />
  <sodipodi:namedview
     id="namedview8"
     pagecolor="#ffffff"
     bordercolor="#666666"
     borderopacity="1.0"
     inkscape:pageshadow="2"
     inkscape:pageopacity="0.0"
     inkscape:pagecheckerboard="0"
     showgrid="false"
     inkscape:zoom="27.28125"
     inkscape:cx="15.981672"
     inkscape:cy="15.981672"
     inkscape:window-width="3840"
     inkscape:window-height="2080"
     inkscape:window-x="2293"
     inkscape:window-y="35"
     inkscape:window-maximized="1"
     inkscape:current-layer="svg6" />
  <g
     id="g829"
     transform="matrix(1.6,0,0,1.6,-3.2,-3.2)">
    <path
       clip-rule="evenodd"
       d="M 10,4 H 8 V 6 H 5 C 3.34315,6 2,7.34315 2,9 v 6 c 0,1.6569 1.34315,3 3,3 h 3 v 2 h 2 z M 8,8 v 8 H 5 C 4.44772,16 4,15.5523 4,15 V 9 C 4,8.44772 4.44772,8 5,8 Z"
       fill="#180027"
       fill-rule="evenodd"
       id="path2" />
    <path
       d="m 19,16 h -7 v 2 h 7 c 1.6569,0 3,-1.3431 3,-3 V 9 C 22,7.34315 20.6569,6 19,6 h -7 v 2 h 7 c 0.5523,0 1,0.44771 1,1 v 6 c 0,0.5523 -0.4477,1 -1,1 z"
       fill="#180027"
       id="path4" />
  </g>
</svg>
