<?xml version="1.0" encoding="UTF-8" standalone="no"?>
<svg
   fill="none"
   height="32"
   viewBox="0 0 32 32"
   width="32"
   version="1.1"
   id="svg4"
   sodipodi:docname="face-r-up-chevron-push.svg"
   inkscape:version="1.1.1 (3bf5ae0d25, 2021-09-20)"
   xmlns:inkscape="http://www.inkscape.org/namespaces/inkscape"
   xmlns:sodipodi="http://sodipodi.sourceforge.net/DTD/sodipodi-0.dtd"
   xmlns="http://www.w3.org/2000/svg"
   xmlns:svg="http://www.w3.org/2000/svg">
  <defs
     id="defs8" />
  <sodipodi:namedview
     id="namedview6"
     pagecolor="#ffffff"
     bordercolor="#666666"
     borderopacity="1.0"
     inkscape:pageshadow="2"
     inkscape:pageopacity="0.0"
     inkscape:pagecheckerboard="0"
     showgrid="false"
     inkscape:zoom="27.28125"
     inkscape:cx="15.981672"
     inkscape:cy="15.981672"
     inkscape:window-width="3840"
     inkscape:window-height="2080"
     inkscape:window-x="2293"
     inkscape:window-y="35"
     inkscape:window-maximized="1"
     inkscape:current-layer="svg4" />
  <path
     clip-rule="evenodd"
     d="M 5.8181818,29.090909 H 26.181818 c 1.606691,0 2.909091,-1.3024 2.909091,-2.909091 V 5.8181818 c 0,-1.6066473 -1.3024,-2.9090909 -2.909091,-2.9090909 H 5.8181818 c -1.6066473,0 -2.9090909,1.3024436 -2.9090909,2.9090909 V 26.181818 c 0,1.606691 1.3024436,2.909091 2.9090909,2.909091 z M 0,26.181818 C 0,29.395055 2.6048873,32 5.8181818,32 H 26.181818 C 29.395055,32 32,29.395055 32,26.181818 V 5.8181818 C 32,2.6048873 29.395055,0 26.181818,0 H 5.8181818 C 2.6048873,0 0,2.6048873 0,5.8181818 Z m 11.885876,-3.328582 -2.057047,-2.057018 6.171026,-6.1712 6.1712,6.1712 -2.057019,2.057018 L 16,18.7392 Z M 10.181833,13.090909 H 21.818182 V 10.181818 H 10.181833 Z"
     fill="#180027"
     fill-rule="evenodd"
     id="path2"
     style="stroke-width:1.45455" />
</svg>
