<?xml version="1.0" encoding="UTF-8" standalone="no"?>
<svg
   fill="none"
   height="32"
   viewBox="0 0 32 32"
   width="32"
   version="1.1"
   id="svg4"
   sodipodi:docname="face-send.svg"
   inkscape:export-filename="face-send.png"
   inkscape:export-xdpi="144"
   inkscape:export-ydpi="144"
   inkscape:version="1.1.1 (3bf5ae0d25, 2021-09-20)"
   xmlns:inkscape="http://www.inkscape.org/namespaces/inkscape"
   xmlns:sodipodi="http://sodipodi.sourceforge.net/DTD/sodipodi-0.dtd"
   xmlns="http://www.w3.org/2000/svg"
   xmlns:svg="http://www.w3.org/2000/svg">
  <defs
     id="defs8" />
  <sodipodi:namedview
     id="namedview6"
     pagecolor="#ffffff"
     bordercolor="#666666"
     borderopacity="1.0"
     inkscape:pageshadow="2"
     inkscape:pageopacity="0.0"
     inkscape:pagecheckerboard="0"
     showgrid="false"
     inkscape:zoom="25.75"
     inkscape:cx="15.980583"
     inkscape:cy="15.980583"
     inkscape:window-width="1920"
     inkscape:window-height="1013"
     inkscape:window-x="-9"
     inkscape:window-y="29"
     inkscape:window-maximized="1"
     inkscape:current-layer="svg4" />
  <path
     clip-rule="evenodd"
     d="m 28.231323,3.7003826 c 0,-0.1493794 -0.15726,-0.246531 -0.290756,-0.1797305 L 6.5758677,14.203054 18.299837,18.110962 c 0.214572,0.07147 0.413069,0.183994 0.584657,0.330944 l 9.346829,8.011692 z m -1.85357,-3.30546287 c 2.457098,-1.2286015 5.348234,0.5582202 5.348234,3.30546287 V 30.252648 c 0,0.682333 -0.397169,1.302286 -1.017122,1.587451 -0.619954,0.285164 -1.34929,0.183295 -1.867374,-0.260702 l -7.336698,-6.288648 -7.9079,6.32639 c -0.524549,0.419535 -1.24307,0.50131 -1.848468,0.210379 -0.60538,-0.290931 -0.990405,-0.903196 -0.990405,-1.57487 V 19.280801 L 1.4688007,16.184353 C 0.79834941,15.96087 0.32852671,15.355419 0.27843071,14.650545 0.22833471,13.945497 0.60782031,13.279938 1.2399351,12.963846 Z M 14.252667,20.445572 v 6.171577 l 4.55145,-3.641265 -1.933947,-1.657869 z"
     fill="#180027"
     fill-rule="evenodd"
     id="path2"
     style="stroke-width:1.74733" />
</svg>
