<?xml version="1.0" encoding="UTF-8" standalone="no"?>
<svg
   fill="none"
   height="32"
   viewBox="0 0 32 32"
   width="32"
   version="1.1"
   id="svg8"
   sodipodi:docname="face-o-select.svg"
   inkscape:version="1.1.1 (3bf5ae0d25, 2021-09-20)"
   xmlns:inkscape="http://www.inkscape.org/namespaces/inkscape"
   xmlns:sodipodi="http://sodipodi.sourceforge.net/DTD/sodipodi-0.dtd"
   xmlns="http://www.w3.org/2000/svg"
   xmlns:svg="http://www.w3.org/2000/svg">
  <defs
     id="defs12" />
  <sodipodi:namedview
     id="namedview10"
     pagecolor="#ffffff"
     bordercolor="#666666"
     borderopacity="1.0"
     inkscape:pageshadow="2"
     inkscape:pageopacity="0.0"
     inkscape:pagecheckerboard="0"
     showgrid="false"
     inkscape:zoom="27.28125"
     inkscape:cx="15.981672"
     inkscape:cy="15.981672"
     inkscape:window-width="3840"
     inkscape:window-height="2080"
     inkscape:window-x="2293"
     inkscape:window-y="35"
     inkscape:window-maximized="1"
     inkscape:current-layer="svg8" />
  <g
     id="g832"
     transform="matrix(1.4545455,0,0,1.4545455,-1.454546,-1.454546)">
    <path
       d="M 9.17154,11.508 7.75732,10.0938 12,5.85114 16.2426,10.0938 14.8284,11.508 12,8.67956 Z"
       fill="#180027"
       id="path2" />
    <path
       d="M 9.17154,12.492 7.75732,13.9062 12,18.1489 16.2426,13.9062 14.8284,12.492 12,15.3204 Z"
       fill="#180027"
       id="path4" />
    <path
       clip-rule="evenodd"
       d="M 23,12 C 23,18.0751 18.0751,23 12,23 5.92487,23 1,18.0751 1,12 1,5.92487 5.92487,1 12,1 18.0751,1 23,5.92487 23,12 Z m -2,0 c 0,4.9706 -4.0294,9 -9,9 -4.97056,0 -9,-4.0294 -9,-9 0,-4.97056 4.02944,-9 9,-9 4.9706,0 9,4.02944 9,9 z"
       fill="#180027"
       fill-rule="evenodd"
       id="path6" />
  </g>
</svg>
