<?xml version="1.0" encoding="UTF-8" standalone="no"?>
<svg
   fill="none"
   height="32"
   viewBox="0 0 32 32"
   width="32"
   version="1.1"
   id="svg8"
   sodipodi:docname="face-kit-ui.svg"
   inkscape:version="1.1.1 (3bf5ae0d25, 2021-09-20)"
   xmlns:inkscape="http://www.inkscape.org/namespaces/inkscape"
   xmlns:sodipodi="http://sodipodi.sourceforge.net/DTD/sodipodi-0.dtd"
   xmlns="http://www.w3.org/2000/svg"
   xmlns:svg="http://www.w3.org/2000/svg">
  <defs
     id="defs12" />
  <sodipodi:namedview
     id="namedview10"
     pagecolor="#ffffff"
     bordercolor="#666666"
     borderopacity="1.0"
     inkscape:pageshadow="2"
     inkscape:pageopacity="0.0"
     inkscape:pagecheckerboard="0"
     showgrid="false"
     inkscape:zoom="27.28125"
     inkscape:cx="15.981672"
     inkscape:cy="15.981672"
     inkscape:window-width="3840"
     inkscape:window-height="2080"
     inkscape:window-x="2293"
     inkscape:window-y="35"
     inkscape:window-maximized="1"
     inkscape:current-layer="svg8" />
  <g
     id="g832"
     transform="scale(1.3333333)">
    <path
       clip-rule="evenodd"
       d="M 14,6 H 10 C 9.44772,6 9,6.44772 9,7 v 10 c 0,0.5523 0.44772,1 1,1 h 4 c 0.5523,0 1,-0.4477 1,-1 V 7 C 15,6.44772 14.5523,6 14,6 Z M 10,4 C 8.34315,4 7,5.34315 7,7 v 10 c 0,1.6569 1.34315,3 3,3 h 4 c 1.6569,0 3,-1.3431 3,-3 V 7 C 17,5.34315 15.6569,4 14,4 Z"
       fill="#180027"
       fill-rule="evenodd"
       id="path2" />
    <path
       d="M 6,7.45936 3.4932,7.04156 C 1.6646,6.73679 0,8.14692 0,10.0007 v 4.9173 c 0,1.8538 1.6646,3.2639 3.4932,2.9592 L 6,17.4594 V 15.4318 L 3.1644,15.9044 C 2.55487,16.006 2,15.5359 2,14.918 V 10.0007 C 2,9.3828 2.55487,8.91276 3.1644,9.01435 L 6,9.48695 Z"
       fill="#180027"
       id="path4" />
    <path
       d="m 18,7.45936 2.5068,-0.4178 C 22.3354,6.73679 24,8.14692 24,10.0007 v 4.9173 c 0,1.8538 -1.6646,3.2639 -3.4932,2.9592 L 18,17.4594 v -2.0276 l 2.8356,0.4726 C 21.4451,16.006 22,15.5359 22,14.918 V 10.0007 C 22,9.3828 21.4451,8.91276 20.8356,9.01435 L 18,9.48695 Z"
       fill="#180027"
       id="path6" />
  </g>
</svg>
