<?xml version="1.0" encoding="UTF-8" standalone="no"?>
<svg
   fill="none"
   height="32"
   viewBox="0 0 32 32"
   width="32"
   version="1.1"
   id="svg4"
   sodipodi:docname="face-control.svg"
   inkscape:export-filename="face-control.png"
   inkscape:export-xdpi="144"
   inkscape:export-ydpi="144"
   inkscape:version="1.1.1 (3bf5ae0d25, 2021-09-20)"
   xmlns:inkscape="http://www.inkscape.org/namespaces/inkscape"
   xmlns:sodipodi="http://sodipodi.sourceforge.net/DTD/sodipodi-0.dtd"
   xmlns="http://www.w3.org/2000/svg"
   xmlns:svg="http://www.w3.org/2000/svg">
  <defs
     id="defs8" />
  <sodipodi:namedview
     id="namedview6"
     pagecolor="#ffffff"
     bordercolor="#666666"
     borderopacity="1.0"
     inkscape:pageshadow="2"
     inkscape:pageopacity="0.0"
     inkscape:pagecheckerboard="0"
     showgrid="false"
     inkscape:zoom="25.75"
     inkscape:cx="15.980583"
     inkscape:cy="15.980583"
     inkscape:window-width="1920"
     inkscape:window-height="1013"
     inkscape:window-x="-9"
     inkscape:window-y="29"
     inkscape:window-maximized="1"
     inkscape:current-layer="svg4" />
  <path
     clip-rule="evenodd"
     d="m 16,0 c 0.981867,0 1.777778,0.7959467 1.777778,1.7777778 V 21.6368 c 2.071466,0.732089 3.555555,2.707733 3.555555,5.029867 C 21.333333,29.612267 18.9456,32 16,32 c -2.9456,0 -5.333333,-2.387733 -5.333333,-5.333333 0,-2.322134 1.484106,-4.297778 3.555555,-5.029867 V 1.7777778 C 14.222222,0.7959467 15.018133,0 16,0 Z m 10.666667,0 c 0.981866,0 1.777777,0.7959467 1.777777,1.7777778 V 10.970151 C 30.515911,11.702293 32,13.677867 32,16 c 0,2.322133 -1.484089,4.297778 -3.555556,5.029867 v 9.192355 C 28.444444,31.204089 27.648533,32 26.666667,32 25.6848,32 24.888889,31.204089 24.888889,30.222222 V 21.029867 C 22.817422,20.297778 21.333333,18.322133 21.333333,16 c 0,-2.322133 1.484089,-4.297707 3.555556,-5.029849 V 1.7777778 C 24.888889,0.7959467 25.6848,0 26.666667,0 Z M 0,5.3333333 C 0,2.3878222 2.3878222,0 5.3333333,0 8.278844,0 10.666667,2.3878222 10.666667,5.3333333 c 0,2.3221687 -1.484107,4.2977067 -3.555556,5.0298487 v 19.85904 C 7.111111,31.204089 6.3151644,32 5.3333333,32 4.3514844,32 3.5555556,31.204089 3.5555556,30.222222 V 10.363182 C 1.4841067,9.63104 0,7.655502 0,5.3333333 Z M 5.3333333,3.5555556 c -0.9818311,0 -1.7777777,0.7959466 -1.7777777,1.7777777 0,0.9818311 0.7959466,1.7777777 1.7777777,1.7777777 0.9818311,0 1.7777777,-0.7959466 1.7777777,-1.7777777 0,-0.9818311 -0.7959466,-1.7777777 -1.7777777,-1.7777777 z M 26.666667,14.222222 c -0.981867,0 -1.777778,0.795911 -1.777778,1.777778 0,0.981867 0.795911,1.777778 1.777778,1.777778 0.981866,0 1.777777,-0.795911 1.777777,-1.777778 0,-0.981867 -0.795911,-1.777778 -1.777777,-1.777778 z M 16,24.888889 c -0.981867,0 -1.777778,0.795911 -1.777778,1.777778 0,0.981866 0.795911,1.777777 1.777778,1.777777 0.981867,0 1.777778,-0.795911 1.777778,-1.777777 0,-0.981867 -0.795911,-1.777778 -1.777778,-1.777778 z"
     fill="#180027"
     fill-rule="evenodd"
     id="path2"
     style="stroke-width:1.77777" />
</svg>
