<?xml version="1.0" encoding="UTF-8" standalone="no"?>
<svg
   fill="none"
   height="32"
   viewBox="0 0 32 32"
   width="32"
   version="1.1"
   id="svg6"
   sodipodi:docname="face-pencil.svg"
   inkscape:export-filename="face-pencil.png"
   inkscape:export-xdpi="192.03139"
   inkscape:export-ydpi="192.03139"
   inkscape:version="1.1.1 (3bf5ae0d25, 2021-09-20)"
   xmlns:inkscape="http://www.inkscape.org/namespaces/inkscape"
   xmlns:sodipodi="http://sodipodi.sourceforge.net/DTD/sodipodi-0.dtd"
   xmlns="http://www.w3.org/2000/svg"
   xmlns:svg="http://www.w3.org/2000/svg">
  <defs
     id="defs10" />
  <sodipodi:namedview
     id="namedview8"
     pagecolor="#ffffff"
     bordercolor="#666666"
     borderopacity="1.0"
     inkscape:pageshadow="2"
     inkscape:pageopacity="0.0"
     inkscape:pagecheckerboard="0"
     showgrid="false"
     inkscape:zoom="25.75"
     inkscape:cx="15.980583"
     inkscape:cy="19.087379"
     inkscape:window-width="1920"
     inkscape:window-height="1013"
     inkscape:window-x="-9"
     inkscape:window-y="29"
     inkscape:window-maximized="1"
     inkscape:current-layer="svg6" />
  <g
     id="g829"
     transform="matrix(1.7774872,0,0,1.7774872,-5.3298464,-5.3272313)">
    <path
       clip-rule="evenodd"
       d="m 3,20 c 0,-0.5523 0.44772,-1 1,-1 h 16 c 0.5523,0 1,0.4477 1,1 0,0.5523 -0.4477,1 -1,1 H 4 C 3.44772,21 3,20.5523 3,20 Z"
       fill="#180027"
       fill-rule="evenodd"
       id="path2" />
    <path
       clip-rule="evenodd"
       d="m 16.6414,5.05564 c -0.0781,-0.07811 -0.2047,-0.07811 -0.2828,0 L 14.9142,6.5 16.5,8.08579 17.9444,6.64142 c 0.0781,-0.0781 0.0781,-0.20473 0,-0.28284 z M 15.0858,9.5 13.5,7.91422 6.44281,14.9714 6.17851,16.8215 8.0286,16.5572 Z M 14.9444,3.64142 c 0.8591,-0.85915 2.2521,-0.85915 3.1112,0 l 1.303,1.30295 c 0.8591,0.85915 0.8591,2.25211 0,3.11127 L 9.20711,18.2071 c -0.153,0.153 -0.35149,0.2523 -0.56569,0.2829 l -3.5,0.5 C 4.82983,19.0345 4.51546,18.9297 4.29289,18.7071 4.07033,18.4845 3.96554,18.1702 4.01005,17.8586 l 0.5,-3.5 c 0.0306,-0.2142 0.12985,-0.4127 0.28284,-0.5657 z"
       fill="#180027"
       fill-rule="evenodd"
       id="path4" />
  </g>
</svg>
