<?xml version="1.0" encoding="UTF-8" standalone="no"?>
<svg
   fill="none"
   height="32"
   viewBox="0 0 32 32"
   width="32"
   version="1.1"
   id="svg4"
   sodipodi:docname="face-unavailable.svg"
   inkscape:version="1.1.1 (3bf5ae0d25, 2021-09-20)"
   xmlns:inkscape="http://www.inkscape.org/namespaces/inkscape"
   xmlns:sodipodi="http://sodipodi.sourceforge.net/DTD/sodipodi-0.dtd"
   xmlns="http://www.w3.org/2000/svg"
   xmlns:svg="http://www.w3.org/2000/svg">
  <defs
     id="defs8" />
  <sodipodi:namedview
     id="namedview6"
     pagecolor="#ffffff"
     bordercolor="#666666"
     borderopacity="1.0"
     inkscape:pageshadow="2"
     inkscape:pageopacity="0.0"
     inkscape:pagecheckerboard="0"
     showgrid="false"
     inkscape:zoom="27.28125"
     inkscape:cx="15.981672"
     inkscape:cy="15.981672"
     inkscape:window-width="3840"
     inkscape:window-height="2080"
     inkscape:window-x="2293"
     inkscape:window-y="35"
     inkscape:window-maximized="1"
     inkscape:current-layer="svg4" />
  <path
     clip-rule="evenodd"
     d="m 27.31374,4.6862867 c 6.248347,6.2483823 6.248347,16.3789283 0,22.6274533 -6.248525,6.248347 -16.379071,6.248347 -22.6274533,0 -6.2483824,-6.248525 -6.2483824,-16.379071 0,-22.6274533 6.2483823,-6.2483824 16.3789283,-6.2483824 22.6274533,0 z M 23.453301,25.967431 6.0324715,8.5466369 C 2.3780766,13.420959 2.7673916,20.366549 7.2004339,24.799432 11.633477,29.232493 18.578996,29.621826 23.453301,25.967431 Z M 24.799432,7.2004339 c 4.433061,4.4330431 4.822394,11.3785621 1.167999,16.2528671 L 8.5466369,6.0324715 C 13.420959,2.3780766 20.366549,2.7673916 24.799432,7.2004339 Z"
     fill="#180027"
     fill-rule="evenodd"
     id="path2"
     style="stroke-width:1.77778" />
</svg>
