<?xml version="1.0" encoding="UTF-8" standalone="no"?>
<svg
   fill="none"
   height="32"
   viewBox="0 0 32 32"
   width="32"
   version="1.1"
   id="svg6"
   sodipodi:docname="face-thermometer.svg"
   inkscape:version="1.1.1 (3bf5ae0d25, 2021-09-20)"
   xmlns:inkscape="http://www.inkscape.org/namespaces/inkscape"
   xmlns:sodipodi="http://sodipodi.sourceforge.net/DTD/sodipodi-0.dtd"
   xmlns="http://www.w3.org/2000/svg"
   xmlns:svg="http://www.w3.org/2000/svg">
  <defs
     id="defs10" />
  <sodipodi:namedview
     id="namedview8"
     pagecolor="#ffffff"
     bordercolor="#666666"
     borderopacity="1.0"
     inkscape:pageshadow="2"
     inkscape:pageopacity="0.0"
     inkscape:pagecheckerboard="0"
     showgrid="false"
     inkscape:zoom="27.28125"
     inkscape:cx="15.981672"
     inkscape:cy="15.981672"
     inkscape:window-width="3840"
     inkscape:window-height="2080"
     inkscape:window-x="2293"
     inkscape:window-y="35"
     inkscape:window-maximized="1"
     inkscape:current-layer="svg6" />
  <g
     id="g829"
     transform="matrix(1.5887079,0,0,1.5887079,-3.9952354,-2.134018)">
    <path
       d="m 16.9498,5.63615 c 0.3905,-0.39052 1.0237,-0.39052 1.4142,0 0.3905,0.39053 0.3905,1.02369 0,1.41422 l -7.0711,7.07103 c -0.3905,0.3906 -1.0236,0.3906 -1.41417,0 -0.39052,-0.3905 -0.39052,-1.0237 0,-1.4142 z"
       fill="#180027"
       id="path2" />
    <path
       clip-rule="evenodd"
       d="m 7.82813,17.5862 c 1.94137,1.2863 4.58277,1.0741 6.29327,-0.6363 l 7.071,-7.0711 c 1.9527,-1.95263 1.9527,-5.11845 0,-7.07107 -1.9526,-1.952624 -5.1184,-1.952624 -7.071,0 L 7.0503,9.8788 C 5.33984,11.5893 5.12771,14.2307 6.41392,16.172 l -3.60626,3.6063 c -0.39052,0.3905 -0.39052,1.0237 0,1.4142 0.39053,0.3905 1.02369,0.3905 1.41422,0 z m 4.87907,-2.0506 7.071,-7.07102 c 1.1716,-1.17157 1.1716,-3.07107 0,-4.24264 -1.1715,-1.17157 -3.071,-1.17157 -4.2426,0 L 8.46452,11.293 c -1.17158,1.1716 -1.17158,3.0711 0,4.2426 1.17157,1.1716 3.07108,1.1716 4.24268,0 z"
       fill="#180027"
       fill-rule="evenodd"
       id="path4" />
  </g>
</svg>
