<?xml version="1.0" encoding="UTF-8" standalone="no"?>
<svg
   fill="none"
   height="32"
   viewBox="0 0 32 32"
   width="32"
   version="1.1"
   id="svg6"
   sodipodi:docname="face-pointer.svg"
   inkscape:export-filename="face-map.png"
   inkscape:export-xdpi="144"
   inkscape:export-ydpi="144"
   inkscape:version="1.1.1 (3bf5ae0d25, 2021-09-20)"
   xmlns:inkscape="http://www.inkscape.org/namespaces/inkscape"
   xmlns:sodipodi="http://sodipodi.sourceforge.net/DTD/sodipodi-0.dtd"
   xmlns="http://www.w3.org/2000/svg"
   xmlns:svg="http://www.w3.org/2000/svg">
  <defs
     id="defs10" />
  <sodipodi:namedview
     id="namedview8"
     pagecolor="#ffffff"
     bordercolor="#666666"
     borderopacity="1.0"
     inkscape:pageshadow="2"
     inkscape:pageopacity="0.0"
     inkscape:pagecheckerboard="0"
     showgrid="false"
     inkscape:zoom="25.75"
     inkscape:cx="15.980583"
     inkscape:cy="15.980583"
     inkscape:window-width="1920"
     inkscape:window-height="1013"
     inkscape:window-x="-9"
     inkscape:window-y="29"
     inkscape:window-maximized="1"
     inkscape:current-layer="svg6" />
  <g
     id="g829"
     transform="matrix(1.6020025,0,0,1.6020025,-3.22403,-3.204005)">
    <path
       d="M 12,15 C 9.8,15 8,13.2 8,11 8,8.8 9.8,7 12,7 c 2.2,0 4,1.8 4,4 0,2.2 -1.8,4 -4,4 z m 0,-6 c -1.1,0 -2,0.9 -2,2 0,1.1 0.9,2 2,2 1.1,0 2,-0.9 2,-2 0,-1.1 -0.9,-2 -2,-2 z"
       fill="#180027"
       id="path2" />
    <path
       d="M 11.6,21.9 C 11.2,21.7 3,17.5 3,11 3,6 7,2 12,2 c 5,0 9,4 9,9 0,6.5 -8.2,10.7 -8.6,10.9 -0.3,0.1 -0.5,0.1 -0.8,0 z M 12,4 c -3.9,0 -7,3.1 -7,7 0,4.5 5.4,7.9 7,8.9 C 13.6,19 19,15.6 19,11 19,7.1 15.9,4 12,4 Z"
       fill="#180027"
       id="path4" />
  </g>
</svg>
