<?xml version="1.0" encoding="UTF-8" standalone="no"?>
<svg
   fill="none"
   height="32"
   viewBox="0 0 32 32"
   width="32"
   version="1.1"
   id="svg4"
   sodipodi:docname="face-sales.svg"
   inkscape:export-filename="face-sales.png"
   inkscape:export-xdpi="192"
   inkscape:export-ydpi="192"
   inkscape:version="1.1.1 (3bf5ae0d25, 2021-09-20)"
   xmlns:inkscape="http://www.inkscape.org/namespaces/inkscape"
   xmlns:sodipodi="http://sodipodi.sourceforge.net/DTD/sodipodi-0.dtd"
   xmlns="http://www.w3.org/2000/svg"
   xmlns:svg="http://www.w3.org/2000/svg">
  <defs
     id="defs8" />
  <sodipodi:namedview
     id="namedview6"
     pagecolor="#ffffff"
     bordercolor="#666666"
     borderopacity="1.0"
     inkscape:pageshadow="2"
     inkscape:pageopacity="0.0"
     inkscape:pagecheckerboard="0"
     showgrid="false"
     inkscape:zoom="9.1039998"
     inkscape:cx="15.762303"
     inkscape:cy="19.057558"
     inkscape:window-width="1920"
     inkscape:window-height="1009"
     inkscape:window-x="1912"
     inkscape:window-y="-8"
     inkscape:window-maximized="1"
     inkscape:current-layer="svg4" />
  <style
     type="text/css"
     id="style910">
	.st0{fill:#1E232D;}
</style>
  <path
     id="path924"
     style="fill:#180027;fill-opacity:1;stroke-width:1.33333"
     class="st0"
     d="M 16.066406,-4.9999999e-8 C 12.333072,-4.9999999e-8 9.4003908,2.9326823 9.4003908,6.6660156 v 6.6679684 h 2.6660152 v -2.667968 h 5.333985 V 8 H 12.066406 V 6.6660156 c 0,-2.2666667 1.733333,-4 4,-4 2.266666,0 4,1.7333334 4,4 v 6.6679684 h 2.667969 v -2.667968 h 2.798828 l 1.201172,18.667968 H 5.533203 L 6.5996093,10.666016 H 6.7343748 V 8 H 4.2011718 L 2.5996093,32 H 29.400391 L 27.933594,8 H 22.734375 V 6.6660156 C 22.734375,2.9326823 19.799739,-4.9999999e-8 16.066406,-4.9999999e-8 Z" />
  <path
     d="m 16.79794,31.509977 h -1.795368 l -0.01108,-3.335838 q -1.385315,-0.05541 -2.68197,-0.310311 -1.296654,-0.254897 -2.526814,-0.709281 v -2.90362 q 1.27449,0.653869 2.571144,1.008509 1.307738,0.343558 2.648723,0.387889 v -3.446664 l -0.365724,-0.06649 q -2.648722,-0.465466 -3.768056,-1.462893 -1.108252,-0.997427 -1.108252,-2.870372 0,-1.983772 1.352067,-3.092024 1.36315,-1.119334 3.878882,-1.219077 l 0.01108,-2.560062 h 1.795368 v 2.515732 q 1.108252,0.08866 2.216504,0.277063 1.108252,0.188403 2.227586,0.487631 v 2.81496 Q 20.133778,16.559658 19.025526,16.30476 17.917274,16.03878 16.79794,15.983367 v 3.180683 l 0.35464,0.0665 q 2.81496,0.4433 3.945378,1.485057 1.141499,1.030675 1.141499,3.058776 0,2.039183 -1.352067,3.136353 -1.352068,1.086087 -4.08945,1.241242 z M 15.002572,18.909152 v -2.892537 q -0.786859,0.04433 -1.263408,0.432218 -0.465465,0.376806 -0.465465,0.964179 0,0.653869 0.432218,1.030675 0.432218,0.365723 1.296655,0.465465 z m 1.795368,3.612902 v 3.08094 q 0.964179,-0.01108 1.440727,-0.376805 0.487631,-0.365723 0.487631,-1.09717 0,-0.753611 -0.443301,-1.119334 -0.4433,-0.376806 -1.485057,-0.487631 z"
     style="font-weight:bold;font-size:22.697px;line-height:1.25;-inkscape-font-specification:'sans-serif Bold';fill:#180027;stroke-width:0.567424;fill-opacity:1"
     id="path5605" />
</svg>
