<?xml version="1.0" encoding="UTF-8" standalone="no"?>
<!-- Created with Inkscape (http://www.inkscape.org/) -->

<svg
   width="32"
   height="32"
   viewBox="0 0 8.4666665 8.4666669"
   version="1.1"
   id="svg5"
   inkscape:version="1.1.2 (b8e25be833, 2022-02-05)"
   sodipodi:docname="face-globe.svg"
   inkscape:export-filename="face-globe.png"
   inkscape:export-xdpi="192.00002"
   inkscape:export-ydpi="192.00002"
   xmlns:inkscape="http://www.inkscape.org/namespaces/inkscape"
   xmlns:sodipodi="http://sodipodi.sourceforge.net/DTD/sodipodi-0.dtd"
   xmlns="http://www.w3.org/2000/svg"
   xmlns:svg="http://www.w3.org/2000/svg">
  <sodipodi:namedview
     id="namedview7"
     pagecolor="#ffffff"
     bordercolor="#666666"
     borderopacity="1.0"
     inkscape:pageshadow="2"
     inkscape:pageopacity="0.0"
     inkscape:pagecheckerboard="0"
     inkscape:document-units="mm"
     showgrid="false"
     units="px"
     inkscape:zoom="9.4284864"
     inkscape:cx="23.969913"
     inkscape:cy="21.636559"
     inkscape:window-width="1920"
     inkscape:window-height="1027"
     inkscape:window-x="-8"
     inkscape:window-y="22"
     inkscape:window-maximized="1"
     inkscape:current-layer="layer1" />
  <defs
     id="defs2" />
  <g
     inkscape:label="Camada 1"
     inkscape:groupmode="layer"
     id="layer1">
    <path
       style="fill:#180027;stroke-width:0.0175183;fill-opacity:1"
       d="M 3.791787,8.4543034 C 3.292657,8.4005214 2.787609,8.2494704 2.3247713,8.0155434 1.89859,7.8001444 1.5680746,7.5592914 1.2244702,7.2137384 0.54436084,6.5297704 0.14338544,5.6933244 0.02224884,4.7058694 -0.01589316,4.3949544 -0.00357266,3.8460602 0.04832614,3.5440564 0.17494974,2.8072158 0.48334974,2.1240836 0.94960074,1.547656 1.0967934,1.3656809 1.4578497,1.0144499 1.6370686,0.87889549 2.2078,0.44721679 2.842004,0.16647249 3.511399,0.04918389 c 0.299708,-0.052514 0.845881,-0.065204 1.171838,-0.027226 1.525846,0.1777734 2.844255,1.15435871 3.442776,2.55016761 0.155783,0.3633031 0.252389,0.7139382 0.311209,1.1295423 0.03515,0.2484265 0.03977,0.7941866 0.0088,1.0332236 -0.161251,1.241818 -0.809033,2.314499 -1.815221,3.005887 -0.168051,0.115474 -0.720469,0.390735 -0.961328,0.479014 -0.217563,0.07974 -0.578256,0.172512 -0.817392,0.210235 -0.220637,0.0348 -0.832497,0.04882 -1.060224,0.02428 z m 1.035595,-0.5854 c 0.219658,-0.03294 0.513741,-0.109909 0.735325,-0.192423 0.09585,-0.03569 0.177303,-0.06765 0.180996,-0.07103 0.0037,-0.0034 -0.01825,-0.03455 -0.04877,-0.06929 -0.134794,-0.153417 -0.201299,-0.304669 -0.247314,-0.562467 -0.0314,-0.175913 -0.05556,-0.24088 -0.157661,-0.423909 -0.04275,-0.07662 -0.0524,-0.114339 -0.0524,-0.204628 0,-0.174513 0.04464,-0.254356 0.184005,-0.329094 0.06327,-0.03393 0.09412,-0.03726 0.316887,-0.03417 l 0.246788,0.0035 0.03118,-0.09985 c 0.01715,-0.05492 0.114049,-0.320503 0.21533,-0.590192 0.101285,-0.269689 0.194251,-0.525806 0.206599,-0.569149 0.04099,-0.143889 0.04568,-0.289316 0.01731,-0.5374997 C 6.440457,4.0556806 6.421697,3.8231502 6.413967,3.671935 6.405167,3.501274 6.391817,3.3872473 6.378567,3.3712887 6.36681,3.3571494 6.251155,3.2941283 6.121536,3.2312437 5.742293,3.0472527 5.419714,2.8058815 5.297124,2.6143735 5.211505,2.4806274 5.161683,2.3192527 5.173867,2.2151723 5.189867,2.0785025 5.274871,1.9189016 5.387239,1.8145351 5.709229,1.5154829 5.797007,1.4172463 5.901905,1.2385473 5.960405,1.1388863 6.008354,1.0486287 6.008441,1.037975 6.008639,1.014834 5.734243,0.88556479 5.496237,0.79668239 4.893979,0.57177139 4.163327,0.51422279 3.502632,0.63965999 c -0.08193,0.015553 -0.151346,0.030286 -0.154265,0.032735 -0.0029,0.00243 0.0221,0.074533 0.05558,0.1601864 0.0778,0.19895771 0.105735,0.39306291 0.08132,0.56507091 -0.01,0.070315 -0.02121,0.1328389 -0.02497,0.1389423 C 3.443337,1.5641916 3.338867,2.1278243 3.283282,2.4916653 3.206292,2.9956412 3.163888,3.1772208 3.099519,3.2786504 3.036939,3.3772554 2.972224,3.4119258 2.837672,3.4189238 2.666286,3.4278338 2.610142,3.4772798 2.2282081,3.95563 1.9662159,4.2837332 1.8380337,4.4154864 1.7416222,4.4557414 c -0.042123,0.01759 -0.1297363,0.02522 -0.2895195,0.02522 -0.2586919,0 -0.4030531,0.02446 -0.69001826,0.116937 l -0.1907506,0.06147 0.010927,0.116567 c 0.036739,0.391915 0.2568983,0.997071 0.50749256,1.394964 0.1604274,0.254727 0.1184558,0.24012 0.3607935,0.125554 0.5756611,-0.272147 1.2200111,-0.484556 1.4699161,-0.484556 0.184517,0 0.260251,0.04818 0.491833,0.312923 0.08355,0.09551 0.121131,0.120736 0.347652,0.233346 0.276448,0.137431 0.396011,0.22793 0.445782,0.337423 0.04172,0.09178 0.04098,0.166312 -0.0038,0.383197 -0.04495,0.217676 -0.0389,0.432816 0.01901,0.675045 l 0.03931,0.164438 0.197812,-0.01181 c 0.108796,-0.0065 0.274989,-0.02339 0.369316,-0.03754 z m -1.167027,-0.007 c 0,-0.0091 -0.01124,-0.06617 -0.02499,-0.126964 -0.05016,-0.221908 -0.05009,-0.549806 1.85e-4,-0.758493 0.0071,-0.02981 -0.02491,-0.05178 -0.215578,-0.147615 -0.203236,-0.102146 -0.239274,-0.127811 -0.388544,-0.276677 -0.18998,-0.189464 -0.141799,-0.182409 -0.489207,-0.07162 -0.2148016,0.0685 -0.5703955,0.206659 -0.7976083,0.309893 l -0.1194951,0.05429 0.1089935,0.10089 c 0.465209,0.430607 1.1083769,0.762608 1.7334749,0.894814 0.201697,0.04266 0.192767,0.04167 0.192767,0.02148 z M 6.445516,7.1648844 C 6.518466,7.1095944 6.667678,6.9776014 6.777091,6.8715534 7.111095,6.5478174 7.324239,6.2549194 7.524842,5.8440094 7.793152,5.2944044 7.920297,4.6947584 7.895547,4.095676 7.852547,3.0548909 7.396331,2.1161498 6.601112,1.4321965 L 6.477368,1.3257333 6.39988,1.4706646 c -0.141162,0.2640116 -0.282583,0.4358191 -0.58061,0.705361 -0.0894,0.080854 -0.09195,0.085637 -0.0664,0.1246068 0.0576,0.087843 0.382505,0.308673 0.630576,0.4285827 0.282437,0.1365208 0.374213,0.1980898 0.44894,0.301177 0.08574,0.1182762 0.122117,0.2690189 0.140871,0.5837108 0.0092,0.1541082 0.02955,0.4009991 0.04525,0.5486469 0.04828,0.4540296 0.02186,0.5934906 -0.247669,1.3076556 -0.07998,0.211898 -0.174198,0.468015 -0.20939,0.569149 -0.0352,0.101129 -0.08318,0.216627 -0.106644,0.256651 -0.07871,0.134267 -0.241083,0.231032 -0.434736,0.259073 -0.07641,0.01107 -0.08389,0.01612 -0.07448,0.05038 0.0057,0.02095 0.02328,0.105056 0.03894,0.18693 0.03742,0.195468 0.07007,0.287199 0.125819,0.353403 0.05055,0.06004 0.138602,0.119262 0.177449,0.119362 0.01379,3.6e-5 0.08476,-0.04517 0.157719,-0.100447 z M 0.86663004,3.9745091 C 1.0399972,3.9302871 1.2881113,3.8996001 1.4260002,3.9053241 l 0.1051459,0.00437 0.2325214,-0.2966473 C 2.1486273,3.1219203 2.3573463,2.9279585 2.562709,2.8705002 c 0.06367,-0.017817 0.08117,-0.031304 0.08864,-0.068345 0.0051,-0.025384 0.03746,-0.230173 0.07187,-0.4550916 0.03441,-0.2249183 0.09391,-0.5617244 0.132223,-0.7484578 0.04089,-0.199344 0.06524,-0.359477 0.05897,-0.387866 -0.0059,-0.0266 -0.03417,-0.1208583 -0.06287,-0.2094725 C 2.79059,0.81309739 2.823083,0.81625289 2.523473,0.96940629 1.82703,1.3254138 1.2672989,1.899104 0.91703924,2.6159037 c -0.2080876,0.4258476 -0.321725,0.838268 -0.3677282,1.334585 l -0.011702,0.126238 0.095117,-0.033407 c 0.052314,-0.018373 0.1575702,-0.049338 0.2339028,-0.068809 z"
       id="path950" />
  </g>
</svg>
