<?xml version="1.0" encoding="UTF-8" standalone="no"?>
<svg
   fill="none"
   height="32"
   viewBox="0 0 32 32"
   width="32"
   version="1.1"
   id="svg4"
   sodipodi:docname="face-checkbook.svg"
   inkscape:export-filename="face-checkbook.png"
   inkscape:export-xdpi="192"
   inkscape:export-ydpi="192"
   inkscape:version="1.1.1 (3bf5ae0d25, 2021-09-20)"
   xmlns:inkscape="http://www.inkscape.org/namespaces/inkscape"
   xmlns:sodipodi="http://sodipodi.sourceforge.net/DTD/sodipodi-0.dtd"
   xmlns="http://www.w3.org/2000/svg"
   xmlns:svg="http://www.w3.org/2000/svg">
  <defs
     id="defs8" />
  <sodipodi:namedview
     id="namedview6"
     pagecolor="#ffffff"
     bordercolor="#666666"
     borderopacity="1.0"
     inkscape:pageshadow="2"
     inkscape:pageopacity="0.0"
     inkscape:pagecheckerboard="0"
     showgrid="false"
     inkscape:zoom="2.276"
     inkscape:cx="16.036907"
     inkscape:cy="19.112478"
     inkscape:window-width="1920"
     inkscape:window-height="1009"
     inkscape:window-x="1912"
     inkscape:window-y="-8"
     inkscape:window-maximized="1"
     inkscape:current-layer="svg4" />
  <style
     type="text/css"
     id="style854">
	.st0{fill:none;}
	.st1{fill:none;stroke:#000000;stroke-width:0;stroke-linecap:round;stroke-linejoin:round;}
</style>
  <path
     id="path1194"
     style="color:#000000;fill:#180027;fill-opacity:1;stroke:none;stroke-width:0.588356;-inkscape-stroke:none"
     d="m 18.04252,0 c -0.0162,0 -0.02687,0.01321857 -0.04297,0.01367188 V 0.00390625 h -0.002 V 0.01367188 C 17.62447,0.02463008 17.28228,0.1470062 17.00341,0.34375 16.82582,0.45212609 16.66181,0.57010595 16.50927,0.72265625 16.08173,1.1501948 15.74981,1.6304503 15.5288,2.1816406 l -0.002,0.00195 -0.0215,0.052734 v 0.019531 c -0.28825,0.6898555 -0.49216,1.3817101 -0.62305,2.0976562 0.003,-0.0071 0.009,-0.01818 0.0156,-0.037109 -0.005,0.024935 -0.0158,0.070455 -0.0195,0.087891 -6.3e-4,0.00819 -0.002,0.019483 -0.002,0.019531 10e-6,1.588e-4 6e-5,0.018197 0,0.017578 -5e-5,-6.193e-4 -0.002,-0.021645 -0.002,-0.021484 v -0.00195 -0.00195 c 3.8e-4,-0.00378 0.002,-0.018084 0.004,-0.035156 -0.0688,0.3534247 -0.10283,0.7190107 -0.13477,1.0703125 v 0.00391 l -0.002,0.00977 v 0.00391 C 14.68048,6.6894849 14.6189,7.6769409 14.55798,8.5488434 10.96276,11.36463 7.2152,13.997843 3.33533,16.435561 l -0.0293,0.01172 -0.0312,0.0332 c -0.64926,0.386516 -1.23275,0.899552 -1.68359,1.523438 -0.42357,0.57797 -0.61133,1.267568 -0.61133,1.96875 0,0.598928 0.14767,1.175851 0.35937,1.705078 l 0.002,0.0059 0.002,0.002 c 0.2394,0.580978 0.54366,1.158374 0.88672,1.673829 7.7e-4,0.0012 9.5e-4,0.0027 0.002,0.0039 l 0.002,0.002 c 1.81784,2.84076 3.99868,5.417017 6.47656,7.664062 C 9.38139,31.661011 10.24865,32 11.14603,32 h 0.002 0.01 0.004 c 0.96089,-0.03559 1.89389,-0.32277 2.71484,-0.857422 h 0.002 c 0.7332,-0.434571 1.43259,-0.933656 2.0664,-1.466797 l 0.004,-0.002 0.006,-0.0059 0.01,-0.0078 c 2.29483,-1.83745 4.45124,-3.79546 6.63086,-5.714844 l 0.0137,-0.01172 c 2.06913,-1.807503 3.98759,-3.722059 6.10351,-5.292968 l -0.0156,0.0078 c 0.51445,-0.343801 0.99138,-0.751745 1.40429,-1.197266 l 0.002,-0.002 c 0.27213,-0.273136 0.46314,-0.586607 0.60937,-0.914062 0.19115,-0.387743 0.2696,-0.77613 0.30469,-1.16211 v -0.002 l 0.002,-0.01953 v -0.154297 -0.0098 -0.0059 c -0.0356,-0.892134 -0.29414,-1.700376 -0.76172,-2.419922 l 0.006,0.0059 c -0.36293,-0.593479 -0.78592,-1.1749 -1.20508,-1.72461 l -0.008,-0.01563 -0.0195,-0.02539 C 27.43831,8.8772817 25.3543,6.6879567 23.0689,5.1755593 h -0.002 l -0.002,-0.00195 -0.006,-0.00391 h -0.002 C 22.84584,5.037785 22.63503,4.9454223 22.42604,4.8552461 22.37154,4.3526122 22.27857,3.8497347 22.10182,3.3767305 l -0.002,-0.00195 C 21.86146,2.6948024 21.52112,2.0440475 21.07248,1.4822024 l -0.008,-0.017578 -0.0195,-0.019531 -0.004,-0.00586 h -0.002 C 20.48434,0.77492052 19.73688,0.3226256 18.90775,0.171875 l -0.041,-0.007813 H 18.64409 C 18.47114,0.0843134 18.28527,0 18.04252,0 Z m 0.24219,0.98242188 c 0.0343,0.0141371 0.0787,0.0116936 0.11132,0.03125 v 0.00195 l 0.10938,0.064453 h 0.25586 c 0.35076,0.066362 0.61893,0.3457956 0.91992,0.5507813 l -0.01,0.00586 -0.36524,0.1914063 -0.10742,-0.1191406 0.0254,0.1601562 -0.0547,0.029297 0.0215,0.070312 -0.0606,0.039063 0.0625,0.15625 0.002,0.00977 0.0234,0.056641 c 0.0564,0.1409657 0.11164,0.307208 0.13672,0.4511719 V 2.6875 c 0.0266,0.1662611 0.0254,0.3533278 0.0469,0.5253906 -0.0175,-0.1734369 -0.0337,-0.3472859 -0.0547,-0.5214843 l -0.002,-0.017578 -0.006,-0.03125 -0.002,-0.00781 C 19.30535,2.5078433 19.26495,2.3547735 19.19437,2.1738308 19.08218,1.8389559 18.88407,1.5506319 18.64554,1.2949246 18.53483,1.1209123 18.37302,1.0277987 18.31351,0.99804958 Z m -0.68555,0.0761718 c -0.0448,0.017356 -0.0887,0.035352 -0.12891,0.070312 0.005,-0.00296 0.007,-0.00677 0.0117,-0.00977 l 0.006,-0.00391 c 0.002,-0.00139 0.004,-0.00251 0.006,-0.00391 l 0.0156,-0.00781 0.0156,-0.011719 c 0.024,-0.017145 0.0493,-0.023356 0.0742,-0.033203 z m -0.125,0.050781 c -0.009,0.00598 -0.0252,0.024593 -0.0352,0.03125 -0.002,0.00225 -0.005,0.00162 -0.008,0.00391 z m -0.23633,0.1992187 c -0.0337,0.029366 -0.0672,0.063267 -0.10156,0.109375 -0.32062,0.3312131 -0.54708,0.6965161 -0.71875,1.0742188 l -0.004,0.00586 -0.008,0.019531 -0.004,0.013672 c -0.0347,0.083576 -0.069,0.1684587 -0.10351,0.2558594 0.0324,-0.082488 0.0389,-0.1694697 0.0742,-0.2519531 l 0.004,-0.00977 v -0.00195 l 0.002,-0.00195 c 0.17144,-0.426981 0.42387,-0.7949673 0.77929,-1.1503907 0.0251,-0.025056 0.053,-0.041851 0.0801,-0.0625 z m 0.7207,0.6152344 c 0.14659,0.1800282 0.27696,0.3790427 0.38086,0.6113282 l 0.004,0.013672 0.0117,0.017578 c 0.0344,0.070615 0.0581,0.1522696 0.0859,0.2890624 0.0288,0.2421793 0.0533,0.4844001 0.0801,0.7304688 0.0504,0.5334437 0.0875,1.0670617 0.10938,1.5996094 2.9e-4,0.018836 0,0.037091 0,0.044922 v 0.00391 0.00977 V 5.25 c 0.0583,1.4288351 0.11368,3.1495342 0.14844,4.6660156 -0.32732,-0.05166 -0.65387,-0.109375 -0.99805,-0.109375 -0.49651,0 -0.95419,0.097723 -1.41211,0.1933594 0.0185,-0.4932789 0.0416,-1.0027393 0.0762,-1.6445313 0.0424,-0.783989 0.0953,-1.702564 0.15821,-2.8027343 v -0.00977 c 0.008,-0.1178068 0.0206,-0.2361093 0.0352,-0.3554687 v -0.00195 c 0.007,-0.057902 0.0182,-0.1252082 0.0293,-0.1992188 v -0.00195 c 0.01,-0.063025 0.0158,-0.1170503 0.0234,-0.1621094 2.7e-4,-0.0016 -2.8e-4,-0.00428 0,-0.00586 v -0.00195 c 0.001,-0.00567 0.004,-0.013548 0.004,-0.013672 0.0413,-0.2367066 0.0942,-0.4769797 0.1543,-0.71875 10e-4,-0.00529 0.003,-0.010329 0.004,-0.015625 l 0.002,-0.00781 0.006,-0.027344 v 0.00586 c 0.0424,-0.181132 0.0912,-0.3615901 0.14844,-0.5371094 l 0.002,-0.00391 v -0.00195 c 0.0389,-0.1129503 0.08,-0.2255519 0.12305,-0.3359375 l 0.002,-0.00586 c 0.0337,-0.080769 0.0683,-0.1599664 0.10547,-0.234375 l 0.006,-0.00977 0.002,-0.00391 c 0.13896,-0.3057028 0.33893,-0.5937087 0.57422,-0.859375 9.9e-4,-0.00111 9.1e-4,-0.00279 0.002,-0.00391 0.061,-0.06082 0.0959,-0.088757 0.13281,-0.1171875 z m 2.24805,0.023437 c 0.0367,0.039438 0.0959,0.036236 0.13086,0.078125 0.12527,0.1545137 0.18514,0.367371 0.29297,0.5410157 -0.0994,-0.159379 -0.19919,-0.3187656 -0.3125,-0.4648438 l -0.0195,-0.029297 c -0.002,-0.0034 -0.004,-0.00446 -0.006,-0.00781 -0.0303,-0.049894 -0.0559,-0.076428 -0.0859,-0.1171875 z m 0.68555,1.0957031 c 0.10853,0.220718 0.26546,0.4038372 0.34765,0.6386719 v 0.00391 l 0.002,0.00586 0.002,0.00391 c 0.18128,0.4844897 0.30063,0.9953867 0.33008,1.4960938 l 0.0117,0.2265624 -0.0156,0.1484376 c -0.003,-0.6290814 -0.11,-1.2406119 -0.35742,-1.84375 -0.0852,-0.2387787 -0.20459,-0.457977 -0.32031,-0.6796876 z m -1.44727,0.6464844 c 0.0486,0.4956574 0.11543,0.9842667 0.13477,1.4824219 v 0.00195 c 1.2e-4,0.00325 -1.3e-4,0.00651 0,0.00977 v 0.00977 c 0.0646,1.0666044 0.0981,2.3051947 0.13086,3.4824219 v 0.8476562 l 0.13086,0.2636719 0.0976,0.2890628 0.01,0.01953 c 0.23367,0.506291 0.62125,0.880504 1.04883,1.171876 -0.0977,-0.0612 -0.19966,-0.116748 -0.28321,-0.183594 l -0.004,-0.0039 -0.0176,-0.01367 -0.0156,-0.0098 c -0.0576,-0.03897 -0.0926,-0.07304 -0.1875,-0.16797 L 20.24378,10.642556 19.70081,10.1074 C 19.66991,8.5347704 19.63951,6.697489 19.54652,5.1757591 v -0.00586 c -1.7e-4,-0.00366 -0.002,-0.012167 -0.002,-0.00781 v -0.00195 c -0.004,-0.4986636 -0.0497,-0.9860068 -0.0996,-1.4707032 z m -3.53125,0.390625 c -0.0734,0.3343185 -0.14562,0.6672896 -0.18554,0.9980469 l -0.002,0.017578 v 0.00391 c -0.0155,0.1317334 -0.0268,0.26378 -0.0352,0.3964843 V 5.5 c -0.0654,1.1434171 -0.12292,2.1068808 -0.16797,2.9296875 -8e-5,0.00347 -0.002,0.024648 -0.002,0.025391 -0.0441,0.8091713 -0.0774,1.484671 -0.0937,2.0566405 l -0.0156,0.634766 h -0.0195 c 0.0124,-0.353699 0.0193,-0.629796 0.0371,-1.093751 l 0.0371,-0.9707023 -0.0391,0.029297 0.002,-0.070312 0.0176,-0.013672 0.0137,-0.2011718 c 0.0649,-0.9091463 0.12856,-1.9842521 0.19336,-3.2753906 v -0.00586 c 2.7e-4,-0.00542 0.002,-0.00824 0.002,-0.013672 v -0.00391 l 0.002,-0.00586 h -0.002 c 1.3e-4,-0.00147 0.002,-0.00243 0.002,-0.00391 v -0.00195 c 0.0318,-0.3495784 0.0646,-0.6853135 0.1211,-0.9707031 v -0.00781 l 0.002,-0.00977 c 8.6e-4,-0.00472 0.003,-0.00895 0.004,-0.013672 0.0275,-0.1501426 0.0953,-0.2867984 0.1289,-0.4335938 z M 15.69096,5.5 15.68896,5.50586 V 5.51563 Z M 14.92338,4.2558594 c -10e-4,0.0022 -0.01,0.016208 -0.0156,0.027344 6.8e-4,-0.00191 0.004,-0.00978 0.004,-0.00977 -6e-5,1.066e-4 0.0138,-0.020688 0.0117,-0.017578 z m 5.60351,0.8554687 c 0.0214,0.1767036 0.0977,0.3302858 0.0977,0.5117188 0,0.2453105 -0.0311,0.4760796 -0.0508,0.7148437 -0.0163,-0.4093094 -0.0238,-0.8454265 -0.0469,-1.2265625 z m 1.75,0.6855469 c 0.0974,0.050642 0.19226,0.084884 0.29102,0.1464844 0.72888,0.4828051 1.42644,1.0519875 2.0957,1.6699219 C 23.98114,6.9869788 23.26766,6.41597 22.5308,5.9414063 L 22.5093,5.9257813 C 22.3906,5.8472703 22.32541,5.8209614 22.27687,5.796875 Z m 0.0898,1.2226563 c 1.38604,0.9684059 2.75574,2.2003986 3.9375,3.5585937 0.41929,0.486064 0.81663,0.978882 1.1875,1.466796 l 0.01,0.02539 0.0332,0.03125 c 0.39898,0.492615 0.74627,1.027113 1.10156,1.576172 0.29355,0.469704 0.45986,0.940538 0.48828,1.480469 l 0.008,0.175781 0.0293,0.0293 c -0.0145,0.117381 -0.0331,0.241985 -0.0879,0.351563 -0.11613,0.232261 -0.28231,0.423691 -0.47852,0.605468 h 0.0137 l -0.082,0.07227 -0.002,0.002 -0.008,0.0059 -0.002,0.002 c -0.27942,0.247802 -0.59003,0.496418 -0.89648,0.710938 l -0.0156,0.0098 -0.0215,0.02149 c -2.24366,1.686881 -4.17165,3.642005 -6.19922,5.380859 -0.003,0.0026 -0.007,0.0052 -0.01,0.0078 l -0.004,0.0039 -0.004,0.0039 -0.004,0.0039 c -2.18439,1.923692 -4.32672,3.871542 -6.55664,5.650391 -0.004,0.0029 -0.008,0.0049 -0.0117,0.0078 l -0.004,0.0039 c -10e-4,0.0011 -0.002,0.0028 -0.004,0.0039 l -0.01,0.0059 c -0.56695,0.47246 -1.20412,0.921437 -1.84766,1.339844 l 0.006,-0.002 c -0.0117,0.0098 -0.0391,0.03062 -0.0586,0.04687 0.007,-0.0082 0.0176,-0.01956 0.0176,-0.01953 l 0.0332,-0.02539 c -0.54639,0.344343 -1.13848,0.53848 -1.75781,0.574219 -0.43209,-0.01053 -0.85096,-0.164537 -1.13281,-0.445313 l -0.002,-0.002 v -0.002 l -0.0156,-0.01172 -0.008,-0.0078 -0.002,-0.002 C 7.65681,27.501479 5.59455,25.019066 3.8522,22.341782 l -0.004,-0.0039 -0.01,-0.01367 -0.002,-0.002 -0.002,-0.002 C 3.53349,21.898828 3.29187,21.445175 3.10959,20.992087 l -0.006,-0.02539 -0.01,-0.01563 C 2.956,20.645506 2.87484,20.324038 2.87484,19.972552 c 0,-0.328494 0.11062,-0.670234 0.27735,-0.910156 0.32521,-0.441778 0.69383,-0.783499 1.15429,-1.042969 l 0.002,-0.002 h 0.002 l 0.0176,-0.01172 v 0.002 c 3.49448,-2.187848 6.85311,-4.569237 10.11914,-7.041016 -0.015,0.375484 -0.0332,0.779562 -0.0332,1.0625 v 0.328125 c 0,2.410481 0.3639,4.818045 1.05078,7.128907 v 0.01953 l 0.0117,0.03516 c 4e-4,0.0014 0.002,0.0026 0.002,0.0039 v 0.002 c 0.003,0.0115 0.0103,0.02172 0.0137,0.0332 6.7e-4,0.0017 0.002,0.0078 0.002,0.0078 0.14078,0.477754 0.34125,0.945423 0.57422,1.378906 v 0.002 c 0.12698,0.251443 0.30774,0.459189 0.48242,0.636718 v 0.002 c 0.008,0.0083 0.0153,0.02113 0.0234,0.0293 l 0.006,0.0039 0.002,0.002 v 0.002 c -0.25591,0.176105 -0.50195,0.398131 -0.50195,0.714844 0,0.07757 0.008,0.132374 0.0117,0.199218 -0.1516,0.02844 -0.30522,0.04466 -0.44141,0.138672 -0.1874,0.102843 -0.34623,0.256413 -0.44922,0.449219 -0.0835,0.128452 -0.19726,0.324734 -0.19726,0.585937 0,-0.02038 -0.008,0.07893 -0.0156,0.121094 -0.004,-0.0029 -0.008,-0.0069 -0.0117,-0.0098 l -0.0156,-0.01563 -0.0293,-0.01953 c -0.29027,-0.193519 -0.62906,-0.273437 -0.9414,-0.273437 -0.19823,0 -0.34979,0.05346 -0.44727,0.08594 -0.27175,0.07247 -0.43829,0.250792 -0.5293,0.341797 -0.1662,0.166206 -0.26229,0.369393 -0.3125,0.564453 -0.0385,0.129723 -0.0378,0.220704 -0.0391,0.294922 2e-5,-7.2e-5 -0.002,0.0115 -0.002,0.01172 v 0.002 c -6.7e-4,0.003 -0.008,0.01945 -0.008,0.01953 -10e-6,8.2e-5 -0.003,0.04211 -0.004,0.04883 v 0.002 0.002 c -0.007,0.118632 -0.0102,0.240788 -0.0156,0.361328 l -0.004,-0.0059 -0.01,-0.01172 -0.008,-0.0098 -0.002,0.002 c -0.0545,-0.07363 -0.11115,-0.135183 -0.15821,-0.177734 -0.0465,-0.05025 -0.10786,-0.110101 -0.1875,-0.166016 h -0.002 C 12.0655,24.755444 11.8173,24.646668 11.53641,24.646668 h -0.15625 l -0.0566,0.01563 c -0.14788,0.03715 -0.30961,0.08857 -0.46679,0.193359 l -0.0371,0.02344 -0.0312,0.0332 c -0.0918,0.09182 -0.27376,0.258451 -0.34571,0.53125 -0.0311,0.09143 -0.084,0.229377 -0.084,0.412109 v 0.228516 c 0,0.623525 0.15008,1.222759 0.4414,1.773437 l 0.002,0.0039 v 0.002 c 10e-4,0.0021 0.003,0.0038 0.004,0.0059 l 0.006,0.01172 c 0.0781,0.136684 0.18893,0.240399 0.30664,0.3125 0.0284,0.01764 0.0516,0.0289 0.0488,0.02734 l 0.006,0.0039 0.006,0.002 c -0.004,-0.0021 0.0197,0.01178 0.0488,0.02539 0.27649,0.129911 0.61115,0.124829 0.89453,-0.03711 h 0.002 l 0.0312,-0.01953 0.0254,-0.02148 c 0.10384,-0.08308 0.0563,-0.239911 0.11524,-0.355469 l 0.13476,0.134766 0.0508,0.05078 0.0234,0.01563 c 0.17262,0.12947 0.40874,0.255859 0.69922,0.255859 0.28627,0 0.50687,-0.11526 0.64453,-0.207031 l 0.0117,-0.0078 0.01,-0.0078 c 0.19763,-0.148222 0.32816,-0.344808 0.41211,-0.554688 l 0.01,-0.01953 0.002,-0.0078 c 0.0382,-0.114829 0.0799,-0.271398 0.084,-0.449219 h 0.004 V 27.007812 27 l 0.0566,-1.160157 c 0.009,0.0071 0.0201,0.01654 0.0293,0.02344 l 0.0195,0.01563 0.0273,0.01563 c 0.2864,0.163659 0.5973,0.255859 0.91406,0.255859 0.18901,0 0.343,-0.0445 0.46094,-0.08203 0.29376,-0.06438 0.48384,-0.247513 0.58203,-0.345703 l 0.0312,-0.03125 0.0254,-0.03906 c 0.0879,-0.131869 0.16894,-0.297271 0.21875,-0.484375 0.0482,-0.153099 0.0547,-0.289915 0.0547,-0.390625 0,-0.05688 0.006,-0.14308 0.01,-0.21289 0.0355,0.004 0.0488,0.01758 0.0879,0.01758 0.20796,0 0.39563,-0.06886 0.55078,-0.166016 0.24153,-0.130227 0.39132,-0.333416 0.48047,-0.511719 v -0.002 l 0.0137,-0.02734 0.01,-0.0293 v -0.002 c 0.0609,-0.182913 0.0566,-0.345595 0.0566,-0.439454 v -0.111328 l -0.0215,-0.330078 c 0.086,-0.05183 0.16725,-0.06888 0.23437,-0.203125 l 0.002,-0.002 0.0117,-0.02734 0.0117,-0.0293 v -0.002 c 0.0289,-0.08668 0.0591,-0.212849 0.0723,-0.353515 0.0764,-0.102345 0.1711,-0.207991 0.17578,-0.398438 0.0104,-0.06532 0.0134,-0.11831 0.0156,-0.173828 0.20311,-0.151691 0.39196,-0.321341 0.53321,-0.533203 0.13051,-0.195778 0.2727,-0.406731 0.38867,-0.638672 l 0.002,-0.0039 c 0.57867,-1.191378 0.9535,-2.485074 1.08985,-3.814453 h -0.002 c 0.0397,-0.383172 0.0393,-0.777268 0.0664,-1.167968 0.025,0.04807 0.0262,0.10243 0.0606,0.146484 0.30355,0.428373 0.91478,0.475177 1.30859,0.148437 h 0.002 l 2.92383,-2.33789 0.002,-0.002 0.0156,-0.01172 c 0.23951,-0.199606 0.35262,-0.499302 0.32813,-0.792968 -0.009,-0.186793 -0.0721,-0.379561 -0.20508,-0.539063 -0.16074,-0.192883 -0.38552,-0.304259 -0.61914,-0.328125 -0.049,-0.005 -0.0984,-0.0046 -0.14649,-0.002 -0.0102,5.74e-4 -0.0212,-9e-4 -0.0312,0 -0.17665,0.01562 -0.35258,0.08419 -0.5,0.207031 l -2.91601,2.33203 c -0.15425,0.110172 -0.12366,0.295487 -0.17969,0.457033 0.0152,-0.34622 0.0586,-0.690798 0.0586,-1.033203 v -0.29297 c 0,-0.146447 -0.0109,-0.814569 -0.0195,-1.416015 0.0455,0.02402 0.0987,0.07279 0.14063,0.09375 0.25006,0.125029 0.54446,0.210938 0.85937,0.210938 0.27,0 0.59559,-0.04182 0.89453,-0.236329 0.30675,-0.180525 0.51421,-0.432436 0.66211,-0.654296 0.0645,-0.0967 0.17216,-0.25115 0.22656,-0.46875 0.0276,-0.110366 0.0801,-0.264181 0.0801,-0.470704 0,-0.294797 -0.0977,-0.605927 -0.32812,-0.8398437 -0.002,-0.00147 -0.009,-0.010788 -0.008,-0.00977 l -0.004,-0.00391 -0.006,-0.00781 L 23.17924,9.75 c -0.001,-0.00145 -0.003,-0.00247 -0.004,-0.00391 -0.009,-0.00893 -0.0135,-0.013369 -0.0117,-0.011719 C 23.08184,9.646925 22.99446,9.5720022 22.90768,9.5097616 22.81918,9.4404926 22.72686,9.3743159 22.63034,9.3164023 h -0.002 l -0.043,-0.025391 -0.0469,-0.015625 c 0.0334,0.011128 -0.0312,-0.029962 -0.0957,-0.072266 -0.0966,-0.1008137 -0.16845,-0.1906586 -0.17969,-0.21875 -0.0373,-0.093268 -0.0645,-0.2424823 -0.0645,-0.3867187 v -0.091797 -0.00195 c 0.0319,-0.4908268 0.0936,-0.9297236 0.1582,-1.4140626 l 0.002,-0.00391 v -0.00781 l 0.002,-0.00586 v -0.00195 -0.00195 c 0.002,-0.015358 0.004,-0.033215 0.006,-0.048828 z m 6.22851,9.3007807 h -0.004 l -0.0469,0.05078 c 0.0185,-0.01642 0.0329,-0.0342 0.0508,-0.05078 z M 15.24169,9.1835937 14.65575,9.6425781 c -2.6841,2.1017059 -5.55974,4.0096589 -8.45508,5.8984379 3.08158,-2.027957 6.14605,-4.084807 9.04102,-6.3574223 z m 2.54101,1.5703123 c 0.0133,0 0.0277,0.0038 0.041,0.0039 0.0244,1.9e-4 0.0497,0.0034 0.0742,0.0039 -0.0249,-4.33e-4 -0.0492,-0.0018 -0.0742,-0.002 -0.0142,-9.5e-5 -0.0268,-0.0059 -0.041,-0.0059 z m -0.48437,0.02344 c -0.45374,0.03752 -0.89789,0.126026 -1.32422,0.248047 -0.0811,0.0102 -0.1498,0.02995 -0.21094,0.06055 v -0.002 c -0.0208,0.01031 -0.036,0.02059 -0.041,0.02344 l 0.0488,-0.02148 c -0.0496,0.01711 -0.0515,0.02393 -0.0644,0.0332 l -0.008,0.002 c -10e-4,7.63e-4 -0.005,0.0033 -0.006,0.0039 -0.002,0.0013 -0.0154,0.0068 -0.0137,0.0059 -6.7e-4,5.69e-4 -0.009,0.0057 -0.01,0.0059 l -0.0215,0.0098 h -0.0215 l 0.12305,-0.08008 0.25195,-0.06445 c 0.43338,-0.114048 0.86032,-0.191015 1.29688,-0.22461 z m 1.82617,0.125 c 0.0125,0.0025 0.0246,0.0034 0.0371,0.0059 l 0.54101,0.109375 0.002,0.0293 -0.30274,-0.08008 c -0.092,-0.02453 -0.18479,-0.0444 -0.27734,-0.06445 z m 3.34766,0.0957 -0.0312,0.05274 -0.0176,0.02149 c 0.0233,-0.02392 0.016,-0.02837 0.0332,-0.05469 0.004,-0.0086 0.0118,-0.01071 0.0156,-0.01953 z m 5.44531,0.113283 c 0.0984,0.125962 0.22736,0.245386 0.32226,0.371092 v 0.0098 l 0.0645,0.06836 c 0.0941,0.123104 0.17264,0.253432 0.26562,0.378908 -0.098,-0.127285 -0.18923,-0.257286 -0.29101,-0.382813 l -0.006,-0.0078 c -0.11067,-0.145895 -0.24026,-0.291246 -0.35547,-0.4375 z m -6.81445,0.226562 c 0.0558,0.02847 0.12814,0.06383 0.21289,0.09375 -0.0472,-0.01234 -0.0971,-0.02415 -0.12696,-0.03906 -0.0286,-0.01429 -0.0566,-0.03823 -0.0859,-0.05469 z m -3.32422,0.33203 h 0.002 c 0.33418,0 0.69459,0.06436 1.04687,0.13672 v 1.759765 0.29297 c 0,0.889121 -0.064,1.785376 -0.16015,2.685545 -0.0343,0.25183 -0.0817,0.505571 -0.13086,0.761719 -0.0635,0.310815 -0.1432,0.619384 -0.22461,0.925781 -0.0246,-0.0026 -0.0472,-0.0074 -0.0723,-0.0098 -0.0944,-0.0091 -0.19287,-0.01563 -0.29492,-0.01563 -0.3031,0 -0.56675,0.05952 -0.83398,0.111328 -0.53664,-1.963645 -0.83203,-3.974973 -0.83203,-5.99414 v -0.294923 -0.132811 c 0.48883,-0.135317 0.99719,-0.226362 1.5,-0.226564 z m -1.61914,0.234375 -0.008,0.0078 -0.008,0.0059 -0.01,0.0039 -0.0508,0.02344 c 0.015,-0.0047 0.0534,-0.02776 0.0762,-0.04102 z m -0.79688,0.419923 c 0,0.395482 0.0609,0.788387 0.0801,1.183594 -0.0167,-0.373984 -0.0801,-0.744546 -0.0801,-1.119142 z m 8.92969,0.222657 c 0,0 0.002,0 0.002,0 l 0.0234,0.27539 z m 1.61914,1.486328 -0.0137,0.0039 c -0.17831,0.0094 -0.34781,0.06585 -0.49219,0.162109 l -0.0176,0.0098 -0.0215,0.01758 -4.58985,3.757812 h -0.002 l -0.082,0.06641 c -0.24018,0.200149 -0.35358,0.502712 -0.32813,0.796875 0.01,0.185648 0.0718,0.377606 0.20313,0.535156 0.32116,0.385412 0.90683,0.449703 1.29883,0.123047 l 4.68359,-3.830078 0.01,-0.0098 c 0.1919,-0.169015 0.29714,-0.404653 0.31054,-0.644531 l 0.002,-0.002 v -0.002 c 8.8e-4,-0.02165 3.1e-4,-0.05773 -0.002,-0.09766 -0.004,-0.161266 -0.0539,-0.3238 -0.15234,-0.460936 -0.002,-0.0031 -0.005,-0.0079 -0.008,-0.01172 -0.009,-0.0123 -0.0212,-0.02753 -0.0332,-0.04297 -0.15831,-0.216621 -0.39191,-0.342003 -0.63085,-0.367186 h -0.002 c -0.0305,-0.0031 -0.0598,-0.0036 -0.0859,-0.0039 z m 0.0332,0.9375 c -0.001,0.0077 8.7e-4,0.01088 -0.0195,0.0332 l -0.002,0.002 -2.58399,2.093749 z m 0.0156,0.002 h 0.002 l 0.006,0.01172 z m 3.52148,0.294923 c -5e-5,0.01878 -0.007,0.03774 -0.008,0.05664 l -0.0606,0.0098 c 0.03,-0.02897 0.0684,-0.06641 0.0684,-0.06641 z m -9.01758,0.03516 c 4.8e-4,0.0042 0.005,0.0075 0.006,0.01172 5e-4,0.0028 -0.004,0.005 -0.004,0.0078 z m -6.86523,0.119141 v 0.002 c -0.0248,-1.65e-4 -0.0482,1.02e-4 -0.0723,0.002 -0.18954,0.0068 -0.38494,0.07081 -0.54687,0.205079 -2.1129,1.722787 -4.2902,3.413734 -6.5,5.039061 -0.40162,0.267745 -0.51132,0.803063 -0.29102,1.226563 l 0.0117,0.0332 0.0195,0.0293 c 0.10394,0.155956 0.25259,0.263048 0.41211,0.328125 0.28632,0.135995 0.64126,0.120358 0.92188,-0.08008 l 0.0273,-0.01758 0.0488,-0.04883 c 2.21406,-1.628766 4.43123,-3.323463 6.55273,-5.085938 0.3852,-0.320986 0.45151,-0.905055 0.125,-1.296874 -0.16043,-0.192523 -0.38669,-0.306134 -0.62109,-0.330078 -0.0186,-0.0019 -0.0377,-0.0032 -0.0566,-0.0039 -0.0105,-4.17e-4 -0.0207,-0.0019 -0.0312,-0.002 z m 6.08008,0.103515 c -0.0181,0.372446 -0.0459,0.742832 -0.0957,1.105468 l -0.004,0.01953 v 0.01367 c -0.001,0.01427 -0.0102,0.02676 -0.0117,0.04102 0.002,-0.01241 0.004,-0.0247 0.006,-0.03711 v -0.0039 l 0.004,-0.01563 V 16.625 c 0.0511,-0.36873 0.0828,-0.734803 0.10157,-1.099609 z m -1.00391,0.998046 c -0.004,0.02669 -0.0117,0.0624 -0.0117,0.0625 l 0.004,-0.0332 c -10e-6,7e-5 0.004,-0.01479 0.008,-0.0293 z m 10.94531,0.02539 c -0.0582,0.08129 -0.0958,0.183696 -0.16797,0.255859 l -0.0137,0.01367 c -0.0316,0.03428 -0.0748,0.05991 -0.10742,0.09375 0.11144,-0.111681 0.19467,-0.239138 0.28906,-0.363281 z m -1.29882,1.224609 c -0.05,0.03534 -0.088,0.08532 -0.13868,0.119141 l -0.0156,0.0098 c 0.0155,-0.01167 0.0275,-0.02743 0.043,-0.03906 l 0.004,-0.0039 c 0.0374,-0.02622 0.0702,-0.05902 0.10743,-0.08594 z m -10.37696,1.349609 c 0.0793,0 0.15835,0.0064 0.2461,0.01367 0.0471,0.0043 0.10565,0.01183 0.15625,0.01758 h -0.36914 -0.0195 -0.0137 c -0.0294,0 -0.0345,0.002 -0.0156,0.002 h -0.002 c -0.12808,0.0015 -0.25682,0.0089 -0.38476,0.02148 0.13503,-0.01444 0.27751,-0.05469 0.40234,-0.05469 z m -1.59765,0.0078 0.0723,0.248047 0.42578,-0.107422 c 0.12373,-0.03093 0.24721,-0.02833 0.375,-0.05078 -0.0142,0.0025 -0.0291,0.0053 -0.043,0.0078 -0.0545,0.0092 -0.12683,0.01561 -0.21484,0.03516 l -0.54492,0.121094 c -0.006,-0.0204 -0.0196,-0.04019 -0.0254,-0.06055 l -0.002,-0.0039 v -0.0059 l -0.002,-0.002 c -0.0187,-0.05942 -0.0229,-0.122083 -0.041,-0.181641 z m 2.10351,0.03516 c 0.0534,0.0065 0.0981,0.01031 0.15625,0.01758 l 0.002,0.002 h 0.008 l 0.0137,0.002 h -0.19141 z m -4.16601,0.125 c -0.0176,5.83e-4 -0.0331,0.01784 -0.0508,0.01953 l -0.002,-0.01172 h -0.002 l 0.002,0.01172 c -0.1638,0.01603 -0.33229,0.06435 -0.4707,0.179688 l -0.0137,0.0098 -0.21094,-0.04102 0.10937,0.115234 -5.39257,3.923828 -0.0117,0.0098 -0.004,0.0039 c -0.36734,0.306119 -0.4984,0.886274 -0.15625,1.296875 0.17871,0.214436 0.43648,0.340781 0.71094,0.351563 0.0114,6.34e-4 0.0237,0.0019 0.0254,0.002 h 0.008 0.01 c -0.0133,1.06e-4 0.009,0.0017 0.0137,0.002 0.19168,0.0024 0.39611,-0.06056 0.5625,-0.199219 l -0.0156,0.01367 5.5254,-4.021484 0.0117,-0.0098 0.002,-0.002 c 0.38522,-0.32102 0.45185,-0.906624 0.125,-1.298828 -0.15324,-0.183892 -0.36493,-0.305546 -0.59766,-0.34375 -0.0572,-0.0094 -0.11652,-0.01369 -0.17773,-0.01172 z m 2.27734,0.445313 0.0898,0.179687 c 0.001,0.0025 0.0148,0.03183 0.0254,0.06055 3.7e-4,0.0011 0.002,0.0028 0.002,0.0039 v 0.002 c 0.009,0.02745 0.0205,0.06094 0.0391,0.09766 0.0794,0.158828 0.18194,0.383516 0.33398,0.595703 0.0898,0.192529 0.24956,0.314011 0.24219,0.30664 l 0.0957,0.0957 -0.0898,-0.04297 -0.002,-0.002 c -0.0437,-0.02189 -0.0518,-0.0275 -0.0644,-0.03906 -0.13246,-0.135767 -0.25975,-0.294441 -0.31641,-0.40625 v -0.002 l -0.002,-0.002 v -0.002 l -0.006,-0.0098 c -0.14436,-0.26809 -0.24171,-0.55338 -0.34766,-0.835937 z m -2.23438,0.476562 c 0.002,0.001 0.005,0.0046 0.008,0.0059 -0.002,0.0047 -0.004,0.01247 -0.0176,0.02344 l -0.0156,0.01367 0.006,-0.0078 -5.45117,3.966797 5.39453,-3.949218 h 0.0215 z m -12.2246,0.845703 c 0.0249,0.08515 0.0536,0.169027 0.0879,0.251953 l -0.004,-0.0059 -0.002,-0.002 -0.002,-0.002 C 2.15159,21.220438 2.12599,21.139335 2.10279,21.0585 Z m 15.36718,0.05859 h 0.17969 0.01 l -0.0606,0.248047 c -0.0155,0.06196 -0.007,0.09832 -0.0137,0.15625 V 21.19535 l -0.0312,-0.01758 V 21.15824 Z M 2.21236,21.363319 c 0.2334,0.498116 0.49926,0.998629 0.80273,1.470703 1.78612,2.778401 3.90341,5.293304 6.31836,7.509766 l 0.006,0.0078 0.008,0.0039 c 0.0189,0.01603 0.0451,0.01964 0.0644,0.03516 -0.0207,-0.01835 -0.052,-0.0102 -0.0723,-0.0293 h -0.002 l -0.008,-0.0078 C 6.91214,28.161452 4.78543,25.646776 3.01119,22.875033 l -0.01,-0.01172 -0.002,-0.0039 -0.002,-0.002 C 2.6972,22.407424 2.42652,21.889561 2.21203,21.376945 Z m 14.49805,0.101562 c -0.0139,0.0053 -0.01,0.02737 -0.0234,0.0332 l 0.008,-0.01953 z m 0.67773,0.583985 V 22.2266 c 0,-0.01913 -0.0127,0.04047 -0.0234,0.08398 l -0.33398,0.08399 v -0.0039 c 0,-0.07269 -0.0288,-0.03474 0.0273,-0.05078 l 0.23243,-0.06641 0.0703,-0.212891 c 0.003,0.001 -5.6e-4,0.0069 0.0215,-0.0078 z m -1.04492,1.388672 c 0.0197,0 0.0195,-2.33e-4 0.0234,0 l 0.0234,0.01172 c -0.0175,-0.0028 -0.0305,-0.01172 -0.0469,-0.01172 z m 0.7207,0.01367 0.006,0.01953 v 0.002 l 0.0117,0.0332 c -0.007,-0.01909 -0.0117,-0.02978 -0.0137,-0.0293 l 0.002,-0.0039 c -8.7e-4,0.0012 -0.003,0.0013 -0.004,0.002 -3.2e-4,3.04e-4 -0.002,-0.0066 -0.002,-0.0059 z m -2.66015,1.136719 c 0.002,0.0013 0.006,6.16e-4 0.008,0.002 0.0116,0.0068 0.0296,0.0042 0.041,0.01172 h 0.002 c 0.0549,0.04137 0.10432,0.08065 0.14453,0.115234 0.0346,0.03219 0.0604,0.061 0.0703,0.07422 l 0.002,0.002 0.0195,0.02344 0.0117,0.01172 c 0.008,0.009 0.002,0.002 0.008,0.0078 l 0.008,0.0098 0.0234,0.02539 0.002,0.002 c 0.0592,0.05921 0.13803,0.126578 0.22656,0.19336 l 0.0254,0.02734 c -0.008,-0.0051 -0.021,-0.0043 -0.0293,-0.0098 h -0.002 c -0.054,-0.0407 -0.10257,-0.0793 -0.14257,-0.113281 l -0.008,-0.0078 c -0.0307,-0.02888 -0.0552,-0.0527 -0.0644,-0.06445 l -0.002,-0.0039 -0.0156,-0.02149 -0.0195,-0.01953 -0.004,-0.0039 c -0.007,-0.007 -0.003,-0.0019 -0.008,-0.0059 l -0.008,-0.01172 -0.0195,-0.01758 -0.01,-0.0098 c -0.0566,-0.05647 -0.13625,-0.126308 -0.22851,-0.195312 l -0.006,-0.0039 c -0.008,-0.0079 -0.0168,-0.01034 -0.0254,-0.01758 z m -2.67578,1.06836 c 0.007,0.0044 0.0128,0.003 0.0195,0.0078 10e-4,9.98e-4 0.003,8.9e-4 0.004,0.002 0.0206,0.01881 0.039,0.03892 0.0547,0.05273 0.003,0.0028 0.009,0.0072 0.0117,0.0098 0.0153,0.01729 0.0307,0.0372 0.0508,0.05859 l 1.20508,1.492187 c -0.0139,-0.0087 -0.0174,-0.0021 -0.041,-0.01953 l -0.10742,-0.107422 z m 3.67382,3.28125 c -0.008,0.0066 -0.0152,0.01487 -0.0234,0.02148 -0.002,0.0015 -0.004,0.0025 -0.006,0.0039 l -0.0215,0.01172 -0.008,0.0098 c -0.1062,0.08913 -0.23568,0.15907 -0.3457,0.246093 0.11251,-0.09182 0.24378,-0.1599 0.35351,-0.255859 0.0158,-0.01383 0.035,-0.02319 0.0508,-0.03711 z m -1.98046,1.412109 c -0.008,0.0048 -0.0153,0.01081 -0.0234,0.01563 l -0.004,0.002 -0.006,0.0039 -0.006,0.0039 h -0.002 c -0.44802,0.292187 -0.93639,0.475811 -1.44531,0.580078 0.52297,-0.114566 1.02295,-0.321275 1.48633,-0.605469 z M 11.019,31.035193 c 0.0441,0.0029 0.0817,0.01758 0.12695,0.01758 h 0.0215 c 0.0192,-8.95e-4 0.004,2.88e-4 0.006,0 l 0.006,-0.002 h 0.002 c 0.008,5.6e-4 0.01,0.002 0.0312,0.002 h 0.0195 c 0.002,-8.9e-5 0.004,9.1e-5 0.006,0 -0.0341,0.0021 -0.0614,0.02989 -0.0957,0.03125 -0.0455,-8.5e-5 -0.0779,-0.04647 -0.12305,-0.04883 z" />
</svg>
