<?xml version="1.0" encoding="UTF-8" standalone="no"?>
<svg
   fill="none"
   height="32"
   viewBox="0 0 32 32"
   width="32"
   version="1.1"
   id="svg4"
   sodipodi:docname="face-toolbox.svg"
   inkscape:version="1.1.1 (3bf5ae0d25, 2021-09-20)"
   xmlns:inkscape="http://www.inkscape.org/namespaces/inkscape"
   xmlns:sodipodi="http://sodipodi.sourceforge.net/DTD/sodipodi-0.dtd"
   xmlns="http://www.w3.org/2000/svg"
   xmlns:svg="http://www.w3.org/2000/svg">
  <defs
     id="defs8" />
  <sodipodi:namedview
     id="namedview6"
     pagecolor="#ffffff"
     bordercolor="#666666"
     borderopacity="1.0"
     inkscape:pageshadow="2"
     inkscape:pageopacity="0.0"
     inkscape:pagecheckerboard="0"
     showgrid="false"
     inkscape:zoom="27.28125"
     inkscape:cx="15.981672"
     inkscape:cy="14.991982"
     inkscape:window-width="3840"
     inkscape:window-height="2080"
     inkscape:window-x="2293"
     inkscape:window-y="35"
     inkscape:window-maximized="1"
     inkscape:current-layer="svg4" />
  <path
     clip-rule="evenodd"
     d="m 24,5.6 h 4.8 c 1.76736,0 3.2,1.432688 3.2,3.2 V 28 c 0,1.76736 -1.43264,3.2 -3.2,3.2 H 3.2 C 1.432688,31.2 0,29.76736 0,28 V 8.8 C 0,7.032688 1.432688,5.6 3.2,5.6 H 8 C 8,2.94904 10.14904,0.8 12.8,0.8 h 6.4 c 2.65104,0 4.8,2.14904 4.8,4.8 z M 19.2,4 h -6.4 c -0.883648,0 -1.6,0.716352 -1.6,1.6 h 9.6 C 20.8,4.716352 20.08368,4 19.2,4 Z m 9.6,4.8 H 3.2 V 12 H 28.8 Z M 3.2,28 V 15.2 H 8 v 3.2 h 6.4 v -3.2 h 3.2 v 3.2 H 24 v -3.2 h 4.8 V 28 Z"
     fill="#180027"
     fill-rule="evenodd"
     id="path2"
     style="stroke-width:1.6" />
</svg>
