<?xml version="1.0" encoding="UTF-8" standalone="no"?>
<svg
   fill="none"
   height="32"
   viewBox="0 0 32 32"
   width="32"
   version="1.1"
   id="svg4"
   sodipodi:docname="face-settings.svg"
   inkscape:export-filename="face-settings.png"
   inkscape:export-xdpi="144"
   inkscape:export-ydpi="144"
   inkscape:version="1.1.1 (3bf5ae0d25, 2021-09-20)"
   xmlns:inkscape="http://www.inkscape.org/namespaces/inkscape"
   xmlns:sodipodi="http://sodipodi.sourceforge.net/DTD/sodipodi-0.dtd"
   xmlns="http://www.w3.org/2000/svg"
   xmlns:svg="http://www.w3.org/2000/svg">
  <defs
     id="defs8" />
  <sodipodi:namedview
     id="namedview6"
     pagecolor="#ffffff"
     bordercolor="#666666"
     borderopacity="1.0"
     inkscape:pageshadow="2"
     inkscape:pageopacity="0.0"
     inkscape:pagecheckerboard="0"
     showgrid="false"
     inkscape:zoom="25.75"
     inkscape:cx="15.980583"
     inkscape:cy="19.087379"
     inkscape:window-width="1920"
     inkscape:window-height="1013"
     inkscape:window-x="-9"
     inkscape:window-y="29"
     inkscape:window-maximized="1"
     inkscape:current-layer="svg4" />
  <path
     clip-rule="evenodd"
     d="M 21.6368,3.5555556 C 22.368889,1.4841067 24.344533,0 26.666667,0 29.612267,0 32,2.3878222 32,5.3333333 c 0,2.9455107 -2.387733,5.3333337 -5.333333,5.3333337 -2.322134,0 -4.297778,-1.484107 -5.029867,-3.555556 H 1.7777778 C 0.7959467,7.111111 0,6.3151644 0,5.3333333 0,4.3515022 0.7959467,3.5555556 1.7777778,3.5555556 Z m 5.029867,0 c -0.981867,0 -1.777778,0.7959466 -1.777778,1.7777777 0,0.9818311 0.795911,1.7777777 1.777778,1.7777777 0.981866,0 1.777777,-0.7959466 1.777777,-1.7777777 0,-0.9818311 -0.795911,-1.7777777 -1.777777,-1.7777777 z M 0,16 c 0,-2.9456 2.3878222,-5.333333 5.3333333,-5.333333 2.3221687,0 4.2977067,1.484106 5.0298487,3.555555 h 19.85904 C 31.204089,14.222222 32,15.018133 32,16 c 0,0.981867 -0.795911,1.777778 -1.777778,1.777778 H 10.363182 C 9.63104,19.849244 7.655502,21.333333 5.3333333,21.333333 2.3878222,21.333333 0,18.9456 0,16 Z m 5.3333333,-1.777778 c -0.9818311,0 -1.7777777,0.795911 -1.7777777,1.777778 0,0.981867 0.7959466,1.777778 1.7777777,1.777778 0.9818311,0 1.7777777,-0.795911 1.7777777,-1.777778 0,-0.981867 -0.7959466,-1.777778 -1.7777777,-1.777778 z M 10.970151,24.888889 C 11.702293,22.817422 13.677867,21.333333 16,21.333333 c 2.322133,0 4.297778,1.484089 5.029867,3.555556 h 9.192355 C 31.204089,24.888889 32,25.6848 32,26.666667 c 0,0.981866 -0.795911,1.777777 -1.777778,1.777777 H 21.029867 C 20.297778,30.515911 18.322133,32 16,32 13.677867,32 11.702293,30.515911 10.970151,28.444444 H 1.7777778 C 0.7959467,28.444444 0,27.648533 0,26.666667 0,25.6848 0.7959467,24.888889 1.7777778,24.888889 Z m 5.029849,0 c -0.981867,0 -1.777778,0.795911 -1.777778,1.777778 0,0.981866 0.795911,1.777777 1.777778,1.777777 0.981867,0 1.777778,-0.795911 1.777778,-1.777777 0,-0.981867 -0.795911,-1.777778 -1.777778,-1.777778 z"
     fill="#180027"
     fill-rule="evenodd"
     id="path2"
     style="stroke-width:1.77778" />
</svg>
