<?xml version="1.0" encoding="UTF-8" standalone="no"?>
<svg
   fill="none"
   height="32"
   viewBox="0 0 32 32"
   width="32"
   version="1.1"
   id="svg8"
   sodipodi:docname="face-stories.svg"
   inkscape:version="1.1.1 (3bf5ae0d25, 2021-09-20)"
   xmlns:inkscape="http://www.inkscape.org/namespaces/inkscape"
   xmlns:sodipodi="http://sodipodi.sourceforge.net/DTD/sodipodi-0.dtd"
   xmlns="http://www.w3.org/2000/svg"
   xmlns:svg="http://www.w3.org/2000/svg">
  <defs
     id="defs12" />
  <sodipodi:namedview
     id="namedview10"
     pagecolor="#ffffff"
     bordercolor="#666666"
     borderopacity="1.0"
     inkscape:pageshadow="2"
     inkscape:pageopacity="0.0"
     inkscape:pagecheckerboard="0"
     showgrid="false"
     inkscape:zoom="27.28125"
     inkscape:cx="15.981672"
     inkscape:cy="15.981672"
     inkscape:window-width="3840"
     inkscape:window-height="2080"
     inkscape:window-x="2293"
     inkscape:window-y="35"
     inkscape:window-maximized="1"
     inkscape:current-layer="svg8" />
  <g
     id="g832"
     transform="matrix(1.6,0,0,1.6,-3.2,-3.2)">
    <path
       clip-rule="evenodd"
       d="M 15,6 H 9 C 8.44772,6 8,6.44772 8,7 v 10 c 0,0.5523 0.44772,1 1,1 h 6 c 0.5523,0 1,-0.4477 1,-1 V 7 C 16,6.44772 15.5523,6 15,6 Z M 9,4 C 7.34315,4 6,5.34315 6,7 v 10 c 0,1.6569 1.34315,3 3,3 h 6 c 1.6569,0 3,-1.3431 3,-3 V 7 C 18,5.34315 16.6569,4 15,4 Z"
       fill="#180027"
       fill-rule="evenodd"
       id="path2" />
    <path
       d="M 2,6 C 2,5.44772 2.44772,5 3,5 3.55228,5 4,5.44772 4,6 V 18 C 4,18.5523 3.55228,19 3,19 2.44772,19 2,18.5523 2,18 Z"
       fill="#180027"
       id="path4" />
    <path
       d="m 20,6 c 0,-0.55228 0.4477,-1 1,-1 0.5523,0 1,0.44772 1,1 v 12 c 0,0.5523 -0.4477,1 -1,1 -0.5523,0 -1,-0.4477 -1,-1 z"
       fill="#180027"
       id="path6" />
  </g>
</svg>
