<?xml version="1.0" encoding="UTF-8" standalone="no"?>
<svg
   fill="none"
   height="32"
   viewBox="0 0 32 32"
   width="32"
   version="1.1"
   id="svg4"
   sodipodi:docname="face-redo.svg"
   inkscape:version="1.1.1 (3bf5ae0d25, 2021-09-20)"
   xmlns:inkscape="http://www.inkscape.org/namespaces/inkscape"
   xmlns:sodipodi="http://sodipodi.sourceforge.net/DTD/sodipodi-0.dtd"
   xmlns="http://www.w3.org/2000/svg"
   xmlns:svg="http://www.w3.org/2000/svg">
  <defs
     id="defs8" />
  <sodipodi:namedview
     id="namedview6"
     pagecolor="#ffffff"
     bordercolor="#666666"
     borderopacity="1.0"
     inkscape:pageshadow="2"
     inkscape:pageopacity="0.0"
     inkscape:pagecheckerboard="0"
     showgrid="false"
     inkscape:zoom="27.28125"
     inkscape:cx="15.981672"
     inkscape:cy="15.981672"
     inkscape:window-width="3840"
     inkscape:window-height="2080"
     inkscape:window-x="2293"
     inkscape:window-y="35"
     inkscape:window-maximized="1"
     inkscape:current-layer="svg4" />
  <path
     d="M 18.460922,13.959478 18.086598,9.680684 23.18624,9.234525 C 21.255351,7.37354 18.629076,6.229053 15.735644,6.229053 c -5.9303895,0 -10.7379166,4.807526 -10.7379166,10.737895 0,5.930324 4.8075271,10.737894 10.7379166,10.737894 3.910311,0 7.332263,-2.090023 9.209892,-5.214107 l 4.30117,1.075292 C 26.802546,28.560437 21.670692,32 15.735643,32 7.4331035,32 0.7025695,25.269487 0.7025695,16.966948 c 0,-8.302519 6.730534,-15.0330532 15.0330735,-15.0330532 4.180048,0 7.961719,1.7061226 10.686567,4.4600052 L 25.895624,0.374366 30.174462,0 31.29743,12.836509 Z"
     fill="#180027"
     id="path2"
     style="stroke-width:2.14758" />
</svg>
