<?xml version="1.0" encoding="UTF-8" standalone="no"?>
<svg
   fill="none"
   height="32"
   viewBox="0 0 32 32"
   width="32"
   version="1.1"
   id="svg4"
   sodipodi:docname="face-tree.svg"
   inkscape:version="1.1.1 (3bf5ae0d25, 2021-09-20)"
   xmlns:inkscape="http://www.inkscape.org/namespaces/inkscape"
   xmlns:sodipodi="http://sodipodi.sourceforge.net/DTD/sodipodi-0.dtd"
   xmlns="http://www.w3.org/2000/svg"
   xmlns:svg="http://www.w3.org/2000/svg">
  <defs
     id="defs8" />
  <sodipodi:namedview
     id="namedview6"
     pagecolor="#ffffff"
     bordercolor="#666666"
     borderopacity="1.0"
     inkscape:pageshadow="2"
     inkscape:pageopacity="0.0"
     inkscape:pagecheckerboard="0"
     showgrid="false"
     inkscape:zoom="27.28125"
     inkscape:cx="15.981672"
     inkscape:cy="15.981672"
     inkscape:window-width="3840"
     inkscape:window-height="2080"
     inkscape:window-x="2293"
     inkscape:window-y="35"
     inkscape:window-maximized="1"
     inkscape:current-layer="svg4" />
  <path
     clip-rule="evenodd"
     d="M 14.4,25.44 C 10.748416,24.69872 8,21.4704 8,17.6 V 8 c 0,-4.418272 3.581728,-8 8,-8 4.41824,0 8,3.581728 8,8 v 9.6 c 0,3.8704 -2.74848,7.09872 -6.4,7.84 v 4.96 c 0,0.88368 -0.71632,1.6 -1.6,1.6 -0.88368,0 -1.6,-0.71632 -1.6,-1.6 z M 16,3.2 c 2.65104,0 4.8,2.14904 4.8,4.8 v 9.6 c 0,2.08992 -1.33568,3.868 -3.2,4.52688 V 14.4 c 0,-0.88368 -0.71632,-1.6 -1.6,-1.6 -0.88368,0 -1.6,0.71632 -1.6,1.6 v 7.72688 C 12.535696,21.468 11.2,19.68992 11.2,17.6 V 8 c 0,-2.65096 2.14896,-4.8 4.8,-4.8 z"
     fill="#180027"
     fill-rule="evenodd"
     id="path2"
     style="stroke-width:1.6" />
</svg>
