<?xml version="1.0" encoding="UTF-8" standalone="no"?>
<svg
   fill="none"
   height="32"
   viewBox="0 0 32 32"
   width="32"
   version="1.1"
   id="svg6"
   sodipodi:docname="face-ring.svg"
   inkscape:version="1.1.1 (3bf5ae0d25, 2021-09-20)"
   xmlns:inkscape="http://www.inkscape.org/namespaces/inkscape"
   xmlns:sodipodi="http://sodipodi.sourceforge.net/DTD/sodipodi-0.dtd"
   xmlns="http://www.w3.org/2000/svg"
   xmlns:svg="http://www.w3.org/2000/svg">
  <defs
     id="defs10" />
  <sodipodi:namedview
     id="namedview8"
     pagecolor="#ffffff"
     bordercolor="#666666"
     borderopacity="1.0"
     inkscape:pageshadow="2"
     inkscape:pageopacity="0.0"
     inkscape:pagecheckerboard="0"
     showgrid="false"
     inkscape:zoom="27.28125"
     inkscape:cx="15.981672"
     inkscape:cy="15.981672"
     inkscape:window-width="3840"
     inkscape:window-height="2080"
     inkscape:window-x="2293"
     inkscape:window-y="35"
     inkscape:window-maximized="1"
     inkscape:current-layer="svg6" />
  <g
     id="g829"
     transform="matrix(1.5012852,0,0,1.5012852,-2.0154224,-2.01552)">
    <path
       clip-rule="evenodd"
       d="M 6.34326,3.68567 C 6.83159,3.19735 7.36734,2.78535 7.93569,2.44968 c 2.49951,-1.4762 5.62941,-1.4762 8.12881,0 0.5684,0.33567 1.1041,0.74767 1.5925,1.23599 L 12.0001,9.34253 Z M 12.0001,6.5141 9.4131,3.92709 c 1.6316,-0.77941 3.5425,-0.77941 5.174,0 z"
       fill="#180027"
       fill-rule="evenodd"
       id="path2" />
    <path
       d="M 2,12.6576 C 2,9.52653 3.43899,6.73156 5.69172,4.89796 L 7.11528,6.32152 C 5.22043,7.78449 4,10.0785 4,12.6576 c 0,4.4183 3.58172,8 8,8 4.4183,0 8,-3.5817 8,-8 0,-2.5791 -1.2204,-4.87309 -3.1153,-6.33606 L 18.3083,4.89798 C 20.561,6.73158 22,9.52654 22,12.6576 c 0,5.5228 -4.4772,10 -10,10 -5.52285,0 -10,-4.4772 -10,-10 z"
       fill="#180027"
       id="path4" />
  </g>
</svg>
