<?xml version="1.0" encoding="UTF-8" standalone="no"?>
<svg
   fill="none"
   height="32"
   viewBox="0 0 32 32"
   width="32"
   version="1.1"
   id="svg4"
   sodipodi:docname="face-camera.svg"
   inkscape:export-filename="face-camera.png"
   inkscape:export-xdpi="144"
   inkscape:export-ydpi="144"
   inkscape:version="1.1.1 (3bf5ae0d25, 2021-09-20)"
   xmlns:inkscape="http://www.inkscape.org/namespaces/inkscape"
   xmlns:sodipodi="http://sodipodi.sourceforge.net/DTD/sodipodi-0.dtd"
   xmlns="http://www.w3.org/2000/svg"
   xmlns:svg="http://www.w3.org/2000/svg">
  <defs
     id="defs8" />
  <sodipodi:namedview
     id="namedview6"
     pagecolor="#ffffff"
     bordercolor="#666666"
     borderopacity="1.0"
     inkscape:pageshadow="2"
     inkscape:pageopacity="0.0"
     inkscape:pagecheckerboard="0"
     showgrid="false"
     inkscape:zoom="25.75"
     inkscape:cx="15.980583"
     inkscape:cy="15.980583"
     inkscape:window-width="1920"
     inkscape:window-height="1013"
     inkscape:window-x="-9"
     inkscape:window-y="29"
     inkscape:window-maximized="1"
     inkscape:current-layer="svg4" />
  <path
     clip-rule="evenodd"
     d="M 8.18768,3.6494046 C 9.0336,1.9575823 10.762773,0.888889 12.654222,0.888889 h 6.691556 c 1.891378,0 3.620622,1.0686933 4.466489,2.7605156 0.243733,0.4872533 0.741689,0.79504 1.2864,0.79504 h 1.568 C 29.612267,4.4444446 32,6.8322668 32,9.777778 v 16 c 0,2.9456 -2.387733,5.333333 -5.333333,5.333333 H 5.3333333 C 2.3878222,31.111111 0,28.723378 0,25.777778 v -16 C 0,6.8322668 2.3878222,4.4444446 5.3333333,4.4444446 H 6.90128 c 0.544764,0 1.042773,-0.3077867 1.2864,-0.79504 z m 4.466542,0.79504 c -0.544711,0 -1.04272,0.3077866 -1.286346,0.79504 C 10.521956,6.931307 8.792782,8 6.90128,8 H 5.3333333 C 4.3515022,8 3.5555556,8.795947 3.5555556,9.777778 v 16 c 0,0.981867 0.7959466,1.777778 1.7777777,1.777778 H 26.666667 c 0.981866,0 1.777777,-0.795911 1.777777,-1.777778 v -16 C 28.444444,8.795947 27.648533,8 26.666667,8 h -1.568 c -1.891378,0 -3.620623,-1.068693 -4.466489,-2.7605154 -0.243734,-0.4872534 -0.741689,-0.79504 -1.2864,-0.79504 z M 16,13.333333 c -1.963733,0 -3.555556,1.591823 -3.555556,3.555556 0,1.963733 1.591823,3.555556 3.555556,3.555556 1.963733,0 3.555556,-1.591823 3.555556,-3.555556 0,-1.963733 -1.591823,-3.555556 -3.555556,-3.555556 z M 8.888889,16.888889 C 8.888889,12.9616 12.07264,9.777778 16,9.777778 c 3.927289,0 7.111111,3.183822 7.111111,7.111111 C 23.111111,20.816178 19.927289,24 16,24 12.07264,24 8.888889,20.816178 8.888889,16.888889 Z"
     fill="#180027"
     fill-rule="evenodd"
     id="path2"
     style="stroke-width:1.77778" />
</svg>
