<?xml version="1.0" encoding="UTF-8" standalone="no"?>
<svg
   fill="none"
   height="32"
   viewBox="0 0 32 32"
   width="32"
   version="1.1"
   id="svg4"
   sodipodi:docname="face-cart.svg"
   inkscape:export-filename="face-cart.png"
   inkscape:export-xdpi="144"
   inkscape:export-ydpi="144"
   inkscape:version="1.1.1 (3bf5ae0d25, 2021-09-20)"
   xmlns:inkscape="http://www.inkscape.org/namespaces/inkscape"
   xmlns:sodipodi="http://sodipodi.sourceforge.net/DTD/sodipodi-0.dtd"
   xmlns="http://www.w3.org/2000/svg"
   xmlns:svg="http://www.w3.org/2000/svg">
  <defs
     id="defs8" />
  <sodipodi:namedview
     id="namedview6"
     pagecolor="#ffffff"
     bordercolor="#666666"
     borderopacity="1.0"
     inkscape:pageshadow="2"
     inkscape:pageopacity="0.0"
     inkscape:pagecheckerboard="0"
     showgrid="false"
     inkscape:zoom="25.75"
     inkscape:cx="15.980583"
     inkscape:cy="15.980583"
     inkscape:window-width="1920"
     inkscape:window-height="1013"
     inkscape:window-x="-9"
     inkscape:window-y="29"
     inkscape:window-maximized="1"
     inkscape:current-layer="svg4" />
  <path
     clip-rule="evenodd"
     d="M 0.6242525,1.6842105 C 0.6242525,0.7540547 1.3783072,0 2.308463,0 H 3.9926736 C 6.7831578,0 9.0453055,2.2621474 9.0453055,5.0526316 H 31.375747 L 28.373642,17.984674 c -0.531369,2.289347 -2.571284,3.910063 -4.9216,3.910063 H 7.3610946 c -0.9301558,0 -1.6842105,0.754021 -1.6842105,1.68421 0,0.93019 0.7540547,1.684211 1.6842105,1.684211 h 0.8418019 c 0.768169,-1.022653 1.9911925,-1.684211 3.3687245,-1.684211 1.377516,0 2.60059,0.661558 3.368758,1.684211 h 3.367747 c 0.768168,-1.022653 1.991242,-1.684211 3.368758,-1.684211 2.325389,0 4.210526,1.885137 4.210526,4.210527 C 25.887411,30.114863 24.002273,32 21.676884,32 19.639831,32 17.940632,30.553432 17.550568,28.631579 H 15.697937 C 15.307873,30.553432 13.608674,32 11.571621,32 9.5346015,32 7.8354355,30.553432 7.445322,28.631579 H 7.361095 c -2.7904842,0 -5.0526316,-2.262063 -5.0526316,-5.052632 0,-2.330105 1.5772127,-4.291705 3.7222569,-4.875621 -0.2283453,-0.576 -0.3538358,-1.204042 -0.3538358,-1.861221 V 5.0526316 c 0,-0.9301558 -0.7540548,-1.6842105 -1.6842105,-1.6842105 H 2.308463 c -0.9301558,0 -1.6842105,-0.7540548 -1.6842105,-1.6842106 z M 10.729516,18.526316 h 12.722526 c 0.783327,0 1.463411,-0.540295 1.64059,-1.303411 L 27.135916,8.421053 H 9.0453055 v 8.421052 c 0,0.93019 0.754054,1.684211 1.6842105,1.684211 z m 0.842105,8.421052 c -0.465077,0 -0.842105,0.377095 -0.842105,0.842106 0,0.46501 0.377028,0.842105 0.842105,0.842105 0.465078,0 0.842106,-0.377095 0.842106,-0.842105 0,-0.465011 -0.377028,-0.842106 -0.842106,-0.842106 z m 10.105264,0 c -0.465011,0 -0.842106,0.377095 -0.842106,0.842106 0,0.46501 0.377095,0.842105 0.842106,0.842105 0.46501,0 0.842105,-0.377095 0.842105,-0.842105 0,-0.465011 -0.377095,-0.842106 -0.842105,-0.842106 z"
     fill="#180027"
     fill-rule="evenodd"
     id="path2"
     style="stroke-width:1.68421" />
</svg>
