<?xml version="1.0" encoding="UTF-8" standalone="no"?>
<svg
   fill="none"
   height="32"
   viewBox="0 0 32 32"
   width="32"
   version="1.1"
   id="svg4"
   sodipodi:docname="face-wifi.svg"
   inkscape:export-filename="face-wifi.png"
   inkscape:export-xdpi="144"
   inkscape:export-ydpi="144"
   inkscape:version="1.1.1 (3bf5ae0d25, 2021-09-20)"
   xmlns:inkscape="http://www.inkscape.org/namespaces/inkscape"
   xmlns:sodipodi="http://sodipodi.sourceforge.net/DTD/sodipodi-0.dtd"
   xmlns="http://www.w3.org/2000/svg"
   xmlns:svg="http://www.w3.org/2000/svg">
  <defs
     id="defs8" />
  <sodipodi:namedview
     id="namedview6"
     pagecolor="#ffffff"
     bordercolor="#666666"
     borderopacity="1.0"
     inkscape:pageshadow="2"
     inkscape:pageopacity="0.0"
     inkscape:pagecheckerboard="0"
     showgrid="false"
     inkscape:zoom="25.75"
     inkscape:cx="15.980583"
     inkscape:cy="22.194175"
     inkscape:window-width="1920"
     inkscape:window-height="1013"
     inkscape:window-x="-9"
     inkscape:window-y="29"
     inkscape:window-maximized="1"
     inkscape:current-layer="svg4" />
  <path
     clip-rule="evenodd"
     d="M 16.000012,4.4072797 C 10.9696,4.4072797 6.3462572,6.1304879 2.6815665,9.019973 1.9633312,9.586278 0.92199032,9.463113 0.35568592,8.744878 -0.21061838,8.0266429 -0.08745408,6.985302 0.63079782,6.4189976 4.8588615,3.0853122 10.199313,1.095074 16.000012,1.095074 c 5.800666,0 11.141101,1.9902382 15.369297,5.3239236 0.718086,0.5663044 0.8413,1.6076453 0.275079,2.3258804 -0.566387,0.718235 -1.607745,0.8414 -2.325997,0.275095 C 25.653767,6.1304879 21.030425,4.4072797 16.000012,4.4072797 Z m 0,6.6244113 c -4.169852,0 -7.9372701,1.710092 -10.6443196,4.471478 -0.6402991,0.653167 -1.6888275,0.6636 -2.3419779,0.02335 C 2.3605806,14.886271 2.3501472,13.837626 2.9904462,13.184625 6.2947855,9.813859 10.904316,7.7194855 16.000012,7.7194855 c 5.095663,0 9.70526,2.0943735 13.009516,5.4651395 0.640415,0.653001 0.629982,1.701646 -0.02319,2.341895 -0.653167,0.640249 -1.701646,0.629816 -2.342061,-0.02335 -2.707066,-2.761386 -6.474368,-4.471478 -10.64427,-4.471478 z m 0,6.624412 c -2.451363,0 -4.652324,1.063218 -6.1708541,2.758901 -0.610175,0.681321 -1.65718,0.738954 -2.3385336,0.128845 -0.6813539,-0.610274 -0.7390691,-1.657262 -0.128878,-2.338583 2.1202586,-2.367564 5.2059097,-3.861369 8.6382657,-3.861369 3.433598,0 6.520077,1.494798 8.640386,3.863854 0.610108,0.681486 0.552144,1.728474 -0.129508,2.338417 -0.681486,0.610108 -1.728474,0.551979 -2.338417,-0.129507 -1.518646,-1.696678 -3.720269,-2.760558 -6.172461,-2.760558 z m 0,6.624411 c -0.914665,0 -1.656103,0.741437 -1.656103,1.656103 0,0.914666 0.741438,1.656103 1.656103,1.656103 0.914666,0 1.656103,-0.741437 1.656103,-1.656103 0,-0.914666 -0.741437,-1.656103 -1.656103,-1.656103 z m -4.968308,1.656103 c 0,-2.743997 2.224311,-4.968309 4.968308,-4.968309 2.743997,0 4.968309,2.224312 4.968309,4.968309 0,2.743997 -2.224312,4.968309 -4.968309,4.968309 -2.743997,0 -4.968308,-2.224312 -4.968308,-4.968309 z"
     fill="#180027"
     fill-rule="evenodd"
     id="path2"
     style="stroke-width:1.6561" />
</svg>
