<?xml version="1.0" encoding="UTF-8" standalone="no"?>
<svg
   fill="none"
   height="32"
   viewBox="0 0 32 32"
   width="32"
   version="1.1"
   id="svg4"
   sodipodi:docname="face-mic.svg"
   inkscape:export-filename="face-mic.png"
   inkscape:export-xdpi="144"
   inkscape:export-ydpi="144"
   inkscape:version="1.1.1 (3bf5ae0d25, 2021-09-20)"
   xmlns:inkscape="http://www.inkscape.org/namespaces/inkscape"
   xmlns:sodipodi="http://sodipodi.sourceforge.net/DTD/sodipodi-0.dtd"
   xmlns="http://www.w3.org/2000/svg"
   xmlns:svg="http://www.w3.org/2000/svg">
  <defs
     id="defs8" />
  <sodipodi:namedview
     id="namedview6"
     pagecolor="#ffffff"
     bordercolor="#666666"
     borderopacity="1.0"
     inkscape:pageshadow="2"
     inkscape:pageopacity="0.0"
     inkscape:pagecheckerboard="0"
     showgrid="false"
     inkscape:zoom="25.75"
     inkscape:cx="15.980583"
     inkscape:cy="15.980583"
     inkscape:window-width="1920"
     inkscape:window-height="1013"
     inkscape:window-x="-9"
     inkscape:window-y="29"
     inkscape:window-maximized="1"
     inkscape:current-layer="svg4" />
  <path
     clip-rule="evenodd"
     d="m 16,3.2 c -1.76736,0 -3.2,1.432688 -3.2,3.2 V 16 c 0,1.76736 1.43264,3.2 3.2,3.2 1.76736,0 3.2,-1.43264 3.2,-3.2 V 6.4 C 19.2,4.632688 17.76736,3.2 16,3.2 Z M 9.6,6.4 C 9.6,2.865376 12.465376,0 16,0 c 3.53456,0 6.4,2.865376 6.4,6.4 V 16 c 0,3.53456 -2.86544,6.4 -6.4,6.4 -3.534624,0 -6.4,-2.86544 -6.4,-6.4 z m -4.8,6.4 c 0.883648,0 1.6,0.71632 1.6,1.6 v 1.37136 C 6.4,21.23024 10.728384,25.6 16,25.6 c 5.27168,0 9.6,-4.36976 9.6,-9.82864 V 14.4 c 0,-0.88368 0.71632,-1.6 1.6,-1.6 0.88368,0 1.6,0.71632 1.6,1.6 v 1.37136 c 0,6.61776 -4.86304,12.1256 -11.2,12.92816 V 30.4 c 0,0.88368 -0.71632,1.6 -1.6,1.6 -0.88368,0 -1.6,-0.71632 -1.6,-1.6 V 28.69952 C 8.063088,27.89696 3.2,22.38912 3.2,15.77136 V 14.4 c 0,-0.88368 0.716352,-1.6 1.6,-1.6 z"
     fill="#180027"
     fill-rule="evenodd"
     id="path2"
     style="stroke-width:1.6" />
</svg>
