<?xml version="1.0" encoding="UTF-8" standalone="no"?>
<svg
   fill="none"
   height="32"
   viewBox="0 0 32 32"
   width="32"
   version="1.1"
   id="svg4"
   sodipodi:docname="face-phone-disable.svg"
   inkscape:export-filename="face-phone-disable.png"
   inkscape:export-xdpi="144"
   inkscape:export-ydpi="144"
   inkscape:version="1.1.1 (3bf5ae0d25, 2021-09-20)"
   xmlns:inkscape="http://www.inkscape.org/namespaces/inkscape"
   xmlns:sodipodi="http://sodipodi.sourceforge.net/DTD/sodipodi-0.dtd"
   xmlns="http://www.w3.org/2000/svg"
   xmlns:svg="http://www.w3.org/2000/svg">
  <defs
     id="defs8" />
  <sodipodi:namedview
     id="namedview6"
     pagecolor="#ffffff"
     bordercolor="#666666"
     borderopacity="1.0"
     inkscape:pageshadow="2"
     inkscape:pageopacity="0.0"
     inkscape:pagecheckerboard="0"
     showgrid="false"
     inkscape:zoom="25.75"
     inkscape:cx="15.980583"
     inkscape:cy="15.980583"
     inkscape:window-width="1920"
     inkscape:window-height="1013"
     inkscape:window-x="-9"
     inkscape:window-y="29"
     inkscape:window-maximized="1"
     inkscape:current-layer="svg4" />
  <path
     clip-rule="evenodd"
     d="m 11.319582,5.9199741 c 0.654017,1.644774 0.403508,2.957062 -0.103182,3.463698 -0.69231,0.6923639 -0.69231,1.8148829 0,2.5072459 0.692311,0.692293 1.8149,0.692293 2.507211,0 C 15.724309,9.8903091 15.473623,6.7704082 14.614484,4.6097785 13.757828,2.4556907 11.791169,1.196665e-7 8.9242406,1.196665e-7 c -0.0578,0 -0.115592,0.002840000333 -0.173211,0.008470000333 -2.376904,0.2332759 -4.2574,1.19437318 -5.826047,2.76307288 -3.78563605,3.7856539 -3.61012105,10.17546 -0.921544,15.74302 0.425846,0.881655 1.485675,1.251301 2.367507,0.825454 0.881655,-0.425669 1.251301,-1.485675 0.825454,-2.36733 -2.394632,-4.959036 -1.99467,-9.4633449 0.235794,-11.693898 0.995473,-0.9954204 2.09537,-1.5659694 3.561366,-1.7305993 0.680078,0.046999 1.6913304,0.7757248 2.3260224,2.37178 z M 31.446798,0.51925972 c -0.692346,-0.6923461 -1.814882,-0.6923461 -2.507228,0 L 0.57343155,28.885398 c -0.692311,0.692311 -0.692311,1.8149 0,2.507211 0.69231005,0.692311 1.81490005,0.692311 2.50721005,0 l 4.997047,-4.997047 c 3.2426024,2.827216 6.9622874,4.637861 10.5053934,5.310847 3.989765,0.75773 8.023055,0.100345 10.700072,-2.576707 1.5534,-1.5534 2.681113,-3.743265 2.688559,-6.076555 v -0.0057 c 0,-2.365202 -1.27121,-4.17567 -2.816011,-5.331589 -1.518864,-1.136595 -3.441218,-1.759941 -5.161961,-1.759941 -1.402066,0 -3.030564,0.68451 -4.041284,2.380095 -0.199769,0.101763 -0.612531,0.200868 -1.345618,0.02925 -0.530801,-0.124279 -1.129681,-0.376561 -1.735475,-0.763404 L 31.446798,3.0265057 c 0.692346,-0.6923639 0.692346,-1.8148822 0,-2.50724598 z M 14.324441,20.148988 c 1.102733,0.821199 2.300492,1.39384 3.473963,1.668637 1.585135,0.371064 3.474371,0.25299 4.789637,-1.062311 0.134756,-0.13474 0.246891,-0.290399 0.332114,-0.460773 0.18133,-0.362731 0.390885,-0.547111 0.56,-0.646924 0.180994,-0.106905 0.366295,-0.145909 0.513586,-0.145909 0.9386,0 2.11879,0.365569 3.03764,1.053093 0.892079,0.66749 1.393627,1.515282 1.394567,2.489836 -0.0048,1.211765 -0.616786,2.544618 -1.65004,3.577854 -1.562246,1.562264 -4.231711,2.226918 -7.531363,1.600381 -2.813742,-0.534347 -5.894126,-1.988465 -8.652908,-4.341257 z"
     fill="#180027"
     fill-rule="evenodd"
     id="path2"
     style="stroke-width:1.77288" />
</svg>
