<?xml version="1.0" encoding="UTF-8" standalone="no"?>
<svg
   fill="none"
   height="32"
   viewBox="0 0 32 32"
   width="32"
   version="1.1"
   id="svg4"
   sodipodi:docname="face-unblock.svg"
   inkscape:version="1.1.1 (3bf5ae0d25, 2021-09-20)"
   xmlns:inkscape="http://www.inkscape.org/namespaces/inkscape"
   xmlns:sodipodi="http://sodipodi.sourceforge.net/DTD/sodipodi-0.dtd"
   xmlns="http://www.w3.org/2000/svg"
   xmlns:svg="http://www.w3.org/2000/svg">
  <defs
     id="defs8" />
  <sodipodi:namedview
     id="namedview6"
     pagecolor="#ffffff"
     bordercolor="#666666"
     borderopacity="1.0"
     inkscape:pageshadow="2"
     inkscape:pageopacity="0.0"
     inkscape:pagecheckerboard="0"
     showgrid="false"
     inkscape:zoom="27.28125"
     inkscape:cx="15.981672"
     inkscape:cy="15.981672"
     inkscape:window-width="3840"
     inkscape:window-height="2080"
     inkscape:window-x="2293"
     inkscape:window-y="35"
     inkscape:window-maximized="1"
     inkscape:current-layer="svg4" />
  <path
     clip-rule="evenodd"
     d="m 4.6862867,27.31374 c 6.2483823,6.248347 16.3789283,6.248347 22.6274533,0 6.248347,-6.248525 6.248347,-16.379071 0,-22.6274533 -6.248525,-6.2483824 -16.379071,-6.2483824 -22.6274533,0 -6.2483824,6.2483823 -6.2483824,16.3789283 0,22.6274533 z m 3.8603502,-1.346309 c 4.8743221,3.654395 11.8199121,3.265062 16.2527951,-1.167999 4.433061,-4.432883 4.822394,-11.378473 1.167999,-16.2527951 l -4.939194,4.9392111 c -0.694221,0.694221 -1.819908,0.694221 -2.514129,0 -0.694222,-0.694221 -0.694222,-1.819909 0,-2.514183 L 23.453301,6.0324715 C 18.578996,2.3780766 11.633477,2.7673916 7.2004339,7.2004339 2.7673916,11.633477 2.3780766,18.578996 6.0324715,23.453301 l 4.9391935,-4.939193 c 0.694274,-0.694222 1.819962,-0.694222 2.514183,0 0.694221,0.694221 0.694221,1.819908 0,2.514129 z"
     fill="#180027"
     fill-rule="evenodd"
     id="path2"
     style="stroke-width:1.77778" />
</svg>
