<?xml version="1.0" encoding="UTF-8" standalone="no"?>
<svg
   fill="none"
   height="32"
   viewBox="0 0 32 32"
   width="32"
   version="1.1"
   id="svg10"
   sodipodi:docname="face-server.svg"
   inkscape:version="1.1.1 (3bf5ae0d25, 2021-09-20)"
   xmlns:inkscape="http://www.inkscape.org/namespaces/inkscape"
   xmlns:sodipodi="http://sodipodi.sourceforge.net/DTD/sodipodi-0.dtd"
   xmlns="http://www.w3.org/2000/svg"
   xmlns:svg="http://www.w3.org/2000/svg">
  <defs
     id="defs14" />
  <sodipodi:namedview
     id="namedview12"
     pagecolor="#ffffff"
     bordercolor="#666666"
     borderopacity="1.0"
     inkscape:pageshadow="2"
     inkscape:pageopacity="0.0"
     inkscape:pagecheckerboard="0"
     showgrid="false"
     inkscape:zoom="27.28125"
     inkscape:cx="15.981672"
     inkscape:cy="15.981672"
     inkscape:window-width="3840"
     inkscape:window-height="2080"
     inkscape:window-x="2293"
     inkscape:window-y="35"
     inkscape:window-maximized="1"
     inkscape:current-layer="svg10" />
  <g
     id="g835"
     transform="matrix(1.6,0,0,1.6,-3.2,-3.2)">
    <path
       d="M 9,6 C 8.44772,6 8,6.44772 8,7 8,7.55228 8.44772,8 9,8 h 6 C 15.5523,8 16,7.55228 16,7 16,6.44772 15.5523,6 15,6 Z"
       fill="#180027"
       id="path2" />
    <path
       d="m 9,10 c -0.55228,0 -1,0.4477 -1,1 0,0.5523 0.44772,1 1,1 h 6 c 0.5523,0 1,-0.4477 1,-1 0,-0.5523 -0.4477,-1 -1,-1 z"
       fill="#180027"
       id="path4" />
    <path
       d="m 13,17 c 0,0.5523 -0.4477,1 -1,1 -0.5523,0 -1,-0.4477 -1,-1 0,-0.5523 0.4477,-1 1,-1 0.5523,0 1,0.4477 1,1 z"
       fill="#180027"
       id="path6" />
    <path
       clip-rule="evenodd"
       d="M 4,5 C 4,3.34315 5.34315,2 7,2 h 10 c 1.6569,0 3,1.34315 3,3 v 14 c 0,1.6569 -1.3431,3 -3,3 H 7 C 5.34315,22 4,20.6569 4,19 Z M 7,4 h 10 c 0.5523,0 1,0.44772 1,1 v 14 c 0,0.5523 -0.4477,1 -1,1 H 7 C 6.44772,20 6,19.5523 6,19 V 5 C 6,4.44772 6.44771,4 7,4 Z"
       fill="#180027"
       fill-rule="evenodd"
       id="path8" />
  </g>
</svg>
