<?xml version="1.0" encoding="UTF-8" standalone="no"?>
<svg
   fill="none"
   height="32"
   viewBox="0 0 32 32"
   width="32"
   version="1.1"
   id="svg8"
   sodipodi:docname="face-scan.svg"
   inkscape:version="1.1.1 (3bf5ae0d25, 2021-09-20)"
   xmlns:inkscape="http://www.inkscape.org/namespaces/inkscape"
   xmlns:sodipodi="http://sodipodi.sourceforge.net/DTD/sodipodi-0.dtd"
   xmlns="http://www.w3.org/2000/svg"
   xmlns:svg="http://www.w3.org/2000/svg">
  <defs
     id="defs12" />
  <sodipodi:namedview
     id="namedview10"
     pagecolor="#ffffff"
     bordercolor="#666666"
     borderopacity="1.0"
     inkscape:pageshadow="2"
     inkscape:pageopacity="0.0"
     inkscape:pagecheckerboard="0"
     showgrid="false"
     inkscape:zoom="27.28125"
     inkscape:cx="15.981672"
     inkscape:cy="15.981672"
     inkscape:window-width="3840"
     inkscape:window-height="2080"
     inkscape:window-x="2293"
     inkscape:window-y="35"
     inkscape:window-maximized="1"
     inkscape:current-layer="svg8" />
  <g
     id="g832"
     transform="matrix(1.7777778,0,0,1.7777778,-5.3333336,-5.3333336)">
    <path
       d="m 11,3 h 2 v 18 h -2 z"
       fill="#180027"
       id="path2" />
    <path
       d="M 5,8 C 5,7.44771 5.44772,7 6,7 H 9 V 5 H 6 C 4.34315,5 3,6.34315 3,8 v 8 c 0,1.6569 1.34315,3 3,3 H 9 V 17 H 6 C 5.44772,17 5,16.5523 5,16 Z"
       fill="#180027"
       id="path4" />
    <path
       d="M 19,8 C 19,7.44771 18.5523,7 18,7 H 15 V 5 h 3 c 1.6569,0 3,1.34315 3,3 v 8 c 0,1.6569 -1.3431,3 -3,3 h -3 v -2 h 3 c 0.5523,0 1,-0.4477 1,-1 z"
       fill="#180027"
       id="path6" />
  </g>
</svg>
