<?xml version="1.0" encoding="UTF-8" standalone="no"?>
<svg
   fill="none"
   height="32"
   viewBox="0 0 32 32"
   width="32"
   version="1.1"
   id="svg4"
   sodipodi:docname="face-district.svg"
   inkscape:export-filename="face-district.png"
   inkscape:export-xdpi="192"
   inkscape:export-ydpi="192"
   inkscape:version="1.1.1 (3bf5ae0d25, 2021-09-20)"
   xmlns:inkscape="http://www.inkscape.org/namespaces/inkscape"
   xmlns:sodipodi="http://sodipodi.sourceforge.net/DTD/sodipodi-0.dtd"
   xmlns="http://www.w3.org/2000/svg"
   xmlns:svg="http://www.w3.org/2000/svg">
  <defs
     id="defs8">
    <style
       id="style922">.cls-1{fill:none;stroke:#000;stroke-linejoin:round;stroke-width:2px;}</style>
  </defs>
  <sodipodi:namedview
     id="namedview6"
     pagecolor="#ffffff"
     bordercolor="#666666"
     borderopacity="1.0"
     inkscape:pageshadow="2"
     inkscape:pageopacity="0.0"
     inkscape:pagecheckerboard="0"
     showgrid="false"
     inkscape:zoom="6.4375"
     inkscape:cx="16"
     inkscape:cy="15.92233"
     inkscape:window-width="2268"
     inkscape:window-height="1277"
     inkscape:window-x="3089"
     inkscape:window-y="124"
     inkscape:window-maximized="0"
     inkscape:current-layer="svg4" />
  <path
     id="path1303"
     style="color:#000000;fill:#180027;stroke-width:0.508073;-inkscape-stroke:none"
     d="M 3.809371,0 C 1.709252,0.0027 0.002695,1.709422 0,3.809752 v 21.341162 c 0.0027,2.10033 1.709252,3.80805 3.809371,3.810745 h 9.92e-4 11.903417 c 3.291198,3.581128 8.785036,4.066347 12.644651,1.083681 3.868944,-2.989876 4.782737,-8.447916 2.124476,-12.539732 V 3.302645 c 0,-0.417913 -0.344201,-0.762149 -0.762073,-0.762149 H 6.60463 V 0.762149 C 6.60463,0.344235 6.260429,0 5.842557,0 H 3.810363 Z m 9.92e-4,1.524297 H 5.080485 V 21.34017 H 3.810363 C 2.964676,21.339972 2.185364,21.680357 1.524145,22.191633 V 3.810744 C 1.525645,2.545448 2.545194,1.525814 3.810363,1.524297 Z M 6.60463,4.064795 h 7.314112 L 10.746416,13.207604 6.60463,10.975738 Z m 8.924586,0 h 0.929768 l -1.942889,5.5930607 c -0.169323,0.4877183 0.203177,1.0118793 0.719405,1.0122293 h 6.864608 c 0.417872,0 0.762072,-0.344235 0.762072,-0.7621491 V 4.064795 h 0.508049 v 2.7945452 c 0,0.4179137 0.344201,0.7621489 0.762072,0.7621489 h 4.826461 v 0.5080994 h -4.826461 c -0.417871,0 -0.762072,0.3442352 -0.762072,0.7621488 v 4.3635017 c -0.169163,-0.0143 -0.338358,-0.02461 -0.508049,-0.02977 v -1.285134 c 0,-0.417914 -0.3442,-0.762149 -0.762072,-0.762149 h -7.57012 c -0.32417,-3.16e-4 -0.614394,0.20569 -0.720397,0.512069 l -3.170342,9.145785 c -0.168767,0.487782 0.20429,1.012216 0.720397,1.012229 h 1.894267 c -0.01427,0.16902 -0.02462,0.338552 -0.02977,0.508099 h -2.571002 c -0.323697,-1.04e-4 -0.613232,0.20625 -0.719404,0.512069 L 8.349062,27.437361 H 7.421278 l 3.728996,-10.745506 c 0.122291,-0.351941 -0.03109,-0.74547 -0.359206,-0.921922 L 6.60463,13.515242 v -0.805813 l 4.205292,2.264614 c 0.408839,0.220361 0.929115,0.01797 1.081587,-0.42077 z m 2.540242,0 h 3.268577 v 5.080992 h -5.029878 z m 6.824916,0 h 4.064388 v 2.0323963 h -4.064388 z m 0,5.5890912 h 4.064388 v 6.1299398 c -1.153863,-1.074281 -2.532536,-1.866916 -4.064388,-2.25469 z m -9.822601,3.0485958 h 6.266262 v 0.631154 c -3.787589,0.52752 -6.867966,3.281715 -7.808268,6.990335 h -1.099449 z m 7.007497,2.038352 a 8.1287752,8.1295885 0 0 1 2.522381,0.248095 c 0.347237,0.09273 0.687961,0.207791 1.020066,0.345348 0.332268,0.137626 0.654234,0.298206 0.96549,0.478328 a 8.1287752,8.1295885 0 0 1 1.984565,1.628498 c 0.418749,0.476577 0.784556,1.006504 1.07861,1.588803 a 8.1287752,8.1295885 0 0 1 0.758104,2.498816 c 0.04549,0.350962 0.07442,0.709994 0.07442,1.081696 -0.0057,4.349751 -3.525435,7.869839 -7.874751,7.875539 -0.371665,0 -0.730661,-0.02893 -1.081587,-0.07443 a 8.1287752,8.1295885 0 0 1 -2.498567,-0.75818 C 18.44576,29.359266 17.915887,28.993422 17.439358,28.574632 a 8.1287752,8.1295885 0 0 1 -1.628335,-1.984764 c -0.180105,-0.311288 -0.340669,-0.633286 -0.47828,-0.965587 -0.137674,-0.332448 -0.25257,-0.674488 -0.345315,-1.022153 a 8.1287752,8.1295885 0 0 1 -0.251046,-2.552406 c 0.04074,-0.634204 0.15603,-1.268773 0.360198,-1.889494 a 8.1287752,8.1295885 0 0 1 1.23043,-2.302325 c 0.21585,-0.280159 0.449829,-0.554074 0.712459,-0.81673 0.258135,-0.258161 0.526678,-0.490648 0.801764,-0.703598 a 8.1287752,8.1295885 0 0 1 2.318963,-1.240476 c 0.630666,-0.207353 1.274781,-0.317503 1.919074,-0.356265 z M 6.60463,15.24794 9.498125,16.804987 5.80882,27.437361 H 3.810363 c -1.265169,-0.0015 -2.284702,-1.022143 -2.286218,-2.287439 0.0021,-1.264827 1.021387,-2.283939 2.286218,-2.285454 h 2.032194 c 0.417872,0 0.762073,-0.344236 0.762073,-0.762149 z m 14.987429,0.503138 c -0.417872,0 -0.762073,0.344235 -0.762073,0.762149 v 3.810744 h -2.286218 c -0.164853,0 -0.325559,0.05291 -0.457441,0.151834 l -2.032194,1.524298 c -0.401019,0.300795 -0.401019,0.918842 0,1.219637 l 2.032194,1.524298 c 0.131882,0.09892 0.292588,0.152827 0.457441,0.152827 h 2.286218 v 3.810744 c 0,0.417914 0.344201,0.762149 0.762073,0.762149 h 2.032194 c 0.417872,0 0.762073,-0.344235 0.762073,-0.762149 v -6.85934 h 2.286218 c 0.164853,0 0.325559,-0.0539 0.457442,-0.152827 l 2.032194,-1.524297 c 0.401019,-0.300795 0.401019,-0.918843 0,-1.219637 L 27.129986,17.42721 c -0.131883,-0.09892 -0.292589,-0.151835 -0.457442,-0.151835 h -2.286218 v -0.762148 c 0,-0.417914 -0.344201,-0.762149 -0.762073,-0.762149 z m 0.762073,1.524297 h 0.508048 v 10.670086 h -0.508048 z m 2.032194,1.524298 h 2.032193 l 1.016097,0.762149 -1.016097,0.762149 h -2.032193 z m -5.588533,3.048596 h 2.032193 v 1.524298 h -2.032193 l -1.016097,-0.762149 z m -7.601873,2.032397 h 2.127452 c 0.171885,1.264361 0.615147,2.465792 1.27409,3.556695 H 9.96152 Z" />
</svg>
