<?xml version="1.0" encoding="UTF-8" standalone="no"?>
<svg
   fill="none"
   height="32"
   viewBox="0 0 32 32"
   width="32"
   version="1.1"
   id="svg8"
   sodipodi:docname="face-ratio.svg"
   inkscape:version="1.1.1 (3bf5ae0d25, 2021-09-20)"
   xmlns:inkscape="http://www.inkscape.org/namespaces/inkscape"
   xmlns:sodipodi="http://sodipodi.sourceforge.net/DTD/sodipodi-0.dtd"
   xmlns="http://www.w3.org/2000/svg"
   xmlns:svg="http://www.w3.org/2000/svg">
  <defs
     id="defs12" />
  <sodipodi:namedview
     id="namedview10"
     pagecolor="#ffffff"
     bordercolor="#666666"
     borderopacity="1.0"
     inkscape:pageshadow="2"
     inkscape:pageopacity="0.0"
     inkscape:pagecheckerboard="0"
     showgrid="false"
     inkscape:zoom="27.28125"
     inkscape:cx="15.981672"
     inkscape:cy="15.981672"
     inkscape:window-width="3840"
     inkscape:window-height="2080"
     inkscape:window-x="2293"
     inkscape:window-y="35"
     inkscape:window-maximized="1"
     inkscape:current-layer="svg8" />
  <g
     id="g832"
     transform="scale(1.3333333)">
    <path
       d="m 4,6 v 6 H 6 V 8 h 4 V 6 Z"
       fill="#180027"
       id="path2" />
    <path
       d="m 20,18 h -6 v -2 h 4 v -4 h 2 z"
       fill="#180027"
       id="path4" />
    <path
       clip-rule="evenodd"
       d="M 4,2 C 1.79086,2 0,3.79086 0,6 v 12 c 0,2.2091 1.79086,4 4,4 h 16 c 2.2091,0 4,-1.7909 4,-4 V 6 C 24,3.79086 22.2091,2 20,2 Z M 20,4 H 4 C 2.89543,4 2,4.89543 2,6 v 12 c 0,1.1046 0.89543,2 2,2 h 16 c 1.1046,0 2,-0.8954 2,-2 V 6 C 22,4.89543 21.1046,4 20,4 Z"
       fill="#180027"
       fill-rule="evenodd"
       id="path6" />
  </g>
</svg>
