<?xml version="1.0" encoding="UTF-8" standalone="no"?>
<svg
   fill="none"
   height="32"
   viewBox="0 0 32 32"
   width="32"
   version="1.1"
   id="svg4"
   sodipodi:docname="face-machine-wash-home-smart.svg"
   inkscape:version="1.1.1 (3bf5ae0d25, 2021-09-20)"
   xmlns:inkscape="http://www.inkscape.org/namespaces/inkscape"
   xmlns:sodipodi="http://sodipodi.sourceforge.net/DTD/sodipodi-0.dtd"
   xmlns="http://www.w3.org/2000/svg"
   xmlns:svg="http://www.w3.org/2000/svg">
  <defs
     id="defs8" />
  <sodipodi:namedview
     id="namedview6"
     pagecolor="#ffffff"
     bordercolor="#666666"
     borderopacity="1.0"
     inkscape:pageshadow="2"
     inkscape:pageopacity="0.0"
     inkscape:pagecheckerboard="0"
     showgrid="false"
     inkscape:zoom="27.28125"
     inkscape:cx="15.981672"
     inkscape:cy="15.981672"
     inkscape:window-width="3840"
     inkscape:window-height="2080"
     inkscape:window-x="2293"
     inkscape:window-y="35"
     inkscape:window-maximized="1"
     inkscape:current-layer="svg4" />
  <path
     clip-rule="evenodd"
     d="m 6.4,3.2 h 19.2 c 0.88368,0 1.6,0.716352 1.6,1.6 V 9.6 H 4.8 V 4.8 C 4.8,3.916352 5.516336,3.2 6.4,3.2 Z m 20.8,24 V 12.8 H 4.8 v 14.4 c 0,0.88368 0.716352,1.6 1.6,1.6 h 19.2 c 0.88368,0 1.6,-0.71632 1.6,-1.6 z M 1.6,4.8 C 1.6,2.14904 3.74904,0 6.4,0 h 19.2 c 2.65104,0 4.8,2.14904 4.8,4.8 v 22.4 c 0,2.65104 -2.14896,4.8 -4.8,4.8 H 6.4 C 3.74904,32 1.6,29.85104 1.6,27.2 Z M 8,4.8 C 7.116352,4.8 6.4,5.516352 6.4,6.4 6.4,7.283648 7.116352,8 8,8 h 3.2 c 0.883648,0 1.6,-0.716352 1.6,-1.6 0,-0.883648 -0.716352,-1.6 -1.6,-1.6 z M 19.2,8 c 0.88368,0 1.6,-0.716352 1.6,-1.6 0,-0.883648 -0.71632,-1.6 -1.6,-1.6 -0.88368,0 -1.6,0.716352 -1.6,1.6 0,0.883648 0.71632,1.6 1.6,1.6 z M 25.6,6.4 C 25.6,7.283648 24.88368,8 24,8 23.11632,8 22.4,7.283648 22.4,6.4 c 0,-0.883648 0.71632,-1.6 1.6,-1.6 0.88368,0 1.6,0.716352 1.6,1.6 z m -6.4,14.4 c 0,1.76736 -1.43264,3.2 -3.2,3.2 -1.76736,0 -3.2,-1.43264 -3.2,-3.2 0,-1.76736 1.43264,-3.2 3.2,-3.2 1.76736,0 3.2,1.43264 3.2,3.2 z m 3.2,0 c 0,3.53456 -2.86544,6.4 -6.4,6.4 -3.534624,0 -6.4,-2.86544 -6.4,-6.4 0,-3.53456 2.865376,-6.4 6.4,-6.4 3.53456,0 6.4,2.86544 6.4,6.4 z"
     fill="#180027"
     fill-rule="evenodd"
     id="path2"
     style="stroke-width:1.6" />
</svg>
