<?xml version="1.0" encoding="UTF-8" standalone="no"?>
<svg
   fill="none"
   height="32"
   viewBox="0 0 32 32"
   width="32"
   version="1.1"
   id="svg4"
   sodipodi:docname="face-prices.svg"
   inkscape:export-filename="face-prices.png"
   inkscape:export-xdpi="192"
   inkscape:export-ydpi="192"
   inkscape:version="1.1.1 (3bf5ae0d25, 2021-09-20)"
   xmlns:inkscape="http://www.inkscape.org/namespaces/inkscape"
   xmlns:sodipodi="http://sodipodi.sourceforge.net/DTD/sodipodi-0.dtd"
   xmlns="http://www.w3.org/2000/svg"
   xmlns:svg="http://www.w3.org/2000/svg">
  <defs
     id="defs8" />
  <sodipodi:namedview
     id="namedview6"
     pagecolor="#ffffff"
     bordercolor="#666666"
     borderopacity="1.0"
     inkscape:pageshadow="2"
     inkscape:pageopacity="0.0"
     inkscape:pagecheckerboard="0"
     showgrid="false"
     inkscape:zoom="11.065082"
     inkscape:cx="22.86472"
     inkscape:cy="25.485577"
     inkscape:window-width="3840"
     inkscape:window-height="2054"
     inkscape:window-x="2869"
     inkscape:window-y="-11"
     inkscape:window-maximized="1"
     inkscape:current-layer="svg4" />
  <path
     id="path1400"
     style="color:#000000;fill:#180027;fill-opacity:1;fill-rule:evenodd;stroke-width:1.02454;-inkscape-stroke:none"
     d="M 4.4659667,4.0000002e-8 C 2.8812979,4.0000002e-8 1.6425071,1.4218611 1.642507,3.094267 v 8.260798 c 0,1.694977 0.5211142,3.05923 1.6531016,4.323496 h -0.00235 l 2.8705562,3.21201 C 5.9646575,18.872231 5.7588779,18.854561 5.582166,18.970641 5.119615,19.274649 4.9953479,19.866839 5.2454242,20.343516 L 10.541472,30.436384 C 11.049247,31.416575 12.00201,32 12.997575,32 c 0.488673,0 0.985576,-0.142413 1.429391,-0.42858 l 0.01182,-0.0071 1.062034,-0.770034 c 0.384915,-0.278063 0.382922,-0.763782 0.240195,-1.189197 l 1.27868,1.429391 v 0.0024 c 0.525029,0.58663 1.252398,0.925455 2.018104,0.925454 0.765706,0 1.489217,-0.340887 2.013392,-0.927808 l 8.498636,-9.492402 c 0.524859,-0.586495 0.807667,-1.359921 0.807666,-2.16881 0,-0.808889 -0.282703,-1.580469 -0.807711,-2.166458 L 20.007947,6.5605996 c 0.182825,0.041885 0.369699,0.096105 0.553388,0.016481 h 0.0024 v -0.00241 C 22.472747,5.733887 23.412546,5.0799137 23.907627,4.4929863 24.155167,4.1995223 24.288463,3.9086419 24.331499,3.6475967 24.37453,3.3865515 24.321613,3.1639999 24.300887,3.077724 24.170109,2.5310183 23.682579,2.1303378 23.09044,1.9757155 22.4983,1.8210932 21.757008,1.8199441 20.789756,1.9144895 19.39687,2.0505802 17.617011,2.4666592 15.804548,2.97417 c 0.159122,-0.3691073 0.283776,-0.7873415 0,-1.1044226 C 14.673059,0.6049461 13.41152,4.0000002e-8 11.860182,4.0000002e-8 Z m 0,2.055780059999998 h 7.3942153 c 1.080161,0 1.684878,0.2885733 2.526749,1.2292294 0.0393,0.043906 0.106981,0.031519 0.153065,0.065937 -1.811317,0.5755766 -3.55185,1.2151787 -4.825078,1.8791673 -0.08725,0.045454 -0.110585,0.087159 -0.193099,0.1318701 0.01577,-0.072751 0.07771,-0.1269908 0.07771,-0.2025159 0,-0.5326373 -0.41088,-1.0290677 -0.974906,-1.0290677 -1.8396684,0 -3.2850097,1.6526153 -3.2850109,3.609978 0,1.9573627 1.4453425,3.6123327 3.2850109,3.6123327 1.839665,0 3.285008,-1.65497 3.285008,-3.6123327 0,-0.403926 -0.145171,-0.7709233 -0.263742,-1.1444553 1.047746,-0.4737325 2.326833,-0.9899242 4.02914,-1.5000365 0.09022,-0.027019 0.177437,-0.052122 0.266098,-0.077706 L 28.132159,18.622122 c 0.173459,0.193468 0.275517,0.45727 0.275517,0.751196 0,0.295254 -0.101481,0.561456 -0.275517,0.755905 l -8.496282,9.492382 c -0.326254,0.364537 -0.87236,0.364539 -1.198616,0 L 4.7108706,14.263299 C 3.8685783,13.322658 3.5899648,12.597483 3.5899648,11.355065 V 3.094267 c 0,-0.6054068 0.4220895,-1.0384869 0.8760019,-1.0384869 z M 21.001692,3.9608502 c 0.02214,-0.00209 0.01824,0.00192 0.04003,0 C 20.625949,4.2186386 20.644374,4.310337 19.812493,4.6767233 19.367001,4.8733378 19.27284,5.3680521 19.343879,5.8188236 L 18.154684,4.4906904 C 19.23295,4.2528787 20.297979,4.0273137 21.001692,3.9608502 Z M 7.7509758,6.6006318 C 7.4164945,6.9661195 7.3229434,7.4132715 7.3294588,7.8510555 7.3264469,7.8078803 7.2894301,7.7847425 7.2894301,7.740374 c 0,-0.4747791 0.1876641,-0.8603655 0.4615491,-1.1397458 z m 2.1546852,0.90897 c 0.01121,0.08025 0.05651,0.1487183 0.05651,0.2307758 0,0.056691 -0.04687,0.086556 -0.05181,0.1412901 -0.04603,-0.1029169 -0.07266,-0.193214 -0.148355,-0.2755161 0.04793,-0.033663 0.08806,-0.059608 0.143646,-0.096551 z M 7.555524,8.4821534 C 7.6729694,8.6387437 7.7779529,8.8060356 7.9063965,8.9225103 7.763076,8.808899 7.6535977,8.6713815 7.555524,8.4821534 Z m 0.85481,0.7111638 c 0.113997,0.028767 0.200455,0.053412 0.289646,0.065938 -0.02822,0.00217 -0.04683,0.035326 -0.07536,0.035326 -0.08125,0 -0.136012,-0.084518 -0.21429,-0.101253 z m 8.533958,0.6358085 c -0.263324,0 -0.52698,0.1006143 -0.708807,0.3037753 l -5.545662,6.197953 c -0.36365,0.40632 -0.363653,1.006586 0,1.412908 l 7.394216,8.263151 c 0.181837,0.203199 0.444388,0.320259 0.708809,0.320259 0.264374,0 0.526981,-0.117071 0.708807,-0.320259 l 5.545662,-6.197953 c 0.363653,-0.406323 0.363649,-1.006583 0,-1.412907 L 17.653102,10.132901 C 17.471275,9.929738 17.207621,9.8291257 16.944292,9.8291257 Z m 0,2.5079103 6.054309,6.765471 -4.205753,4.697917 -6.054309,-6.763117 z m 0.461551,1.106778 c -0.263326,0 -0.526981,0.100614 -0.708809,0.303774 l -2.771653,3.098977 c -0.36365,0.406322 -0.363654,1.006585 0,1.412907 0.181826,0.203187 0.444434,0.322614 0.708809,0.322614 0.264419,0 0.524618,-0.119423 0.706453,-0.322614 l 2.774009,-3.098976 c 0.363651,-0.406322 0.363649,-1.006585 0,-1.412908 -0.181827,-0.203161 -0.445483,-0.303774 -0.708809,-0.303774 z m 1.848554,2.065198 c -0.263326,0 -0.526982,0.100615 -0.708808,0.303776 l -2.771655,3.098976 c -0.363654,0.406323 -0.363651,1.006585 0,1.412908 0.181826,0.203152 0.444434,0.322613 0.708809,0.322613 0.264371,0 0.5246,-0.119398 0.706454,-0.322613 l 2.774008,-3.096622 c 0.363651,-0.406323 0.363651,-1.00894 0,-1.415262 -0.181827,-0.203163 -0.445482,-0.303776 -0.708808,-0.303776 z m 1.848553,2.0652 c -0.263325,0 -0.526983,0.100614 -0.708808,0.303775 l -2.771653,3.098977 c -0.363652,0.406324 -0.363648,1.006584 0,1.412907 0.181828,0.203161 0.444432,0.322615 0.708808,0.322615 0.264409,0 0.524613,-0.119435 0.706455,-0.322615 l 2.774007,-3.096622 c 0.363659,-0.406322 0.363655,-1.008939 0,-1.415262 -0.181826,-0.20316 -0.445483,-0.303775 -0.708809,-0.303775 z m -13.613361,2.799911 7.68386,8.595187 c -0.261468,-0.06662 -0.544913,-0.0378 -0.774744,0.129516 l -1.010228,0.732357 c -0.387454,0.247877 -0.877689,0.120556 -1.139746,-0.386195 v -0.0024 z" />
</svg>
