<?xml version="1.0" encoding="UTF-8" standalone="no"?>
<svg
   fill="none"
   height="32"
   viewBox="0 0 32 32"
   width="32"
   version="1.1"
   id="svg4"
   sodipodi:docname="face-split-view.svg"
   inkscape:version="1.1.1 (3bf5ae0d25, 2021-09-20)"
   xmlns:inkscape="http://www.inkscape.org/namespaces/inkscape"
   xmlns:sodipodi="http://sodipodi.sourceforge.net/DTD/sodipodi-0.dtd"
   xmlns="http://www.w3.org/2000/svg"
   xmlns:svg="http://www.w3.org/2000/svg">
  <defs
     id="defs8" />
  <sodipodi:namedview
     id="namedview6"
     pagecolor="#ffffff"
     bordercolor="#666666"
     borderopacity="1.0"
     inkscape:pageshadow="2"
     inkscape:pageopacity="0.0"
     inkscape:pagecheckerboard="0"
     showgrid="false"
     inkscape:zoom="27.28125"
     inkscape:cx="15.981672"
     inkscape:cy="15.981672"
     inkscape:window-width="3840"
     inkscape:window-height="2080"
     inkscape:window-x="2293"
     inkscape:window-y="35"
     inkscape:window-maximized="1"
     inkscape:current-layer="svg4" />
  <path
     clip-rule="evenodd"
     d="M 0,9.6 C 0,6.94904 2.14904,4.8 4.8,4.8 h 22.4 c 2.65104,0 4.8,2.14904 4.8,4.8 v 12.8 c 0,2.65104 -2.14896,4.8 -4.8,4.8 H 4.8 C 2.14904,27.2 0,25.05104 0,22.4 Z M 17.6,8 h 9.6 c 0.88368,0 1.6,0.716336 1.6,1.6 v 12.8 c 0,0.88368 -0.71632,1.6 -1.6,1.6 H 17.6 Z M 14.4,8 H 4.8 C 3.916352,8 3.2,8.716352 3.2,9.6 v 12.8 c 0,0.88368 0.716352,1.6 1.6,1.6 h 9.6 z"
     fill="#180027"
     fill-rule="evenodd"
     id="path2"
     style="stroke-width:1.6" />
</svg>
