<?xml version="1.0" encoding="UTF-8" standalone="no"?>
<svg
   fill="none"
   height="32"
   viewBox="0 0 32 32"
   width="32"
   version="1.1"
   id="svg8"
   sodipodi:docname="face-r-select.svg"
   inkscape:version="1.1.1 (3bf5ae0d25, 2021-09-20)"
   xmlns:inkscape="http://www.inkscape.org/namespaces/inkscape"
   xmlns:sodipodi="http://sodipodi.sourceforge.net/DTD/sodipodi-0.dtd"
   xmlns="http://www.w3.org/2000/svg"
   xmlns:svg="http://www.w3.org/2000/svg">
  <defs
     id="defs12" />
  <sodipodi:namedview
     id="namedview10"
     pagecolor="#ffffff"
     bordercolor="#666666"
     borderopacity="1.0"
     inkscape:pageshadow="2"
     inkscape:pageopacity="0.0"
     inkscape:pagecheckerboard="0"
     showgrid="false"
     inkscape:zoom="27.28125"
     inkscape:cx="15.981672"
     inkscape:cy="15.981672"
     inkscape:window-width="3840"
     inkscape:window-height="2080"
     inkscape:window-x="2293"
     inkscape:window-y="35"
     inkscape:window-maximized="1"
     inkscape:current-layer="svg8" />
  <g
     id="g832"
     transform="matrix(1.4545455,0,0,1.4545455,-1.454546,-1.454546)">
    <path
       d="M 9.17154,11.508 7.75732,10.0938 12,5.85113 16.2426,10.0938 14.8284,11.508 12,8.67956 Z"
       fill="#180027"
       id="path2" />
    <path
       d="M 9.17154,12.492 7.75732,13.9062 12,18.1489 16.2426,13.9062 14.8284,12.492 12,15.3204 Z"
       fill="#180027"
       id="path4" />
    <path
       clip-rule="evenodd"
       d="M 1,5 C 1,2.79086 2.79086,1 5,1 h 14 c 2.2091,0 4,1.79086 4,4 v 14 c 0,2.2091 -1.7909,4 -4,4 H 5 C 2.79086,23 1,21.2091 1,19 Z M 5,3 h 14 c 1.1046,0 2,0.89543 2,2 v 14 c 0,1.1046 -0.8954,2 -2,2 H 5 C 3.89543,21 3,20.1046 3,19 V 5 C 3,3.89543 3.89543,3 5,3 Z"
       fill="#180027"
       fill-rule="evenodd"
       id="path6" />
  </g>
</svg>
