<?xml version="1.0" encoding="UTF-8" standalone="no"?>
<svg
   fill="none"
   height="32"
   viewBox="0 0 32 32"
   width="32"
   version="1.1"
   id="svg6"
   sodipodi:docname="face-square.svg"
   inkscape:version="1.1.1 (3bf5ae0d25, 2021-09-20)"
   xmlns:inkscape="http://www.inkscape.org/namespaces/inkscape"
   xmlns:sodipodi="http://sodipodi.sourceforge.net/DTD/sodipodi-0.dtd"
   xmlns="http://www.w3.org/2000/svg"
   xmlns:svg="http://www.w3.org/2000/svg">
  <defs
     id="defs10" />
  <sodipodi:namedview
     id="namedview8"
     pagecolor="#ffffff"
     bordercolor="#666666"
     borderopacity="1.0"
     inkscape:pageshadow="2"
     inkscape:pageopacity="0.0"
     inkscape:pagecheckerboard="0"
     showgrid="false"
     inkscape:zoom="27.28125"
     inkscape:cx="15.981672"
     inkscape:cy="15.981672"
     inkscape:window-width="3840"
     inkscape:window-height="2080"
     inkscape:window-x="2293"
     inkscape:window-y="35"
     inkscape:window-maximized="1"
     inkscape:current-layer="svg6" />
  <g
     id="g829"
     transform="matrix(2.2857143,0,0,2.2857143,-11.428572,-11.428572)">
    <path
       d="m 14,10 h -4 v 4 h 4 z"
       fill="#180027"
       id="path2" />
    <path
       clip-rule="evenodd"
       d="M 5,9 C 5,6.79086 6.79086,5 9,5 h 6 c 2.2091,0 4,1.79086 4,4 v 6 c 0,2.2091 -1.7909,4 -4,4 H 9 C 6.79086,19 5,17.2091 5,15 Z M 9,8 h 6 c 0.5523,0 1,0.44772 1,1 v 6 c 0,0.5523 -0.4477,1 -1,1 H 9 C 8.44772,16 8,15.5523 8,15 V 9 C 8,8.44772 8.44772,8 9,8 Z"
       fill="#180027"
       fill-rule="evenodd"
       id="path4" />
  </g>
</svg>
