<?xml version="1.0" encoding="UTF-8" standalone="no"?>
<svg
   fill="none"
   height="32"
   viewBox="0 0 32 32"
   width="32"
   version="1.1"
   id="svg8"
   sodipodi:docname="face-refrigerator-home-smart.svg"
   inkscape:version="1.1.1 (3bf5ae0d25, 2021-09-20)"
   xmlns:inkscape="http://www.inkscape.org/namespaces/inkscape"
   xmlns:sodipodi="http://sodipodi.sourceforge.net/DTD/sodipodi-0.dtd"
   xmlns="http://www.w3.org/2000/svg"
   xmlns:svg="http://www.w3.org/2000/svg">
  <defs
     id="defs12" />
  <sodipodi:namedview
     id="namedview10"
     pagecolor="#ffffff"
     bordercolor="#666666"
     borderopacity="1.0"
     inkscape:pageshadow="2"
     inkscape:pageopacity="0.0"
     inkscape:pagecheckerboard="0"
     showgrid="false"
     inkscape:zoom="27.28125"
     inkscape:cx="15.981672"
     inkscape:cy="15.981672"
     inkscape:window-width="3840"
     inkscape:window-height="2080"
     inkscape:window-x="2293"
     inkscape:window-y="35"
     inkscape:window-maximized="1"
     inkscape:current-layer="svg8" />
  <g
     id="g832"
     transform="matrix(1.4545455,0,0,1.4545455,-1.454546,-1.454546)">
    <path
       d="m 9,6 c 0,-0.55228 0.44772,-1 1,-1 0.5523,0 1,0.44772 1,1 V 8 C 11,8.55228 10.5523,9 10,9 9.44772,9 9,8.55228 9,8 Z"
       fill="#180027"
       id="path2" />
    <path
       d="m 10,13 c -0.55228,0 -1,0.4477 -1,1 v 2 c 0,0.5523 0.44772,1 1,1 0.5523,0 1,-0.4477 1,-1 v -2 c 0,-0.5523 -0.4477,-1 -1,-1 z"
       fill="#180027"
       id="path4" />
    <path
       clip-rule="evenodd"
       d="M 5,4 C 5,2.34315 6.34315,1 8,1 h 8 c 1.6569,0 3,1.34315 3,3 v 16 c 0,1.6569 -1.3431,3 -3,3 H 8 C 6.34315,23 5,21.6569 5,20 Z M 8,3 h 8 c 0.5523,0 1,0.44772 1,1 v 6 H 7 V 4 C 7,3.44772 7.44772,3 8,3 Z m -1,9 h 10 v 8 c 0,0.5523 -0.4477,1 -1,1 H 8 C 7.44772,21 7,20.5523 7,20 Z"
       fill="#180027"
       fill-rule="evenodd"
       id="path6" />
  </g>
</svg>
