<?xml version="1.0" encoding="UTF-8" standalone="no"?>
<svg
   fill="none"
   height="32"
   viewBox="0 0 32 32"
   width="32"
   version="1.1"
   id="svg4"
   sodipodi:docname="face-camera-disable.svg"
   inkscape:export-filename="face-camera-disable.png"
   inkscape:export-xdpi="144"
   inkscape:export-ydpi="144"
   inkscape:version="1.1.1 (3bf5ae0d25, 2021-09-20)"
   xmlns:inkscape="http://www.inkscape.org/namespaces/inkscape"
   xmlns:sodipodi="http://sodipodi.sourceforge.net/DTD/sodipodi-0.dtd"
   xmlns="http://www.w3.org/2000/svg"
   xmlns:svg="http://www.w3.org/2000/svg">
  <defs
     id="defs8" />
  <sodipodi:namedview
     id="namedview6"
     pagecolor="#ffffff"
     bordercolor="#666666"
     borderopacity="1.0"
     inkscape:pageshadow="2"
     inkscape:pageopacity="0.0"
     inkscape:pagecheckerboard="0"
     showgrid="false"
     inkscape:zoom="25.75"
     inkscape:cx="15.980583"
     inkscape:cy="15.980583"
     inkscape:window-width="1920"
     inkscape:window-height="1013"
     inkscape:window-x="-9"
     inkscape:window-y="29"
     inkscape:window-maximized="1"
     inkscape:current-layer="svg4" />
  <path
     clip-rule="evenodd"
     d="m 0.52069171,0.52073779 c 0.69427359,-0.6942557 1.81988819,-0.6942557 2.51416169,0 L 31.479199,28.965119 c 0.508443,0.508443 0.66062,1.273063 0.385421,1.937416 -0.275199,0.664354 -0.923375,1.097419 -1.642484,1.097419 H 5.3333179 C 2.3878153,31.999954 -8.5849315e-8,29.612228 -8.5849315e-8,26.666636 V 10.666682 C -8.5849315e-8,8.462706 1.336885,6.5709605 3.2439728,5.7581628 L 0.52069171,3.0348995 c -0.6942557,-0.6942735 -0.6942557,-1.8198881 0,-2.51416171 z M 6.3747194,8.888909 H 5.3333179 c -0.9818283,0 -1.7777726,0.795945 -1.7777726,1.777773 v 15.999954 c 0,0.981864 0.7959443,1.777773 1.7777726,1.777773 H 25.930237 l -5.283718,-5.283718 c -1.24533,1.075552 -2.869503,1.728173 -4.646565,1.728173 -3.927349,0 -7.1110911,-3.183814 -7.1110911,-7.111091 0,-1.777062 0.652603,-3.401235 1.7281911,-4.646565 z m 6.7695986,6.769581 c -0.44071,0.592709 -0.699909,1.325863 -0.699909,2.119283 0,1.963728 1.591817,3.555545 3.555545,3.555545 0.79342,0 1.526574,-0.259377 2.119283,-0.699909 z M 10.666636,3.5555914 c 0,-0.9818283 0.795944,-1.7777727 1.777773,-1.7777727 h 6.901313 c 1.891373,0 3.620612,1.0686903 4.466476,2.7605076 0.243733,0.487252 0.741687,0.7950377 1.286397,0.7950377 h 1.567995 c 2.945592,0 5.333318,2.387815 5.333318,5.333318 v 10.666636 c 0,0.981864 -0.795909,1.777773 -1.777772,1.777773 -0.981864,0 -1.777773,-0.795909 -1.777773,-1.777773 V 10.666682 c 0,-0.981828 -0.795909,-1.777773 -1.777773,-1.777773 h -1.567995 c -1.891373,0 -3.620612,-1.06869 -4.466476,-2.7605072 C 20.388386,5.6411498 19.890432,5.333364 19.345722,5.333364 h -6.901313 c -0.981829,0 -1.777773,-0.7959443 -1.777773,-1.7777726 z"
     fill="#180027"
     fill-rule="evenodd"
     id="path2"
     style="stroke-width:1.77777" />
</svg>
