<?xml version="1.0" encoding="UTF-8" standalone="no"?>
<svg
   fill="none"
   height="32"
   viewBox="0 0 32 32"
   width="32"
   version="1.1"
   id="svg4"
   sodipodi:docname="face-shrink.svg"
   inkscape:export-filename="face-shrink.png"
   inkscape:export-xdpi="144"
   inkscape:export-ydpi="144"
   inkscape:version="1.1.1 (3bf5ae0d25, 2021-09-20)"
   xmlns:inkscape="http://www.inkscape.org/namespaces/inkscape"
   xmlns:sodipodi="http://sodipodi.sourceforge.net/DTD/sodipodi-0.dtd"
   xmlns="http://www.w3.org/2000/svg"
   xmlns:svg="http://www.w3.org/2000/svg">
  <defs
     id="defs8" />
  <sodipodi:namedview
     id="namedview6"
     pagecolor="#ffffff"
     bordercolor="#666666"
     borderopacity="1.0"
     inkscape:pageshadow="2"
     inkscape:pageopacity="0.0"
     inkscape:pagecheckerboard="0"
     showgrid="false"
     inkscape:zoom="25.75"
     inkscape:cx="15.980583"
     inkscape:cy="15.980583"
     inkscape:window-width="1920"
     inkscape:window-height="1013"
     inkscape:window-x="-9"
     inkscape:window-y="29"
     inkscape:window-maximized="1"
     inkscape:current-layer="svg4" />
  <path
     clip-rule="evenodd"
     d="m 12,0 c 1.1046,0 2,0.89544 2,2 v 10 c 0,1.1046 -0.8954,2 -2,2 H 2 C 0.89544,14 0,13.1046 0,12 0,10.89544 0.89544,10 2,10 h 8 V 2 c 0,-1.10456 0.89544,-2 2,-2 z m 8,0 c 1.1046,0 2,0.89544 2,2 v 8 h 8 c 1.1046,0 2,0.89544 2,2 0,1.1046 -0.8954,2 -2,2 H 20 c -1.1046,0 -2,-0.8954 -2,-2 V 2 C 18,0.89544 18.8954,0 20,0 Z M 0,20 c 0,-1.1046 0.89544,-2 2,-2 h 10 c 1.1046,0 2,0.8954 2,2 v 10 c 0,1.1046 -0.8954,2 -2,2 -1.10456,0 -2,-0.8954 -2,-2 V 22 H 2 C 0.89544,22 0,21.1046 0,20 Z m 18,0 c 0,-1.1046 0.8954,-2 2,-2 h 10 c 1.1046,0 2,0.8954 2,2 0,1.1046 -0.8954,2 -2,2 h -8 v 8 c 0,1.1046 -0.8954,2 -2,2 -1.1046,0 -2,-0.8954 -2,-2 z"
     fill="#180027"
     fill-rule="evenodd"
     id="path2"
     style="stroke-width:2" />
</svg>
