<?xml version="1.0" encoding="UTF-8" standalone="no"?>
<svg
   fill="none"
   height="32"
   viewBox="0 0 32 32"
   width="32"
   version="1.1"
   id="svg4"
   sodipodi:docname="face-save.svg"
   inkscape:export-filename="face-save.png"
   inkscape:export-xdpi="144"
   inkscape:export-ydpi="144"
   inkscape:version="1.1.1 (3bf5ae0d25, 2021-09-20)"
   xmlns:inkscape="http://www.inkscape.org/namespaces/inkscape"
   xmlns:sodipodi="http://sodipodi.sourceforge.net/DTD/sodipodi-0.dtd"
   xmlns="http://www.w3.org/2000/svg"
   xmlns:svg="http://www.w3.org/2000/svg">
  <defs
     id="defs8" />
  <sodipodi:namedview
     id="namedview6"
     pagecolor="#ffffff"
     bordercolor="#666666"
     borderopacity="1.0"
     inkscape:pageshadow="2"
     inkscape:pageopacity="0.0"
     inkscape:pagecheckerboard="0"
     showgrid="false"
     inkscape:zoom="25.75"
     inkscape:cx="15.980583"
     inkscape:cy="12.873786"
     inkscape:window-width="1920"
     inkscape:window-height="1013"
     inkscape:window-x="-9"
     inkscape:window-y="29"
     inkscape:window-maximized="1"
     inkscape:current-layer="svg4" />
  <path
     clip-rule="evenodd"
     d="m 5.8947371,3.3684211 c -0.9301558,0 -1.6842105,0.7540547 -1.6842105,1.6842105 V 26.947368 c 0,0.93019 0.7540547,1.684211 1.6842105,1.684211 h 1.6842105 v -1.684211 c 0,-2.790568 2.2621469,-5.052631 5.0526314,-5.052631 h 6.736842 c 2.790568,0 5.052631,2.262063 5.052631,5.052631 v 1.684211 h 1.684211 c 0.930189,0 1.68421,-0.754021 1.68421,-1.684211 V 9.816303 c 0,-0.446686 -0.177515,-0.875065 -0.493305,-1.190922 L 22.736842,4.0660379 v 1.8286989 c 0,2.3254062 -1.885137,4.2105262 -4.210526,4.2105262 h -6.736843 c -2.3254055,0 -4.2105254,-1.88512 -4.2105254,-4.2105262 V 3.3684211 Z m 5.0526319,0 v 2.5263157 c 0,0.4650779 0.377027,0.8421053 0.842105,0.8421053 h 6.736842 c 0.46501,0 0.842105,-0.3770274 0.842105,-0.8421053 V 3.3684211 Z M 26.105263,32 c 2.790568,0 5.052631,-2.262063 5.052631,-5.052632 V 9.816303 c 0,-1.340042 -0.532378,-2.625196 -1.479914,-3.5727493 L 24.914358,1.4798821 C 23.966821,0.5323284 22.6816,0 21.341642,0 H 5.8947371 C 3.1042529,0 0.8421055,2.2621474 0.8421055,5.0526316 V 26.947368 C 0.8421055,29.737937 3.1042529,32 5.8947371,32 Z m -5.052632,-3.368421 v -1.684211 c 0,-0.930189 -0.754021,-1.68421 -1.68421,-1.68421 H 12.63158 c -0.930156,0 -1.684211,0.754021 -1.684211,1.68421 v 1.684211 z M 15.157894,15.157895 c -0.46501,0 -0.842105,0.377094 -0.842105,0.842105 0,0.465011 0.377095,0.842105 0.842105,0.842105 C 15.622905,16.842105 16,16.465011 16,16 16,15.534989 15.622905,15.157895 15.157894,15.157895 Z M 10.947369,16 c 0,-2.325389 1.885137,-4.210526 4.210526,-4.210526 2.325389,0 4.210526,1.885137 4.210526,4.210526 0,2.325389 -1.885137,4.210526 -4.210526,4.210526 -2.325389,0 -4.210526,-1.885137 -4.210526,-4.210526 z"
     fill="#180027"
     fill-rule="evenodd"
     id="path2"
     style="stroke-width:1.68421" />
</svg>
