<?xml version="1.0" encoding="UTF-8" standalone="no"?>
<svg
   fill="none"
   height="32"
   viewBox="0 0 32 32"
   width="32"
   version="1.1"
   id="svg6"
   sodipodi:docname="face-eye.svg"
   inkscape:export-filename="C:\Code\qinpel-app\design\face-eye.png"
   inkscape:export-xdpi="144"
   inkscape:export-ydpi="144"
   inkscape:version="1.1.1 (3bf5ae0d25, 2021-09-20)"
   xmlns:inkscape="http://www.inkscape.org/namespaces/inkscape"
   xmlns:sodipodi="http://sodipodi.sourceforge.net/DTD/sodipodi-0.dtd"
   xmlns="http://www.w3.org/2000/svg"
   xmlns:svg="http://www.w3.org/2000/svg">
  <defs
     id="defs10" />
  <sodipodi:namedview
     id="namedview8"
     pagecolor="#ffffff"
     bordercolor="#666666"
     borderopacity="1.0"
     inkscape:pageshadow="2"
     inkscape:pageopacity="0.0"
     inkscape:pagecheckerboard="0"
     showgrid="false"
     inkscape:zoom="25.75"
     inkscape:cx="15.980583"
     inkscape:cy="15.980583"
     inkscape:window-width="1920"
     inkscape:window-height="1013"
     inkscape:window-x="-9"
     inkscape:window-y="29"
     inkscape:window-maximized="1"
     inkscape:current-layer="svg6" />
  <g
     id="g830"
     transform="translate(-2.9497049,-1.4915)">
    <path
       d="m 18.949696,23.679231 c -3.889413,0 -7.071674,-3.182261 -7.071674,-7.071692 0,-3.889431 3.182261,-7.0716928 7.071674,-7.0716928 3.889431,0 7.071692,3.1822618 7.071692,7.0716928 0,3.889431 -3.182261,7.071692 -7.071692,7.071692 z m 0,-10.607539 c -1.944715,0 -3.535846,1.591131 -3.535846,3.535847 0,1.944715 1.591131,3.535845 3.535846,3.535845 1.944716,0 3.535847,-1.59113 3.535847,-3.535845 0,-1.944716 -1.591131,-3.535847 -3.535847,-3.535847 z"
       fill="#180027"
       id="path2"
       style="stroke-width:1.76793" />
    <path
       d="m 18.949696,28.983 c -9.7235589,0 -15.3809129,-10.253954 -15.7344976,-10.607539 -0.3535845,-0.530377 -0.3535845,-1.237545 0,-1.767922 C 3.3919908,16.253954 9.2261371,6 18.949696,6 c 9.723577,0 15.380931,10.253954 15.734515,10.607539 0.353585,0.530377 0.353585,1.237545 0,1.767922 C 34.330627,18.729046 28.673273,28.983 18.949696,28.983 Z M 6.9278371,17.4915 c 1.4143383,2.2983 5.8341459,7.955654 12.0218589,7.955654 6.187731,0 10.607539,-5.657354 12.021877,-7.955654 C 29.557235,15.1932 25.137427,9.5358462 18.949696,9.5358462 12.761983,9.5358462 8.3421754,15.1932 6.9278371,17.4915 Z"
       fill="#180027"
       id="path4"
       style="stroke-width:1.76793" />
  </g>
</svg>
