<?xml version="1.0" encoding="UTF-8" standalone="no"?>
<svg
   fill="none"
   height="32"
   viewBox="0 0 32 32"
   width="32"
   version="1.1"
   id="svg4"
   sodipodi:docname="face-bell-disable.svg"
   inkscape:export-filename="C:\Code\qinpel-app\design\face-bell-disable.png"
   inkscape:export-xdpi="144"
   inkscape:export-ydpi="144"
   inkscape:version="1.1.1 (3bf5ae0d25, 2021-09-20)"
   xmlns:inkscape="http://www.inkscape.org/namespaces/inkscape"
   xmlns:sodipodi="http://sodipodi.sourceforge.net/DTD/sodipodi-0.dtd"
   xmlns="http://www.w3.org/2000/svg"
   xmlns:svg="http://www.w3.org/2000/svg">
  <defs
     id="defs8" />
  <sodipodi:namedview
     id="namedview6"
     pagecolor="#ffffff"
     bordercolor="#666666"
     borderopacity="1.0"
     inkscape:pageshadow="2"
     inkscape:pageopacity="0.0"
     inkscape:pagecheckerboard="0"
     showgrid="false"
     inkscape:zoom="25.75"
     inkscape:cx="15.980583"
     inkscape:cy="15.980583"
     inkscape:window-width="1920"
     inkscape:window-height="1013"
     inkscape:window-x="-9"
     inkscape:window-y="29"
     inkscape:window-maximized="1"
     inkscape:current-layer="svg4" />
  <path
     clip-rule="evenodd"
     d="M 10.486148,1.15136 C 11.927076,0.433008 13.7389,0 16.00002,0 c 4.20816,0 6.79504,1.506032 8.3064,3.371024 1.45168,1.79144 1.74656,3.711552 1.80816,4.330192 0.0053,0.051984 0.0086,0.089488 0.01152,0.11968 0.0045,0.048608 0.0074,0.078352 0.01248,0.11936 L 27.3397,17.3984 c 0.1112,0.87664 -0.50912,1.6776 -1.38576,1.7888 -0.87664,0.11136 -1.67744,-0.50896 -1.7888,-1.3856 L 22.96418,8.343376 C 22.95186,8.247506 22.94146,8.135696 22.9349,8.065776 22.9331,8.046356 22.9315,8.030156 22.9304,8.018436 22.89858,7.699616 22.71506,6.48984 21.82034,5.385728 20.98514,4.355168 19.35762,3.2 16.00002,3.2 14.15154,3.2 12.84274,3.55216 11.913892,4.0152 11.12306,4.409456 10.162356,4.087968 9.7681,3.297152 9.373844,2.50632 9.695332,1.545616 10.486148,1.15136 Z M 2.0686441,2.068624 c 0.624848,-0.624832 1.637904,-0.624832 2.262752,0 L 29.93138,27.66864 c 0.6248,0.6248 0.6248,1.63792 0,2.26272 -0.6248,0.6248 -1.63792,0.6248 -2.26272,0 L 23.74578,26.00848 C 22.85474,29.45472 19.72466,32 16.00002,32 12.129684,32 8.901284,29.25152 8.1600521,25.6 h -4.960032 c -0.574864,0 -1.105552,-0.30848 -1.39016,-0.80784 -0.284608,-0.49952 -0.279376,-1.11328 0.013696,-1.60784 l 2.5064,-4.2296 c 0.111488,-0.18816 0.183232,-0.39712 0.210784,-0.61408 L 5.8407081,8.103424 2.0686441,4.331376 c -0.624832,-0.624848 -0.624832,-1.637904 0,-2.262752 z m 6.6343039,8.89704 -0.9876959,7.778016 c -0.082656,0.65104 -0.297872,1.27792 -0.632368,1.8424 L 6.0080041,22.4 H 20.1373 Z M 20.5269,25.6 h -9.053744 c 0.658928,1.86432 2.436944,3.2 4.526864,3.2 2.08992,0 3.868,-1.33568 4.52688,-3.2 z"
     fill="#180027"
     fill-rule="evenodd"
     id="path2"
     style="stroke-width:1.6" />
</svg>
