<?xml version="1.0" encoding="UTF-8" standalone="no"?>
<svg
   fill="none"
   height="32"
   viewBox="0 0 32 32"
   width="32"
   version="1.1"
   id="svg4"
   sodipodi:docname="face-share.svg"
   inkscape:export-filename="face-share.png"
   inkscape:export-xdpi="144"
   inkscape:export-ydpi="144"
   inkscape:version="1.1.1 (3bf5ae0d25, 2021-09-20)"
   xmlns:inkscape="http://www.inkscape.org/namespaces/inkscape"
   xmlns:sodipodi="http://sodipodi.sourceforge.net/DTD/sodipodi-0.dtd"
   xmlns="http://www.w3.org/2000/svg"
   xmlns:svg="http://www.w3.org/2000/svg">
  <defs
     id="defs8" />
  <sodipodi:namedview
     id="namedview6"
     pagecolor="#ffffff"
     bordercolor="#666666"
     borderopacity="1.0"
     inkscape:pageshadow="2"
     inkscape:pageopacity="0.0"
     inkscape:pagecheckerboard="0"
     showgrid="false"
     inkscape:zoom="25.75"
     inkscape:cx="15.980583"
     inkscape:cy="15.980583"
     inkscape:window-width="1920"
     inkscape:window-height="1013"
     inkscape:window-x="-9"
     inkscape:window-y="29"
     inkscape:window-maximized="1"
     inkscape:current-layer="svg4" />
  <path
     clip-rule="evenodd"
     d="m 24.888889,3.5555556 c -1.963733,0 -3.555556,1.5918755 -3.555556,3.5555554 0,1.96368 1.591823,3.555556 3.555556,3.555556 1.963733,0 3.555555,-1.591876 3.555555,-3.555556 0,-1.9636799 -1.591822,-3.5555554 -3.555555,-3.5555554 z M 17.777778,7.111111 C 17.777778,3.1837511 20.9616,0 24.888889,0 28.816178,0 32,3.1837511 32,7.111111 c 0,3.92736 -3.183822,7.111111 -7.111111,7.111111 -2.431645,0 -4.578133,-1.220444 -5.860445,-3.082169 l -5.176711,2.588303 c 0.240178,0.713422 0.370489,1.477333 0.370489,2.271644 0,0.794311 -0.130311,1.558222 -0.370489,2.271644 l 5.176711,2.588267 c 1.282312,-1.861689 3.4288,-3.082133 5.860445,-3.082133 C 28.816178,17.777778 32,20.9616 32,24.888889 32,28.816178 28.816178,32 24.888889,32 20.9616,32 17.777778,28.816178 17.777778,24.888889 c 0,-0.223822 0.01031,-0.445156 0.03058,-0.663822 L 11.890046,21.265956 C 10.627486,22.412444 8.950882,23.111111 7.111113,23.111111 3.1837511,23.111111 0,19.927289 0,16 0,12.07264 3.1837511,8.888889 7.111111,8.888889 c 1.839769,0 3.516373,0.698667 4.778933,1.845138 L 17.808356,7.77488 C 17.788086,7.556338 17.777776,7.334933 17.777776,7.111111 Z M 7.111111,12.444444 c -1.9636799,0 -3.5555554,1.591823 -3.5555554,3.555556 0,1.963733 1.5918755,3.555556 3.5555554,3.555556 1.96368,0 3.555556,-1.591823 3.555556,-3.555556 0,-1.963733 -1.591876,-3.555556 -3.555556,-3.555556 z m 17.777778,8.888889 c -1.963733,0 -3.555556,1.591823 -3.555556,3.555556 0,1.963733 1.591823,3.555555 3.555556,3.555555 1.963733,0 3.555555,-1.591822 3.555555,-3.555555 0,-1.963733 -1.591822,-3.555556 -3.555555,-3.555556 z"
     fill="#180027"
     fill-rule="evenodd"
     id="path2"
     style="stroke-width:1.77778" />
</svg>
