<?xml version="1.0" encoding="UTF-8" standalone="no"?>
<svg
   fill="none"
   height="32"
   viewBox="0 0 32 32"
   width="32"
   version="1.1"
   id="svg6"
   sodipodi:docname="face-checked-radio.svg"
   inkscape:version="1.1.1 (3bf5ae0d25, 2021-09-20)"
   xmlns:inkscape="http://www.inkscape.org/namespaces/inkscape"
   xmlns:sodipodi="http://sodipodi.sourceforge.net/DTD/sodipodi-0.dtd"
   xmlns="http://www.w3.org/2000/svg"
   xmlns:svg="http://www.w3.org/2000/svg">
  <defs
     id="defs10" />
  <sodipodi:namedview
     id="namedview8"
     pagecolor="#ffffff"
     bordercolor="#666666"
     borderopacity="1.0"
     inkscape:pageshadow="2"
     inkscape:pageopacity="0.0"
     inkscape:pagecheckerboard="0"
     showgrid="false"
     inkscape:zoom="27.28125"
     inkscape:cx="15.981672"
     inkscape:cy="15.981672"
     inkscape:window-width="3840"
     inkscape:window-height="2080"
     inkscape:window-x="2293"
     inkscape:window-y="35"
     inkscape:window-maximized="1"
     inkscape:current-layer="svg6" />
  <g
     id="g829"
     transform="translate(-2,-2)">
    <path
       d="m 18,24.4 c 3.53456,0 6.4,-2.86544 6.4,-6.4 0,-3.534624 -2.86544,-6.4 -6.4,-6.4 -3.534624,0 -6.4,2.865376 -6.4,6.4 0,3.53456 2.865376,6.4 6.4,6.4 z"
       fill="#180027"
       id="path2"
       style="stroke-width:1.6" />
    <path
       clip-rule="evenodd"
       d="M 34,18 C 34,26.83648 26.83648,34 18,34 9.16344,34 2,26.83648 2,18 2,9.16344 9.16344,2 18,2 26.83648,2 34,9.16344 34,18 Z m -3.2,0 C 30.8,25.06928 25.06928,30.8 18,30.8 10.930752,30.8 5.2,25.06928 5.2,18 5.2,10.930752 10.930752,5.2 18,5.2 c 7.06928,0 12.8,5.730752 12.8,12.8 z"
       fill="#180027"
       fill-rule="evenodd"
       id="path4"
       style="stroke-width:1.6" />
  </g>
</svg>
