<?xml version="1.0" encoding="UTF-8" standalone="no"?>
<svg
   fill="none"
   height="32"
   viewBox="0 0 32 32"
   width="32"
   version="1.1"
   id="svg28"
   sodipodi:docname="face-ram-smartphone.svg"
   inkscape:version="1.1.1 (3bf5ae0d25, 2021-09-20)"
   xmlns:inkscape="http://www.inkscape.org/namespaces/inkscape"
   xmlns:sodipodi="http://sodipodi.sourceforge.net/DTD/sodipodi-0.dtd"
   xmlns="http://www.w3.org/2000/svg"
   xmlns:svg="http://www.w3.org/2000/svg">
  <defs
     id="defs32" />
  <sodipodi:namedview
     id="namedview30"
     pagecolor="#ffffff"
     bordercolor="#666666"
     borderopacity="1.0"
     inkscape:pageshadow="2"
     inkscape:pageopacity="0.0"
     inkscape:pagecheckerboard="0"
     showgrid="false"
     inkscape:zoom="27.28125"
     inkscape:cx="15.981672"
     inkscape:cy="15.981672"
     inkscape:window-width="3840"
     inkscape:window-height="2080"
     inkscape:window-x="2293"
     inkscape:window-y="35"
     inkscape:window-maximized="1"
     inkscape:current-layer="svg28" />
  <g
     id="g862"
     transform="scale(1.3333333)">
    <path
       d="M 5,4 C 5,4.55228 4.55228,5 4,5 3.44772,5 3,4.55228 3,4 3,3.44772 3.44772,3 4,3 4.55228,3 5,3.44772 5,4 Z"
       fill="#180027"
       id="path2" />
    <path
       d="M 9,4 C 9,4.55228 8.55228,5 8,5 7.44772,5 7,4.55228 7,4 7,3.44772 7.44772,3 8,3 8.55228,3 9,3.44772 9,4 Z"
       fill="#180027"
       id="path4" />
    <path
       d="m 12,5 c 0.5523,0 1,-0.44772 1,-1 0,-0.55228 -0.4477,-1 -1,-1 -0.5523,0 -1,0.44772 -1,1 0,0.55228 0.4477,1 1,1 z"
       fill="#180027"
       id="path6" />
    <path
       d="m 17,4 c 0,0.55228 -0.4477,1 -1,1 -0.5523,0 -1,-0.44772 -1,-1 0,-0.55228 0.4477,-1 1,-1 0.5523,0 1,0.44772 1,1 z"
       fill="#180027"
       id="path8" />
    <path
       d="m 20,5 c 0.5523,0 1,-0.44772 1,-1 0,-0.55228 -0.4477,-1 -1,-1 -0.5523,0 -1,0.44772 -1,1 0,0.55228 0.4477,1 1,1 z"
       fill="#180027"
       id="path10" />
    <path
       d="m 5,20 c 0,0.5523 -0.44772,1 -1,1 -0.55228,0 -1,-0.4477 -1,-1 0,-0.5523 0.44772,-1 1,-1 0.55228,0 1,0.4477 1,1 z"
       fill="#180027"
       id="path12" />
    <path
       d="m 9,20 c 0,0.5523 -0.44772,1 -1,1 -0.55228,0 -1,-0.4477 -1,-1 0,-0.5523 0.44772,-1 1,-1 0.55228,0 1,0.4477 1,1 z"
       fill="#180027"
       id="path14" />
    <path
       d="m 12,21 c 0.5523,0 1,-0.4477 1,-1 0,-0.5523 -0.4477,-1 -1,-1 -0.5523,0 -1,0.4477 -1,1 0,0.5523 0.4477,1 1,1 z"
       fill="#180027"
       id="path16" />
    <path
       d="m 17,20 c 0,0.5523 -0.4477,1 -1,1 -0.5523,0 -1,-0.4477 -1,-1 0,-0.5523 0.4477,-1 1,-1 0.5523,0 1,0.4477 1,1 z"
       fill="#180027"
       id="path18" />
    <path
       d="m 20,21 c 0.5523,0 1,-0.4477 1,-1 0,-0.5523 -0.4477,-1 -1,-1 -0.5523,0 -1,0.4477 -1,1 0,0.5523 0.4477,1 1,1 z"
       fill="#180027"
       id="path20" />
    <path
       d="m 5,12 c 0.55228,0 1,-0.4477 1,-1 0,-0.5523 -0.44772,-1 -1,-1 -0.55228,0 -1,0.4477 -1,1 0,0.5523 0.44772,1 1,1 z"
       fill="#180027"
       id="path22" />
    <path
       d="m 20,13 c 0,0.5523 -0.4477,1 -1,1 -0.5523,0 -1,-0.4477 -1,-1 0,-0.5523 0.4477,-1 1,-1 0.5523,0 1,0.4477 1,1 z"
       fill="#180027"
       id="path24" />
    <path
       clip-rule="evenodd"
       d="M 0,9 C 0,7.34315 1.34315,6 3,6 h 18 c 1.6569,0 3,1.34315 3,3 v 6 c 0,1.6569 -1.3431,3 -3,3 H 3 C 1.34315,18 0,16.6569 0,15 Z M 3,8 h 18 c 0.5523,0 1,0.44772 1,1 v 6 c 0,0.5523 -0.4477,1 -1,1 H 3 C 2.44772,16 2,15.5523 2,15 V 9 C 2,8.44772 2.44772,8 3,8 Z"
       fill="#180027"
       fill-rule="evenodd"
       id="path26" />
  </g>
</svg>
