<?xml version="1.0" encoding="UTF-8" standalone="no"?>
<svg
   fill="none"
   height="32"
   viewBox="0 0 32 32"
   width="32"
   version="1.1"
   id="svg4"
   sodipodi:docname="face-exit.svg"
   inkscape:export-filename="face-exit.png"
   inkscape:export-xdpi="144"
   inkscape:export-ydpi="144"
   inkscape:version="1.1.1 (3bf5ae0d25, 2021-09-20)"
   xmlns:inkscape="http://www.inkscape.org/namespaces/inkscape"
   xmlns:sodipodi="http://sodipodi.sourceforge.net/DTD/sodipodi-0.dtd"
   xmlns="http://www.w3.org/2000/svg"
   xmlns:svg="http://www.w3.org/2000/svg">
  <defs
     id="defs8" />
  <sodipodi:namedview
     id="namedview6"
     pagecolor="#ffffff"
     bordercolor="#666666"
     borderopacity="1.0"
     inkscape:pageshadow="2"
     inkscape:pageopacity="0.0"
     inkscape:pagecheckerboard="0"
     showgrid="false"
     inkscape:zoom="25.75"
     inkscape:cx="15.980583"
     inkscape:cy="15.980583"
     inkscape:window-width="1920"
     inkscape:window-height="1013"
     inkscape:window-x="-9"
     inkscape:window-y="29"
     inkscape:window-maximized="1"
     inkscape:current-layer="svg4" />
  <path
     clip-rule="evenodd"
     d="m 6.40002,3.2 c -0.883648,0 -1.6,0.716336 -1.6,1.6 v 22.4 c 0,0.88368 0.716352,1.6 1.6,1.6 h 12.8 c 0.88368,0 1.6,0.71632 1.6,1.6 0,0.88368 -0.71632,1.6 -1.6,1.6 h -12.8 c -2.65096,0 -4.8,-2.14896 -4.8,-4.8 V 4.8 c 0,-2.650976 2.14904,-4.8 4.8,-4.8 h 12.8 c 0.88368,0 1.6,0.716352 1.6,1.6 0,0.883664 -0.71632,1.6 -1.6,1.6 z m 14.86864,5.268624 c 0.6248,-0.624832 1.63792,-0.624832 2.26272,0 l 6.4,6.400016 c 0.6248,0.6248 0.6248,1.63792 0,2.26272 l -6.4,6.4 c -0.6248,0.6248 -1.63792,0.6248 -2.26272,0 -0.6248,-0.6248 -0.6248,-1.63792 0,-2.26272 L 24.9373,17.6 H 11.20002 c -0.883648,0 -1.6,-0.71632 -1.6,-1.6 0,-0.88368 0.716352,-1.6 1.6,-1.6 H 24.9373 l -3.66864,-3.668624 c -0.6248,-0.624848 -0.6248,-1.637904 0,-2.262752 z"
     fill="#180027"
     fill-rule="evenodd"
     id="path2"
     style="stroke-width:1.6" />
</svg>
