<?xml version="1.0" encoding="UTF-8" standalone="no"?>
<svg
   fill="none"
   height="32"
   viewBox="0 0 32 32"
   width="32"
   version="1.1"
   id="svg4"
   sodipodi:docname="face-tab.svg"
   inkscape:version="1.1.1 (3bf5ae0d25, 2021-09-20)"
   xmlns:inkscape="http://www.inkscape.org/namespaces/inkscape"
   xmlns:sodipodi="http://sodipodi.sourceforge.net/DTD/sodipodi-0.dtd"
   xmlns="http://www.w3.org/2000/svg"
   xmlns:svg="http://www.w3.org/2000/svg">
  <defs
     id="defs8" />
  <sodipodi:namedview
     id="namedview6"
     pagecolor="#ffffff"
     bordercolor="#666666"
     borderopacity="1.0"
     inkscape:pageshadow="2"
     inkscape:pageopacity="0.0"
     inkscape:pagecheckerboard="0"
     showgrid="false"
     inkscape:zoom="27.28125"
     inkscape:cx="15.981672"
     inkscape:cy="15.981672"
     inkscape:window-width="3840"
     inkscape:window-height="2080"
     inkscape:window-x="2293"
     inkscape:window-y="35"
     inkscape:window-maximized="1"
     inkscape:current-layer="svg4" />
  <path
     clip-rule="evenodd"
     d="M 27.19999,3.1999745 C 29.851036,3.1999745 32,5.3490188 32,7.9999841 V 24.000016 c 0,2.651045 -2.148964,4.800009 -4.80001,4.800009 H 4.8000096 C 2.1490283,28.800025 0,26.651061 0,24.000016 V 7.9999841 C 0,5.3490188 2.1490283,3.1999745 4.8000096,3.1999745 Z m 1.600004,8.9996825 H 17.600131 c -0.883522,0 -1.849283,-0.671553 -2.156804,-1.499955 L 13.846844,6.3999809 H 4.8000096 c -0.8836658,0 -1.6000032,0.7163534 -1.6000032,1.6000032 V 24.000016 c 0,0.883681 0.7163374,1.600004 1.6000032,1.600004 H 27.19999 c 0.883682,0 1.600004,-0.716323 1.600004,-1.600004 z"
     fill="#180027"
     fill-rule="evenodd"
     id="path2"
     style="stroke-width:1.6" />
</svg>
