<?xml version="1.0" encoding="UTF-8" standalone="no"?>
<svg
   fill="none"
   height="32"
   viewBox="0 0 32 32"
   width="32"
   version="1.1"
   id="svg4"
   sodipodi:docname="face-readme.svg"
   inkscape:version="1.1.1 (3bf5ae0d25, 2021-09-20)"
   xmlns:inkscape="http://www.inkscape.org/namespaces/inkscape"
   xmlns:sodipodi="http://sodipodi.sourceforge.net/DTD/sodipodi-0.dtd"
   xmlns="http://www.w3.org/2000/svg"
   xmlns:svg="http://www.w3.org/2000/svg">
  <defs
     id="defs8" />
  <sodipodi:namedview
     id="namedview6"
     pagecolor="#ffffff"
     bordercolor="#666666"
     borderopacity="1.0"
     inkscape:pageshadow="2"
     inkscape:pageopacity="0.0"
     inkscape:pagecheckerboard="0"
     showgrid="false"
     inkscape:zoom="27.28125"
     inkscape:cx="15.981672"
     inkscape:cy="15.981672"
     inkscape:window-width="3840"
     inkscape:window-height="2080"
     inkscape:window-x="2293"
     inkscape:window-y="35"
     inkscape:window-maximized="1"
     inkscape:current-layer="svg4" />
  <path
     clip-rule="evenodd"
     d="m 4.3636364,6.5454544 h 7.2727276 c 1.606691,0 2.909091,1.3024436 2.909091,2.9090909 V 22.545454 C 14.545455,23.348799 13.894255,24 13.090909,24 H 4.3636364 C 3.56032,24 2.9090909,23.348799 2.9090909,22.545454 V 7.9999999 c 0,-0.8033164 0.6512291,-1.4545455 1.4545455,-1.4545455 z M 18.909091,26.90909 c -0.509964,0 -0.999564,-0.08756 -1.454546,-0.24829 v 0.24829 c 0,0.803347 -0.6512,1.454546 -1.454545,1.454546 -0.803345,0 -1.454545,-0.651199 -1.454545,-1.454546 V 26.6608 c -0.454982,0.160728 -0.944582,0.24829 -1.454546,0.24829 H 4.3636364 C 1.9536727,26.90909 0,24.955491 0,22.545454 V 7.9999999 C 0,5.5900362 1.9536727,3.6363635 4.3636364,3.6363635 h 7.2727276 c 1.737745,0 3.2976,0.7618327 4.363636,1.9697164 1.066036,-1.2078837 2.625891,-1.9697164 4.363636,-1.9697164 h 7.272728 C 30.0464,3.6363635 32,5.5900362 32,7.9999999 V 22.545454 c 0,2.410037 -1.9536,4.363636 -4.363636,4.363636 z M 17.454545,9.4545453 V 22.545454 c 0,0.803345 0.6512,1.454546 1.454546,1.454546 h 8.727273 c 0.803345,0 1.454545,-0.651201 1.454545,-1.454546 V 7.9999999 c 0,-0.8033164 -0.6512,-1.4545455 -1.454545,-1.4545455 h -7.272728 c -1.606691,0 -2.909091,1.3024436 -2.909091,2.9090909 z m -11.6363632,0 H 11.636364 V 12.363637 H 5.8181818 Z m 14.5454542,0 h 5.818182 v 2.9090917 h -5.818182 z m 5.818182,4.3636367 h -5.818182 v 2.90909 h 5.818182 z m -20.3636362,0 h 5.8181822 v 2.90909 H 5.8181818 Z m 20.3636362,4.363636 h -5.818182 v 2.90909 h 5.818182 z m -20.3636362,0 h 5.8181822 v 2.90909 H 5.8181818 Z"
     fill="#180027"
     fill-rule="evenodd"
     id="path2"
     style="stroke-width:1.45455" />
</svg>
