<?xml version="1.0" encoding="UTF-8" standalone="no"?>
<svg
   fill="none"
   height="32"
   viewBox="0 0 32 32"
   width="32"
   version="1.1"
   id="svg6"
   sodipodi:docname="face-chip-smartphone.svg"
   inkscape:version="1.1.1 (3bf5ae0d25, 2021-09-20)"
   xmlns:inkscape="http://www.inkscape.org/namespaces/inkscape"
   xmlns:sodipodi="http://sodipodi.sourceforge.net/DTD/sodipodi-0.dtd"
   xmlns="http://www.w3.org/2000/svg"
   xmlns:svg="http://www.w3.org/2000/svg">
  <defs
     id="defs10" />
  <sodipodi:namedview
     id="namedview8"
     pagecolor="#ffffff"
     bordercolor="#666666"
     borderopacity="1.0"
     inkscape:pageshadow="2"
     inkscape:pageopacity="0.0"
     inkscape:pagecheckerboard="0"
     showgrid="false"
     inkscape:zoom="27.28125"
     inkscape:cx="15.981672"
     inkscape:cy="15.981672"
     inkscape:window-width="3840"
     inkscape:window-height="2080"
     inkscape:window-x="2293"
     inkscape:window-y="35"
     inkscape:window-maximized="1"
     inkscape:current-layer="svg6" />
  <g
     id="g829"
     transform="translate(0,-1)">
    <path
       clip-rule="evenodd"
       d="M 11.636364,31.545455 C 11.636364,32.3488 10.985135,33 10.181818,33 9.3785021,33 8.7272728,32.3488 8.7272728,31.545455 c 0,-0.803346 0.6512293,-1.454546 1.4545452,-1.454546 0.803317,0 1.454546,0.6512 1.454546,1.454546 z m 5.818181,0 C 17.454545,32.3488 16.803345,33 16,33 c -0.803345,0 -1.454545,-0.6512 -1.454545,-1.454545 0,-0.803346 0.6512,-1.454546 1.454545,-1.454546 0.803345,0 1.454545,0.6512 1.454545,1.454546 z M 21.818182,33 c 0.803345,0 1.454545,-0.6512 1.454545,-1.454545 0,-0.803346 -0.6512,-1.454546 -1.454545,-1.454546 -0.803346,0 -1.454546,0.6512 -1.454546,1.454546 0,0.803345 0.6512,1.454545 1.454546,1.454545 z"
       fill="#180027"
       fill-rule="evenodd"
       id="path2"
       style="stroke-width:1.45455" />
    <path
       clip-rule="evenodd"
       d="m 11.636364,2.4545455 c 0,0.8033163 -0.651229,1.4545454 -1.454546,1.4545454 -0.803316,0 -1.4545453,-0.6512291 -1.4545453,-1.4545454 C 8.7272727,1.6512291 9.378502,1 10.181818,1 c 0.803317,0 1.454546,0.6512291 1.454546,1.4545455 z m 5.818181,0 c 0,0.8033163 -0.6512,1.4545454 -1.454545,1.4545454 -0.803345,0 -1.454545,-0.6512291 -1.454545,-1.4545454 C 14.545455,1.6512291 15.196655,1 16,1 c 0.803345,0 1.454545,0.6512291 1.454545,1.4545455 z m 4.363637,1.4545454 c 0.803345,0 1.454545,-0.6512291 1.454545,-1.4545454 C 23.272727,1.6512291 22.621527,1 21.818182,1 c -0.803346,0 -1.454546,0.6512291 -1.454546,1.4545455 0,0.8033163 0.6512,1.4545454 1.454546,1.4545454 z M 11.636364,31.545455 C 11.636364,32.3488 10.985135,33 10.181818,33 9.378502,33 8.7272727,32.3488 8.7272727,31.545455 c 0,-0.803346 0.6512293,-1.454546 1.4545453,-1.454546 0.803317,0 1.454546,0.6512 1.454546,1.454546 z m 5.818181,0 C 17.454545,32.3488 16.803345,33 16,33 c -0.803345,0 -1.454545,-0.6512 -1.454545,-1.454545 0,-0.803346 0.6512,-1.454546 1.454545,-1.454546 0.803345,0 1.454545,0.6512 1.454545,1.454546 z M 21.818182,33 c 0.803345,0 1.454545,-0.6512 1.454545,-1.454545 0,-0.803346 -0.6512,-1.454546 -1.454545,-1.454546 -0.803346,0 -1.454546,0.6512 -1.454546,1.454546 0,0.803345 0.6512,1.454545 1.454546,1.454545 z M 32,22.818182 c 0,-0.803346 -0.6512,-1.454546 -1.454545,-1.454546 -0.803346,0 -1.454546,0.6512 -1.454546,1.454546 0,0.803345 0.6512,1.454545 1.454546,1.454545 C 31.3488,24.272727 32,23.621527 32,22.818182 Z M 32,17 c 0,-0.803345 -0.6512,-1.454545 -1.454545,-1.454545 -0.803346,0 -1.454546,0.6512 -1.454546,1.454545 0,0.803345 0.6512,1.454545 1.454546,1.454545 C 31.3488,18.454545 32,17.803345 32,17 Z M 30.545455,9.7272727 C 31.3488,9.7272727 32,10.378487 32,11.181818 c 0,0.803331 -0.6512,1.454546 -1.454545,1.454546 -0.803346,0 -1.454546,-0.651215 -1.454546,-1.454546 0,-0.803331 0.6512,-1.4545453 1.454546,-1.4545453 z M 1.4545455,21.363636 c 0.8033163,0 1.4545454,0.6512 1.4545454,1.454546 0,0.803345 -0.6512291,1.454545 -1.4545454,1.454545 C 0.6512291,24.272727 0,23.621527 0,22.818182 0,22.014836 0.6512291,21.363636 1.4545455,21.363636 Z m 0,-5.818181 c 0.8033163,0 1.4545454,0.6512 1.4545454,1.454545 0,0.803345 -0.6512291,1.454545 -1.4545454,1.454545 C 0.6512291,18.454545 0,17.803345 0,17 0,16.196655 0.6512291,15.545455 1.4545455,15.545455 Z m 1.4545454,-4.363637 c 0,-0.803331 -0.6512291,-1.4545453 -1.4545454,-1.4545453 C 0.6512291,9.7272727 0,10.378487 0,11.181818 c 0,0.803331 0.6512291,1.454546 1.4545455,1.454546 0.8033163,0 1.4545454,-0.651215 1.4545454,-1.454546 z M 23.272727,8.2727273 H 8.7272727 c -0.8033163,0 -1.4545454,0.6512291 -1.4545454,1.4545454 V 24.272727 c 0,0.803346 0.6512291,1.454546 1.4545454,1.454546 H 23.272727 c 0.803346,0 1.454546,-0.6512 1.454546,-1.454546 V 9.7272727 c 0,-0.8033163 -0.6512,-1.4545454 -1.454546,-1.4545454 z M 8.7272727,5.3636364 c -2.4099636,0 -4.3636363,1.9536727 -4.3636363,4.3636363 V 24.272727 c 0,2.410037 1.9536727,4.363637 4.3636363,4.363637 H 23.272727 c 2.410037,0 4.363637,-1.9536 4.363637,-4.363637 V 9.7272727 c 0,-2.4099636 -1.9536,-4.3636363 -4.363637,-4.3636363 z M 18.909091,14.090909 h -5.818182 v 5.818182 h 5.818182 z M 10.181818,11.181818 V 22.818182 H 21.818182 V 11.181818 Z"
       fill="#180027"
       fill-rule="evenodd"
       id="path4"
       style="stroke-width:1.45455" />
  </g>
</svg>
