<?xml version="1.0" encoding="UTF-8" standalone="no"?>
<svg
   fill="none"
   height="32"
   viewBox="0 0 32 32"
   width="32"
   version="1.1"
   id="svg6"
   sodipodi:docname="face-off-square-toggle.svg"
   inkscape:version="1.1.1 (3bf5ae0d25, 2021-09-20)"
   xmlns:inkscape="http://www.inkscape.org/namespaces/inkscape"
   xmlns:sodipodi="http://sodipodi.sourceforge.net/DTD/sodipodi-0.dtd"
   xmlns="http://www.w3.org/2000/svg"
   xmlns:svg="http://www.w3.org/2000/svg">
  <defs
     id="defs10" />
  <sodipodi:namedview
     id="namedview8"
     pagecolor="#ffffff"
     bordercolor="#666666"
     borderopacity="1.0"
     inkscape:pageshadow="2"
     inkscape:pageopacity="0.0"
     inkscape:pagecheckerboard="0"
     showgrid="false"
     inkscape:zoom="27.28125"
     inkscape:cx="15.981672"
     inkscape:cy="15.981672"
     inkscape:window-width="3840"
     inkscape:window-height="2080"
     inkscape:window-x="2293"
     inkscape:window-y="35"
     inkscape:window-maximized="1"
     inkscape:current-layer="svg6" />
  <g
     id="g829"
     transform="scale(1.3333333)">
    <path
       d="m 15,9 c -0.5523,0 -1,0.44772 -1,1 v 4 c 0,0.5523 0.4477,1 1,1 h 4 c 0.5523,0 1,-0.4477 1,-1 V 10 C 20,9.44772 19.5523,9 19,9 Z"
       fill="#180027"
       id="path2" />
    <path
       clip-rule="evenodd"
       d="M 0,7 C 0,5.89543 0.895431,5 2,5 h 20 c 1.1046,0 2,0.89543 2,2 v 10 c 0,1.1046 -0.8954,2 -2,2 H 2 C 0.89543,19 0,18.1046 0,17 Z M 2,7 H 22 V 17 H 2 Z"
       fill="#180027"
       fill-rule="evenodd"
       id="path4" />
  </g>
</svg>
