<?xml version="1.0" encoding="UTF-8" standalone="no"?>
<svg
   fill="none"
   height="32"
   viewBox="0 0 32 32"
   width="32"
   version="1.1"
   id="svg4"
   sodipodi:docname="face-share.svg"
   inkscape:version="1.1.1 (3bf5ae0d25, 2021-09-20)"
   xmlns:inkscape="http://www.inkscape.org/namespaces/inkscape"
   xmlns:sodipodi="http://sodipodi.sourceforge.net/DTD/sodipodi-0.dtd"
   xmlns="http://www.w3.org/2000/svg"
   xmlns:svg="http://www.w3.org/2000/svg">
  <defs
     id="defs8" />
  <sodipodi:namedview
     id="namedview6"
     pagecolor="#ffffff"
     bordercolor="#666666"
     borderopacity="1.0"
     inkscape:pageshadow="2"
     inkscape:pageopacity="0.0"
     inkscape:pagecheckerboard="0"
     showgrid="false"
     inkscape:zoom="27.28125"
     inkscape:cx="15.981672"
     inkscape:cy="15.981672"
     inkscape:window-width="3840"
     inkscape:window-height="2080"
     inkscape:window-x="2293"
     inkscape:window-y="35"
     inkscape:window-maximized="1"
     inkscape:current-layer="svg4" />
  <path
     d="M 26.666667,10.666667 C 29.612267,10.666667 32,8.278844 32,5.3333333 32,2.3878222 29.612267,0 26.666667,0 c -2.9456,0 -5.333334,2.3878222 -5.333334,5.3333333 0,0.2230934 0.01369,0.4430045 0.04036,0.6588978 L 9.035751,12.161173 C 8.076533,11.235822 6.7713956,10.666667 5.3333333,10.666667 2.3878222,10.666667 0,13.0544 0,16 c 0,2.9456 2.3878222,5.333333 5.3333333,5.333333 1.4380623,0 2.7431997,-0.569244 3.7024177,-1.494577 l 12.337938,6.169066 c -0.02667,0.215822 -0.04036,0.435734 -0.04036,0.658845 0,2.9456 2.387734,5.333333 5.333334,5.333333 C 29.612267,32 32,29.612267 32,26.666667 c 0,-2.9456 -2.387733,-5.333334 -5.333333,-5.333334 -1.438045,0 -2.743111,0.569245 -3.7024,1.494578 L 10.626364,16.658844 c 0.0266,-0.215822 0.0403,-0.435733 0.0403,-0.658844 0,-0.223111 -0.01371,-0.443022 -0.0403,-0.658844 L 22.964267,9.17216 c 0.959289,0.925351 2.264355,1.494507 3.7024,1.494507 z"
     fill="#180027"
     id="path2"
     style="stroke-width:1.77778" />
</svg>
