<?xml version="1.0" encoding="UTF-8" standalone="no"?>
<svg
   fill="none"
   height="32"
   viewBox="0 0 32 32"
   width="32"
   version="1.1"
   id="svg4"
   sodipodi:docname="face-support.svg"
   inkscape:version="1.1.1 (3bf5ae0d25, 2021-09-20)"
   xmlns:inkscape="http://www.inkscape.org/namespaces/inkscape"
   xmlns:sodipodi="http://sodipodi.sourceforge.net/DTD/sodipodi-0.dtd"
   xmlns="http://www.w3.org/2000/svg"
   xmlns:svg="http://www.w3.org/2000/svg">
  <defs
     id="defs8" />
  <sodipodi:namedview
     id="namedview6"
     pagecolor="#ffffff"
     bordercolor="#666666"
     borderopacity="1.0"
     inkscape:pageshadow="2"
     inkscape:pageopacity="0.0"
     inkscape:pagecheckerboard="0"
     showgrid="false"
     inkscape:zoom="27.28125"
     inkscape:cx="15.981672"
     inkscape:cy="15.981672"
     inkscape:window-width="3840"
     inkscape:window-height="2080"
     inkscape:window-x="2293"
     inkscape:window-y="35"
     inkscape:window-maximized="1"
     inkscape:current-layer="svg4" />
  <g
     id="g826"
     transform="matrix(1.6,0,0,1.6,-3.2000001,-3.2000009)">
    <path
       clip-rule="evenodd"
       d="M 12.2607,21.9966 C 12.174,21.9988 12.0871,22 12,22 11.9128,22 11.8259,21.9988 11.7393,21.9966 7.68318,21.8928 4.22762,19.3738 2.7573,15.8242 1.74192,13.3674 1.7476,10.588 2.77433,8.13481 3.27688,6.93672 4.00599,5.85718 4.90808,4.94979 L 4.94983,4.90804 C 5.85259,4.01056 6.92574,3.28429 8.1165,2.78202 10.5894,1.74123 13.3958,1.73933 15.87,2.77633 c 1.1988,0.5036 2.2788,1.23409 3.1862,2.13774 l 0.0297,0.02966 c 0.913,0.91681 1.6492,2.00978 2.1533,3.22348 0.4887,1.17941 0.742,2.43339 0.7598,3.69009 7e-4,0.0474 0.001,0.095 0.001,0.1427 0,0.0506 -4e-4,0.1012 -0.0011,0.1516 -0.0613,4.1227 -2.6175,7.6409 -6.2258,9.1121 -1.125,0.4576 -2.3165,0.7019 -3.5124,0.7329 z m 1.7715,-6.5502 2.8738,2.8738 c -2.8779,2.2397 -6.93408,2.2397 -9.81198,0 l 2.87377,-2.8738 c 1.24971,0.7381 2.81471,0.7381 4.06441,0 z M 8.55358,14.0322 5.67981,16.906 c -2.23974,-2.8779 -2.23974,-6.93408 0,-9.81198 l 2.87377,2.87377 c -0.7381,1.24971 -0.7381,2.81471 0,4.06441 z m 1.52882,-1.4628 c -0.0051,-0.0171 -0.0099,-0.0343 -0.0145,-0.0515 -0.09052,-0.3389 -0.09052,-0.6969 0,-1.0358 0.0877,-0.3284 0.2603,-0.6387 0.5179,-0.8963 0.2441,-0.2441 0.5355,-0.4119 0.8448,-0.5034 0.0171,-0.0051 0.0343,-0.0099 0.0515,-0.0145 0.3389,-0.09052 0.6969,-0.09053 1.0358,0 0.3284,0.0877 0.6387,0.2603 0.8963,0.5179 0.2441,0.2441 0.4119,0.5355 0.5034,0.8448 0.0051,0.0171 0.0099,0.0343 0.0145,0.0515 0.0905,0.3389 0.0905,0.6969 0,1.0358 -0.0877,0.3283 -0.2603,0.6387 -0.5179,0.8963 -0.2441,0.2441 -0.5355,0.4119 -0.8448,0.5034 -0.0171,0.0051 -0.0343,0.0099 -0.0515,0.0145 -0.3389,0.0905 -0.6969,0.0905 -1.0358,0 -0.3283,-0.0877 -0.6387,-0.2603 -0.8963,-0.5179 -0.2441,-0.2441 -0.4119,-0.5355 -0.5034,-0.8448 z m 3.9498,-4.01583 c -1.2497,-0.73809 -2.8147,-0.73809 -4.06441,0 L 7.09402,5.6798 c 2.8779,-2.23973 6.93408,-2.23973 9.81198,0 z m 4.288,8.35243 c 2.2397,-2.8779 2.2397,-6.93408 0,-9.81198 l -2.8738,2.87377 c 0.7381,1.24971 0.7381,2.81471 0,4.06441 z"
       fill="#180027"
       fill-rule="evenodd"
       id="path2" />
  </g>
</svg>
