<?xml version="1.0" encoding="UTF-8" standalone="no"?>
<svg
   fill="none"
   height="32"
   viewBox="0 0 32 32"
   width="32"
   version="1.1"
   id="svg4"
   sodipodi:docname="face-speaker.svg"
   inkscape:export-filename="face-speaker.png"
   inkscape:export-xdpi="144"
   inkscape:export-ydpi="144"
   inkscape:version="1.1.1 (3bf5ae0d25, 2021-09-20)"
   xmlns:inkscape="http://www.inkscape.org/namespaces/inkscape"
   xmlns:sodipodi="http://sodipodi.sourceforge.net/DTD/sodipodi-0.dtd"
   xmlns="http://www.w3.org/2000/svg"
   xmlns:svg="http://www.w3.org/2000/svg">
  <defs
     id="defs8" />
  <sodipodi:namedview
     id="namedview6"
     pagecolor="#ffffff"
     bordercolor="#666666"
     borderopacity="1.0"
     inkscape:pageshadow="2"
     inkscape:pageopacity="0.0"
     inkscape:pagecheckerboard="0"
     showgrid="false"
     inkscape:zoom="25.75"
     inkscape:cx="15.980583"
     inkscape:cy="15.980583"
     inkscape:window-width="1920"
     inkscape:window-height="1013"
     inkscape:window-x="-9"
     inkscape:window-y="29"
     inkscape:window-maximized="1"
     inkscape:current-layer="svg4" />
  <path
     clip-rule="evenodd"
     d="M 16,4.3745578 C 16,3.6532897 15.133044,3.2863642 14.615355,3.7884709 L 8.029065,10.175139 C 7.697936,10.496223 7.254822,10.67579 6.793587,10.67579 H 5.3516187 c -0.9801481,0 -1.7747303,0.794583 -1.7747303,1.774731 v 7.09892 c 0,0.980184 0.7945645,1.774731 1.7747303,1.774731 H 6.793587 c 0.461235,0 0.904349,0.179602 1.235478,0.500651 l 6.58629,6.386722 C 15.133044,28.713616 16,28.346779 16,27.625351 Z M 12.144363,1.2403132 C 14.91351,-1.4448891 19.54946,0.51730587 19.54946,4.3745578 V 27.625351 c 0,3.857376 -4.63595,5.819518 -7.405097,3.134351 l -6.06995,-5.88607 H 5.3516187 c -2.9404618,0 -5.3241907,-2.38364 -5.3241907,-5.324191 v -7.09892 c 0,-2.9404617 2.3837289,-5.3241907 5.3241907,-5.3241907 H 6.074413 Z m 13.37103,2.7471582 c 0.753373,-0.6269945 1.872341,-0.5245038 2.499353,0.2288869 2.472199,2.970685 3.957826,7.1864147 3.957826,11.7822027 0,4.597439 -1.486514,8.814553 -3.960311,11.785451 -0.627189,0.753196 -1.746334,0.85542 -2.49953,0.22823 -0.753195,-0.627189 -0.85542,-1.746334 -0.22823,-2.49953 1.883166,-2.261538 3.13861,-5.648256 3.13861,-9.514151 0,-3.864333 -1.254556,-7.2501627 -3.136658,-9.5117016 -0.627012,-0.7533907 -0.524432,-1.8724113 0.22894,-2.499388 z m -3.316438,6.9334806 c 0.844772,-0.497085 1.932504,-0.215222 2.429606,0.62955 0.733318,1.246268 1.132455,2.825778 1.132455,4.449479 0,1.623701 -0.399137,3.203211 -1.132455,4.449426 -0.497102,0.844772 -1.584834,1.126776 -2.429606,0.629674 -0.844771,-0.497102 -1.126599,-1.584834 -0.629674,-2.429605 0.371273,-0.630917 0.642275,-1.572589 0.642275,-2.649495 0,-1.076906 -0.271002,-2.018578 -0.642275,-2.649495 -0.496925,-0.844771 -0.215097,-1.932468 0.629674,-2.429534 z"
     fill="#180027"
     fill-rule="evenodd"
     id="path2"
     style="stroke-width:1.77473" />
</svg>
