<?xml version="1.0" encoding="UTF-8" standalone="no"?>
<svg
   fill="none"
   height="32"
   viewBox="0 0 32 32"
   width="32"
   version="1.1"
   id="svg4"
   sodipodi:docname="face-news.svg"
   inkscape:export-filename="face-news.png"
   inkscape:export-xdpi="144"
   inkscape:export-ydpi="144"
   inkscape:version="1.1.1 (3bf5ae0d25, 2021-09-20)"
   xmlns:inkscape="http://www.inkscape.org/namespaces/inkscape"
   xmlns:sodipodi="http://sodipodi.sourceforge.net/DTD/sodipodi-0.dtd"
   xmlns="http://www.w3.org/2000/svg"
   xmlns:svg="http://www.w3.org/2000/svg">
  <defs
     id="defs8" />
  <sodipodi:namedview
     id="namedview6"
     pagecolor="#ffffff"
     bordercolor="#666666"
     borderopacity="1.0"
     inkscape:pageshadow="2"
     inkscape:pageopacity="0.0"
     inkscape:pagecheckerboard="0"
     showgrid="false"
     inkscape:zoom="25.75"
     inkscape:cx="15.980583"
     inkscape:cy="15.980583"
     inkscape:window-width="1920"
     inkscape:window-height="1013"
     inkscape:window-x="-9"
     inkscape:window-y="29"
     inkscape:window-maximized="1"
     inkscape:current-layer="svg4" />
  <path
     clip-rule="evenodd"
     d="M 7.111111,5.3333333 C 7.111111,2.3878222 9.498933,0 12.444444,0 H 26.666667 C 29.612267,0 32,2.3878222 32,5.3333333 V 25.650844 C 32,29.233422 28.983289,32 25.435911,32 H 5.3333333 C 1.9979022,32 0,28.715733 0,25.650844 V 10.666667 C 0,7.721156 2.3878044,5.3333333 5.3333333,5.3333333 Z m 3.555556,20.3175107 c 0,0.944534 -0.18976,1.909867 -0.549956,2.7936 h 15.3192 c 1.739378,0 3.008533,-1.326755 3.008533,-2.7936 V 5.3333333 c 0,-0.9818489 -0.795911,-1.7777777 -1.777777,-1.7777777 H 12.444444 c -0.981831,0 -1.777777,0.7959466 -1.777777,1.7777777 z m -5.3333337,2.7936 c 0.5919289,0 1.7777777,-0.809066 1.7777777,-2.7936 V 8.888889 H 5.3333333 c -0.9818311,0 -1.7777777,0.795947 -1.7777777,1.777778 v 14.984177 c 0,1.984534 1.1858488,2.7936 1.7777777,2.7936 z M 14.222222,8.888889 c 0,-0.981831 0.795911,-1.777778 1.777778,-1.777778 h 7.111111 c 0.981867,0 1.777778,0.795947 1.777778,1.777778 0,0.981831 -0.795911,1.777778 -1.777778,1.777778 H 16 c -0.981867,0 -1.777778,-0.795947 -1.777778,-1.777778 z m 0,5.333333 c 0,-0.981866 0.795911,-1.777778 1.777778,-1.777778 h 3.555556 c 0.981866,0 1.777777,0.795912 1.777777,1.777778 C 21.333333,15.204089 20.537422,16 19.555556,16 H 16 c -0.981867,0 -1.777778,-0.795911 -1.777778,-1.777778 z"
     fill="#180027"
     fill-rule="evenodd"
     id="path2"
     style="stroke-width:1.77778" />
</svg>
