<?xml version="1.0" encoding="UTF-8" standalone="no"?>
<svg
   fill="none"
   height="32"
   viewBox="0 0 32 32"
   width="32"
   version="1.1"
   id="svg4"
   sodipodi:docname="face-state.svg"
   inkscape:export-filename="face-state.png"
   inkscape:export-xdpi="192"
   inkscape:export-ydpi="192"
   inkscape:version="1.1.1 (3bf5ae0d25, 2021-09-20)"
   xmlns:inkscape="http://www.inkscape.org/namespaces/inkscape"
   xmlns:sodipodi="http://sodipodi.sourceforge.net/DTD/sodipodi-0.dtd"
   xmlns="http://www.w3.org/2000/svg"
   xmlns:svg="http://www.w3.org/2000/svg">
  <defs
     id="defs8">
    <style
       id="style922">.cls-1{fill:none;stroke:#000;stroke-linejoin:round;stroke-width:2px;}</style>
  </defs>
  <sodipodi:namedview
     id="namedview6"
     pagecolor="#ffffff"
     bordercolor="#666666"
     borderopacity="1.0"
     inkscape:pageshadow="2"
     inkscape:pageopacity="0.0"
     inkscape:pagecheckerboard="0"
     showgrid="false"
     inkscape:zoom="9.1039998"
     inkscape:cx="15.981986"
     inkscape:cy="15.981986"
     inkscape:window-width="1902"
     inkscape:window-height="1033"
     inkscape:window-x="0"
     inkscape:window-y="38"
     inkscape:window-maximized="0"
     inkscape:current-layer="svg4" />
  <path
     d="M 4.1454269,-4.7e-6 A 1.3913209,1.3913209 0 0 0 2.754106,1.3913162 V 30.609057 a 1.391321,1.391321 0 0 0 2.7826419,0 V 1.3913162 A 1.3913209,1.3913209 0 0 0 4.1454269,-4.7e-6 Z"
     id="path915"
     style="fill:#180027;fill-opacity:1;stroke-width:0.69566" />
  <path
     d="M 28.876158,8.8627097 C 25.168287,4.2991771 21.335198,4.6052677 17.947331,4.8696187 14.726423,5.1270132 12.180307,5.3287546 9.3976637,1.8991484 A 1.3913209,1.3913209 0 0 0 6.928069,2.7826372 V 14.608865 a 1.3913209,1.3913209 0 0 0 0.6539206,1.182623 6.3235538,6.3235538 0 0 0 3.4156934,1.015665 c 2.782641,0 5.426152,-1.822631 7.84705,-3.478303 3.575695,-2.455681 5.906157,-3.8400453 8.21575,-2.400028 A 1.3913209,1.3913209 0 0 0 28.876158,8.8418397 Z M 17.27254,11.026213 c -3.234821,2.191331 -5.474847,3.582652 -7.5618293,2.733947 V 6.0244149 c 2.9078613,2.0869828 5.8226783,1.8295878 8.4592323,1.6208898 1.766977,-0.139133 3.332213,-0.264352 4.869623,0.215655 -2.038285,0.605224 -3.965265,1.926979 -5.767026,3.1652533 z"
     id="path917"
     style="fill:#180027;fill-opacity:1;stroke-width:0.69566" />
  <path
     d="M 28.876158,20.972552 C 25.168287,16.409019 21.335198,16.71511 17.947331,16.979461 14.726423,17.236855 12.180307,17.438597 9.3976637,14.00899 A 1.3913209,1.3913209 0 0 0 6.928069,14.892479 v 11.826228 a 1.3913209,1.3913209 0 0 0 0.6539206,1.182623 6.3235538,6.3235538 0 0 0 3.4156934,1.015665 c 2.782641,0 5.426152,-1.822631 7.84705,-3.478303 3.575695,-2.455681 5.906157,-3.840045 8.21575,-2.400028 a 1.3913209,1.3913209 0 0 0 1.815675,-2.086982 z M 17.27254,23.136055 c -3.234821,2.191331 -5.474847,3.582652 -7.5618293,2.733947 v -7.735745 c 2.9078613,2.086983 5.8226783,1.829588 8.4592323,1.62089 1.766977,-0.139133 3.332213,-0.264352 4.869623,0.215655 -2.038285,0.605224 -3.965265,1.926979 -5.767026,3.165253 z"
     id="path1036"
     style="fill:#180027;fill-opacity:1;stroke-width:0.69566" />
</svg>
