<?xml version="1.0" encoding="UTF-8" standalone="no"?>
<svg
   fill="none"
   height="32"
   viewBox="0 0 32 32"
   width="32"
   version="1.1"
   id="svg6"
   sodipodi:docname="face-clock-sand.svg"
   inkscape:version="1.1.1 (3bf5ae0d25, 2021-09-20)"
   xmlns:inkscape="http://www.inkscape.org/namespaces/inkscape"
   xmlns:sodipodi="http://sodipodi.sourceforge.net/DTD/sodipodi-0.dtd"
   xmlns="http://www.w3.org/2000/svg"
   xmlns:svg="http://www.w3.org/2000/svg">
  <defs
     id="defs10" />
  <sodipodi:namedview
     id="namedview8"
     pagecolor="#ffffff"
     bordercolor="#666666"
     borderopacity="1.0"
     inkscape:pageshadow="2"
     inkscape:pageopacity="0.0"
     inkscape:pagecheckerboard="0"
     showgrid="false"
     inkscape:zoom="27.28125"
     inkscape:cx="15.981672"
     inkscape:cy="15.981672"
     inkscape:window-width="3840"
     inkscape:window-height="2080"
     inkscape:window-x="2293"
     inkscape:window-y="35"
     inkscape:window-maximized="1"
     inkscape:current-layer="svg6" />
  <g
     id="g829"
     transform="matrix(1.6,0,0,1.6,-3.2,-3.2)">
    <path
       d="m 13,6 h -2 v 1 c 0,0.55228 0.4477,1 1,1 0.5523,0 1,-0.44772 1,-1 z"
       fill="#180027"
       id="path2" />
    <path
       clip-rule="evenodd"
       d="m 6,2 v 2 h 1 v 3 c 0,2.76142 2.23858,5 5,5 -2.76142,0 -5,2.2386 -5,5 v 3 H 6 v 2 h 12 v -2 h -1 v -3 c 0,-2.7614 -2.2386,-5 -5,-5 2.7614,0 5,-2.23858 5,-5 V 4 h 1 V 2 Z m 3,2 h 6 v 3 c 0,1.65685 -1.3431,3 -3,3 C 10.3431,10 9,8.65685 9,7 Z m 0,13 v 3 h 6 v -3 c 0,-1.6569 -1.3431,-3 -3,-3 -1.6569,0 -3,1.3431 -3,3 z"
       fill="#180027"
       fill-rule="evenodd"
       id="path4" />
  </g>
</svg>
