<?xml version="1.0" encoding="UTF-8" standalone="no"?>
<svg
   fill="none"
   height="32"
   viewBox="0 0 32 32"
   width="32"
   version="1.1"
   id="svg4"
   sodipodi:docname="face-people.svg"
   inkscape:version="1.1.1 (3bf5ae0d25, 2021-09-20)"
   inkscape:export-filename="face-people.png"
   inkscape:export-xdpi="192"
   inkscape:export-ydpi="192"
   xmlns:inkscape="http://www.inkscape.org/namespaces/inkscape"
   xmlns:sodipodi="http://sodipodi.sourceforge.net/DTD/sodipodi-0.dtd"
   xmlns="http://www.w3.org/2000/svg"
   xmlns:svg="http://www.w3.org/2000/svg">
  <defs
     id="defs8" />
  <sodipodi:namedview
     id="namedview6"
     pagecolor="#ffffff"
     bordercolor="#666666"
     borderopacity="1.0"
     inkscape:pageshadow="2"
     inkscape:pageopacity="0.0"
     inkscape:pagecheckerboard="0"
     showgrid="false"
     inkscape:zoom="19.290757"
     inkscape:cx="16.043953"
     inkscape:cy="16.043953"
     inkscape:window-width="1893"
     inkscape:window-height="1365"
     inkscape:window-x="3510"
     inkscape:window-y="194"
     inkscape:window-maximized="0"
     inkscape:current-layer="svg4" />
  <path
     d="m 31.662084,15.192052 -3.427152,-3.427861 v 0 L 16.811092,0.33798509 a 1.142384,1.1426205 0 0 0 -1.622185,0 L 3.7650672,11.764191 v 0 l -3.42715198,3.427861 a 1.142384,1.1426205 0 0 0 0,1.622521 1.142384,1.1426205 0 0 0 1.62218518,0 L 3.4337758,15.329167 V 30.85738 A 1.142384,1.1426205 0 0 0 4.5761598,32 H 27.42384 a 1.142384,1.1426205 0 0 0 1.142384,-1.14262 V 15.329167 l 1.473675,1.485406 a 1.142384,1.1426205 0 0 0 1.622185,0 1.142384,1.1426205 0 0 0 0,-1.622521 z M 26.281456,29.714759 H 5.7185438 V 13.043926 L 16,2.7603404 26.281456,13.043926 Z"
     id="path938"
     style="fill:#180027;fill-opacity:1;stroke-width:1.1425" />
  <path
     id="path1045"
     style="color:#000000;fill:#180027;stroke:none;stroke-width:0.796987;-inkscape-stroke:none"
     d="M 15.978516 7.8164062 C 15.765399 7.8183185 15.554435 7.8311104 15.34375 7.8554688 C 14.781923 7.9204247 14.229859 8.0643811 13.710938 8.2792969 C 11.635257 9.13896 10.023437 11.15684 10.023438 13.802734 C 10.023438 17.099237 12.703497 19.779297 16 19.779297 C 18.645894 19.779297 20.663774 18.165524 21.523438 16.089844 C 22.383101 14.014163 22.097284 11.446892 20.226562 9.5761719 C 18.998902 8.3485114 17.470332 7.8030208 15.978516 7.8164062 z M 16 10.216797 C 17.614633 10.216797 18.795601 11.176905 19.314453 12.429688 C 19.833305 13.682469 19.676717 15.196329 18.535156 16.337891 C 17.393593 17.479453 15.879735 17.63604 14.626953 17.117188 C 13.374171 16.598336 12.414062 15.417368 12.414062 13.802734 C 12.414062 11.817281 14.014546 10.216797 16 10.216797 z M 21.544922 18.085938 C 21.235545 18.105238 20.960677 18.24687 20.757812 18.451172 C 20.554948 18.655476 20.415546 18.930728 20.398438 19.240234 C 20.381328 19.54974 20.506312 19.885092 20.765625 20.142578 C 22.052227 21.415557 22.773892 23.151015 22.773438 24.960938 C 22.773438 25.012937 22.69672 25.204956 22.414062 25.435547 C 22.131412 25.666138 21.680367 25.921309 21.085938 26.148438 C 19.897081 26.602694 18.144658 26.953125 16 26.953125 C 13.855341 26.953125 12.10292 26.602693 10.914062 26.148438 C 10.319634 25.92131 9.8685876 25.666138 9.5859375 25.435547 C 9.3032874 25.204956 9.2265625 25.012937 9.2265625 24.960938 C 9.2241525 23.163184 9.93508 21.436472 11.205078 20.164062 C 11.665328 19.701066 11.665328 18.941511 11.205078 18.478516 L 11.203125 18.476562 C 10.74013 18.016315 9.9805737 18.016315 9.5175781 18.476562 C 7.7922304 20.192303 6.8257877 22.527753 6.8339844 24.960938 C 6.8344563 25.723723 7.1787299 26.405623 7.7226562 26.955078 C 8.266957 27.504912 9.0103234 27.942845 9.875 28.292969 C 11.604353 28.993217 13.83242 29.34375 16 29.34375 C 18.167579 29.34375 20.395647 28.993217 22.125 28.292969 C 22.989676 27.942845 23.733042 27.504912 24.277344 26.955078 C 24.82127 26.405623 25.165545 25.723722 25.166016 24.960938 C 25.172016 22.512939 24.192371 20.164088 22.449219 18.445312 C 22.189906 18.187826 21.8543 18.066641 21.544922 18.085938 z " />
</svg>
