<?xml version="1.0" encoding="UTF-8" standalone="no"?>
<svg
   fill="none"
   height="32"
   viewBox="0 0 32 32"
   width="32"
   version="1.1"
   id="svg4"
   sodipodi:docname="face-gear.svg"
   inkscape:export-filename="face-gear.png"
   inkscape:export-xdpi="144"
   inkscape:export-ydpi="144"
   inkscape:version="1.1.1 (3bf5ae0d25, 2021-09-20)"
   xmlns:inkscape="http://www.inkscape.org/namespaces/inkscape"
   xmlns:sodipodi="http://sodipodi.sourceforge.net/DTD/sodipodi-0.dtd"
   xmlns="http://www.w3.org/2000/svg"
   xmlns:svg="http://www.w3.org/2000/svg">
  <defs
     id="defs8" />
  <sodipodi:namedview
     id="namedview6"
     pagecolor="#ffffff"
     bordercolor="#666666"
     borderopacity="1.0"
     inkscape:pageshadow="2"
     inkscape:pageopacity="0.0"
     inkscape:pagecheckerboard="0"
     showgrid="false"
     inkscape:zoom="25.75"
     inkscape:cx="15.980583"
     inkscape:cy="19.087379"
     inkscape:window-width="1920"
     inkscape:window-height="1013"
     inkscape:window-x="-9"
     inkscape:window-y="29"
     inkscape:window-maximized="1"
     inkscape:current-layer="svg4" />
  <path
     clip-rule="evenodd"
     d="m 13.80154,0.51900009 c 1.383869,-0.6920003 3.01305,-0.6920003 4.396919,0 L 28.03057,5.4350553 c 1.66556,0.8327306 2.717596,2.5349801 2.717596,4.3970511 V 22.167848 c 0,1.862038 -1.052036,3.564304 -2.717595,4.397084 l -9.832111,4.916055 c -1.383869,0.692017 -3.01305,0.692017 -4.396919,0 L 3.9693642,26.564932 C 2.3038867,25.732152 1.2518345,24.029886 1.2518345,22.167848 V 9.8321064 c 0,-1.862071 1.0520522,-3.5643205 2.7175297,-4.3970511 z m 2.931279,2.93136181 c -0.461289,-0.2306613 -1.00435,-0.2306613 -1.465639,0 L 5.4350533,8.3664174 C 4.8798832,8.6439944 4.5292046,9.2114214 4.5292046,9.8321064 V 22.167848 c 0,0.620734 0.3506786,1.188211 0.9058487,1.465804 l 9.8321267,4.916055 c 0.461289,0.230563 1.00435,0.230563 1.465639,0 l 9.832111,-4.916055 c 0.555186,-0.277593 0.905865,-0.84507 0.905865,-1.465804 V 9.8321064 c 0,-0.620685 -0.350679,-1.188112 -0.905865,-1.465689 z m -0.73282,9.2722691 c -1.810091,0 -3.27737,1.467279 -3.27737,3.277371 0,1.810091 1.467279,3.27737 3.27737,3.27737 1.810092,0 3.277371,-1.467279 3.277371,-3.27737 0,-1.810092 -1.467279,-3.277371 -3.277371,-3.277371 z m -6.5547395,3.277371 c 0,-3.620085 2.9346555,-6.5547406 6.5547395,-6.5547406 3.62002,0 6.554741,2.9346556 6.554741,6.5547406 0,3.620019 -2.934721,6.55474 -6.554741,6.55474 -3.620084,0 -6.5547395,-2.934721 -6.5547395,-6.55474 z"
     fill="#180027"
     fill-rule="evenodd"
     id="path2"
     style="stroke-width:1.63869" />
</svg>
