<?xml version="1.0" encoding="UTF-8" standalone="no"?>
<svg
   fill="none"
   height="32"
   viewBox="0 0 32 32"
   width="32"
   version="1.1"
   id="svg4"
   sodipodi:docname="face-wide-screen.svg"
   inkscape:version="1.1.1 (3bf5ae0d25, 2021-09-20)"
   xmlns:inkscape="http://www.inkscape.org/namespaces/inkscape"
   xmlns:sodipodi="http://sodipodi.sourceforge.net/DTD/sodipodi-0.dtd"
   xmlns="http://www.w3.org/2000/svg"
   xmlns:svg="http://www.w3.org/2000/svg">
  <defs
     id="defs8" />
  <sodipodi:namedview
     id="namedview6"
     pagecolor="#ffffff"
     bordercolor="#666666"
     borderopacity="1.0"
     inkscape:pageshadow="2"
     inkscape:pageopacity="0.0"
     inkscape:pagecheckerboard="0"
     showgrid="false"
     inkscape:zoom="27.28125"
     inkscape:cx="15.981672"
     inkscape:cy="15.981672"
     inkscape:window-width="3840"
     inkscape:window-height="2080"
     inkscape:window-x="2293"
     inkscape:window-y="35"
     inkscape:window-maximized="1"
     inkscape:current-layer="svg4" />
  <path
     clip-rule="evenodd"
     d="M 14.666667,21.333334 H 4 c -2.2091333,0 -4,-1.790801 -4,-4 V 10.666667 C 0,8.4575332 1.7908667,6.6666665 4,6.6666665 h 24 c 2.2092,0 4,1.7908667 4,4.0000005 v 6.666667 c 0,2.209199 -1.7908,4 -4,4 H 17.333333 v 1.333332 H 20 c 0.7364,0 1.333333,0.596933 1.333333,1.333334 0,0.736399 -0.596933,1.333334 -1.333333,1.333334 h -8 c -0.736387,0 -1.333333,-0.596935 -1.333333,-1.333334 0,-0.736401 0.596946,-1.333334 1.333333,-1.333334 h 2.666667 z M 4,9.3333332 h 24 c 0.7364,0 1.333333,0.59696 1.333333,1.3333338 v 6.666667 c 0,0.736399 -0.596933,1.333332 -1.333333,1.333332 H 4 c -0.7363733,0 -1.3333333,-0.596933 -1.3333333,-1.333332 V 10.666667 C 2.6666667,9.9302932 3.2636267,9.3333332 4,9.3333332 Z"
     fill="#180027"
     fill-rule="evenodd"
     id="path2"
     style="stroke-width:1.33333" />
</svg>
