<?xml version="1.0" encoding="UTF-8" standalone="no"?>
<svg
   fill="none"
   height="32"
   viewBox="0 0 32 32"
   width="32"
   version="1.1"
   id="svg12"
   sodipodi:docname="face-list-user.svg"
   inkscape:version="1.1.1 (3bf5ae0d25, 2021-09-20)"
   xmlns:inkscape="http://www.inkscape.org/namespaces/inkscape"
   xmlns:sodipodi="http://sodipodi.sourceforge.net/DTD/sodipodi-0.dtd"
   xmlns="http://www.w3.org/2000/svg"
   xmlns:svg="http://www.w3.org/2000/svg">
  <defs
     id="defs16" />
  <sodipodi:namedview
     id="namedview14"
     pagecolor="#ffffff"
     bordercolor="#666666"
     borderopacity="1.0"
     inkscape:pageshadow="2"
     inkscape:pageopacity="0.0"
     inkscape:pagecheckerboard="0"
     showgrid="false"
     inkscape:zoom="27.28125"
     inkscape:cx="15.981672"
     inkscape:cy="15.981672"
     inkscape:window-width="3840"
     inkscape:window-height="2080"
     inkscape:window-x="2293"
     inkscape:window-y="35"
     inkscape:window-maximized="1"
     inkscape:current-layer="svg12" />
  <g
     id="g838"
     transform="matrix(1.6,0,0,1.6,-3.2,-3.2)">
    <path
       clip-rule="evenodd"
       d="M 8,11 C 10.2091,11 12,9.20914 12,7 12,4.79086 10.2091,3 8,3 5.79086,3 4,4.79086 4,7 4,9.20914 5.79086,11 8,11 Z M 8,9 C 9.10457,9 10,8.10457 10,7 10,5.89543 9.10457,5 8,5 6.89543,5 6,5.89543 6,7 6,8.10457 6.89543,9 8,9 Z"
       fill="#180027"
       fill-rule="evenodd"
       id="path2" />
    <path
       d="m 11,14 c 0.5523,0 1,0.4477 1,1 v 6 h 2 v -6 c 0,-1.6569 -1.3431,-3 -3,-3 H 5 c -1.65685,0 -3,1.3431 -3,3 v 6 h 2 v -6 c 0,-0.5523 0.44772,-1 1,-1 z"
       fill="#180027"
       id="path4" />
    <path
       d="m 22,11 h -6 v 2 h 6 z"
       fill="#180027"
       id="path6" />
    <path
       d="m 16,15 h 6 v 2 h -6 z"
       fill="#180027"
       id="path8" />
    <path
       d="m 22,7 h -6 v 2 h 6 z"
       fill="#180027"
       id="path10" />
  </g>
</svg>
