<?xml version="1.0" encoding="UTF-8" standalone="no"?>
<svg
   fill="none"
   height="32"
   viewBox="0 0 32 32"
   width="32"
   version="1.1"
   id="svg6"
   sodipodi:docname="face-timer.svg"
   inkscape:version="1.1.1 (3bf5ae0d25, 2021-09-20)"
   xmlns:inkscape="http://www.inkscape.org/namespaces/inkscape"
   xmlns:sodipodi="http://sodipodi.sourceforge.net/DTD/sodipodi-0.dtd"
   xmlns="http://www.w3.org/2000/svg"
   xmlns:svg="http://www.w3.org/2000/svg">
  <defs
     id="defs10" />
  <sodipodi:namedview
     id="namedview8"
     pagecolor="#ffffff"
     bordercolor="#666666"
     borderopacity="1.0"
     inkscape:pageshadow="2"
     inkscape:pageopacity="0.0"
     inkscape:pagecheckerboard="0"
     showgrid="false"
     inkscape:zoom="27.28125"
     inkscape:cx="15.981672"
     inkscape:cy="15.981672"
     inkscape:window-width="3840"
     inkscape:window-height="2080"
     inkscape:window-x="2293"
     inkscape:window-y="35"
     inkscape:window-maximized="1"
     inkscape:current-layer="svg6" />
  <g
     id="g829"
     transform="matrix(1.7777778,0,0,1.7777778,-5.3333336,-5.3333336)">
    <path
       d="M 13,5.07089 C 16.3923,5.55612 19,8.47353 19,12 19,15.866 15.866,19 12,19 8.13401,19 5,15.866 5,12 5,9.96159 5.87128,8.12669 7.26175,6.84738 L 5.84658,5.43221 C 4.09461,7.0743 3,9.40932 3,12 c 0,4.9706 4.02944,9 9,9 4.9706,0 9,-4.0294 9,-9 0,-4.97056 -4.0294,-9 -9,-9 -0.338,0 -0.6717,0.01863 -1,0.05493 v 6.03058 h 2 z"
       fill="#180027"
       id="path2" />
    <path
       d="m 7.70711,8.70708 c -0.39053,0.39052 -0.39053,1.02369 0,1.41422 l 2.82839,2.8284 c 0.3906,0.3905 1.0237,0.3905 1.4142,0 0.3906,-0.3905 0.3906,-1.0237 0,-1.4142 L 9.12132,8.70708 c -0.39052,-0.39053 -1.02369,-0.39053 -1.41421,0 z"
       fill="#180027"
       id="path4" />
  </g>
</svg>
