<?xml version="1.0" encoding="UTF-8" standalone="no"?>
<svg
   fill="none"
   height="32"
   viewBox="0 0 32 32"
   width="32"
   version="1.1"
   id="svg4"
   sodipodi:docname="face-product-subgroup.svg"
   inkscape:version="1.1.1 (3bf5ae0d25, 2021-09-20)"
   inkscape:export-filename="face-product-subgroup.png"
   inkscape:export-xdpi="192"
   inkscape:export-ydpi="192"
   xmlns:inkscape="http://www.inkscape.org/namespaces/inkscape"
   xmlns:sodipodi="http://sodipodi.sourceforge.net/DTD/sodipodi-0.dtd"
   xmlns="http://www.w3.org/2000/svg"
   xmlns:svg="http://www.w3.org/2000/svg">
  <defs
     id="defs8" />
  <sodipodi:namedview
     id="namedview6"
     pagecolor="#ffffff"
     bordercolor="#666666"
     borderopacity="1.0"
     inkscape:pageshadow="2"
     inkscape:pageopacity="0.0"
     inkscape:pagecheckerboard="0"
     showgrid="false"
     inkscape:zoom="9.2428958"
     inkscape:cx="8.3307225"
     inkscape:cy="8.5471049"
     inkscape:window-width="3840"
     inkscape:window-height="2054"
     inkscape:window-x="2869"
     inkscape:window-y="-11"
     inkscape:window-maximized="1"
     inkscape:current-layer="svg4" />
  <path
     id="path1466"
     style="color:#000000;fill:#180027;fill-opacity:1;stroke-width:1.67447;stroke-linecap:round;stroke-linejoin:round;-inkscape-stroke:none"
     d="M 3.555555,13.074126 A 1.7779548,1.5773139 0 0 0 2.298612,13.536184 L 0.520835,15.11334 A 1.7779548,1.5773139 0 0 0 0.437505,15.214993 1.777777,1.5771562 0 0 0 0.277783,15.409057 1.7779548,1.5773139 0 0 0 0.14931,15.630845 1.777777,1.5771562 0 0 0 0.06598,15.864953 1.7779548,1.5773139 0 0 0 0.02431,16.095982 1.777777,1.5771562 0 0 0 0,16.228438 a 1.777777,1.5771562 0 0 0 0.02083,0.120136 1.7779548,1.5773139 0 0 0 0,0.117053 L 2.461801,30.660032 A 1.7779548,1.5773139 0 0 0 4.218744,32 h 23.565967 a 1.7779548,1.5773139 0 0 0 1.756944,-1.339968 l 2.437499,-14.194405 a 1.7779548,1.5773139 0 0 0 0.02083,-0.234109 1.7779548,1.5773139 0 0 0 0,-0.01232 1.7779548,1.5773139 0 0 0 -0.01389,-0.172499 1.7779548,1.5773139 0 0 0 0,-0.0092 1.777777,1.5771562 0 0 0 -0.0035,-0.02464 1.7779548,1.5773139 0 0 0 -0.03125,-0.150938 1.7779548,1.5773139 0 0 0 -0.0035,-0.01232 1.777777,1.5771562 0 0 0 -0.0035,-0.0154 1.7779548,1.5773139 0 0 0 -0.03819,-0.107815 1.7779548,1.5773139 0 0 0 -0.01736,-0.04312 1.777777,1.5771562 0 0 0 -0.03472,-0.07701 1.777777,1.5771562 0 0 0 -0.01389,-0.02772 1.7779548,1.5773139 0 0 0 -0.04514,-0.08317 1.777777,1.5771562 0 0 0 -0.01042,-0.01848 1.7779548,1.5773139 0 0 0 -0.09028,-0.129376 1.7779548,1.5773139 0 0 0 -0.01042,-0.0154 1.777777,1.5771562 0 0 0 -0.0382,-0.0462 1.7779548,1.5773139 0 0 0 -0.09375,-0.104735 1.777777,1.5771562 0 0 0 -0.07292,-0.06777 l -0.07629,-0.06468 -1.701388,-1.512467 a 1.7779548,1.5773139 0 0 0 -1.256944,-0.462059 z m 0.291666,4.731468 H 28.152767 L 26.256934,28.845688 H 5.746527 Z" />
  <path
     id="path921"
     style="color:#000000;fill:#180027;fill-opacity:1;stroke-width:0.498584;stroke-linejoin:round;-inkscape-stroke:none"
     d="M 9.1972656 5.5585938 A 0.66482494 0.6648692 0 0 0 8.9003906 5.6289062 L 2.2519531 8.9511719 A 0.66482494 0.6648692 0 0 0 2.2265625 8.9707031 A 0.66475844 0.66480271 0 0 0 2.0722656 9.0878906 A 0.66482494 0.6648692 0 0 0 2.0546875 9.1035156 A 0.66475844 0.66480271 0 0 0 1.9550781 9.2480469 A 0.66475844 0.66480271 0 0 0 1.9433594 9.2851562 A 0.66482494 0.6648692 0 0 0 1.9199219 9.3574219 A 0.66475844 0.66480271 0 0 0 1.8925781 9.5078125 A 0.66482494 0.6648692 0 0 0 1.8847656 9.546875 L 1.8847656 14.875 L 3.2148438 14.875 L 3.2148438 10.621094 L 5.5664062 11.798828 L 8.5332031 13.28125 L 8.5332031 14.875 L 9.8613281 14.875 L 9.8613281 13.28125 L 15.179688 10.621094 L 15.179688 14.875 L 16.509766 14.875 L 16.509766 9.546875 A 0.66482494 0.6648692 0 0 0 16.509766 9.5175781 A 0.66475844 0.66480271 0 0 0 16.507812 9.5117188 A 0.66482494 0.6648692 0 0 0 16.501953 9.4472656 A 0.66475844 0.66480271 0 0 0 16.5 9.4394531 A 0.66482494 0.6648692 0 0 0 16.492188 9.3964844 A 0.66475844 0.66480271 0 0 0 16.480469 9.3496094 A 0.66482494 0.6648692 0 0 0 16.476562 9.3398438 A 0.66475844 0.66480271 0 0 0 16.457031 9.2851562 A 0.66482494 0.6648692 0 0 0 16.453125 9.2792969 A 0.66475844 0.66480271 0 0 0 16.439453 9.2480469 A 0.66475844 0.66480271 0 0 0 16.435547 9.2421875 A 0.66482494 0.6648692 0 0 0 16.345703 9.109375 A 0.66475844 0.66480271 0 0 0 16.335938 9.0996094 A 0.66482494 0.6648692 0 0 0 16.210938 8.9921875 A 0.66475844 0.66480271 0 0 0 16.208984 8.9902344 A 0.66482494 0.6648692 0 0 0 16.142578 8.9511719 L 9.4960938 5.6289062 A 0.66482494 0.6648692 0 0 0 9.1972656 5.5585938 z M 9.1972656 6.9648438 L 11.035156 7.8847656 L 5.875 10.464844 L 4.0371094 9.546875 L 9.1972656 6.9648438 z M 12.521484 8.6269531 L 14.359375 9.546875 L 9.1972656 12.126953 L 7.3613281 11.208984 L 12.521484 8.6269531 z " />
  <path
     id="path822"
     style="color:#000000;fill:#180027;fill-opacity:1;stroke-width:0.498584;stroke-linejoin:round;-inkscape-stroke:none"
     d="M 22.802734 5.5585938 A 0.66482494 0.6648692 0 0 0 22.503906 5.6289062 L 15.857422 8.9511719 A 0.66482494 0.6648692 0 0 0 15.832031 8.9707031 A 0.66475844 0.66480271 0 0 0 15.677734 9.0878906 A 0.66482494 0.6648692 0 0 0 15.660156 9.1035156 A 0.66475844 0.66480271 0 0 0 15.560547 9.2480469 A 0.66475844 0.66480271 0 0 0 15.548828 9.2851562 A 0.66482494 0.6648692 0 0 0 15.525391 9.3574219 A 0.66475844 0.66480271 0 0 0 15.498047 9.5078125 A 0.66482494 0.6648692 0 0 0 15.490234 9.546875 L 15.490234 14.875 L 16.818359 14.875 L 16.818359 10.621094 L 19.171875 11.798828 L 22.138672 13.28125 L 22.138672 14.875 L 23.466797 14.875 L 23.466797 13.28125 L 28.785156 10.621094 L 28.785156 14.875 L 30.115234 14.875 L 30.115234 9.546875 A 0.66482494 0.6648692 0 0 0 30.113281 9.5175781 A 0.66475844 0.66480271 0 0 0 30.113281 9.5117188 A 0.66482494 0.6648692 0 0 0 30.107422 9.4472656 A 0.66475844 0.66480271 0 0 0 30.105469 9.4394531 A 0.66482494 0.6648692 0 0 0 30.097656 9.3964844 A 0.66475844 0.66480271 0 0 0 30.083984 9.3496094 A 0.66482494 0.6648692 0 0 0 30.080078 9.3398438 A 0.66475844 0.66480271 0 0 0 30.060547 9.2851562 A 0.66482494 0.6648692 0 0 0 30.058594 9.2792969 A 0.66475844 0.66480271 0 0 0 30.044922 9.2480469 A 0.66475844 0.66480271 0 0 0 30.039062 9.2421875 A 0.66482494 0.6648692 0 0 0 29.949219 9.109375 A 0.66475844 0.66480271 0 0 0 29.939453 9.0996094 A 0.66482494 0.6648692 0 0 0 29.816406 8.9921875 A 0.66475844 0.66480271 0 0 0 29.8125 8.9902344 A 0.66482494 0.6648692 0 0 0 29.746094 8.9511719 L 23.099609 5.6289062 A 0.66482494 0.6648692 0 0 0 22.802734 5.5585938 z M 22.802734 6.9648438 L 24.638672 7.8847656 L 19.478516 10.464844 L 17.640625 9.546875 L 22.802734 6.9648438 z M 26.126953 8.6269531 L 27.962891 9.546875 L 22.802734 12.126953 L 20.964844 11.208984 L 26.126953 8.6269531 z " />
  <path
     id="path830"
     style="color:#000000;fill:#180027;fill-opacity:1;stroke-width:0.498584;stroke-linejoin:round;-inkscape-stroke:none"
     d="M 15.927734 0 A 0.66482494 0.6648692 0 0 0 15.628906 0.0703125 L 8.9824219 3.3945312 A 0.66482494 0.6648692 0 0 0 8.9570312 3.4121094 A 0.66475844 0.66480271 0 0 0 8.8027344 3.5292969 A 0.66482494 0.6648692 0 0 0 8.7851562 3.5449219 A 0.66475844 0.66480271 0 0 0 8.6855469 3.6914062 A 0.66475844 0.66480271 0 0 0 8.6738281 3.7265625 A 0.66482494 0.6648692 0 0 0 8.6503906 3.8007812 A 0.66475844 0.66480271 0 0 0 8.6230469 3.9492188 A 0.66482494 0.6648692 0 0 0 8.6152344 3.9882812 L 8.6152344 5.8496094 L 9.9433594 6.5234375 L 9.9433594 5.0644531 L 12.296875 6.2402344 L 15.263672 7.7226562 L 15.263672 9.2207031 L 15.804688 9.4960938 L 16.591797 9.1308594 L 16.591797 7.7226562 L 21.910156 5.0644531 L 21.910156 6.6660156 L 23.240234 6.0488281 L 23.240234 3.9882812 A 0.66482494 0.6648692 0 0 0 23.238281 3.9589844 A 0.66475844 0.66480271 0 0 0 23.238281 3.9570312 A 0.66475844 0.66480271 0 0 0 23.238281 3.9550781 A 0.66475844 0.66480271 0 0 0 23.238281 3.953125 A 0.66482494 0.6648692 0 0 0 23.232422 3.8886719 A 0.66475844 0.66480271 0 0 0 23.230469 3.8808594 A 0.66482494 0.6648692 0 0 0 23.222656 3.8378906 A 0.66475844 0.66480271 0 0 0 23.208984 3.7910156 A 0.66482494 0.6648692 0 0 0 23.205078 3.7832031 A 0.66475844 0.66480271 0 0 0 23.185547 3.7285156 A 0.66482494 0.6648692 0 0 0 23.183594 3.7207031 A 0.66475844 0.66480271 0 0 0 23.169922 3.6914062 A 0.66475844 0.66480271 0 0 0 23.164062 3.6835938 A 0.66482494 0.6648692 0 0 0 23.074219 3.5507812 A 0.66475844 0.66480271 0 0 0 23.064453 3.5410156 A 0.66482494 0.6648692 0 0 0 22.941406 3.4335938 A 0.66475844 0.66480271 0 0 0 22.9375 3.4316406 A 0.66482494 0.6648692 0 0 0 22.871094 3.3945312 L 16.224609 0.0703125 A 0.66482494 0.6648692 0 0 0 15.927734 0 z M 15.927734 1.40625 L 17.763672 2.3261719 L 12.603516 4.90625 L 10.765625 3.9882812 L 15.927734 1.40625 z M 19.251953 3.0703125 L 21.087891 3.9882812 L 15.927734 6.5683594 L 14.089844 5.6503906 L 19.251953 3.0703125 z " />
</svg>
