<?xml version="1.0" encoding="UTF-8" standalone="no"?>
<svg
   fill="none"
   height="32"
   viewBox="0 0 32 32"
   width="32"
   version="1.1"
   id="svg4"
   sodipodi:docname="face-mic-disable.svg"
   inkscape:export-filename="face-mic-disable.png"
   inkscape:export-xdpi="144"
   inkscape:export-ydpi="144"
   inkscape:version="1.1.1 (3bf5ae0d25, 2021-09-20)"
   xmlns:inkscape="http://www.inkscape.org/namespaces/inkscape"
   xmlns:sodipodi="http://sodipodi.sourceforge.net/DTD/sodipodi-0.dtd"
   xmlns="http://www.w3.org/2000/svg"
   xmlns:svg="http://www.w3.org/2000/svg">
  <defs
     id="defs8" />
  <sodipodi:namedview
     id="namedview6"
     pagecolor="#ffffff"
     bordercolor="#666666"
     borderopacity="1.0"
     inkscape:pageshadow="2"
     inkscape:pageopacity="0.0"
     inkscape:pagecheckerboard="0"
     showgrid="false"
     inkscape:zoom="25.75"
     inkscape:cx="15.980583"
     inkscape:cy="15.980583"
     inkscape:window-width="1920"
     inkscape:window-height="1013"
     inkscape:window-x="-9"
     inkscape:window-y="29"
     inkscape:window-maximized="1"
     inkscape:current-layer="svg4" />
  <path
     clip-rule="evenodd"
     d="m 16.00002,3.2 c -0.94752,0 -1.79728,0.40984 -2.3856,1.067056 -0.58928,0.658448 -1.600784,0.71448 -2.259232,0.125152 C 10.69674,3.802896 10.640708,2.791376 11.230036,2.132944 12.399636,0.82616 14.10434,0 16.00002,0 c 3.53456,0 6.4,2.865376 6.4,6.4 v 6.4 c 0,0.88368 -0.71632,1.6 -1.6,1.6 -0.88368,0 -1.6,-0.71632 -1.6,-1.6 V 6.4 c 0,-1.767312 -1.43264,-3.2 -3.2,-3.2 z M 2.068644,2.068624 c 0.624848,-0.624832 1.637904,-0.624832 2.262752,0 L 29.93138,27.66864 c 0.6248,0.6248 0.6248,1.63792 0,2.26272 -0.6248,0.6248 -1.63792,0.6248 -2.26272,0 l -3.84656,-3.8464 c -1.76288,1.38688 -3.89488,2.31856 -6.22208,2.61408 V 30.4 c 0,0.88368 -0.71632,1.6 -1.6,1.6 -0.88368,0 -1.6,-0.71632 -1.6,-1.6 v -1.70048 c -6.336912,-0.80256 -11.2,-6.3104 -11.2,-12.92816 V 14.4 c 0,-0.88368 0.716352,-1.6 1.6,-1.6 0.883648,0 1.6,0.71632 1.6,1.6 v 1.37136 c 0,5.45888 4.328384,9.82864 9.6,9.82864 2.06048,0 3.97072,-0.66352 5.53808,-1.7992 L 19.2509,21.5136 C 18.2981,22.07648 17.18578,22.4 16.00002,22.4 c -3.534624,0 -6.4,-2.86544 -6.4,-6.4 v -4 c 0,-0.04442 0.0018,-0.0884 0.0054,-0.131904 L 2.068644,4.331376 c -0.624832,-0.624848 -0.624832,-1.637904 0,-2.262752 z M 12.80002,15.06272 V 16 c 0,1.76736 1.43264,3.2 3.2,3.2 0.28704,0 0.56496,-0.0376 0.82912,-0.10816 z m 14.4,-2.26272 c 0.88368,0 1.6,0.71632 1.6,1.6 v 1.37136 c 0,0.70608 -0.05536,1.40016 -0.16208,2.07776 -0.1376,0.8728 -0.95664,1.46896 -1.8296,1.33136 -0.8728,-0.1376 -1.46896,-0.95664 -1.33136,-1.8296 0.0808,-0.51328 0.12304,-1.0408 0.12304,-1.57952 V 14.4 c 0,-0.88368 0.71632,-1.6 1.6,-1.6 z"
     fill="#180027"
     fill-rule="evenodd"
     id="path2"
     style="stroke-width:1.6" />
</svg>
