<?xml version="1.0" encoding="UTF-8" standalone="no"?>
<svg
   fill="none"
   height="32"
   viewBox="0 0 32 32"
   width="32"
   version="1.1"
   id="svg4"
   sodipodi:docname="face-split-not-view.svg"
   inkscape:version="1.1.1 (3bf5ae0d25, 2021-09-20)"
   inkscape:export-filename="face-split-not-view.png"
   inkscape:export-xdpi="95.999535"
   inkscape:export-ydpi="95.999535"
   xmlns:inkscape="http://www.inkscape.org/namespaces/inkscape"
   xmlns:sodipodi="http://sodipodi.sourceforge.net/DTD/sodipodi-0.dtd"
   xmlns="http://www.w3.org/2000/svg"
   xmlns:svg="http://www.w3.org/2000/svg">
  <defs
     id="defs8">
    <pattern
       id="EMFhbasepattern"
       patternUnits="userSpaceOnUse"
       width="6"
       height="6"
       x="0"
       y="0" />
  </defs>
  <sodipodi:namedview
     id="namedview6"
     pagecolor="#ffffff"
     bordercolor="#666666"
     borderopacity="1.0"
     inkscape:pageshadow="2"
     inkscape:pageopacity="0.0"
     inkscape:pagecheckerboard="0"
     showgrid="false"
     inkscape:zoom="22.627417"
     inkscape:cx="14.407301"
     inkscape:cy="19.578019"
     inkscape:window-width="3840"
     inkscape:window-height="2080"
     inkscape:window-x="2293"
     inkscape:window-y="35"
     inkscape:window-maximized="1"
     inkscape:current-layer="svg4"
     showguides="true"
     inkscape:guide-bbox="true" />
  <path
     id="path1031"
     style="fill:#180027;stroke-width:0.0193051;fill-opacity:1"
     d="M 6.9765625 0.001953125 C 5.0938101 0.004509375 4.2725081 0.009563125 4.2050781 0.017578125 C 2.0400881 0.27494813 0.30964063 2.0134229 0.025390625 4.2167969 C -0.001709371 4.4241399 -0.003046875 5.6731139 0.001953125 16.109375 L 0.0078125 27.769531 L 0.05078125 27.992188 C 0.14928125 28.499634 0.27216565 28.871926 0.47851562 29.296875 C 0.95009564 30.268023 1.7038594 31.032087 2.6621094 31.511719 C 3.0864594 31.724121 3.4687975 31.851736 3.9921875 31.953125 L 4.2148438 31.996094 L 15.921875 32 C 22.811365 32.00179 27.694256 31.994665 27.785156 31.984375 C 28.810006 31.868319 29.836664 31.368607 30.589844 30.617188 C 31.286214 29.922428 31.742366 29.064956 31.941406 28.072266 L 31.994141 27.808594 L 31.998047 16.089844 C 32.002547 5.810087 31.999809 4.3460955 31.974609 4.1640625 C 31.782299 2.7725135 31.01597 1.5524424 29.84375 0.77148438 C 29.31841 0.42150238 28.760945 0.19624513 28.046875 0.048828125 L 27.84375 0.0078125 L 16.115234 0.001953125 C 11.803275 -0.000166875 8.8593149 -0.000603125 6.9765625 0.001953125 z M 9.5449219 3.203125 L 11.328125 3.203125 L 14.398438 3.203125 L 17.601562 3.203125 L 21.03125 3.203125 L 22.445312 3.203125 C 25.783463 3.203125 27.33506 3.2084064 27.4375 3.2226562 C 27.95541 3.2946975 28.406898 3.6229804 28.642578 4.0996094 C 28.824728 4.4678834 28.8065 3.8775999 28.8125 9.4628906 L 28.816406 12.140625 L 28.818359 12.140625 L 28.818359 14.400391 L 28.818359 17.605469 L 28.818359 23.375 L 28.810547 23.375 C 28.806498 26.8274 28.802883 27.478384 28.773438 27.576172 C 28.679997 27.886818 28.577763 28.068534 28.376953 28.283203 C 28.153923 28.521629 27.905636 28.669791 27.603516 28.744141 C 27.462736 28.778761 27.270037 28.77995 22.529297 28.78125 L 21.6875 28.78125 L 21.6875 28.783203 L 17.601562 28.783203 L 14.396484 28.783203 L 11.078125 28.783203 L 9.4785156 28.783203 C 4.6312656 28.783203 4.55671 28.782051 4.40625 28.744141 C 4.20859 28.694405 3.9367731 28.560777 3.7832031 28.435547 C 3.5295831 28.228724 3.328675 27.912959 3.234375 27.576172 L 3.1914062 27.421875 L 3.1855469 22.513672 L 3.1855469 21.640625 L 3.1816406 21.640625 L 3.1816406 17.605469 L 3.1816406 14.400391 L 3.1816406 10.515625 L 3.1855469 10.515625 L 3.1875 9.4824219 L 3.1933594 4.5644531 L 3.234375 4.421875 C 3.388715 3.894392 3.7524388 3.4900229 4.2304688 3.3105469 C 4.5301088 3.1980679 4.2582319 3.203125 9.5449219 3.203125 z " />
</svg>
