<?xml version="1.0" encoding="UTF-8" standalone="no"?>
<svg
   fill="none"
   height="32"
   viewBox="0 0 32 32"
   width="32"
   version="1.1"
   id="svg8"
   sodipodi:docname="face-add-user.svg"
   inkscape:version="1.1.1 (3bf5ae0d25, 2021-09-20)"
   xmlns:inkscape="http://www.inkscape.org/namespaces/inkscape"
   xmlns:sodipodi="http://sodipodi.sourceforge.net/DTD/sodipodi-0.dtd"
   xmlns="http://www.w3.org/2000/svg"
   xmlns:svg="http://www.w3.org/2000/svg">
  <defs
     id="defs12" />
  <sodipodi:namedview
     id="namedview10"
     pagecolor="#ffffff"
     bordercolor="#666666"
     borderopacity="1.0"
     inkscape:pageshadow="2"
     inkscape:pageopacity="0.0"
     inkscape:pagecheckerboard="0"
     showgrid="false"
     inkscape:zoom="27.28125"
     inkscape:cx="15.981672"
     inkscape:cy="19.537228"
     inkscape:window-width="3840"
     inkscape:window-height="2080"
     inkscape:window-x="2293"
     inkscape:window-y="35"
     inkscape:window-maximized="1"
     inkscape:current-layer="svg8" />
  <g
     id="g834"
     transform="translate(-2,-1.4)">
    <path
       clip-rule="evenodd"
       d="M 11.6,15.8 C 15.13456,15.8 18,12.934624 18,9.4 18,5.865376 15.13456,3 11.6,3 8.065376,3 5.2,5.865376 5.2,9.4 c 0,3.534624 2.865376,6.4 6.4,6.4 z m 0,-3.2 c 1.767312,0 3.2,-1.432688 3.2,-3.2 0,-1.767312 -1.432688,-3.2 -3.2,-3.2 -1.767312,0 -3.2,1.432688 -3.2,3.2 0,1.767312 1.432688,3.2 3.2,3.2 z"
       fill="#180027"
       fill-rule="evenodd"
       id="path2"
       style="stroke-width:1.6" />
    <path
       d="m 16.4,20.6 c 0.88368,0 1.6,0.71632 1.6,1.6 v 9.6 h 3.2 v -9.6 c 0,-2.65104 -2.14896,-4.8 -4.8,-4.8 H 6.8 C 4.14904,17.4 2,19.54896 2,22.2 v 9.6 h 3.2 v -9.6 c 0,-0.88368 0.716352,-1.6 1.6,-1.6 z"
       fill="#180027"
       id="path4"
       style="stroke-width:1.6" />
    <path
       d="m 27.6,9.4 h 3.2 v 3.2 H 34 v 3.2 H 30.8 V 19 h -3.2 v -3.2 h -3.2 v -3.2 h 3.2 z"
       fill="#180027"
       id="path6"
       style="stroke-width:1.6" />
  </g>
</svg>
