<?xml version="1.0" encoding="UTF-8" standalone="no"?>
<svg
   fill="none"
   height="32"
   viewBox="0 0 32 32"
   width="32"
   version="1.1"
   id="svg4"
   sodipodi:docname="face-image.svg"
   inkscape:export-filename="face-image.png"
   inkscape:export-xdpi="144"
   inkscape:export-ydpi="144"
   inkscape:version="1.1.1 (3bf5ae0d25, 2021-09-20)"
   xmlns:inkscape="http://www.inkscape.org/namespaces/inkscape"
   xmlns:sodipodi="http://sodipodi.sourceforge.net/DTD/sodipodi-0.dtd"
   xmlns="http://www.w3.org/2000/svg"
   xmlns:svg="http://www.w3.org/2000/svg">
  <defs
     id="defs8" />
  <sodipodi:namedview
     id="namedview6"
     pagecolor="#ffffff"
     bordercolor="#666666"
     borderopacity="1.0"
     inkscape:pageshadow="2"
     inkscape:pageopacity="0.0"
     inkscape:pagecheckerboard="0"
     showgrid="false"
     inkscape:zoom="25.75"
     inkscape:cx="15.980583"
     inkscape:cy="15.980583"
     inkscape:window-width="1920"
     inkscape:window-height="1013"
     inkscape:window-x="-9"
     inkscape:window-y="29"
     inkscape:window-maximized="1"
     inkscape:current-layer="svg4" />
  <path
     clip-rule="evenodd"
     d="m 5.3333333,4.4444446 c -0.9818311,0 -1.7777777,0.7959466 -1.7777777,1.7777777 V 15.856711 L 7.692338,12.5472 c 1.768409,-1.414684 4.31776,-1.273493 5.91904,0.327822 l 5.164444,5.164445 2.354667,-1.962311 c 1.666133,-1.388445 4.091022,-1.371556 5.7376,0.03982 l 1.576355,1.351113 V 6.2222223 c 0,-0.9818311 -0.795911,-1.7777777 -1.777777,-1.7777777 z m 23.1111107,17.7064884 -3.890133,-3.3344 c -0.329422,-0.282311 -0.8144,-0.285688 -1.147555,-0.008 l -3.601956,3.0016 c -0.706311,0.588623 -1.745067,0.541512 -2.3952,-0.108622 l -6.312302,-6.312355 c -0.320267,-0.320178 -0.830151,-0.348445 -1.183822,-0.06542 l -6.3579204,5.086223 v 5.367822 c 0,0.981867 0.7959466,1.777778 1.7777777,1.777778 H 26.666667 c 0.981866,0 1.777777,-0.795911 1.777777,-1.777778 z M 0,6.2222223 C 0,3.2767112 2.3878222,0.888889 5.3333333,0.888889 H 26.666667 C 29.612267,0.888889 32,3.2767112 32,6.2222223 V 25.777778 c 0,2.9456 -2.387733,5.333333 -5.333333,5.333333 H 5.3333333 C 2.3878222,31.111111 0,28.723378 0,25.777778 Z"
     fill="#180027"
     fill-rule="evenodd"
     id="path2"
     style="stroke-width:1.77778" />
</svg>
