<?xml version="1.0" encoding="UTF-8" standalone="no"?>
<svg
   fill="none"
   height="32"
   viewBox="0 0 32 32"
   width="32"
   version="1.1"
   id="svg4"
   sodipodi:docname="face-contact.svg"
   inkscape:export-filename="face-contact.png"
   inkscape:export-xdpi="144"
   inkscape:export-ydpi="144"
   inkscape:version="1.1.1 (3bf5ae0d25, 2021-09-20)"
   xmlns:inkscape="http://www.inkscape.org/namespaces/inkscape"
   xmlns:sodipodi="http://sodipodi.sourceforge.net/DTD/sodipodi-0.dtd"
   xmlns="http://www.w3.org/2000/svg"
   xmlns:svg="http://www.w3.org/2000/svg">
  <defs
     id="defs8" />
  <sodipodi:namedview
     id="namedview6"
     pagecolor="#ffffff"
     bordercolor="#666666"
     borderopacity="1.0"
     inkscape:pageshadow="2"
     inkscape:pageopacity="0.0"
     inkscape:pagecheckerboard="0"
     showgrid="false"
     inkscape:zoom="25.75"
     inkscape:cx="15.980583"
     inkscape:cy="15.980583"
     inkscape:window-width="1920"
     inkscape:window-height="1013"
     inkscape:window-x="-9"
     inkscape:window-y="29"
     inkscape:window-maximized="1"
     inkscape:current-layer="svg4" />
  <path
     clip-rule="evenodd"
     d="M 8.8,3.2 C 7.916352,3.2 7.2,3.916352 7.2,4.8 8.083648,4.8 8.8,5.516352 8.8,6.4 8.8,7.283648 8.083648,8 7.2,8 v 3.2 c 0.883648,0 1.6,0.716352 1.6,1.6 0,0.88368 -0.716352,1.6 -1.6,1.6 v 3.2 c 0.883648,0 1.6,0.71632 1.6,1.6 0,0.88368 -0.716352,1.6 -1.6,1.6 V 24 c 0.883648,0 1.6,0.71632 1.6,1.6 0,0.88368 -0.716352,1.6 -1.6,1.6 0,0.88368 0.716352,1.6 1.6,1.6 h 16 c 0.88368,0 1.6,-0.71632 1.6,-1.6 V 4.8 C 26.4,3.916352 25.68368,3.2 24.8,3.2 Z M 4,24 c -0.883648,0 -1.6,0.71632 -1.6,1.6 0,0.88368 0.716352,1.6 1.6,1.6 0,2.65104 2.14904,4.8 4.8,4.8 h 16 c 2.65104,0 4.8,-2.14896 4.8,-4.8 V 4.8 C 29.6,2.14904 27.45104,0 24.8,0 H 8.8 C 6.14904,0 4,2.14904 4,4.8 3.116352,4.8 2.4,5.516352 2.4,6.4 2.4,7.283648 3.116352,8 4,8 v 3.2 c -0.883648,0 -1.6,0.716352 -1.6,1.6 0,0.88368 0.716352,1.6 1.6,1.6 v 3.2 c -0.883648,0 -1.6,0.71632 -1.6,1.6 0,0.88368 0.716352,1.6 1.6,1.6 z M 16.8,11.2 c -0.88368,0 -1.6,0.716352 -1.6,1.6 0,0.88368 0.71632,1.6 1.6,1.6 0.88368,0 1.6,-0.71632 1.6,-1.6 0,-0.883648 -0.71632,-1.6 -1.6,-1.6 z m 3.84048,4.47984 C 21.24304,14.8776 21.6,13.88048 21.6,12.8 21.6,10.14904 19.45104,8 16.8,8 14.14896,8 12,10.14904 12,12.8 c 0,1.08048 0.357024,2.0776 0.959552,2.87984 C 11.405312,16.84752 10.4,18.7064 10.4,20.8 c 0,0.88368 0.716352,1.6 1.6,1.6 0.883648,0 1.6,-0.71632 1.6,-1.6 0,-1.76736 1.43264,-3.2 3.2,-3.2 1.76736,0 3.2,1.43264 3.2,3.2 0,0.88368 0.71632,1.6 1.6,1.6 0.88368,0 1.6,-0.71632 1.6,-1.6 0,-2.0936 -1.00528,-3.95248 -2.55952,-5.12016 z"
     fill="#180027"
     fill-rule="evenodd"
     id="path2"
     style="stroke-width:1.6" />
</svg>
