<?xml version="1.0" encoding="UTF-8" standalone="no"?>
<svg
   fill="none"
   height="32"
   viewBox="0 0 32 32"
   width="32"
   version="1.1"
   id="svg6"
   sodipodi:docname="face-shortcut.svg"
   inkscape:version="1.1.1 (3bf5ae0d25, 2021-09-20)"
   xmlns:inkscape="http://www.inkscape.org/namespaces/inkscape"
   xmlns:sodipodi="http://sodipodi.sourceforge.net/DTD/sodipodi-0.dtd"
   xmlns="http://www.w3.org/2000/svg"
   xmlns:svg="http://www.w3.org/2000/svg">
  <defs
     id="defs10" />
  <sodipodi:namedview
     id="namedview8"
     pagecolor="#ffffff"
     bordercolor="#666666"
     borderopacity="1.0"
     inkscape:pageshadow="2"
     inkscape:pageopacity="0.0"
     inkscape:pagecheckerboard="0"
     showgrid="false"
     inkscape:zoom="27.28125"
     inkscape:cx="15.981672"
     inkscape:cy="15.981672"
     inkscape:window-width="3840"
     inkscape:window-height="2080"
     inkscape:window-x="2293"
     inkscape:window-y="35"
     inkscape:window-maximized="1"
     inkscape:current-layer="svg6" />
  <g
     id="g829"
     transform="matrix(1.7777778,0,0,1.7777778,-5.3333336,-5.3333336)">
    <path
       d="m 16.1925,7.70711 c -0.3906,-0.39053 -1.0237,-0.39053 -1.4143,0 L 7.70718,14.7782 c -0.39053,0.3905 -0.39053,1.0237 0,1.4142 0.39052,0.3905 1.02369,0.3905 1.41421,0 L 16.1925,9.12132 c 0.3905,-0.39052 0.3905,-1.02369 0,-1.41421 z"
       fill="#180027"
       id="path2" />
    <path
       clip-rule="evenodd"
       d="M 3,6 C 3,4.34315 4.34315,3 6,3 h 12 c 1.6569,0 3,1.34315 3,3 v 12 c 0,1.6569 -1.3431,3 -3,3 H 6 C 4.34315,21 3,19.6569 3,18 Z M 6,5 h 12 c 0.5523,0 1,0.44772 1,1 v 12 c 0,0.5523 -0.4477,1 -1,1 H 6 C 5.44772,19 5,18.5523 5,18 V 6 C 5,5.44772 5.44772,5 6,5 Z"
       fill="#180027"
       fill-rule="evenodd"
       id="path4" />
  </g>
</svg>
