<?xml version="1.0" encoding="UTF-8" standalone="no"?>
<svg
   fill="none"
   height="32"
   viewBox="0 0 32 32"
   width="32"
   version="1.1"
   id="svg4"
   sodipodi:docname="face-bag-shopping.svg"
   inkscape:version="1.1.1 (3bf5ae0d25, 2021-09-20)"
   xmlns:inkscape="http://www.inkscape.org/namespaces/inkscape"
   xmlns:sodipodi="http://sodipodi.sourceforge.net/DTD/sodipodi-0.dtd"
   xmlns="http://www.w3.org/2000/svg"
   xmlns:svg="http://www.w3.org/2000/svg">
  <defs
     id="defs8" />
  <sodipodi:namedview
     id="namedview6"
     pagecolor="#ffffff"
     bordercolor="#666666"
     borderopacity="1.0"
     inkscape:pageshadow="2"
     inkscape:pageopacity="0.0"
     inkscape:pagecheckerboard="0"
     showgrid="false"
     inkscape:zoom="27.28125"
     inkscape:cx="15.981672"
     inkscape:cy="15.981672"
     inkscape:window-width="3840"
     inkscape:window-height="2080"
     inkscape:window-x="2293"
     inkscape:window-y="35"
     inkscape:window-maximized="1"
     inkscape:current-layer="svg4" />
  <path
     clip-rule="evenodd"
     d="m 4.8,3.2 h 22.4 c 0.88368,0 1.6,0.716336 1.6,1.6 v 22.4 c 0,0.88368 -0.71632,1.6 -1.6,1.6 H 4.8 C 3.916352,28.8 3.2,28.08368 3.2,27.2 V 4.8 C 3.2,3.916352 3.916336,3.2 4.8,3.2 Z M 0,4.8 C 0,2.14904 2.14904,0 4.8,0 H 27.2 C 29.85104,0 32,2.14904 32,4.8 V 27.2 C 32,29.85104 29.85104,32 27.2,32 H 4.8 C 2.14904,32 0,29.85104 0,27.2 Z M 16,16 C 11.581728,16 8,11.701936 8,6.4 h 3.2 c 0,4.105696 2.67056,6.4 4.8,6.4 2.12944,0 4.8,-2.294304 4.8,-6.4 H 24 c 0,5.301936 -3.58176,9.6 -8,9.6 z"
     fill="#180027"
     fill-rule="evenodd"
     id="path2"
     style="stroke-width:1.6" />
</svg>
