<?xml version="1.0" encoding="UTF-8" standalone="no"?>
<svg
   fill="none"
   height="32"
   viewBox="0 0 32 32"
   width="32"
   version="1.1"
   id="svg6"
   sodipodi:docname="face-thermostat.svg"
   inkscape:version="1.1.1 (3bf5ae0d25, 2021-09-20)"
   xmlns:inkscape="http://www.inkscape.org/namespaces/inkscape"
   xmlns:sodipodi="http://sodipodi.sourceforge.net/DTD/sodipodi-0.dtd"
   xmlns="http://www.w3.org/2000/svg"
   xmlns:svg="http://www.w3.org/2000/svg">
  <defs
     id="defs10" />
  <sodipodi:namedview
     id="namedview8"
     pagecolor="#ffffff"
     bordercolor="#666666"
     borderopacity="1.0"
     inkscape:pageshadow="2"
     inkscape:pageopacity="0.0"
     inkscape:pagecheckerboard="0"
     showgrid="false"
     inkscape:zoom="27.28125"
     inkscape:cx="15.981672"
     inkscape:cy="15.981672"
     inkscape:window-width="3840"
     inkscape:window-height="2080"
     inkscape:window-x="2293"
     inkscape:window-y="35"
     inkscape:window-maximized="1"
     inkscape:current-layer="svg6" />
  <g
     id="g829"
     transform="matrix(1.4545455,0,0,1.4545455,-1.454546,-1.454546)">
    <path
       d="m 12,19 c 0.5523,0 1,-0.4477 1,-1 0,-0.5523 -0.4477,-1 -1,-1 -0.5523,0 -1,0.4477 -1,1 0,0.5523 0.4477,1 1,1 z"
       fill="#180027"
       id="path2" />
    <path
       clip-rule="evenodd"
       d="m 15,13.9997 c 1.2144,0.9122 2,2.3645 2,4.0003 0,2.7614 -2.2386,5 -5,5 C 9.23858,23 7,20.7614 7,18 7,16.3642 7.78555,14.9119 9,13.9997 V 4 c 0,-1.65685 1.3431,-3 3,-3 1.6569,0 3,1.34315 3,3 z M 13,4 v 11.1707 c 1.1652,0.4119 2,1.5231 2,2.8293 0,1.6569 -1.3431,3 -3,3 -1.6569,0 -3,-1.3431 -3,-3 0,-1.3062 0.83481,-2.4174 2,-2.8293 V 4 c 0,-0.55228 0.4477,-1 1,-1 0.5523,0 1,0.44772 1,1 z"
       fill="#180027"
       fill-rule="evenodd"
       id="path4" />
  </g>
</svg>
