<?xml version="1.0" encoding="UTF-8" standalone="no"?>
<svg
   fill="none"
   height="32"
   viewBox="0 0 32 32"
   width="32"
   version="1.1"
   id="svg4"
   sodipodi:docname="face-voicemail.svg"
   inkscape:version="1.1.1 (3bf5ae0d25, 2021-09-20)"
   xmlns:inkscape="http://www.inkscape.org/namespaces/inkscape"
   xmlns:sodipodi="http://sodipodi.sourceforge.net/DTD/sodipodi-0.dtd"
   xmlns="http://www.w3.org/2000/svg"
   xmlns:svg="http://www.w3.org/2000/svg">
  <defs
     id="defs8" />
  <sodipodi:namedview
     id="namedview6"
     pagecolor="#ffffff"
     bordercolor="#666666"
     borderopacity="1.0"
     inkscape:pageshadow="2"
     inkscape:pageopacity="0.0"
     inkscape:pagecheckerboard="0"
     showgrid="false"
     inkscape:zoom="27.28125"
     inkscape:cx="15.981672"
     inkscape:cy="15.981672"
     inkscape:window-width="3840"
     inkscape:window-height="2080"
     inkscape:window-x="2293"
     inkscape:window-y="35"
     inkscape:window-maximized="1"
     inkscape:current-layer="svg4" />
  <g
     id="g826"
     transform="matrix(1.4545455,0,0,1.4545455,-1.454546,-1.454546)">
    <path
       clip-rule="evenodd"
       d="M 10.0004,15 C 10.6281,14.1643 11,13.1256 11,12 11,9.23858 8.76142,7 6,7 3.23858,7 1,9.23858 1,12 c 0,2.7614 2.23858,5 5,5 h 12 c 2.7614,0 5,-2.2386 5,-5 0,-2.76142 -2.2386,-5 -5,-5 -2.7614,0 -5,2.23858 -5,5 0,1.1256 0.3719,2.1643 0.9996,3 z M 6,15 C 7.65685,15 9,13.6569 9,12 9,10.3431 7.65685,9 6,9 4.34315,9 3,10.3431 3,12 c 0,1.6569 1.34315,3 3,3 z m 12,0 c 1.6569,0 3,-1.3431 3,-3 0,-1.6569 -1.3431,-3 -3,-3 -1.6569,0 -3,1.3431 -3,3 0,1.6569 1.3431,3 3,3 z"
       fill="#180027"
       fill-rule="evenodd"
       id="path2" />
  </g>
</svg>
