<?xml version="1.0" encoding="UTF-8" standalone="no"?>
<svg
   fill="none"
   height="32"
   viewBox="0 0 32 32"
   width="32"
   version="1.1"
   id="svg8"
   sodipodi:docname="face-map-disable.svg"
   inkscape:export-filename="face-map-disable.png"
   inkscape:export-xdpi="144"
   inkscape:export-ydpi="144"
   inkscape:version="1.1.1 (3bf5ae0d25, 2021-09-20)"
   xmlns:inkscape="http://www.inkscape.org/namespaces/inkscape"
   xmlns:sodipodi="http://sodipodi.sourceforge.net/DTD/sodipodi-0.dtd"
   xmlns="http://www.w3.org/2000/svg"
   xmlns:svg="http://www.w3.org/2000/svg">
  <defs
     id="defs12" />
  <sodipodi:namedview
     id="namedview10"
     pagecolor="#ffffff"
     bordercolor="#666666"
     borderopacity="1.0"
     inkscape:pageshadow="2"
     inkscape:pageopacity="0.0"
     inkscape:pagecheckerboard="0"
     showgrid="false"
     inkscape:zoom="25.75"
     inkscape:cx="15.980583"
     inkscape:cy="12.873786"
     inkscape:window-width="1920"
     inkscape:window-height="1013"
     inkscape:window-x="-9"
     inkscape:window-y="29"
     inkscape:window-maximized="1"
     inkscape:current-layer="svg8" />
  <g
     id="g832"
     transform="matrix(1.600863,0,0,1.6020025,-3.2103563,-3.204005)">
    <path
       d="M 13.3,7.2 C 12.8,7 12.2,7.3 12,7.8 c -0.2,0.5 0.1,1.1 0.6,1.3 0.6,0.2 1,0.7 1.2,1.2 0.1,0.4 0.5,0.7 0.9,0.7 0.1,0 0.2,0 0.3,-0.1 0.5,-0.2 0.8,-0.8 0.6,-1.3 -0.2,-1.1 -1.1,-2 -2.3,-2.4 z"
       fill="#180027"
       id="path2" />
    <path
       d="M 9.4,4.5 C 10.2,4.2 11.1,4 12,4 c 3.9,0 7,3.1 7,7 0,0.9 -0.2,1.7 -0.6,2.6 -0.2,0.5 0,1.1 0.5,1.3 C 19,15 19.2,15 19.3,15 19.7,15 20,14.8 20.2,14.4 20.7,13.3 21,12.1 21,11 21,6 17,2 12,2 10.8,2 9.7,2.2 8.6,2.7 8.1,2.9 7.9,3.4 8.1,4 8.3,4.5 8.9,4.7 9.4,4.5 Z"
       fill="#180027"
       id="path4" />
    <path
       d="m 4.7,3.3 c -0.4,-0.4 -1,-0.4 -1.4,0 -0.4,0.4 -0.4,1 0,1.4 L 4.5,6 C 3.6,7.4 3,9.1 3,11 c 0,6.5 8.2,10.7 8.6,10.9 0.3,0.1 0.5,0.1 0.8,0 0.2,-0.1 2.5,-1.3 4.7,-3.4 l 2.2,2.2 c 0.2,0.2 0.5,0.3 0.7,0.3 0.2,0 0.5,-0.1 0.7,-0.3 0.4,-0.4 0.4,-1 0,-1.4 z m 6.8,9.6 C 10.8,12.7 10.2,12.2 10,11.4 Z m 0.5,7 C 10.4,18.9 5,15.5 5,11 5,9.7 5.4,8.5 6,7.4 L 8.2,9.6 C 8.1,10.1 8,10.5 8,11 c 0,2.2 1.8,4 4,4 0.5,0 0.9,-0.1 1.3,-0.2 l 2.4,2.4 c -1.4,1.3 -3,2.3 -3.7,2.7 z"
       fill="#180027"
       id="path6" />
  </g>
</svg>
