<?xml version="1.0" encoding="UTF-8" standalone="no"?>
<svg
   fill="none"
   height="32"
   viewBox="0 0 32 32"
   width="32"
   version="1.1"
   id="svg4"
   sodipodi:docname="face-message.svg"
   inkscape:export-filename="face-message.png"
   inkscape:export-xdpi="144"
   inkscape:export-ydpi="144"
   inkscape:version="1.1.1 (3bf5ae0d25, 2021-09-20)"
   xmlns:inkscape="http://www.inkscape.org/namespaces/inkscape"
   xmlns:sodipodi="http://sodipodi.sourceforge.net/DTD/sodipodi-0.dtd"
   xmlns="http://www.w3.org/2000/svg"
   xmlns:svg="http://www.w3.org/2000/svg">
  <defs
     id="defs8" />
  <sodipodi:namedview
     id="namedview6"
     pagecolor="#ffffff"
     bordercolor="#666666"
     borderopacity="1.0"
     inkscape:pageshadow="2"
     inkscape:pageopacity="0.0"
     inkscape:pagecheckerboard="0"
     showgrid="false"
     inkscape:zoom="25.75"
     inkscape:cx="15.980583"
     inkscape:cy="15.980583"
     inkscape:window-width="1920"
     inkscape:window-height="1013"
     inkscape:window-x="-9"
     inkscape:window-y="29"
     inkscape:window-maximized="1"
     inkscape:current-layer="svg4" />
  <path
     clip-rule="evenodd"
     d="m 5.3333333,3.5556929 c -0.9818311,0 -1.7777777,0.7959466 -1.7777777,1.7777777 V 27.546448 c 0,0.799111 0.9722488,1.192356 1.5278044,0.617956 L 6.3611911,29.400493 5.08336,28.164404 10.118507,22.958893 C 11.123324,21.919959 12.506667,21.33347 13.952,21.33347 h 12.714667 c 0.981866,0 1.777777,-0.795911 1.777777,-1.777777 V 5.3334706 c 0,-0.9818311 -0.795911,-1.7777777 -1.777777,-1.7777777 z M 0,5.3334706 C 0,2.3879595 2.3878222,1.3731457e-4 5.3333333,1.3731457e-4 H 26.666667 C 29.612267,1.3731457e-4 32,2.3879595 32,5.3334706 V 19.555693 c 0,2.9456 -2.387733,5.333333 -5.333333,5.333333 H 13.952 c -0.481778,0 -0.942933,0.195555 -1.277867,0.541867 L 7.639004,30.636404 C 4.86128,33.508226 0,31.541826 0,27.546448 Z m 7.111111,3.5555557 c 0,-0.981831 0.795947,-1.777778 1.777778,-1.777778 H 16 c 0.981867,0 1.777778,0.795947 1.777778,1.777778 0,0.981831 -0.795911,1.7777777 -1.777778,1.7777777 H 8.888889 c -0.981831,0 -1.777778,-0.7959467 -1.777778,-1.7777777 z m 0,5.3333327 c 0,-0.981866 0.795947,-1.777778 1.777778,-1.777778 h 3.555555 c 0.981867,0 1.777778,0.795912 1.777778,1.777778 0,0.981867 -0.795911,1.777778 -1.777778,1.777778 H 8.888889 c -0.981831,0 -1.777778,-0.795911 -1.777778,-1.777778 z"
     fill="#180027"
     fill-rule="evenodd"
     id="path2"
     style="stroke-width:1.77778" />
</svg>
