<?xml version="1.0" encoding="UTF-8" standalone="no"?>
<svg
   fill="none"
   height="32"
   viewBox="0 0 32 32"
   width="32"
   version="1.1"
   id="svg4"
   sodipodi:docname="face-search.svg"
   inkscape:export-filename="face-search.png"
   inkscape:export-xdpi="144"
   inkscape:export-ydpi="144"
   inkscape:version="1.1.1 (3bf5ae0d25, 2021-09-20)"
   xmlns:inkscape="http://www.inkscape.org/namespaces/inkscape"
   xmlns:sodipodi="http://sodipodi.sourceforge.net/DTD/sodipodi-0.dtd"
   xmlns="http://www.w3.org/2000/svg"
   xmlns:svg="http://www.w3.org/2000/svg">
  <defs
     id="defs8" />
  <sodipodi:namedview
     id="namedview6"
     pagecolor="#ffffff"
     bordercolor="#666666"
     borderopacity="1.0"
     inkscape:pageshadow="2"
     inkscape:pageopacity="0.0"
     inkscape:pagecheckerboard="0"
     showgrid="false"
     inkscape:zoom="25.75"
     inkscape:cx="15.980583"
     inkscape:cy="15.980583"
     inkscape:window-width="1920"
     inkscape:window-height="1013"
     inkscape:window-x="-9"
     inkscape:window-y="29"
     inkscape:window-maximized="1"
     inkscape:current-layer="svg4" />
  <path
     clip-rule="evenodd"
     d="m 13.600016,3.2000039 c -4.8601181,0 -8.8000103,3.9398927 -8.8000103,8.8000101 0,4.860166 3.9398922,8.800011 8.8000103,8.800011 4.860166,0 8.800011,-3.939845 8.800011,-8.800011 0,-4.8601174 -3.939845,-8.8000101 -8.800011,-8.8000101 z M 1.6000019,12.000014 C 1.6000019,5.3725825 6.9725843,7.6051695e-8 13.600016,7.6051695e-8 20.227384,7.6051695e-8 25.60003,5.3725825 25.60003,12.000014 c 0,3.367684 -1.387201,6.411208 -3.621444,8.59073 l 8.00097,8.728171 c 0.59696,0.65136 0.55296,1.663522 -0.0984,2.260642 -0.65136,0.596961 -1.663521,0.552961 -2.260642,-0.0984 l -8.22385,-8.97153 c -1.718402,0.949761 -3.694404,1.490401 -5.796647,1.490401 -6.6274327,0 -12.0000151,-5.372646 -12.0000151,-12.000014 z"
     fill="#180027"
     fill-rule="evenodd"
     id="path2"
     style="stroke-width:1.6" />
</svg>
