<?xml version="1.0" encoding="UTF-8" standalone="no"?>
<svg
   fill="none"
   height="32"
   viewBox="0 0 32 32"
   width="32"
   version="1.1"
   id="svg4"
   sodipodi:docname="face-search.svg"
   inkscape:version="1.1.1 (3bf5ae0d25, 2021-09-20)"
   xmlns:inkscape="http://www.inkscape.org/namespaces/inkscape"
   xmlns:sodipodi="http://sodipodi.sourceforge.net/DTD/sodipodi-0.dtd"
   xmlns="http://www.w3.org/2000/svg"
   xmlns:svg="http://www.w3.org/2000/svg">
  <defs
     id="defs8" />
  <sodipodi:namedview
     id="namedview6"
     pagecolor="#ffffff"
     bordercolor="#666666"
     borderopacity="1.0"
     inkscape:pageshadow="2"
     inkscape:pageopacity="0.0"
     inkscape:pagecheckerboard="0"
     showgrid="false"
     inkscape:zoom="27.28125"
     inkscape:cx="15.981672"
     inkscape:cy="15.981672"
     inkscape:window-width="3840"
     inkscape:window-height="2080"
     inkscape:window-x="2293"
     inkscape:window-y="35"
     inkscape:window-maximized="1"
     inkscape:current-layer="svg4" />
  <path
     clip-rule="evenodd"
     d="M 24.244471,21.854465 C 28.38223,16.540463 28.008379,8.8524224 23.123425,3.9673335 c -5.289789,-5.2897762 -13.8662849,-5.2897762 -19.1560577,0 -5.2897896,5.2897899 -5.2897896,13.8662005 0,19.1559905 4.8850888,4.885123 12.5731977,5.258804 17.8871997,1.121214 0.02286,0.02591 0.04673,0.0513 0.07145,0.07602 l 7.183596,7.183427 c 0.661182,0.661351 1.733294,0.661351 2.394476,0 0.661181,-0.661181 0.661181,-1.733125 0,-2.394476 l -7.183427,-7.183426 c -0.02489,-0.02472 -0.05029,-0.04859 -0.07619,-0.07162 z M 20.728781,6.3618429 c 3.967427,3.9673251 3.967427,10.3995781 0,14.3670051 -3.967258,3.967258 -10.399596,3.967258 -14.3669209,0 -3.9673425,-3.967427 -3.9673425,-10.39968 0,-14.3670051 3.9673249,-3.9673423 10.3996629,-3.9673423 14.3669209,0 z"
     fill="#180027"
     fill-rule="evenodd"
     id="path2"
     style="stroke-width:1.69317" />
</svg>
