<?xml version="1.0" encoding="UTF-8" standalone="no"?>
<svg
   fill="none"
   height="32"
   viewBox="0 0 32 32"
   width="32"
   version="1.1"
   id="svg4"
   sodipodi:docname="face-home.svg"
   inkscape:export-filename="face-home.png"
   inkscape:export-xdpi="144"
   inkscape:export-ydpi="144"
   inkscape:version="1.1.1 (3bf5ae0d25, 2021-09-20)"
   xmlns:inkscape="http://www.inkscape.org/namespaces/inkscape"
   xmlns:sodipodi="http://sodipodi.sourceforge.net/DTD/sodipodi-0.dtd"
   xmlns="http://www.w3.org/2000/svg"
   xmlns:svg="http://www.w3.org/2000/svg">
  <defs
     id="defs8" />
  <sodipodi:namedview
     id="namedview6"
     pagecolor="#ffffff"
     bordercolor="#666666"
     borderopacity="1.0"
     inkscape:pageshadow="2"
     inkscape:pageopacity="0.0"
     inkscape:pagecheckerboard="0"
     showgrid="false"
     inkscape:zoom="25.75"
     inkscape:cx="15.980583"
     inkscape:cy="9.7669903"
     inkscape:window-width="1920"
     inkscape:window-height="1013"
     inkscape:window-x="-9"
     inkscape:window-y="29"
     inkscape:window-maximized="1"
     inkscape:current-layer="svg4" />
  <path
     clip-rule="evenodd"
     d="m 17.012856,3.5719564 c -0.59011,-0.4794603 -1.435602,-0.4794603 -2.025712,0 L 5.3500886,11.402077 c -0.37538,0.304997 -0.5933385,0.762919 -0.5933385,1.246587 v 14.5328 c 0,0.887093 0.7191183,1.606179 1.6061786,1.606179 H 9.575286 V 20.75675 c 0,-2.661277 2.157339,-4.818536 4.818536,-4.818536 h 3.212357 c 2.661277,0 4.818535,2.157259 4.818535,4.818536 v 8.030893 h 3.212358 c 0.887092,0 1.606178,-0.719086 1.606178,-1.606179 V 12.648648 c 0,-0.483652 -0.217958,-0.941574 -0.593322,-1.246571 z M 25.637072,32 c 2.661277,0 4.818535,-2.157419 4.818535,-4.818536 V 12.648648 c 0,-1.450989 -0.653875,-2.824738 -1.779967,-3.73973 L 19.038569,1.0787979 c -1.77033,-1.4383972 -4.306807,-1.4383972 -6.077138,0 L 3.3243922,8.908918 C 2.1982522,9.82391 1.544393,11.197659 1.544393,12.648664 v 14.5328 C 1.544393,29.842581 3.7017317,32 6.3629287,32 Z M 19.212357,28.787643 V 20.75675 c 0,-0.887092 -0.719086,-1.606179 -1.606178,-1.606179 h -3.212357 c -0.887093,0 -1.606179,0.719087 -1.606179,1.606179 v 8.030893 z"
     fill="#180027"
     fill-rule="evenodd"
     id="path2"
     style="stroke-width:1.60618" />
</svg>
