<?xml version="1.0" encoding="UTF-8" standalone="no"?>
<svg
   fill="none"
   height="32"
   viewBox="0 0 32 32"
   width="32"
   version="1.1"
   id="svg10"
   sodipodi:docname="face-light-home-smart.svg"
   inkscape:version="1.1.1 (3bf5ae0d25, 2021-09-20)"
   xmlns:inkscape="http://www.inkscape.org/namespaces/inkscape"
   xmlns:sodipodi="http://sodipodi.sourceforge.net/DTD/sodipodi-0.dtd"
   xmlns="http://www.w3.org/2000/svg"
   xmlns:svg="http://www.w3.org/2000/svg">
  <defs
     id="defs14" />
  <sodipodi:namedview
     id="namedview12"
     pagecolor="#ffffff"
     bordercolor="#666666"
     borderopacity="1.0"
     inkscape:pageshadow="2"
     inkscape:pageopacity="0.0"
     inkscape:pagecheckerboard="0"
     showgrid="false"
     inkscape:zoom="27.28125"
     inkscape:cx="15.981672"
     inkscape:cy="15.981672"
     inkscape:window-width="3840"
     inkscape:window-height="2080"
     inkscape:window-x="2293"
     inkscape:window-y="35"
     inkscape:window-maximized="1"
     inkscape:current-layer="svg10" />
  <g
     id="g835"
     transform="matrix(1.5238095,0,0,1.5238095,-2.2857558,-2.285714)">
    <path
       clip-rule="evenodd"
       d="m 7.03435,6.5 c 0,-2.76142 2.23858,-5 5.00005,-5 2.7614,0 5,2.23858 5,5 v 4 c 0,2.7614 -2.2386,5 -5,5 -2.76147,0 -5.00005,-2.2386 -5.00005,-5 z m 8.00005,0 v 4 c 0,1.6569 -1.3432,3 -3,3 -1.6569,0 -3.00005,-1.3431 -3.00005,-3 v -4 c 0,-1.65685 1.34315,-3 3.00005,-3 1.6568,0 3,1.34315 3,3 z"
       fill="#180027"
       fill-rule="evenodd"
       id="path2" />
    <path
       d="m 12.0344,16.5 c -0.5523,0 -1,0.4477 -1,1 v 4 c 0,0.5523 0.4477,1 1,1 0.5522,0 1,-0.4477 1,-1 v -4 c 0,-0.5523 -0.4478,-1 -1,-1 z"
       fill="#180027"
       id="path4" />
    <path
       d="m 7.74433,16.4397 c 0.1889,-0.519 0.76274,-0.7866 1.28172,-0.5977 0.51897,0.1889 0.78656,0.7628 0.59767,1.2817 L 8.25564,20.8825 C 8.06675,21.4015 7.4929,21.6691 6.97393,21.4802 6.45495,21.2913 6.18736,20.7174 6.37625,20.1985 Z"
       fill="#180027"
       id="path6" />
    <path
       d="m 14.974,15.8421 c -0.5189,0.1889 -0.7865,0.7627 -0.5976,1.2817 l 1.3681,3.7587 c 0.1888,0.519 0.7627,0.7866 1.2817,0.5977 0.5189,-0.1889 0.7865,-0.7627 0.5976,-1.2817 l -1.368,-3.7588 C 16.0669,15.9208 15.493,15.6532 14.974,15.8421 Z"
       fill="#180027"
       id="path8" />
  </g>
</svg>
