<?xml version="1.0" encoding="UTF-8" standalone="no"?>
<svg
   fill="none"
   height="32"
   viewBox="0 0 32 32"
   width="32"
   version="1.1"
   id="svg4"
   sodipodi:docname="face-add.svg"
   inkscape:export-filename="face-add.png"
   inkscape:export-xdpi="144"
   inkscape:export-ydpi="144"
   inkscape:version="1.1.1 (3bf5ae0d25, 2021-09-20)"
   xmlns:inkscape="http://www.inkscape.org/namespaces/inkscape"
   xmlns:sodipodi="http://sodipodi.sourceforge.net/DTD/sodipodi-0.dtd"
   xmlns="http://www.w3.org/2000/svg"
   xmlns:svg="http://www.w3.org/2000/svg">
  <defs
     id="defs8" />
  <sodipodi:namedview
     id="namedview6"
     pagecolor="#ffffff"
     bordercolor="#666666"
     borderopacity="1.0"
     inkscape:pageshadow="2"
     inkscape:pageopacity="0.0"
     inkscape:pagecheckerboard="0"
     showgrid="false"
     inkscape:zoom="17.166667"
     inkscape:cx="12"
     inkscape:cy="12.058252"
     inkscape:window-width="3840"
     inkscape:window-height="2080"
     inkscape:window-x="2869"
     inkscape:window-y="35"
     inkscape:window-maximized="1"
     inkscape:current-layer="svg4"
     width="32px" />
  <path
     clip-rule="evenodd"
     d="M 16,3.5555556 C 9.127129,3.5555556 3.5555556,9.127129 3.5555556,16 3.5555556,22.872889 9.127129,28.444444 16,28.444444 22.872889,28.444444 28.444444,22.872889 28.444444,16 28.444444,9.127129 22.872889,3.5555556 16,3.5555556 Z M 0,16 C 0,7.163449 7.163449,0 16,0 24.836622,0 32,7.163449 32,16 32,24.836622 24.836622,32 16,32 7.163449,32 0,24.836622 0,16 Z M 16,7.111111 c 0.981867,0 1.777778,0.795947 1.777778,1.777778 v 5.333333 h 5.333333 c 0.981867,0 1.777778,0.795911 1.777778,1.777778 0,0.981867 -0.795911,1.777778 -1.777778,1.777778 h -5.333333 v 5.333333 c 0,0.981867 -0.795911,1.777778 -1.777778,1.777778 -0.981867,0 -1.777778,-0.795911 -1.777778,-1.777778 V 17.777778 H 8.888889 c -0.981831,0 -1.777778,-0.795911 -1.777778,-1.777778 0,-0.981867 0.795947,-1.777778 1.777778,-1.777778 h 5.333333 V 8.888889 c 0,-0.981831 0.795911,-1.777778 1.777778,-1.777778 z"
     fill="#180027"
     fill-rule="evenodd"
     id="path2"
     style="stroke-width:1.77778;fill:#180027;fill-opacity:1" />
</svg>
