<?xml version="1.0" encoding="UTF-8" standalone="no"?>
<svg
   fill="none"
   height="32"
   viewBox="0 0 32 32"
   width="32"
   version="1.1"
   id="svg4"
   sodipodi:docname="face-search-link.svg"
   inkscape:export-filename="face-search-link.png"
   inkscape:export-xdpi="192"
   inkscape:export-ydpi="192"
   inkscape:version="1.1.1 (3bf5ae0d25, 2021-09-20)"
   xmlns:inkscape="http://www.inkscape.org/namespaces/inkscape"
   xmlns:sodipodi="http://sodipodi.sourceforge.net/DTD/sodipodi-0.dtd"
   xmlns="http://www.w3.org/2000/svg"
   xmlns:svg="http://www.w3.org/2000/svg">
  <defs
     id="defs8" />
  <sodipodi:namedview
     id="namedview6"
     pagecolor="#ffffff"
     bordercolor="#666666"
     borderopacity="1.0"
     inkscape:pageshadow="2"
     inkscape:pageopacity="0.0"
     inkscape:pagecheckerboard="0"
     showgrid="false"
     inkscape:zoom="25.75"
     inkscape:cx="16"
     inkscape:cy="16"
     inkscape:window-width="3840"
     inkscape:window-height="2080"
     inkscape:window-x="2869"
     inkscape:window-y="35"
     inkscape:window-maximized="1"
     inkscape:current-layer="svg4" />
  <path
     clip-rule="evenodd"
     d="m 11.665711,2.5609523 c -3.8895356,0 -7.042618,3.1530828 -7.042618,7.0426184 0,3.8895743 3.1530824,7.0426193 7.042618,7.0426193 3.889575,0 7.042619,-3.153045 7.042619,-7.0426193 0,-3.8895356 -3.153044,-7.0426184 -7.042619,-7.0426184 z M 2.0621406,9.6035707 C 2.0621406,4.2996597 6.3618003,0 11.665711,0 c 5.303861,0 9.603571,4.2996597 9.603571,9.6035707 0,2.6951463 -1.110172,5.1308683 -2.89823,6.8751323 l 6.40315,6.985126 c 0.477745,0.521281 0.442532,1.331311 -0.07875,1.809184 -0.521281,0.477746 -1.33131,0.442533 -1.809184,-0.07875 l -6.58152,-7.179885 c -1.375231,0.760091 -2.956618,1.192763 -4.639036,1.192763 -5.3039123,0 -9.6035719,-4.29971 -9.6035714,-9.6035703 z"
     fill="#180027"
     fill-rule="evenodd"
     id="path2"
     style="stroke-width:1.28048" />
  <path
     clip-rule="evenodd"
     d="m 28.748345,12.723598 c -0.98212,-0.982184 -2.574639,-0.982184 -3.556759,0 l -3.556761,3.556785 c -0.491186,0.491098 -1.287319,0.491098 -1.778506,0 -0.49106,-0.491086 -0.49106,-1.287295 0,-1.778393 l 3.556887,-3.556798 c 1.964367,-1.9643542 5.149152,-1.9643542 7.113519,0 1.964367,1.964367 1.964367,5.149229 0,7.113596 l -3.55676,3.556797 c -0.49106,0.491061 -1.287319,0.491061 -1.778379,0 -0.49106,-0.49106 -0.49106,-1.287319 0,-1.77838 l 3.556759,-3.556822 c 0.982246,-0.982171 0.982246,-2.574602 0,-3.556785 z m -4.661739,4.608119 c 0.49106,0.491098 0.49106,1.287332 0,1.778393 l -5.030067,5.030066 c -0.49106,0.49106 -1.287294,0.49106 -1.778392,0 -0.491086,-0.491061 -0.491086,-1.28732 0,-1.77838 l 5.030079,-5.030079 c 0.49106,-0.491085 1.28732,-0.491085 1.77838,0 z m -7.913414,2.524602 c 0.491098,0.491061 0.491098,1.28732 0,1.778381 l -3.556785,3.55676 c -0.982184,0.982246 -0.982184,2.574639 0,3.556885 0.98217,0.982121 2.574602,0.982121 3.556785,0 L 19.72994,25.19146 c 0.491186,-0.49106 1.287319,-0.49106 1.778505,0 0.49106,0.491186 0.49106,1.28732 0,1.778505 l -3.556848,3.55676 c -1.964366,1.964367 -5.149229,1.964367 -7.113595,0 -1.9643542,-1.964367 -1.9643542,-5.149278 0,-7.113645 L 14.3948,19.856319 c 0.491085,-0.49106 1.287306,-0.49106 1.778392,0 z"
     fill="#180027"
     fill-rule="evenodd"
     id="path2-7"
     style="stroke-width:1.25752" />
</svg>
