<?xml version="1.0" encoding="UTF-8" standalone="no"?>
<svg
   fill="none"
   height="32"
   viewBox="0 0 32 32"
   width="32"
   version="1.1"
   id="svg8"
   sodipodi:docname="face-trash.svg"
   inkscape:version="1.1.1 (3bf5ae0d25, 2021-09-20)"
   xmlns:inkscape="http://www.inkscape.org/namespaces/inkscape"
   xmlns:sodipodi="http://sodipodi.sourceforge.net/DTD/sodipodi-0.dtd"
   xmlns="http://www.w3.org/2000/svg"
   xmlns:svg="http://www.w3.org/2000/svg">
  <defs
     id="defs12" />
  <sodipodi:namedview
     id="namedview10"
     pagecolor="#ffffff"
     bordercolor="#666666"
     borderopacity="1.0"
     inkscape:pageshadow="2"
     inkscape:pageopacity="0.0"
     inkscape:pagecheckerboard="0"
     showgrid="false"
     inkscape:zoom="27.28125"
     inkscape:cx="15.981672"
     inkscape:cy="15.981672"
     inkscape:window-width="3840"
     inkscape:window-height="2080"
     inkscape:window-x="2293"
     inkscape:window-y="35"
     inkscape:window-maximized="1"
     inkscape:current-layer="svg8" />
  <g
     id="g832"
     transform="matrix(1.6842105,0,0,1.6842105,-4.210526,-3.3684207)">
    <path
       clip-rule="evenodd"
       d="M 17,5 V 4 C 17,2.89543 16.1046,2 15,2 H 9 C 7.89543,2 7,2.89543 7,4 V 5 H 4 C 3.44772,5 3,5.44772 3,6 3,6.55228 3.44772,7 4,7 h 1 v 11 c 0,1.6569 1.34315,3 3,3 h 8 c 1.6569,0 3,-1.3431 3,-3 V 7 h 1 C 20.5523,7 21,6.55228 21,6 21,5.44772 20.5523,5 20,5 Z M 15,4 H 9 v 1 h 6 z m 2,3 H 7 v 11 c 0,0.5523 0.44772,1 1,1 h 8 c 0.5523,0 1,-0.4477 1,-1 z"
       fill="#180027"
       fill-rule="evenodd"
       id="path2" />
    <path
       d="m 9,9 h 2 v 8 H 9 Z"
       fill="#180027"
       id="path4" />
    <path
       d="m 13,9 h 2 v 8 h -2 z"
       fill="#180027"
       id="path6" />
  </g>
</svg>
