<?xml version="1.0" encoding="UTF-8" standalone="no"?>
<svg
   fill="none"
   height="32"
   viewBox="0 0 32 32"
   width="32"
   version="1.1"
   id="svg6"
   sodipodi:docname="face-c-usb.svg"
   inkscape:version="1.1.1 (3bf5ae0d25, 2021-09-20)"
   xmlns:inkscape="http://www.inkscape.org/namespaces/inkscape"
   xmlns:sodipodi="http://sodipodi.sourceforge.net/DTD/sodipodi-0.dtd"
   xmlns="http://www.w3.org/2000/svg"
   xmlns:svg="http://www.w3.org/2000/svg">
  <defs
     id="defs10" />
  <sodipodi:namedview
     id="namedview8"
     pagecolor="#ffffff"
     bordercolor="#666666"
     borderopacity="1.0"
     inkscape:pageshadow="2"
     inkscape:pageopacity="0.0"
     inkscape:pagecheckerboard="0"
     showgrid="false"
     inkscape:zoom="27.28125"
     inkscape:cx="15.981672"
     inkscape:cy="15.981672"
     inkscape:window-width="3840"
     inkscape:window-height="2080"
     inkscape:window-x="2293"
     inkscape:window-y="35"
     inkscape:window-maximized="1"
     inkscape:current-layer="svg6" />
  <g
     id="g829"
     transform="matrix(1.7777778,0,0,1.7777778,-5.3333336,-5.3333336)">
    <path
       d="m 8,11 c -0.55228,0 -1,0.4477 -1,1 0,0.5523 0.44772,1 1,1 h 8 c 0.5523,0 1,-0.4477 1,-1 0,-0.5523 -0.4477,-1 -1,-1 z"
       fill="#180027"
       id="path2" />
    <path
       clip-rule="evenodd"
       d="M 3,12 C 3,9.23858 5.23858,7 8,7 h 8 c 2.7614,0 5,2.23858 5,5 0,2.7614 -2.2386,5 -5,5 H 8 C 5.23858,17 3,14.7614 3,12 Z M 8,9 h 8 c 1.6569,0 3,1.3431 3,3 0,1.6569 -1.3431,3 -3,3 H 8 C 6.34315,15 5,13.6569 5,12 5,10.3431 6.34315,9 8,9 Z"
       fill="#180027"
       fill-rule="evenodd"
       id="path4" />
  </g>
</svg>
