<?xml version="1.0" encoding="UTF-8" standalone="no"?>
<svg
   fill="none"
   height="32"
   viewBox="0 0 32 32"
   width="32"
   version="1.1"
   id="svg4"
   sodipodi:docname="face-trees.svg"
   inkscape:version="1.1.1 (3bf5ae0d25, 2021-09-20)"
   xmlns:inkscape="http://www.inkscape.org/namespaces/inkscape"
   xmlns:sodipodi="http://sodipodi.sourceforge.net/DTD/sodipodi-0.dtd"
   xmlns="http://www.w3.org/2000/svg"
   xmlns:svg="http://www.w3.org/2000/svg">
  <defs
     id="defs8" />
  <sodipodi:namedview
     id="namedview6"
     pagecolor="#ffffff"
     bordercolor="#666666"
     borderopacity="1.0"
     inkscape:pageshadow="2"
     inkscape:pageopacity="0.0"
     inkscape:pagecheckerboard="0"
     showgrid="false"
     inkscape:zoom="27.28125"
     inkscape:cx="15.981672"
     inkscape:cy="15.981672"
     inkscape:window-width="3840"
     inkscape:window-height="2080"
     inkscape:window-x="2293"
     inkscape:window-y="35"
     inkscape:window-maximized="1"
     inkscape:current-layer="svg4" />
  <path
     clip-rule="evenodd"
     d="M 17.18416,22.9096 C 16.056,24.18016 14.52928,25.08896 12.8,25.44 v 4.96 c 0,0.88368 -0.716352,1.6 -1.6,1.6 -0.883648,0 -1.6,-0.71632 -1.6,-1.6 V 25.44 C 5.948416,24.69872 3.2,21.4704 3.2,17.6 V 8 c 0,-4.418272 3.581728,-8 8,-8 4.17392,0 7.60128,3.196496 7.96752,7.275088 C 20.11616,6.71888 21.22096,6.4 22.4,6.4 c 3.53456,0 6.4,2.865376 6.4,6.4 v 6.4 c 0,2.98208 -2.03968,5.48784 -4.8,6.1984 V 30.4 c 0,0.88368 -0.71632,1.6 -1.6,1.6 -0.88368,0 -1.6,-0.71632 -1.6,-1.6 V 25.3984 C 19.31952,25.01728 18.0464,24.12 17.18416,22.9096 Z M 16,8 v 9.6 c 0,2.08992 -1.33568,3.868 -3.2,4.52688 V 17.6 c 0,-0.88368 -0.716352,-1.6 -1.6,-1.6 -0.883648,0 -1.6,0.71632 -1.6,1.6 v 4.52688 C 7.735696,21.468 6.4,19.68992 6.4,17.6 V 8 C 6.4,5.34904 8.54904,3.2 11.2,3.2 13.85104,3.2 16,5.34904 16,8 Z m 8,13.97184 V 17.6 C 24,16.71632 23.28368,16 22.4,16 c -0.88368,0 -1.6,0.71632 -1.6,1.6 v 4.37184 C 19.84352,21.41856 19.2,20.38448 19.2,19.2 v -6.4 c 0,-1.767312 1.43264,-3.2 3.2,-3.2 1.76736,0 3.2,1.432688 3.2,3.2 v 6.4 c 0,1.18448 -0.64352,2.21856 -1.6,2.77184 z"
     fill="#180027"
     fill-rule="evenodd"
     id="path2"
     style="stroke-width:1.6" />
</svg>
