<?xml version="1.0" encoding="UTF-8" standalone="no"?>
<svg
   fill="none"
   height="32"
   viewBox="0 0 32 32"
   width="32"
   version="1.1"
   id="svg4"
   sodipodi:docname="face-star.svg"
   inkscape:export-filename="face-star.png"
   inkscape:export-xdpi="144"
   inkscape:export-ydpi="144"
   inkscape:version="1.1.1 (3bf5ae0d25, 2021-09-20)"
   xmlns:inkscape="http://www.inkscape.org/namespaces/inkscape"
   xmlns:sodipodi="http://sodipodi.sourceforge.net/DTD/sodipodi-0.dtd"
   xmlns="http://www.w3.org/2000/svg"
   xmlns:svg="http://www.w3.org/2000/svg">
  <defs
     id="defs8" />
  <sodipodi:namedview
     id="namedview6"
     pagecolor="#ffffff"
     bordercolor="#666666"
     borderopacity="1.0"
     inkscape:pageshadow="2"
     inkscape:pageopacity="0.0"
     inkscape:pagecheckerboard="0"
     showgrid="false"
     inkscape:zoom="25.75"
     inkscape:cx="15.980583"
     inkscape:cy="15.980583"
     inkscape:window-width="1920"
     inkscape:window-height="1013"
     inkscape:window-x="-9"
     inkscape:window-y="29"
     inkscape:window-maximized="1"
     inkscape:current-layer="svg4" />
  <path
     clip-rule="evenodd"
     d="m 16.000004,-2.3531879e-8 c 0.624534,0 1.203202,0.327645003531879 1.524447,0.863112503531879 L 22.45317,9.07765 l 8.117701,1.623558 c 0.598757,0.119751 1.094224,0.538383 1.312003,1.108766 0.217955,0.570383 0.128,1.212624 -0.238401,1.701159 l -4.876985,6.502588 1.652802,9.916282 c 0.109867,0.659557 -0.159467,1.32498 -0.697423,1.722314 -0.537779,0.397156 -1.253158,0.459023 -1.851203,0.16 l -9.87166,-4.93583 -9.8716247,4.93583 C 5.5303161,32.11134 4.8150261,32.049473 4.2771586,31.652317 3.739291,31.254983 3.4698151,30.58956 3.5797352,29.930003 L 5.2324667,20.013721 0.35555233,13.511133 c -0.366365,-0.488535 -0.4563918,-1.130776 -0.2384714,-1.701159 0.2179203,-0.570383 0.7132989,-0.989015 1.31203757,-1.108766 L 9.5468559,9.07765 14.475557,0.86311248 C 14.796802,0.32764498 15.37547,-2.3531879e-8 16.000004,-2.3531879e-8 Z m 0,5.233163923531879 -3.808895,6.3481881 c -0.257707,0.429494 -0.684623,0.730365 -1.175789,0.828588 l -6.1228005,1.224571 3.6408234,4.854407 c 0.291503,0.388623 0.411236,0.879646 0.331361,1.358936 l -1.203842,7.222944 7.5441181,-3.771917 c 0.500446,-0.250311 1.089602,-0.250311 1.590047,0 l 7.54419,3.771917 -1.203913,-7.222944 c -0.07982,-0.47929 0.03982,-0.970313 0.331378,-1.358936 l 3.640895,-4.854407 -6.122854,-1.224571 c -0.491201,-0.09822 -0.918046,-0.399094 -1.175824,-0.828588 z"
     fill="#180027"
     fill-rule="evenodd"
     id="path2"
     style="stroke-width:1.77778" />
</svg>
