<?xml version="1.0" encoding="UTF-8" standalone="no"?>
<svg
   fill="none"
   height="32"
   viewBox="0 0 32 32"
   width="32"
   version="1.1"
   id="svg14"
   sodipodi:docname="face-shake-smartphone.svg"
   inkscape:version="1.1.1 (3bf5ae0d25, 2021-09-20)"
   xmlns:inkscape="http://www.inkscape.org/namespaces/inkscape"
   xmlns:sodipodi="http://sodipodi.sourceforge.net/DTD/sodipodi-0.dtd"
   xmlns="http://www.w3.org/2000/svg"
   xmlns:svg="http://www.w3.org/2000/svg">
  <defs
     id="defs18" />
  <sodipodi:namedview
     id="namedview16"
     pagecolor="#ffffff"
     bordercolor="#666666"
     borderopacity="1.0"
     inkscape:pageshadow="2"
     inkscape:pageopacity="0.0"
     inkscape:pagecheckerboard="0"
     showgrid="false"
     inkscape:zoom="27.28125"
     inkscape:cx="15.981672"
     inkscape:cy="15.981672"
     inkscape:window-width="3840"
     inkscape:window-height="2080"
     inkscape:window-x="2293"
     inkscape:window-y="35"
     inkscape:window-maximized="1"
     inkscape:current-layer="svg14" />
  <g
     id="g841"
     transform="scale(1.3333333)">
    <path
       d="m 13,14 h -2 v 2 h 2 z"
       fill="#180027"
       id="path2" />
    <path
       clip-rule="evenodd"
       d="M 8,7 C 8,5.89543 8.89543,5 10,5 h 4 c 1.1046,0 2,0.89543 2,2 v 10 c 0,1.1046 -0.8954,2 -2,2 H 10 C 8.89543,19 8,18.1046 8,17 Z m 2,0 h 4 v 10 h -4 z"
       fill="#180027"
       fill-rule="evenodd"
       id="path4" />
    <path
       d="m 18,9 h 2 v 6 h -2 z"
       fill="#180027"
       id="path6" />
    <path
       d="M 0,14 H 2 V 10 H 0 Z"
       fill="#180027"
       id="path8" />
    <path
       d="M 6,15 H 4 V 9 h 2 z"
       fill="#180027"
       id="path10" />
    <path
       d="m 24,10 h -2 v 4 h 2 z"
       fill="#180027"
       id="path12" />
  </g>
</svg>
