<?xml version="1.0" encoding="UTF-8" standalone="no"?>
<svg
   fill="none"
   height="32"
   viewBox="0 0 32 32"
   width="32"
   version="1.1"
   id="svg4"
   sodipodi:docname="face-phone.svg"
   inkscape:export-filename="face-phone.png"
   inkscape:export-xdpi="144"
   inkscape:export-ydpi="144"
   inkscape:version="1.1.1 (3bf5ae0d25, 2021-09-20)"
   xmlns:inkscape="http://www.inkscape.org/namespaces/inkscape"
   xmlns:sodipodi="http://sodipodi.sourceforge.net/DTD/sodipodi-0.dtd"
   xmlns="http://www.w3.org/2000/svg"
   xmlns:svg="http://www.w3.org/2000/svg">
  <defs
     id="defs8" />
  <sodipodi:namedview
     id="namedview6"
     pagecolor="#ffffff"
     bordercolor="#666666"
     borderopacity="1.0"
     inkscape:pageshadow="2"
     inkscape:pageopacity="0.0"
     inkscape:pagecheckerboard="0"
     showgrid="false"
     inkscape:zoom="25.75"
     inkscape:cx="15.980583"
     inkscape:cy="15.980583"
     inkscape:window-width="1920"
     inkscape:window-height="1013"
     inkscape:window-x="-9"
     inkscape:window-y="29"
     inkscape:window-maximized="1"
     inkscape:current-layer="svg4" />
  <path
     clip-rule="evenodd"
     d="m 8.7381343,-0.01987201 c 0.05765,-0.00565 0.115549,-0.00849 0.173483,-0.00849 2.8719967,0 4.8421807,2.46004771 5.7001797,4.61795751 0.860841,2.1644634 1.111794,5.2899171 -0.892277,7.2940595 -0.05683,0.05676 -0.318086,0.459245 -0.04387,1.520457 0.253084,0.979835 0.896716,2.148817 1.903014,3.155115 1.004166,1.004166 2.119157,1.596294 3.032746,1.810305 0.734387,0.17192 1.147847,0.07264 1.348005,-0.0293 1.012514,-1.698594 2.643973,-2.384318 4.048456,-2.384318 1.723813,0 3.649561,0.624451 5.171084,1.762885 1.547453,1.157971 2.821043,2.971828 2.821043,5.341228 0,2.344712 -1.140387,4.540061 -2.693346,6.09302 -2.681803,2.681802 -6.722267,3.340176 -10.719219,2.581279 C 14.55603,30.968677 10.296315,28.73248 6.7677555,25.203867 3.2386631,21.674722 1.021434,17.433389 0.27747355,13.417789 -0.46078585,9.4331446 0.22788685,5.421914 2.9016795,2.7481213 4.4731803,1.1766205 6.3570312,0.21383559 8.7381343,-0.01987201 Z M 8.9811303,3.526146 C 7.5123733,3.6910679 6.410543,4.2626293 5.4133742,5.2597982 3.8403815,6.8327908 3.1631109,9.4946136 3.7700863,12.770782 c 0.6012921,3.245336 2.4404936,6.852627 5.509346,9.921426 3.0693677,3.069332 6.6999067,4.931143 9.9708177,5.552397 3.305544,0.627649 5.979709,-0.03818 7.544745,-1.60322 1.038977,-1.039155 1.65295,-2.374195 1.65295,-3.581361 0,-0.977526 -0.502616,-1.827889 -1.397024,-2.497096 -0.920515,-0.688744 -2.102817,-1.054961 -3.043047,-1.054961 -0.147588,0 -0.333183,0.03907 -0.514515,0.146167 -0.169433,0.09999 -0.37936,0.284698 -0.561047,0.648073 -0.08543,0.170676 -0.197672,0.326612 -0.33265,0.46159 -1.317636,1.317635 -3.210349,1.435919 -4.798118,1.064196 -1.638742,-0.3838 -3.324903,-1.347473 -4.734536,-2.757106 -1.407698,-1.40768 -2.402913,-3.122968 -2.830563,-4.778404 -0.4066747,-1.574449 -0.3905487,-3.558575 0.971381,-4.9205044 0.507535,-0.507554 0.758595,-1.82217 0.103382,-3.4698443 C 10.67539,4.3032294 9.6622733,3.5732107 8.9811303,3.526146 Z"
     fill="#180027"
     fill-rule="evenodd"
     id="path2"
     style="stroke-width:1.77603" />
</svg>
