<?xml version="1.0" encoding="UTF-8" standalone="no"?>
<svg
   fill="none"
   height="32"
   viewBox="0 0 32 32"
   width="32"
   version="1.1"
   id="svg8"
   sodipodi:docname="face-za-sort.svg"
   inkscape:version="1.1.1 (3bf5ae0d25, 2021-09-20)"
   xmlns:inkscape="http://www.inkscape.org/namespaces/inkscape"
   xmlns:sodipodi="http://sodipodi.sourceforge.net/DTD/sodipodi-0.dtd"
   xmlns="http://www.w3.org/2000/svg"
   xmlns:svg="http://www.w3.org/2000/svg">
  <defs
     id="defs12" />
  <sodipodi:namedview
     id="namedview10"
     pagecolor="#ffffff"
     bordercolor="#666666"
     borderopacity="1.0"
     inkscape:pageshadow="2"
     inkscape:pageopacity="0.0"
     inkscape:pagecheckerboard="0"
     showgrid="false"
     inkscape:zoom="27.28125"
     inkscape:cx="15.981672"
     inkscape:cy="15.981672"
     inkscape:window-width="3840"
     inkscape:window-height="2080"
     inkscape:window-x="2293"
     inkscape:window-y="35"
     inkscape:window-maximized="1"
     inkscape:current-layer="svg8" />
  <g
     id="g838"
     transform="matrix(2.6666667,0,0,2.6666667,-16,-16)">
    <g
       id="g832">
      <path
         d="m 6,16 c 0,0.5523 0.44772,1 1,1 h 10 c 0.5523,0 1,-0.4477 1,-1 0,-0.5523 -0.4477,-1 -1,-1 H 7 c -0.55228,0 -1,0.4477 -1,1 z"
         fill="#180027"
         id="path2" />
      <path
         d="m 8,12 c 0,0.5523 0.44772,1 1,1 h 6 c 0.5523,0 1,-0.4477 1,-1 0,-0.5523 -0.4477,-1 -1,-1 H 9 c -0.55228,0 -1,0.4477 -1,1 z"
         fill="#180027"
         id="path4" />
      <path
         d="M 11,9 C 10.4477,9 10,8.55229 10,8 10,7.44771 10.4477,7 11,7 h 2 c 0.5523,0 1,0.44771 1,1 0,0.55229 -0.4477,1 -1,1 z"
         fill="#180027"
         id="path6" />
    </g>
  </g>
</svg>
