<?xml version="1.0" encoding="UTF-8" standalone="no"?>
<svg
   fill="none"
   height="32"
   viewBox="0 0 32 32"
   width="32"
   version="1.1"
   id="svg4"
   sodipodi:docname="face-sales-items.svg"
   inkscape:export-filename="face-sales-items.png"
   inkscape:export-xdpi="192"
   inkscape:export-ydpi="192"
   inkscape:version="1.1.1 (3bf5ae0d25, 2021-09-20)"
   xmlns:inkscape="http://www.inkscape.org/namespaces/inkscape"
   xmlns:sodipodi="http://sodipodi.sourceforge.net/DTD/sodipodi-0.dtd"
   xmlns="http://www.w3.org/2000/svg"
   xmlns:svg="http://www.w3.org/2000/svg">
  <defs
     id="defs8" />
  <sodipodi:namedview
     id="namedview6"
     pagecolor="#ffffff"
     bordercolor="#666666"
     borderopacity="1.0"
     inkscape:pageshadow="2"
     inkscape:pageopacity="0.0"
     inkscape:pagecheckerboard="0"
     showgrid="false"
     inkscape:zoom="3.21875"
     inkscape:cx="15.68932"
     inkscape:cy="19.106796"
     inkscape:window-width="1920"
     inkscape:window-height="1009"
     inkscape:window-x="1912"
     inkscape:window-y="-8"
     inkscape:window-maximized="1"
     inkscape:current-layer="svg4" />
  <style
     type="text/css"
     id="style910">
	.st0{fill:#1E232D;}
</style>
  <path
     id="path924"
     style="fill:#180027;fill-opacity:1;stroke-width:1.33333"
     class="st0"
     d="M 16.066406 0 C 12.333072 0 9.4003906 2.9326823 9.4003906 6.6660156 L 9.4003906 13.333984 L 12.066406 13.333984 L 12.066406 10.666016 L 17.400391 10.666016 L 17.400391 8 L 12.066406 8 L 12.066406 6.6660156 C 12.066406 4.3993489 13.799739 2.6660156 16.066406 2.6660156 C 18.333072 2.6660156 20.066406 4.399349 20.066406 6.6660156 L 20.066406 12.462891 L 16.798828 12.462891 L 16.798828 10.929688 L 15.001953 10.929688 L 14.992188 13.490234 C 13.315031 13.55673 12.022048 13.962762 11.113281 14.708984 C 10.211903 15.447819 9.7597656 16.478267 9.7597656 17.800781 C 9.7597656 19.049411 10.130306 20.006924 10.869141 20.671875 C 11.615363 21.336826 12.870904 21.824455 14.636719 22.134766 L 15.001953 22.201172 L 15.001953 25.646484 C 14.107963 25.61693 13.225341 25.488804 12.353516 25.259766 C 11.48908 25.023339 10.632863 24.685913 9.7832031 24.25 L 9.7832031 27.154297 C 10.60331 27.45722 11.444158 27.69335 12.308594 27.863281 C 13.17303 28.033215 14.068643 28.136888 14.992188 28.173828 L 14.996094 29.333984 L 5.5332031 29.333984 L 6.5996094 10.666016 L 6.734375 10.666016 L 6.734375 8 L 4.2011719 8 L 2.5996094 32 L 29.400391 32 L 29.400391 31.990234 L 31.990234 31.990234 L 31.990234 12.462891 L 28.207031 12.462891 L 27.933594 8 L 22.734375 8 L 22.734375 6.6660156 C 22.734375 2.9326823 19.799739 -2.3684758e-15 16.066406 0 z M 22.734375 10.666016 L 25.533203 10.666016 L 25.648438 12.462891 L 22.734375 12.462891 L 22.734375 10.666016 z M 17.505859 14.896484 L 29.556641 14.896484 L 29.556641 29.556641 L 17.505859 29.556641 L 17.505859 14.896484 z M 15.001953 16.017578 L 15.001953 18.908203 C 14.425662 18.841708 13.993223 18.687175 13.705078 18.443359 C 13.416933 18.192155 13.273436 17.848022 13.273438 17.412109 C 13.273435 17.020527 13.427971 16.700423 13.738281 16.449219 C 14.055981 16.190627 14.47738 16.047131 15.001953 16.017578 z M 18.863281 16.677734 L 18.863281 17.775391 L 28.199219 17.775391 L 28.199219 16.677734 L 18.863281 16.677734 z M 18.863281 18.677734 L 18.863281 19.775391 L 28.199219 19.775391 L 28.199219 18.677734 L 18.863281 18.677734 z M 18.863281 20.677734 L 18.863281 21.775391 L 28.199219 21.775391 L 28.199219 20.677734 L 18.863281 20.677734 z M 18.863281 22.677734 L 18.863281 23.775391 L 28.199219 23.775391 L 28.199219 22.677734 L 18.863281 22.677734 z M 18.863281 24.677734 L 18.863281 25.775391 L 28.199219 25.775391 L 28.199219 24.677734 L 18.863281 24.677734 z M 18.863281 26.677734 L 18.863281 27.775391 L 28.199219 27.775391 L 28.199219 26.677734 L 18.863281 26.677734 z " />
</svg>
