<?xml version="1.0" encoding="UTF-8" standalone="no"?>
<svg
   fill="none"
   height="32"
   viewBox="0 0 32 32"
   width="32"
   version="1.1"
   id="svg4"
   sodipodi:docname="face-slack.svg"
   inkscape:version="1.1.1 (3bf5ae0d25, 2021-09-20)"
   xmlns:inkscape="http://www.inkscape.org/namespaces/inkscape"
   xmlns:sodipodi="http://sodipodi.sourceforge.net/DTD/sodipodi-0.dtd"
   xmlns="http://www.w3.org/2000/svg"
   xmlns:svg="http://www.w3.org/2000/svg">
  <defs
     id="defs8" />
  <sodipodi:namedview
     id="namedview6"
     pagecolor="#ffffff"
     bordercolor="#666666"
     borderopacity="1.0"
     inkscape:pageshadow="2"
     inkscape:pageopacity="0.0"
     inkscape:pagecheckerboard="0"
     showgrid="false"
     inkscape:zoom="27.28125"
     inkscape:cx="15.981672"
     inkscape:cy="15.981672"
     inkscape:window-width="3840"
     inkscape:window-height="2080"
     inkscape:window-x="2293"
     inkscape:window-y="35"
     inkscape:window-maximized="1"
     inkscape:current-layer="svg4" />
  <path
     clip-rule="evenodd"
     d="m 16.842105,11.789474 c 0,1.860379 1.508042,3.368421 3.368421,3.368421 1.860379,0 3.368421,-1.508042 3.368421,-3.368421 V 3.3684211 C 23.578947,1.5080926 22.070905,0 20.210526,0 18.350147,0 16.842105,1.5080926 16.842105,3.3684211 Z M 3.3684211,8.421053 C 1.5080926,8.421053 0,9.929145 0,11.789474 c 0,1.860379 1.5080926,3.368421 3.3684211,3.368421 h 8.4210529 c 1.860379,0 3.368421,-1.508042 3.368421,-3.368421 0,-1.860329 -1.508042,-3.368421 -3.368421,-3.368421 z m 16.8421049,8.421052 c -1.860379,0 -3.368421,1.508042 -3.368421,3.368421 0,1.860379 1.508042,3.368421 3.368421,3.368421 h 8.421053 C 30.491958,23.578947 32,22.070905 32,20.210526 32,18.350147 30.491958,16.842105 28.631579,16.842105 Z M 11.789474,32 C 9.929145,32 8.421053,30.491958 8.421053,28.631579 v -8.421053 c 0,-1.860379 1.508092,-3.368421 3.368421,-3.368421 1.860379,0 3.368421,1.508042 3.368421,3.368421 v 8.421053 C 15.157895,30.491958 13.649853,32 11.789474,32 Z M 8.421053,3.3684211 C 8.421053,1.5080926 9.929145,0 11.789474,0 c 1.860379,0 3.368421,1.5080926 3.368421,3.3684211 v 3.368421 h -3.368421 c -1.860329,0 -3.368421,-1.5080926 -3.368421,-3.368421 z M 0,20.210526 c 0,1.860379 1.5080926,3.368421 3.3684211,3.368421 1.8603284,0 3.368421,-1.508042 3.368421,-3.368421 V 16.842105 H 3.3684211 C 1.5080926,16.842105 0,18.350147 0,20.210526 Z m 23.578947,8.421053 C 23.578947,30.491958 22.070905,32 20.210526,32 18.350147,32 16.842105,30.491958 16.842105,28.631579 v -3.368421 h 3.368421 c 1.860379,0 3.368421,1.508042 3.368421,3.368421 z M 32,11.789474 c 0,-1.860329 -1.508042,-3.368421 -3.368421,-3.368421 -1.860379,0 -3.368421,1.508092 -3.368421,3.368421 v 3.368421 h 3.368421 C 30.491958,15.157895 32,13.649853 32,11.789474 Z"
     fill="#180027"
     fill-rule="evenodd"
     id="path2"
     style="stroke-width:1.68421" />
</svg>
