<?xml version="1.0" encoding="UTF-8" standalone="no"?>
<svg
   fill="none"
   height="32"
   viewBox="0 0 32 32"
   width="32"
   version="1.1"
   id="svg4"
   sodipodi:docname="face-alt-work.svg"
   inkscape:version="1.1.1 (3bf5ae0d25, 2021-09-20)"
   xmlns:inkscape="http://www.inkscape.org/namespaces/inkscape"
   xmlns:sodipodi="http://sodipodi.sourceforge.net/DTD/sodipodi-0.dtd"
   xmlns="http://www.w3.org/2000/svg"
   xmlns:svg="http://www.w3.org/2000/svg">
  <defs
     id="defs8" />
  <sodipodi:namedview
     id="namedview6"
     pagecolor="#ffffff"
     bordercolor="#666666"
     borderopacity="1.0"
     inkscape:pageshadow="2"
     inkscape:pageopacity="0.0"
     inkscape:pagecheckerboard="0"
     showgrid="false"
     inkscape:zoom="27.28125"
     inkscape:cx="15.981672"
     inkscape:cy="15.981672"
     inkscape:window-width="3840"
     inkscape:window-height="2080"
     inkscape:window-x="2293"
     inkscape:window-y="35"
     inkscape:window-maximized="1"
     inkscape:current-layer="svg4" />
  <path
     clip-rule="evenodd"
     d="m 24.888889,6.2222223 c 0,-2.9455111 -2.387733,-5.3333333 -5.333333,-5.3333333 h -7.111112 c -2.945511,0 -5.333333,2.3878222 -5.333333,5.3333333 H 5.3333333 C 2.3878222,6.2222223 0,8.610045 0,11.555556 v 14.222222 c 0,2.9456 2.3878222,5.333333 5.3333333,5.333333 H 26.666667 C 29.612267,31.111111 32,28.723378 32,25.777778 V 11.555556 C 32,8.610045 29.612267,6.2222223 26.666667,6.2222223 Z M 19.555556,4.4444446 h -7.111112 c -0.981831,0 -1.777777,0.7959466 -1.777777,1.7777777 h 10.666666 c 0,-0.9818311 -0.795911,-1.7777777 -1.777777,-1.7777777 z M 5.3333333,9.777778 H 26.666667 c 0.981866,0 1.777777,0.795947 1.777777,1.777778 v 14.222222 c 0,0.981867 -0.795911,1.777778 -1.777777,1.777778 H 5.3333333 c -0.9818311,0 -1.7777777,-0.795911 -1.7777777,-1.777778 V 11.555556 c 0,-0.981831 0.7959466,-1.777778 1.7777777,-1.777778 z"
     fill="#180027"
     fill-rule="evenodd"
     id="path2"
     style="stroke-width:1.77778" />
</svg>
