<?xml version="1.0" encoding="UTF-8" standalone="no"?>
<svg
   fill="none"
   height="32"
   viewBox="0 0 32 32"
   width="32"
   version="1.1"
   id="svg4"
   sodipodi:docname="face-copy.svg"
   inkscape:export-filename="face-copy.png"
   inkscape:export-xdpi="144"
   inkscape:export-ydpi="144"
   inkscape:version="1.1.1 (3bf5ae0d25, 2021-09-20)"
   xmlns:inkscape="http://www.inkscape.org/namespaces/inkscape"
   xmlns:sodipodi="http://sodipodi.sourceforge.net/DTD/sodipodi-0.dtd"
   xmlns="http://www.w3.org/2000/svg"
   xmlns:svg="http://www.w3.org/2000/svg">
  <defs
     id="defs8" />
  <sodipodi:namedview
     id="namedview6"
     pagecolor="#ffffff"
     bordercolor="#666666"
     borderopacity="1.0"
     inkscape:pageshadow="2"
     inkscape:pageopacity="0.0"
     inkscape:pagecheckerboard="0"
     showgrid="false"
     inkscape:zoom="25.75"
     inkscape:cx="15.980583"
     inkscape:cy="15.980583"
     inkscape:window-width="1920"
     inkscape:window-height="1013"
     inkscape:window-x="-9"
     inkscape:window-y="29"
     inkscape:window-maximized="1"
     inkscape:current-layer="svg4" />
  <path
     clip-rule="evenodd"
     d="m 12.8,3.2 c -0.883648,0 -1.6,0.716352 -1.6,1.6 v 16 c 0,0.88368 0.716352,1.6 1.6,1.6 h 12.8 c 0.88368,0 1.6,-0.71632 1.6,-1.6 v -6.4 c 0,-0.88368 -0.71632,-1.6 -1.6,-1.6 h -6.4 c -0.88368,0 -1.6,-0.716352 -1.6,-1.6 V 4.8 C 17.6,3.916352 16.88368,3.2 16,3.2 Z M 19.30112,0 c 1.42464,0 2.77552,0.632752 3.68752,1.72712 l 6.29888,7.55856 C 30.0064,10.148304 30.4,11.235664 30.4,12.35856 V 20.8 c 0,2.65104 -2.14896,4.8 -4.8,4.8 v 1.6 c 0,2.65104 -2.14896,4.8 -4.8,4.8 H 6.4 C 3.74904,32 1.6,29.85104 1.6,27.2 v -16 C 1.6,8.54904 3.74904,6.4 6.4,6.4 H 8 V 4.8 C 8,2.14904 10.14904,0 12.8,0 Z M 8,9.6 H 6.4 c -0.883648,0 -1.6,0.716352 -1.6,1.6 v 16 c 0,0.88368 0.716352,1.6 1.6,1.6 h 14.4 c 0.88368,0 1.6,-0.71632 1.6,-1.6 V 25.6 H 12.8 C 10.14904,25.6 8,23.45104 8,20.8 Z m 17.384,0 -4.6464,-5.575504 C 20.77872,4.276928 20.8,4.535984 20.8,4.8 v 4.8 z"
     fill="#180027"
     fill-rule="evenodd"
     id="path2"
     style="stroke-width:1.6" />
</svg>
