<?xml version="1.0" encoding="UTF-8" standalone="no"?>
<svg
   fill="none"
   height="32"
   viewBox="0 0 32 32"
   width="32"
   version="1.1"
   id="svg4"
   sodipodi:docname="face-my-prices.svg"
   inkscape:export-filename="face-my-prices.png"
   inkscape:export-xdpi="192"
   inkscape:export-ydpi="192"
   inkscape:version="1.1.1 (3bf5ae0d25, 2021-09-20)"
   xmlns:inkscape="http://www.inkscape.org/namespaces/inkscape"
   xmlns:sodipodi="http://sodipodi.sourceforge.net/DTD/sodipodi-0.dtd"
   xmlns="http://www.w3.org/2000/svg"
   xmlns:svg="http://www.w3.org/2000/svg">
  <defs
     id="defs8" />
  <sodipodi:namedview
     id="namedview6"
     pagecolor="#ffffff"
     bordercolor="#666666"
     borderopacity="1.0"
     inkscape:pageshadow="2"
     inkscape:pageopacity="0.0"
     inkscape:pagecheckerboard="0"
     showgrid="false"
     inkscape:zoom="11.065082"
     inkscape:cx="22.86472"
     inkscape:cy="25.485577"
     inkscape:window-width="3840"
     inkscape:window-height="2054"
     inkscape:window-x="2869"
     inkscape:window-y="-11"
     inkscape:window-maximized="1"
     inkscape:current-layer="svg4" />
  <path
     id="path1400"
     style="color:#000000;fill:#180027;fill-rule:evenodd;stroke-width:0.849763;-inkscape-stroke:none;fill-opacity:1"
     d="m 10.525391,5.4589809 c -1.3143352,0 -2.3417967,1.1793013 -2.3417968,2.5664062 V 14.87695 c 0,1.405825 0.4322157,2.537346 1.3710938,3.585937 h -0.00195 l 2.380859,2.664063 c -0.165181,-0.01521 -0.335856,-0.02987 -0.482422,0.06641 -0.383643,0.252147 -0.486711,0.743313 -0.279296,1.138672 l 4.392578,8.371094 C 15.98561,31.516103 16.775838,32 17.601566,32 c 0.405309,0 0.817444,-0.118118 1.185547,-0.355468 l 0.0098,-0.0059 0.880859,-0.638672 c 0.31925,-0.230627 0.317597,-0.633486 0.199219,-0.986328 l 1.060546,1.185547 v 0.002 c 0.435463,0.486555 1.038747,0.767579 1.673829,0.767578 0.635082,0 1.235167,-0.282734 1.669921,-0.769531 l 7.048829,-7.873047 C 31.765438,22.839723 32.000001,22.198238 32,21.52734 32,20.856442 31.765524,20.216489 31.330079,19.730465 l -7.914063,-8.830078 c 0.151636,0.03474 0.306631,0.07971 0.458984,0.01367 h 0.002 v -0.002 C 25.460338,10.214706 26.239814,9.672296 26.650437,9.1854944 26.855749,8.9420934 26.966305,8.7008352 27.002,8.4843225 27.03769,8.2678098 26.9938,8.083224 26.97661,8.0116662 26.868142,7.5582248 26.463781,7.2258976 25.972657,7.0976528 25.481532,6.969408 24.866699,6.9684549 24.064454,7.0468715 c -1.15527,0.1128746 -2.631497,0.4579734 -4.134766,0.8789063 0.131977,-0.3061402 0.235366,-0.6530264 0,-0.9160157 C 18.991223,5.9607273 17.944894,5.4589809 16.658204,5.4589809 Z m 0,1.7050781 h 6.132813 c 0.895893,0 1.397449,0.2393446 2.095703,1.0195312 0.03259,0.036416 0.08873,0.026142 0.126953,0.054688 -1.502319,0.4773872 -2.945929,1.0078776 -4.001953,1.5585942 -0.07236,0.0377 -0.09172,0.07229 -0.160157,0.109374 0.01308,-0.06034 0.06445,-0.105327 0.06445,-0.167968 0,-0.4417731 -0.340786,-0.8535159 -0.808594,-0.8535159 -1.525833,0 -2.724609,1.3706905 -2.72461,2.9941405 0,1.62345 1.198777,2.996093 2.72461,2.996093 1.525831,0 2.724609,-1.372643 2.724609,-2.996093 0,-0.335019 -0.120406,-0.639409 -0.21875,-0.949219 0.869008,-0.392917 1.929891,-0.82105 3.341797,-1.2441406 0.07483,-0.02241 0.147167,-0.04323 0.220703,-0.06445 L 30.154293,20.904296 c 0.143868,0.160464 0.228516,0.379263 0.228516,0.623047 0,0.244886 -0.08417,0.465676 -0.228516,0.626953 l -7.046875,7.873047 c -0.270597,0.30235 -0.723541,0.302351 -0.99414,0 L 10.728516,17.289059 C 10.029913,16.508885 9.798829,15.907419 9.798829,14.87695 V 8.0253871 c 0,-0.5021286 0.350084,-0.8613281 0.726562,-0.8613281 z m 13.714844,1.5800781 c 0.01836,-0.00173 0.01513,0.00159 0.0332,0 -0.344845,0.2138115 -0.329563,0.2898668 -1.019531,0.59375 C 22.88441,9.5009606 22.806312,9.91128 22.865232,10.285153 L 21.878907,9.1835902 C 22.773228,8.9863475 23.65657,8.7992624 24.240235,8.7441371 Z M 13.25,10.93359 c -0.277421,0.303138 -0.355013,0.674009 -0.349609,1.03711 -0.0025,-0.03581 -0.0332,-0.055 -0.0332,-0.0918 0,-0.393785 0.15565,-0.713593 0.382812,-0.945313 z m 1.78711,0.753906 c 0.0093,0.06656 0.04687,0.123348 0.04687,0.191407 0,0.04702 -0.03887,0.07179 -0.04297,0.117187 -0.03818,-0.08536 -0.06026,-0.160253 -0.123047,-0.228515 0.03975,-0.02792 0.07304,-0.04944 0.119141,-0.08008 z m -1.949219,0.806641 c 0.09741,0.129877 0.184484,0.26863 0.291016,0.365235 -0.118871,-0.09423 -0.209673,-0.208288 -0.291016,-0.365235 z m 0.708985,0.589844 c 0.09455,0.02386 0.166259,0.0443 0.240234,0.05469 -0.02341,0.0018 -0.03884,0.0293 -0.0625,0.0293 -0.06739,0 -0.112809,-0.0701 -0.177734,-0.08398 z M 20.875,13.611325 c -0.218403,0 -0.437082,0.08345 -0.58789,0.251953 l -4.59961,5.140625 c -0.301614,0.337005 -0.301616,0.83487 0,1.171875 l 6.132813,6.853515 c 0.150817,0.168534 0.368579,0.265625 0.587891,0.265625 0.219274,0 0.437082,-0.0971 0.58789,-0.265625 l 4.59961,-5.140625 c 0.301616,-0.337007 0.301613,-0.834867 0,-1.171875 L 21.462891,13.863278 C 21.312083,13.694774 21.093406,13.611325 20.875,13.611325 Z m 0,2.080078 5.021485,5.611328 -3.488281,3.896484 -5.021485,-5.609375 z m 0.382813,0.917969 c -0.218404,0 -0.437082,0.08345 -0.587891,0.251953 l -2.298828,2.570312 c -0.301614,0.337007 -0.301617,0.834869 0,1.171875 0.150808,0.168525 0.368616,0.267578 0.587891,0.267578 0.219311,0 0.435122,-0.09905 0.585937,-0.267578 L 21.845704,18.0332 c 0.301615,-0.337006 0.301613,-0.834869 0,-1.171875 -0.150808,-0.168504 -0.369487,-0.251953 -0.587891,-0.251953 z m 1.533203,1.71289 c -0.218404,0 -0.437082,0.08345 -0.58789,0.251953 l -2.298829,2.570313 c -0.301617,0.337006 -0.301615,0.834868 0,1.171875 0.150808,0.168495 0.368616,0.267578 0.587891,0.267578 0.219271,0 0.435107,-0.09903 0.585938,-0.267578 l 2.300781,-2.56836 c 0.301615,-0.337006 0.301615,-0.836821 0,-1.173828 -0.150809,-0.168504 -0.369486,-0.251953 -0.587891,-0.251953 z m 1.533203,1.712891 c -0.218404,0 -0.437083,0.08345 -0.58789,0.251953 L 21.4375,22.857418 c -0.301615,0.337008 -0.301612,0.834868 0,1.171875 0.15081,0.168503 0.368616,0.267579 0.587891,0.267579 0.219302,0 0.435117,-0.09906 0.585938,-0.267579 l 2.300781,-2.568359 c 0.301621,-0.337007 0.301618,-0.836821 0,-1.173828 -0.150808,-0.168502 -0.369487,-0.251953 -0.587891,-0.251953 z m -11.291015,2.322265 6.373046,7.128907 c -0.216863,-0.05526 -0.451955,-0.03135 -0.642578,0.107421 l -0.83789,0.607422 c -0.321357,0.205591 -0.727961,0.09999 -0.945313,-0.320312 v -0.002 z" />
  <path
     id="path1031"
     style="color:#000000;fill:#180027;stroke-width:0.764039;stroke-linecap:round;stroke-linejoin:round;-inkscape-stroke:none"
     d="M 3.9511719 0 C 1.7742998 0.00087130752 0.00087133192 1.7742998 0 3.9511719 C 0.00315487 5.461014 0.91951237 6.7666312 2.2578125 7.4257812 L 2.2578125 30.306641 C 2.2578125 31.237725 3.0200858 32 3.9511719 32 C 4.882258 32 5.6425781 31.237726 5.6425781 30.306641 L 5.6425781 7.4257812 C 6.9817022 6.7671785 7.8988613 5.461527 7.9023438 3.9511719 C 7.9014719 1.7734633 6.1288806 -0.00031987951 3.9511719 0 z " />
</svg>
