<?xml version="1.0" encoding="UTF-8" standalone="no"?>
<svg
   fill="none"
   height="32"
   viewBox="0 0 32 32"
   width="32"
   version="1.1"
   id="svg4"
   sodipodi:docname="face-person.svg"
   inkscape:export-filename="face-person.png"
   inkscape:export-xdpi="144"
   inkscape:export-ydpi="144"
   inkscape:version="1.1.1 (3bf5ae0d25, 2021-09-20)"
   xmlns:inkscape="http://www.inkscape.org/namespaces/inkscape"
   xmlns:sodipodi="http://sodipodi.sourceforge.net/DTD/sodipodi-0.dtd"
   xmlns="http://www.w3.org/2000/svg"
   xmlns:svg="http://www.w3.org/2000/svg">
  <defs
     id="defs8" />
  <sodipodi:namedview
     id="namedview6"
     pagecolor="#ffffff"
     bordercolor="#666666"
     borderopacity="1.0"
     inkscape:pageshadow="2"
     inkscape:pageopacity="0.0"
     inkscape:pagecheckerboard="0"
     showgrid="false"
     inkscape:zoom="25.75"
     inkscape:cx="15.980583"
     inkscape:cy="19.087379"
     inkscape:window-width="1920"
     inkscape:window-height="1013"
     inkscape:window-x="-9"
     inkscape:window-y="29"
     inkscape:window-maximized="1"
     inkscape:current-layer="svg4" />
  <path
     clip-rule="evenodd"
     d="m 16,3.2 c -3.534624,0 -6.4,2.865376 -6.4,6.4 0,3.53456 2.865376,6.4 6.4,6.4 3.53456,0 6.4,-2.86544 6.4,-6.4 0,-3.534624 -2.86544,-6.4 -6.4,-6.4 z m 5.69136,14.13184 C 24.06208,15.58368 25.6,12.771472 25.6,9.6 25.6,4.298064 21.30192,0 16,0 10.698064,0 6.4,4.298064 6.4,9.6 c 0,3.171472 1.537888,5.98368 3.908608,7.73184 C 6.095296,19.42672 3.2,23.7752 3.2,28.8 v 1.6 c 0,0.88368 0.716352,1.6 1.6,1.6 h 22.4 c 0.88368,0 1.6,-0.71632 1.6,-1.6 v -1.6 c 0,-5.0248 -2.89536,-9.37328 -7.10864,-11.46816 z M 16,19.2 c -5.301936,0 -9.6,4.29808 -9.6,9.6 h 19.2 c 0,-5.30192 -4.29808,-9.6 -9.6,-9.6 z"
     fill="#180027"
     fill-rule="evenodd"
     id="path2"
     style="stroke-width:1.6" />
</svg>
