<?xml version="1.0" encoding="UTF-8" standalone="no"?>
<svg
   fill="none"
   height="32"
   viewBox="0 0 32 32"
   width="32"
   version="1.1"
   id="svg6"
   sodipodi:docname="face-heat-home-smart.svg"
   inkscape:version="1.1.1 (3bf5ae0d25, 2021-09-20)"
   xmlns:inkscape="http://www.inkscape.org/namespaces/inkscape"
   xmlns:sodipodi="http://sodipodi.sourceforge.net/DTD/sodipodi-0.dtd"
   xmlns="http://www.w3.org/2000/svg"
   xmlns:svg="http://www.w3.org/2000/svg">
  <defs
     id="defs10" />
  <sodipodi:namedview
     id="namedview8"
     pagecolor="#ffffff"
     bordercolor="#666666"
     borderopacity="1.0"
     inkscape:pageshadow="2"
     inkscape:pageopacity="0.0"
     inkscape:pagecheckerboard="0"
     showgrid="false"
     inkscape:zoom="27.28125"
     inkscape:cx="15.981672"
     inkscape:cy="15.981672"
     inkscape:window-width="3840"
     inkscape:window-height="2080"
     inkscape:window-x="2293"
     inkscape:window-y="35"
     inkscape:window-maximized="1"
     inkscape:current-layer="svg6" />
  <g
     id="g829"
     transform="scale(1.3333333)">
    <path
       d="M 17,11 H 7 c -0.55228,0 -1,0.4477 -1,1 0,0.5523 0.44772,1 1,1 h 3 v 2 H 7 C 5.34315,15 4,13.6569 4,12 4,10.3431 5.34315,9 7,9 h 10 c 1.6569,0 3,1.3431 3,3 0,1.6569 -1.3431,3 -3,3 h -3 v -2 h 3 c 0.5523,0 1,-0.4477 1,-1 0,-0.5523 -0.4477,-1 -1,-1 z"
       fill="#180027"
       id="path2" />
    <path
       clip-rule="evenodd"
       d="M 0,12 C 0,8.13401 3.13401,5 7,5 h 10 c 3.866,0 7,3.13401 7,7 0,3.866 -3.134,7 -7,7 H 7 C 3.13401,19 0,15.866 0,12 Z M 7,7 h 10 c 2.7614,0 5,2.23858 5,5 0,2.7614 -2.2386,5 -5,5 H 7 C 4.23858,17 2,14.7614 2,12 2,9.23858 4.23858,7 7,7 Z"
       fill="#180027"
       fill-rule="evenodd"
       id="path4" />
  </g>
</svg>
