<?xml version="1.0" encoding="UTF-8" standalone="no"?>
<svg
   fill="none"
   height="32"
   viewBox="0 0 32 32"
   width="32"
   version="1.1"
   id="svg4"
   sodipodi:docname="face-grid-view.svg"
   inkscape:version="1.1.1 (3bf5ae0d25, 2021-09-20)"
   xmlns:inkscape="http://www.inkscape.org/namespaces/inkscape"
   xmlns:sodipodi="http://sodipodi.sourceforge.net/DTD/sodipodi-0.dtd"
   xmlns="http://www.w3.org/2000/svg"
   xmlns:svg="http://www.w3.org/2000/svg">
  <defs
     id="defs8" />
  <sodipodi:namedview
     id="namedview6"
     pagecolor="#ffffff"
     bordercolor="#666666"
     borderopacity="1.0"
     inkscape:pageshadow="2"
     inkscape:pageopacity="0.0"
     inkscape:pagecheckerboard="0"
     showgrid="false"
     inkscape:zoom="27.28125"
     inkscape:cx="15.981672"
     inkscape:cy="15.981672"
     inkscape:window-width="3840"
     inkscape:window-height="2080"
     inkscape:window-x="2293"
     inkscape:window-y="35"
     inkscape:window-maximized="1"
     inkscape:current-layer="svg4" />
  <path
     clip-rule="evenodd"
     d="M 4.8,4.8 C 2.14904,4.8 0,6.94904 0,9.6 v 12.8 c 0,2.65104 2.14904,4.8 4.8,4.8 h 22.4 c 2.65104,0 4.8,-2.14896 4.8,-4.8 V 9.6 C 32,6.94904 29.85104,4.8 27.2,4.8 Z M 9.6,8 H 4.8 C 3.916352,8 3.2,8.716352 3.2,9.6 v 1.6 h 6.4 z m 3.2,0 v 3.2 h 6.4 V 8 Z m 9.6,0 v 3.2 h 6.4 V 9.6 C 28.8,8.716336 28.08368,8 27.2,8 Z m -3.2,6.4 h -6.4 v 3.2 h 6.4 z m 3.2,3.2 v -3.2 h 6.4 v 3.2 z m -3.2,3.2 H 12.8 V 24 h 6.4 z m 3.2,3.2 v -3.2 h 6.4 v 1.6 c 0,0.88368 -0.71632,1.6 -1.6,1.6 z M 9.6,24 V 20.8 H 3.2 v 1.6 c 0,0.88368 0.716352,1.6 1.6,1.6 z m 0,-6.4 V 14.4 H 3.2 v 3.2 z"
     fill="#180027"
     fill-rule="evenodd"
     id="path2"
     style="stroke-width:1.6" />
</svg>
