<?xml version="1.0" encoding="UTF-8" standalone="no"?>
<svg
   height="32px"
   id="Layer_1"
   style="enable-background:new 0 0 32 32;"
   version="1.1"
   viewBox="0 0 32 32"
   width="32px"
   xml:space="preserve"
   sodipodi:docname="face-menu-lines.svg"
   inkscape:version="1.1.2 (b8e25be833, 2022-02-05)"
   inkscape:export-filename="face-menu-lines.png"
   inkscape:export-xdpi="192"
   inkscape:export-ydpi="192"
   xmlns:inkscape="http://www.inkscape.org/namespaces/inkscape"
   xmlns:sodipodi="http://sodipodi.sourceforge.net/DTD/sodipodi-0.dtd"
   xmlns="http://www.w3.org/2000/svg"
   xmlns:svg="http://www.w3.org/2000/svg"><defs
     id="defs7" /><sodipodi:namedview
     id="namedview5"
     pagecolor="#ffffff"
     bordercolor="#666666"
     borderopacity="1.0"
     inkscape:pageshadow="2"
     inkscape:pageopacity="0.0"
     inkscape:pagecheckerboard="0"
     showgrid="false"
     inkscape:zoom="13.140625"
     inkscape:cx="5.8596908"
     inkscape:cy="12.93698"
     inkscape:window-width="1920"
     inkscape:window-height="1027"
     inkscape:window-x="-8"
     inkscape:window-y="22"
     inkscape:window-maximized="1"
     inkscape:current-layer="Layer_1" /><path
     d="M 2.2857143,9.1428575 H 29.714286 C 30.976,9.1428575 32,8.1188571 32,6.8571428 32,5.5954285 30.976,4.5714285 29.714286,4.5714285 H 2.2857143 C 1.024,4.5714285 0,5.5954285 0,6.8571428 0,8.1188571 1.024,9.1428575 2.2857143,9.1428575 Z M 29.714286,13.714286 H 2.2857143 C 1.024,13.714286 0,14.738286 0,16 c 0,1.261715 1.024,2.285715 2.2857143,2.285715 H 29.714286 C 30.976,18.285715 32,17.261715 32,16 32,14.738286 30.976,13.714286 29.714286,13.714286 Z m 0,9.142857 H 2.2857143 C 1.024,22.857143 0,23.881143 0,25.142858 c 0,1.261714 1.024,2.285713 2.2857143,2.285713 H 29.714286 C 30.976,27.428572 32,26.404572 32,25.142858 32,23.881143 30.976,22.857143 29.714286,22.857143 Z"
     id="path2"
     style="fill:#180027;fill-opacity:1;stroke-width:1.14286" /></svg>
