<?xml version="1.0" encoding="UTF-8" standalone="no"?>
<svg
   fill="none"
   height="32"
   viewBox="0 0 32 32"
   width="32"
   version="1.1"
   id="svg12"
   sodipodi:docname="face-twilio.svg"
   inkscape:version="1.1.1 (3bf5ae0d25, 2021-09-20)"
   xmlns:inkscape="http://www.inkscape.org/namespaces/inkscape"
   xmlns:sodipodi="http://sodipodi.sourceforge.net/DTD/sodipodi-0.dtd"
   xmlns="http://www.w3.org/2000/svg"
   xmlns:svg="http://www.w3.org/2000/svg">
  <defs
     id="defs16" />
  <sodipodi:namedview
     id="namedview14"
     pagecolor="#ffffff"
     bordercolor="#666666"
     borderopacity="1.0"
     inkscape:pageshadow="2"
     inkscape:pageopacity="0.0"
     inkscape:pagecheckerboard="0"
     showgrid="false"
     inkscape:zoom="27.28125"
     inkscape:cx="15.981672"
     inkscape:cy="13.965636"
     inkscape:window-width="3840"
     inkscape:window-height="2080"
     inkscape:window-x="2293"
     inkscape:window-y="35"
     inkscape:window-maximized="1"
     inkscape:current-layer="svg12" />
  <g
     id="g838"
     transform="matrix(1.3388889,0,0,1.3333333,-0.0666668,4e-7)">
    <path
       d="m 11,9 c 0,1.1046 -0.8954,2 -2,2 C 7.89543,11 7,10.1046 7,9 7,7.89543 7.89543,7 9,7 c 1.1046,0 2,0.89543 2,2 z"
       fill="#180027"
       id="path2" />
    <path
       d="m 17,9 c 0,1.1046 -0.8954,2 -2,2 -1.1046,0 -2,-0.8954 -2,-2 0,-1.10457 0.8954,-2 2,-2 1.1046,0 2,0.89543 2,2 z"
       fill="#180027"
       id="path4" />
    <path
       d="m 15,17 c 1.1046,0 2,-0.8954 2,-2 0,-1.1046 -0.8954,-2 -2,-2 -1.1046,0 -2,0.8954 -2,2 0,1.1046 0.8954,2 2,2 z"
       fill="#180027"
       id="path6" />
    <path
       d="m 11,15 c 0,1.1046 -0.8954,2 -2,2 -1.10457,0 -2,-0.8954 -2,-2 0,-1.1046 0.89543,-2 2,-2 1.1046,0 2,0.8954 2,2 z"
       fill="#180027"
       id="path8" />
    <path
       clip-rule="evenodd"
       d="M 24,12 C 24,18.6274 18.6274,24 12,24 5.37258,24 0,18.6274 0,12 0,5.37258 5.37258,0 12,0 18.6274,0 24,5.37258 24,12 Z m -3,0 c 0,4.9706 -4.0294,9 -9,9 -4.97056,0 -9,-4.0294 -9,-9 0,-4.97056 4.02944,-9 9,-9 4.9706,0 9,4.02944 9,9 z"
       fill="#180027"
       fill-rule="evenodd"
       id="path10" />
  </g>
</svg>
