<?xml version="1.0" encoding="UTF-8" standalone="no"?>
<svg
   fill="none"
   height="32"
   viewBox="0 0 32 32"
   width="32"
   version="1.1"
   id="svg4"
   sodipodi:docname="face-trash.svg"
   inkscape:export-filename="C:\Code\qinpel-app\design\face-trash.png"
   inkscape:export-xdpi="144"
   inkscape:export-ydpi="144"
   inkscape:version="1.1.1 (3bf5ae0d25, 2021-09-20)"
   xmlns:inkscape="http://www.inkscape.org/namespaces/inkscape"
   xmlns:sodipodi="http://sodipodi.sourceforge.net/DTD/sodipodi-0.dtd"
   xmlns="http://www.w3.org/2000/svg"
   xmlns:svg="http://www.w3.org/2000/svg">
  <defs
     id="defs8" />
  <sodipodi:namedview
     id="namedview6"
     pagecolor="#ffffff"
     bordercolor="#666666"
     borderopacity="1.0"
     inkscape:pageshadow="2"
     inkscape:pageopacity="0.0"
     inkscape:pagecheckerboard="0"
     showgrid="false"
     inkscape:zoom="25.75"
     inkscape:cx="15.980583"
     inkscape:cy="15.980583"
     inkscape:window-width="1920"
     inkscape:window-height="1013"
     inkscape:window-x="-9"
     inkscape:window-y="29"
     inkscape:window-maximized="1"
     inkscape:current-layer="svg4" />
  <path
     clip-rule="evenodd"
     d="M 12.8,1.6 C 12.8,0.716352 13.51632,0 14.4,0 h 3.2 c 0.88368,0 1.6,0.716352 1.6,1.6 0,0.883664 -0.71632,1.6 -1.6,1.6 H 14.4 C 13.51632,3.2 12.8,2.483648 12.8,1.6 Z M 3.197264,4.8 c 9.12e-4,0 0.00182,0 0.00274,0 h 25.71024 l -3.2e-4,0.00373 C 29.7424,4.860224 30.4,5.553312 30.4,6.4 30.4,7.283648 29.68368,8 28.8,8 H 28.69696 L 27.39552,27.51936 C 27.22752,30.04064 25.13328,32 22.60624,32 H 9.393776 C 6.866736,32 4.772496,30.04064 4.6044,27.51936 L 3.30312,8 H 3.2 C 2.316352,8 1.6,7.283648 1.6,6.4 1.6,5.553312 2.257664,4.860224 3.090032,4.803712 L 3.089776,4.8 Z M 6.510224,8 7.797312,27.3064 C 7.853344,28.14688 8.551424,28.8 9.393776,28.8 H 22.60624 c 0.8424,0 1.54048,-0.65312 1.59648,-1.4936 L 25.48976,8 Z M 16,16 c 0.88368,0 1.6,0.71632 1.6,1.6 V 24 c 0,0.88368 -0.71632,1.6 -1.6,1.6 -0.88368,0 -1.6,-0.71632 -1.6,-1.6 V 17.6 C 14.4,16.71632 15.11632,16 16,16 Z m -4.8,3.2 c 0.883648,0 1.6,0.71632 1.6,1.6 V 24 c 0,0.88368 -0.716352,1.6 -1.6,1.6 -0.883648,0 -1.6,-0.71632 -1.6,-1.6 v -3.2 c 0,-0.88368 0.716352,-1.6 1.6,-1.6 z m 9.6,0 c 0.88368,0 1.6,0.71632 1.6,1.6 V 24 c 0,0.88368 -0.71632,1.6 -1.6,1.6 -0.88368,0 -1.6,-0.71632 -1.6,-1.6 v -3.2 c 0,-0.88368 0.71632,-1.6 1.6,-1.6 z"
     fill="#180027"
     fill-rule="evenodd"
     id="path2"
     style="stroke-width:1.6" />
</svg>
