<?xml version="1.0" encoding="UTF-8" standalone="no"?>
<svg
   fill="none"
   height="32"
   viewBox="0 0 32 32"
   width="32"
   version="1.1"
   id="svg4"
   sodipodi:docname="face-calendar.svg"
   inkscape:export-filename="C:\Code\qinpel-app\design\face-calendar.png"
   inkscape:export-xdpi="144"
   inkscape:export-ydpi="144"
   inkscape:version="1.1.1 (3bf5ae0d25, 2021-09-20)"
   xmlns:inkscape="http://www.inkscape.org/namespaces/inkscape"
   xmlns:sodipodi="http://sodipodi.sourceforge.net/DTD/sodipodi-0.dtd"
   xmlns="http://www.w3.org/2000/svg"
   xmlns:svg="http://www.w3.org/2000/svg">
  <defs
     id="defs8" />
  <sodipodi:namedview
     id="namedview6"
     pagecolor="#ffffff"
     bordercolor="#666666"
     borderopacity="1.0"
     inkscape:pageshadow="2"
     inkscape:pageopacity="0.0"
     inkscape:pagecheckerboard="0"
     showgrid="false"
     inkscape:zoom="25.75"
     inkscape:cx="15.980583"
     inkscape:cy="15.980583"
     inkscape:window-width="1920"
     inkscape:window-height="1013"
     inkscape:window-x="-9"
     inkscape:window-y="29"
     inkscape:window-maximized="1"
     inkscape:current-layer="svg4" />
  <path
     clip-rule="evenodd"
     d="M 7.5789476,0 C 8.5091035,0 9.2631585,0.7540547 9.2631585,1.6842105 H 22.736842 C 22.736842,0.7540547 23.490863,0 24.421052,0 c 0.93019,0 1.684211,0.7540547 1.684211,1.6842105 2.790568,0 5.052631,2.2621474 5.052631,5.0526316 V 26.947368 C 31.157894,29.737937 28.895831,32 26.105263,32 H 5.8947371 C 3.1042529,32 0.8421055,29.737937 0.8421055,26.947368 V 6.7368421 c 0,-2.7904842 2.2621474,-5.0526316 5.0526316,-5.0526316 C 5.8947371,0.7540547 6.6487918,0 7.5789476,0 Z M 5.8947371,5.0526316 c -0.9301558,0 -1.6842105,0.7540547 -1.6842105,1.6842105 V 10.105263 H 27.789473 V 6.7368421 c 0,-0.9301558 -0.754021,-1.6842105 -1.68421,-1.6842105 0,0.9301558 -0.754021,1.6842105 -1.684211,1.6842105 -0.930189,0 -1.68421,-0.7540547 -1.68421,-1.6842105 H 9.2631585 c 0,0.9301558 -0.754055,1.6842105 -1.6842109,1.6842105 -0.9301558,0 -1.6842105,-0.7540547 -1.6842105,-1.6842105 z M 27.789473,13.473684 H 4.2105266 v 13.473684 c 0,0.93019 0.7540547,1.684211 1.6842105,1.684211 H 26.105263 c 0.930189,0 1.68421,-0.754021 1.68421,-1.684211 z"
     fill="#180027"
     fill-rule="evenodd"
     id="path2"
     style="stroke-width:1.68421" />
</svg>
