<?xml version="1.0" encoding="UTF-8" standalone="no"?>
<svg
   fill="none"
   height="32"
   viewBox="0 0 32 32"
   width="32"
   version="1.1"
   id="svg4"
   sodipodi:docname="face-bag.svg"
   inkscape:export-filename="face-bag.png"
   inkscape:export-xdpi="144"
   inkscape:export-ydpi="144"
   inkscape:version="1.1.1 (3bf5ae0d25, 2021-09-20)"
   xmlns:inkscape="http://www.inkscape.org/namespaces/inkscape"
   xmlns:sodipodi="http://sodipodi.sourceforge.net/DTD/sodipodi-0.dtd"
   xmlns="http://www.w3.org/2000/svg"
   xmlns:svg="http://www.w3.org/2000/svg">
  <defs
     id="defs8" />
  <sodipodi:namedview
     id="namedview6"
     pagecolor="#ffffff"
     bordercolor="#666666"
     borderopacity="1.0"
     inkscape:pageshadow="2"
     inkscape:pageopacity="0.0"
     inkscape:pagecheckerboard="0"
     showgrid="false"
     inkscape:zoom="25.75"
     inkscape:cx="15.980583"
     inkscape:cy="22.194175"
     inkscape:window-width="1920"
     inkscape:window-height="1013"
     inkscape:window-x="-9"
     inkscape:window-y="29"
     inkscape:window-maximized="1"
     inkscape:current-layer="svg4" />
  <path
     clip-rule="evenodd"
     d="m 15.999989,3.2 c -1.76736,0 -3.2,1.432688 -3.2,3.2 V 8 h 6.4 V 6.4 c 0,-1.767312 -1.43264,-3.2 -3.2,-3.2 z m 6.4,4.8 V 6.4 c 0,-3.534624 -2.86544,-6.4 -6.4,-6.4 C 12.465365,0 9.5999891,2.865376 9.5999891,6.4 V 8 H 6.3999893 C 5.6102773,8 4.9386773,8.576176 4.8185973,9.356704 L 2.1857653,26.47008 C 1.7384373,29.37776 3.9881013,32 6.9299573,32 H 25.070069 c 2.94176,0 5.19152,-2.62224 4.74416,-5.52992 L 27.181429,9.356704 C 27.061269,8.576176 26.389749,8 25.599989,8 Z m -3.2,3.2 v 3.2 c 0,0.88368 0.71632,1.6 1.6,1.6 0.88368,0 1.6,-0.71632 1.6,-1.6 v -3.2 h 1.82736 l 2.42416,15.75664 C 26.800469,27.92592 26.050709,28.8 25.070069,28.8 H 6.9299573 c -0.980624,0 -1.730512,-0.87408 -1.581408,-1.84336 L 7.7726613,11.2 h 1.8273278 v 3.2 c 0,0.88368 0.7163519,1.6 1.5999999,1.6 0.883664,0 1.6,-0.71632 1.6,-1.6 v -3.2 z"
     fill="#180027"
     fill-rule="evenodd"
     id="path2"
     style="stroke-width:1.6" />
</svg>
