<?xml version="1.0" encoding="UTF-8" standalone="no"?>
<svg
   fill="none"
   height="32"
   viewBox="0 0 32 32"
   width="32"
   version="1.1"
   id="svg4"
   sodipodi:docname="face-plug.svg"
   inkscape:version="1.1.1 (3bf5ae0d25, 2021-09-20)"
   xmlns:inkscape="http://www.inkscape.org/namespaces/inkscape"
   xmlns:sodipodi="http://sodipodi.sourceforge.net/DTD/sodipodi-0.dtd"
   xmlns="http://www.w3.org/2000/svg"
   xmlns:svg="http://www.w3.org/2000/svg">
  <defs
     id="defs8" />
  <sodipodi:namedview
     id="namedview6"
     pagecolor="#ffffff"
     bordercolor="#666666"
     borderopacity="1.0"
     inkscape:pageshadow="2"
     inkscape:pageopacity="0.0"
     inkscape:pagecheckerboard="0"
     showgrid="false"
     inkscape:zoom="27.28125"
     inkscape:cx="15.981672"
     inkscape:cy="15.981672"
     inkscape:window-width="3840"
     inkscape:window-height="2080"
     inkscape:window-x="2293"
     inkscape:window-y="35"
     inkscape:window-maximized="1"
     inkscape:current-layer="svg4" />
  <g
     id="g826"
     transform="matrix(1.5238095,0,0,1.5238095,-2.285714,-3.0476188)">
    <path
       clip-rule="evenodd"
       d="M 9,2 C 8.44771,2 8,2.44772 8,3 V 5 C 8,5.55228 8.44771,6 9,6 9.55229,6 10,5.55228 10,5 V 3 C 10,2.44772 9.55229,2 9,2 Z M 8,9 h 8 v 2 c 0,2.2091 -1.7909,4 -4,4 -2.20914,0 -4,-1.7909 -4,-4 z m 5,7.917 C 15.8377,16.441 18,13.973 18,11 V 7 H 6 v 4 c 0,2.973 2.16229,5.441 5,5.917 V 22 c 0,0.5523 0.4477,1 1,1 0.5523,0 1,-0.4477 1,-1 z M 14,3 c 0,-0.55228 0.4477,-1 1,-1 0.5523,0 1,0.44772 1,1 V 5 C 16,5.55228 15.5523,6 15,6 14.4477,6 14,5.55228 14,5 Z"
       fill="#180027"
       fill-rule="evenodd"
       id="path2" />
  </g>
</svg>
