<?xml version="1.0" encoding="UTF-8" standalone="no"?>
<svg
   fill="none"
   height="32"
   viewBox="0 0 32 32"
   width="32"
   version="1.1"
   id="svg8"
   sodipodi:docname="face-trello.svg"
   inkscape:version="1.1.1 (3bf5ae0d25, 2021-09-20)"
   xmlns:inkscape="http://www.inkscape.org/namespaces/inkscape"
   xmlns:sodipodi="http://sodipodi.sourceforge.net/DTD/sodipodi-0.dtd"
   xmlns="http://www.w3.org/2000/svg"
   xmlns:svg="http://www.w3.org/2000/svg">
  <defs
     id="defs12" />
  <sodipodi:namedview
     id="namedview10"
     pagecolor="#ffffff"
     bordercolor="#666666"
     borderopacity="1.0"
     inkscape:pageshadow="2"
     inkscape:pageopacity="0.0"
     inkscape:pagecheckerboard="0"
     showgrid="false"
     inkscape:zoom="27.28125"
     inkscape:cx="15.981672"
     inkscape:cy="15.981672"
     inkscape:window-width="3840"
     inkscape:window-height="2080"
     inkscape:window-x="2293"
     inkscape:window-y="35"
     inkscape:window-maximized="1"
     inkscape:current-layer="svg8" />
  <g
     id="g832"
     transform="matrix(1.6,0,0,1.6,-3.2,-3.2)">
    <path
       d="M 6,7 C 6,6.44771 6.44772,6 7,6 h 3 c 0.5523,0 1,0.44772 1,1 v 10 c 0,0.5523 -0.4477,1 -1,1 H 7 C 6.44772,18 6,17.5523 6,17 Z"
       fill="#180027"
       id="path2" />
    <path
       d="m 13,7 c 0,-0.55228 0.4477,-1 1,-1 h 3 c 0.5523,0 1,0.44772 1,1 v 6 c 0,0.5523 -0.4477,1 -1,1 h -3 c -0.5523,0 -1,-0.4477 -1,-1 z"
       fill="#180027"
       id="path4" />
    <path
       clip-rule="evenodd"
       d="M 2,4 C 2,2.89543 2.89543,2 4,2 h 16 c 1.1046,0 2,0.89543 2,2 v 16 c 0,1.1046 -0.8954,2 -2,2 H 4 C 2.89543,22 2,21.1046 2,20 Z M 4,4 H 20 V 20 H 4 Z"
       fill="#180027"
       fill-rule="evenodd"
       id="path6" />
  </g>
</svg>
