<?xml version="1.0" encoding="UTF-8" standalone="no"?>
<svg
   fill="none"
   height="32"
   viewBox="0 0 32 32"
   width="32"
   version="1.1"
   id="svg4"
   sodipodi:docname="face-heart.svg"
   inkscape:export-filename="face-heart.png"
   inkscape:export-xdpi="144"
   inkscape:export-ydpi="144"
   inkscape:version="1.1.1 (3bf5ae0d25, 2021-09-20)"
   xmlns:inkscape="http://www.inkscape.org/namespaces/inkscape"
   xmlns:sodipodi="http://sodipodi.sourceforge.net/DTD/sodipodi-0.dtd"
   xmlns="http://www.w3.org/2000/svg"
   xmlns:svg="http://www.w3.org/2000/svg">
  <defs
     id="defs8" />
  <sodipodi:namedview
     id="namedview6"
     pagecolor="#ffffff"
     bordercolor="#666666"
     borderopacity="1.0"
     inkscape:pageshadow="2"
     inkscape:pageopacity="0.0"
     inkscape:pagecheckerboard="0"
     showgrid="false"
     inkscape:zoom="25.75"
     inkscape:cx="15.980583"
     inkscape:cy="12.873786"
     inkscape:window-width="1920"
     inkscape:window-height="1013"
     inkscape:window-x="-9"
     inkscape:window-y="29"
     inkscape:window-maximized="1"
     inkscape:current-layer="svg4" />
  <path
     clip-rule="evenodd"
     d="M 15.999724,29.333563 C 11.090431,29.333563 0,20.444521 0,11.555479 0,6.6462033 3.9797485,2.666437 8.889042,2.666437 c 1.619175,0 3.137245,0.4329319 4.444681,1.189336 1.040551,0.6019126 1.947589,1.4086287 2.666357,2.3650541 C 16.71867,5.2644017 17.625708,4.4576678 18.666259,3.855773 19.97366,3.0993689 21.49173,2.666437 23.110958,2.666437 28.020198,2.666437 32,6.6462033 32,11.555479 32,20.444521 20.908965,29.333563 15.999724,29.333563 Z M 16.00008,9.776444 c -1.118064,0 -2.17106,-0.525876 -2.842716,-1.4197046 -0.979039,-1.3030268 -2.526052,-2.1346856 -4.268322,-2.1346856 -2.9455796,0 -5.3334252,2.3878633 -5.3334252,5.3334252 0,3.058364 2.0020256,6.641359 5.0975992,9.688522 1.488932,1.465626 3.085937,2.657646 4.517304,3.462104 1.531227,0.86046 2.50511,1.071841 2.829204,1.071841 0.324095,0 1.297978,-0.211381 2.829205,-1.071841 1.431491,-0.804458 3.028674,-1.996478 4.517589,-3.462104 3.095697,-3.047341 5.097865,-6.630158 5.097865,-9.688522 0,-2.9455619 -2.387774,-5.3334252 -5.333425,-5.3334252 -1.742252,0 -3.289301,0.8316588 -4.26834,2.1346856 C 18.170962,9.250568 17.117966,9.776444 16.00008,9.776444 Z"
     fill="#180027"
     fill-rule="evenodd"
     id="path2"
     style="stroke-width:1.77781" />
</svg>
