<?xml version="1.0" encoding="UTF-8" standalone="no"?>
<!-- Created with Inkscape (http://www.inkscape.org/) -->

<svg
   width="48"
   height="48"
   viewBox="0 0 12.7 12.700001"
   version="1.1"
   id="svg5"
   inkscape:export-filename="jobber-status-info.png"
   inkscape:export-xdpi="96"
   inkscape:export-ydpi="96"
   inkscape:version="1.1.1 (3bf5ae0d25, 2021-09-20)"
   sodipodi:docname="jobber-status-info.svg"
   xmlns:inkscape="http://www.inkscape.org/namespaces/inkscape"
   xmlns:sodipodi="http://sodipodi.sourceforge.net/DTD/sodipodi-0.dtd"
   xmlns="http://www.w3.org/2000/svg"
   xmlns:svg="http://www.w3.org/2000/svg">
  <sodipodi:namedview
     id="namedview7"
     pagecolor="#ffffff"
     bordercolor="#666666"
     borderopacity="1.0"
     inkscape:pageshadow="2"
     inkscape:pageopacity="0.0"
     inkscape:pagecheckerboard="0"
     inkscape:document-units="mm"
     showgrid="false"
     units="px"
     inkscape:zoom="15.651904"
     inkscape:cx="4.7917493"
     inkscape:cy="15.269708"
     inkscape:window-width="3840"
     inkscape:window-height="2080"
     inkscape:window-x="2869"
     inkscape:window-y="35"
     inkscape:window-maximized="1"
     inkscape:current-layer="layer1"
     height="20px" />
  <defs
     id="defs2" />
  <g
     inkscape:label="Layer 1"
     inkscape:groupmode="layer"
     id="layer1">
    <g
       transform="matrix(0.635,0,0,0.60476192,-1.27,-623.14668)"
       id="g850">
      <path
         d="M 22,12 A 10,10 0 1 1 2,12 10,10 0 1 1 22,12 Z"
         fill="#2980b9"
         transform="translate(0,1029.4)"
         id="path842" />
      <path
         d="M 22,12 A 10,10 0 1 1 2,12 10,10 0 1 1 22,12 Z"
         fill="#3498db"
         transform="translate(0,1028.4)"
         id="path844" />
      <path
         d="m 11,1035.4 v 2 h 2 v -2 z m -1,4 -1,1 h 2 v 6 H 9 v 1 h 1 4 1 v -1 h -2 v -7 z"
         fill="#2980b9"
         id="path846" />
      <path
         d="m 11,6 v 2 h 2 V 6 Z m -1,4 -1,1 h 2 v 6 H 9 v 1 h 1 4 1 v -1 h -2 v -7 z"
         fill="#ecf0f1"
         transform="translate(0,1028.4)"
         id="path848" />
    </g>
  </g>
</svg>
